<svg width="650" height="250" viewBox="0 0 650 250" fill="none" xmlns="http://www.w3.org/2000/svg">
<rect width="650" height="250" fill="#E23237"/>
<rect width="250" height="250" fill="#B52E31"/>
<path d="M314.86 81H331.25L343.79 158H331.69L329.49 142.71V142.93H315.74L313.54 158H302.32L314.86 81ZM328.06 132.48L322.67 94.42H322.45L317.17 132.48H328.06ZM349.66 81H364.84L376.61 127.09H376.83V81H387.61V158H375.18L360.66 101.79H360.44V158H349.66V81ZM413.764 159.1C407.897 159.1 403.424 157.45 400.344 154.15C397.264 150.777 395.724 145.973 395.724 139.74V99.26C395.724 93.0267 397.264 88.26 400.344 84.96C403.424 81.5867 407.897 79.9 413.764 79.9C419.63 79.9 424.104 81.5867 427.184 84.96C430.264 88.26 431.804 93.0267 431.804 99.26V105.86H420.364V98.49C420.364 93.43 418.274 90.9 414.094 90.9C409.914 90.9 407.824 93.43 407.824 98.49V140.62C407.824 145.607 409.914 148.1 414.094 148.1C418.274 148.1 420.364 145.607 420.364 140.62V125.55H414.314V114.55H431.804V139.74C431.804 145.973 430.264 150.777 427.184 154.15C424.104 157.45 419.63 159.1 413.764 159.1ZM457.173 159.1C451.306 159.1 446.833 157.45 443.753 154.15C440.673 150.777 439.133 145.973 439.133 139.74V81H451.232V140.62C451.232 143.26 451.746 145.167 452.773 146.34C453.873 147.513 455.413 148.1 457.393 148.1C459.373 148.1 460.876 147.513 461.903 146.34C463.003 145.167 463.553 143.26 463.553 140.62V81H475.213V139.74C475.213 145.973 473.673 150.777 470.593 154.15C467.513 157.45 463.039 159.1 457.173 159.1ZM483.83 81H495.93V147H515.84V158H483.83V81ZM531.423 81H547.813L560.353 158H548.253L546.053 142.71V142.93H532.303L530.103 158H518.883L531.423 81ZM544.623 132.48L539.233 94.42H539.013L533.732 132.48H544.623ZM566.223 81H584.153C590.386 81 594.933 82.4667 597.793 85.4C600.653 88.26 602.083 92.6967 602.083 98.71V103.44C602.083 111.433 599.443 116.493 594.163 118.62V118.84C597.096 119.72 599.15 121.517 600.323 124.23C601.57 126.943 602.193 130.573 602.193 135.12V148.65C602.193 150.85 602.266 152.647 602.413 154.04C602.56 155.36 602.926 156.68 603.513 158H591.193C590.753 156.753 590.46 155.58 590.313 154.48C590.166 153.38 590.093 151.4 590.093 148.54V134.46C590.093 130.94 589.506 128.483 588.333 127.09C587.233 125.697 585.29 125 582.503 125H578.323V158H566.223V81ZM582.723 114C585.143 114 586.94 113.377 588.113 112.13C589.36 110.883 589.983 108.793 589.983 105.86V99.92C589.983 97.1333 589.47 95.1167 588.443 93.87C587.49 92.6233 585.95 92 583.823 92H578.323V114H582.723Z" fill="white"/>
<path d="M38.289 186.59L22.6128 51.4701L124.258 15.295L228.61 50.9211L211.68 185.91L124.228 234.284L38.289 186.59Z" stroke="white" stroke-width="10"/>
<path d="M124.389 36.8813L57.6891 185.231L82.5794 184.728L96.02 151.206H155.676L170.281 184.987L194.014 185.49L124.389 36.8813ZM124.554 84.5056L147.123 131.634H104.875L124.619 84.5056H124.554Z" fill="white"/>
</svg>
