<svg width="650" height="250" viewBox="0 0 650 250" fill="none" xmlns="http://www.w3.org/2000/svg">
<rect width="650" height="250" fill="#FF9900"/>
<rect width="250" height="250" fill="#FFAB2E"/>
<path d="M336.955 28.8H351.259L362.203 96H351.643L349.723 82.656V82.848H337.723L335.803 96H326.011L336.955 28.8ZM348.475 73.728L343.771 40.512H343.579L338.971 73.728H348.475ZM367.327 28.8H382.399L389.119 76.896H389.311L396.031 28.8H411.103V96H401.119V45.12H400.927L393.247 96H384.415L376.735 45.12H376.543V96H367.327V28.8ZM427.143 28.8H441.447L452.391 96H441.831L439.911 82.656V82.848H427.911L425.991 96H416.199L427.143 28.8ZM438.663 73.728L433.959 40.512H433.767L429.159 73.728H438.663ZM455.777 86.592L475.361 38.4H456.737V28.8H486.689V38.208L467.105 86.4H486.689V96H455.777V86.592ZM507.934 96.96C502.75 96.96 498.782 95.488 496.03 92.544C493.278 89.6 491.902 85.44 491.902 80.064V44.736C491.902 39.36 493.278 35.2 496.03 32.256C498.782 29.312 502.75 27.84 507.934 27.84C513.118 27.84 517.086 29.312 519.838 32.256C522.59 35.2 523.966 39.36 523.966 44.736V80.064C523.966 85.44 522.59 89.6 519.838 92.544C517.086 95.488 513.118 96.96 507.934 96.96ZM507.934 87.36C511.582 87.36 513.406 85.152 513.406 80.736V44.064C513.406 39.648 511.582 37.44 507.934 37.44C504.286 37.44 502.462 39.648 502.462 44.064V80.736C502.462 85.152 504.286 87.36 507.934 87.36ZM531.108 28.8H544.356L554.628 69.024H554.82V28.8H564.228V96H553.38L540.708 46.944H540.516V96H531.108V28.8ZM258.846 143.8H269.022L273.726 195.448H273.918L278.91 143.8H290.43L295.422 195.448H295.614L300.318 143.8H309.438L302.622 211H289.47L284.67 165.688H284.478L279.678 211H265.662L258.846 143.8ZM314.78 143.8H343.58V153.4H325.34V171.16H339.836V180.76H325.34V201.4H343.58V211H314.78V143.8ZM349.655 143.8H365.591C371.031 143.8 374.999 145.08 377.495 147.64C379.991 150.136 381.239 154.008 381.239 159.256V161.944C381.239 165.4 380.663 168.216 379.511 170.392C378.423 172.568 376.727 174.136 374.423 175.096V175.288C379.671 177.08 382.295 181.752 382.295 189.304V195.064C382.295 200.248 380.919 204.216 378.167 206.968C375.479 209.656 371.511 211 366.263 211H349.655V143.8ZM364.343 171.16C366.455 171.16 368.023 170.616 369.047 169.528C370.135 168.44 370.679 166.616 370.679 164.056V160.312C370.679 157.88 370.231 156.12 369.335 155.032C368.503 153.944 367.159 153.4 365.303 153.4H360.215V171.16H364.343ZM366.263 201.4C368.119 201.4 369.495 200.92 370.391 199.96C371.287 198.936 371.735 197.208 371.735 194.776V188.92C371.735 185.848 371.191 183.736 370.103 182.584C369.079 181.368 367.351 180.76 364.919 180.76H360.215V201.4H366.263ZM417.57 211.96C412.45 211.96 408.578 210.52 405.954 207.64C403.33 204.696 402.018 200.504 402.018 195.064V191.224H412.002V195.832C412.002 200.184 413.826 202.36 417.474 202.36C419.266 202.36 420.61 201.848 421.506 200.824C422.466 199.736 422.946 198.008 422.946 195.64C422.946 192.824 422.306 190.36 421.026 188.248C419.746 186.072 417.378 183.48 413.922 180.472C409.57 176.632 406.53 173.176 404.802 170.104C403.074 166.968 402.21 163.448 402.21 159.544C402.21 154.232 403.554 150.136 406.242 147.256C408.93 144.312 412.834 142.84 417.954 142.84C423.01 142.84 426.818 144.312 429.378 147.256C432.002 150.136 433.314 154.296 433.314 159.736V162.52H423.33V159.064C423.33 156.76 422.882 155.096 421.986 154.072C421.09 152.984 419.778 152.44 418.05 152.44C414.53 152.44 412.77 154.584 412.77 158.872C412.77 161.304 413.41 163.576 414.69 165.688C416.034 167.8 418.434 170.36 421.89 173.368C426.306 177.208 429.346 180.696 431.01 183.832C432.674 186.968 433.506 190.648 433.506 194.872C433.506 200.376 432.13 204.6 429.378 207.544C426.69 210.488 422.754 211.96 417.57 211.96ZM439.561 143.8H468.361V153.4H450.121V171.16H464.617V180.76H450.121V201.4H468.361V211H439.561V143.8ZM474.436 143.8H490.084C495.524 143.8 499.492 145.08 501.988 147.64C504.484 150.136 505.732 154.008 505.732 159.256V163.384C505.732 170.36 503.428 174.776 498.82 176.632V176.824C501.38 177.592 503.172 179.16 504.196 181.528C505.284 183.896 505.828 187.064 505.828 191.032V202.84C505.828 204.76 505.892 206.328 506.02 207.544C506.148 208.696 506.468 209.848 506.98 211H496.228C495.844 209.912 495.588 208.888 495.46 207.928C495.332 206.968 495.268 205.24 495.268 202.744V190.456C495.268 187.384 494.756 185.24 493.732 184.024C492.772 182.808 491.076 182.2 488.644 182.2H484.996V211H474.436V143.8ZM488.836 172.6C490.948 172.6 492.516 172.056 493.54 170.968C494.628 169.88 495.172 168.056 495.172 165.496V160.312C495.172 157.88 494.724 156.12 493.828 155.032C492.996 153.944 491.652 153.4 489.796 153.4H484.996V172.6H488.836ZM509.996 143.8H520.652L527.564 195.928H527.756L534.668 143.8H544.364L534.188 211H520.172L509.996 143.8ZM549.436 143.8H559.996V211H549.436V143.8ZM582.785 211.96C577.729 211.96 573.857 210.52 571.169 207.64C568.545 204.76 567.233 200.696 567.233 195.448V159.352C567.233 154.104 568.545 150.04 571.169 147.16C573.857 144.28 577.729 142.84 582.785 142.84C587.841 142.84 591.681 144.28 594.305 147.16C596.993 150.04 598.337 154.104 598.337 159.352V166.456H588.353V158.68C588.353 154.52 586.593 152.44 583.073 152.44C579.553 152.44 577.793 154.52 577.793 158.68V196.216C577.793 200.312 579.553 202.36 583.073 202.36C586.593 202.36 588.353 200.312 588.353 196.216V185.944H598.337V195.448C598.337 200.696 596.993 204.76 594.305 207.64C591.681 210.52 587.841 211.96 582.785 211.96ZM604.655 143.8H633.455V153.4H615.215V171.16H629.711V180.76H615.215V201.4H633.455V211H604.655V143.8Z" fill="white"/>
<path d="M75.1937 119.892C75.1937 122.478 75.4562 124.577 75.955 126.126C76.5062 127.662 77.215 129.342 78.1862 131.166C78.4962 131.648 78.6644 132.208 78.6718 132.781C78.6718 133.476 78.2518 134.185 77.3593 134.881L72.9493 137.821C72.42 138.203 71.7904 138.422 71.1381 138.451C70.4293 138.451 69.7337 138.109 69.0381 137.479C68.0948 136.464 67.2509 135.361 66.5181 134.185C65.7417 132.838 65.0236 131.459 64.3656 130.051C58.9056 136.495 52.0675 139.724 43.825 139.724C37.9581 139.724 33.2725 138.031 29.86 134.671C26.4343 131.311 24.6887 126.822 24.6887 121.218C24.6887 115.259 26.7887 110.429 31.0412 106.78C35.3068 103.131 40.9637 101.32 48.1562 101.32C50.5187 101.32 52.9731 101.53 55.5587 101.871C58.1443 102.226 60.8087 102.79 63.5912 103.42V98.3013C63.5912 92.9725 62.4756 89.2581 60.31 87.0925C58.0787 84.9138 54.2987 83.8638 48.9175 83.8638C46.4762 83.8638 43.9693 84.1525 41.3837 84.7825C38.8148 85.3939 36.2928 86.1878 33.8368 87.1581C33.0439 87.5171 32.2285 87.824 31.3956 88.0769C31.0347 88.1961 30.6595 88.2667 30.28 88.2869C29.2956 88.2869 28.81 87.5781 28.81 86.1081V82.6694C28.81 81.5538 28.9412 80.7006 29.2956 80.2281C29.8245 79.5842 30.4994 79.0757 31.2643 78.745C33.6925 77.485 36.6325 76.435 40.0581 75.595C43.4706 74.6762 47.1062 74.2694 50.9518 74.2694C59.26 74.2694 65.3368 76.1594 69.2481 79.9394C73.0937 83.7194 75.0493 89.4681 75.0493 97.1856V119.892H75.1806H75.1937ZM46.8306 130.536C49.1275 130.536 51.5031 130.116 54.0231 129.276C56.5431 128.436 58.7743 126.888 60.6512 124.788C61.7767 123.498 62.5896 121.967 63.0268 120.312C63.4468 118.619 63.7356 116.598 63.7356 114.209V111.269C61.6157 110.755 59.4686 110.36 57.3043 110.088C55.1281 109.806 52.9363 109.661 50.7418 109.654C46.0562 109.654 42.6437 110.573 40.3337 112.463C38.0237 114.353 36.9212 117.018 36.9212 120.522C36.9212 123.803 37.7481 126.257 39.4937 127.951C41.1737 129.696 43.615 130.536 46.8306 130.536ZM102.914 138.109C101.654 138.109 100.814 137.899 100.262 137.401C99.6981 136.981 99.2125 136.009 98.7925 134.671L82.3862 80.5038C82.0671 79.5954 81.8557 78.6527 81.7562 77.695C81.7562 76.5794 82.3075 75.9494 83.4231 75.9494H90.2743C91.5868 75.9494 92.5056 76.1594 92.9912 76.645C93.5556 77.065 93.9756 78.0494 94.3956 79.375L106.129 125.772L117.023 79.375C117.364 77.9838 117.784 77.065 118.349 76.645C119.187 76.1318 120.163 75.8889 121.144 75.9494H126.736C128.048 75.9494 128.967 76.1594 129.518 76.645C130.082 77.065 130.568 78.0494 130.857 79.375L141.882 126.336L153.957 79.375C154.181 78.359 154.665 77.4185 155.361 76.645C156.175 76.1304 157.131 75.8869 158.091 75.9494H164.588C165.704 75.9494 166.334 76.5138 166.334 77.695C166.334 78.0494 166.255 78.4038 166.202 78.8238C166.089 79.4194 165.922 80.0037 165.704 80.5694L148.864 134.736C148.457 136.141 147.959 137.059 147.407 137.479C146.615 137.986 145.682 138.23 144.743 138.175H138.745C137.419 138.175 136.514 137.965 135.949 137.479C135.385 136.981 134.899 136.075 134.624 134.671L123.796 89.4813L113.033 134.618C112.692 136.023 112.272 136.928 111.721 137.414C111.156 137.913 110.172 138.123 108.925 138.123H102.914V138.109ZM192.662 139.999C189.038 140.004 185.425 139.581 181.9 138.739C178.409 137.899 175.692 136.981 173.867 135.931C172.752 135.301 171.991 134.605 171.702 133.962C171.436 133.344 171.297 132.679 171.295 132.006V128.436C171.295 126.966 171.846 126.257 172.896 126.257C173.325 126.258 173.75 126.329 174.156 126.467C174.576 126.612 175.206 126.887 175.902 127.176C178.264 128.226 180.863 129.066 183.58 129.631C186.376 130.182 189.092 130.471 191.888 130.471C196.298 130.471 199.711 129.696 202.086 128.161C203.227 127.47 204.165 126.489 204.804 125.318C205.442 124.146 205.759 122.827 205.722 121.493C205.745 120.593 205.591 119.697 205.266 118.856C204.942 118.016 204.454 117.248 203.832 116.597C202.585 115.259 200.209 114.064 196.784 112.949L186.651 109.799C181.559 108.184 177.779 105.796 175.482 102.646C173.233 99.735 172.006 96.1648 171.991 92.4869C171.991 89.5469 172.621 86.9481 173.867 84.7038C175.127 82.4725 176.807 80.5038 178.907 78.955C181.007 77.3538 183.37 76.1594 186.166 75.3194C188.961 74.4794 191.888 74.125 194.959 74.125C196.508 74.125 198.109 74.1906 199.645 74.4006C201.246 74.6106 202.716 74.8994 204.186 75.1881C205.577 75.5294 206.916 75.8706 208.163 76.3038C209.423 76.7238 210.394 77.1438 211.103 77.5638C211.927 77.978 212.645 78.5751 213.203 79.3094C213.652 79.9927 213.869 80.803 213.82 81.6194V84.9138C213.82 86.3837 213.269 87.1581 212.219 87.1581C211.289 87.052 210.389 86.7667 209.567 86.3181C205.347 84.4472 200.77 83.5157 196.154 83.5881C192.177 83.5881 189.027 84.2181 186.861 85.5569C184.696 86.8694 183.58 88.9169 183.58 91.7913C183.58 93.7469 184.276 95.4269 185.68 96.7656C187.071 98.0913 189.657 99.4169 193.358 100.611L203.281 103.761C208.307 105.376 211.943 107.62 214.109 110.494C216.274 113.369 217.311 116.663 217.311 120.312C217.311 123.331 216.694 126.048 215.5 128.436C214.264 130.833 212.527 132.937 210.407 134.605C208.242 136.351 205.656 137.624 202.651 138.529C199.501 139.514 196.219 139.999 192.662 139.999Z" fill="white"/>
<path fill-rule="evenodd" clip-rule="evenodd" d="M205.853 174.046C182.884 191.069 149.494 200.112 120.79 200.112C80.5618 200.112 44.3106 185.189 16.9318 160.382C14.7662 158.414 16.7218 155.749 19.2943 157.298C48.9174 174.531 85.4443 184.979 123.244 184.979C148.72 184.979 176.729 179.65 202.506 168.717C206.352 166.971 209.633 171.237 205.853 174.046Z" fill="white"/>
<path fill-rule="evenodd" clip-rule="evenodd" d="M215.421 163.112C212.494 159.346 196.009 161.301 188.541 162.207C186.31 162.496 185.956 160.527 187.977 159.057C201.102 149.804 222.692 152.468 225.199 155.552C227.719 158.702 224.504 180.359 212.206 190.727C210.329 192.342 208.517 191.515 209.357 189.415C212.14 182.459 218.361 166.84 215.421 163.126V163.112Z" fill="white"/>
</svg>
