<svg width="650" height="250" viewBox="0 0 650 250" fill="none" xmlns="http://www.w3.org/2000/svg">
<rect width="650" height="250" fill="#A55EEA"/>
<rect width="250" height="250" fill="#8854D0"/>
<g clip-path="url(#clip0_9_2)">
<path d="M196.175 19.7456H54.2125C35.5018 19.7456 20.3339 34.8895 20.3339 53.5705V196.175C20.3339 214.856 35.5018 229.999 54.2125 229.999H196.175C214.886 229.999 230.053 214.856 230.053 196.175V53.5705C230.053 34.8895 214.886 19.7456 196.175 19.7456Z" fill="white"/>
<path d="M126.776 110.26C132.133 110.26 136.193 109.115 138.96 106.771C141.727 104.427 143.109 101.013 143.109 96.4778C143.109 91.9995 141.727 88.5973 138.96 86.2715C136.175 83.8867 132.132 82.6944 126.776 82.6944H107.969V110.261L126.776 110.26ZM127.923 167.225C134.749 167.225 139.871 165.802 143.285 162.951C146.758 160.102 148.494 155.799 148.494 150.041C148.494 144.399 146.787 140.184 143.373 137.393C139.959 134.544 134.81 133.119 127.925 133.119H107.971V167.229H127.925M159.531 120.384C166.829 122.478 172.48 126.346 176.482 131.986C180.484 137.625 182.484 144.547 182.486 152.748C182.486 165.31 178.189 174.674 169.596 180.839C161.004 187.003 147.939 190.085 130.398 190.085H73.9843V59.8413H125.015C143.319 59.8413 156.562 62.5728 164.742 68.0407C172.982 73.507 177.103 82.2609 177.103 94.2992C177.103 100.639 175.602 106.046 172.601 110.525C169.6 114.944 165.229 118.212 159.534 120.383" fill="#8854D0"/>
</g>
<path d="M280.491 85H297.091C302.757 85 306.891 86.3333 309.491 89C312.091 91.6 313.391 95.6333 313.391 101.1V103.9C313.391 107.5 312.791 110.433 311.591 112.7C310.457 114.967 308.691 116.6 306.291 117.6V117.8C311.757 119.667 314.491 124.533 314.491 132.4V138.4C314.491 143.8 313.057 147.933 310.191 150.8C307.391 153.6 303.257 155 297.791 155H280.491V85ZM295.791 113.5C297.991 113.5 299.624 112.933 300.691 111.8C301.824 110.667 302.391 108.767 302.391 106.1V102.2C302.391 99.6667 301.924 97.8333 300.991 96.7C300.124 95.5667 298.724 95 296.791 95H291.491V113.5H295.791ZM297.791 145C299.724 145 301.157 144.5 302.091 143.5C303.024 142.433 303.491 140.633 303.491 138.1V132C303.491 128.8 302.924 126.6 301.791 125.4C300.724 124.133 298.924 123.5 296.391 123.5H291.491V145H297.791ZM336.82 156C331.42 156 327.287 154.467 324.42 151.4C321.554 148.333 320.12 144 320.12 138.4V101.6C320.12 96 321.554 91.6667 324.42 88.6C327.287 85.5333 331.42 84 336.82 84C342.22 84 346.354 85.5333 349.22 88.6C352.087 91.6667 353.52 96 353.52 101.6V138.4C353.52 144 352.087 148.333 349.22 151.4C346.354 154.467 342.22 156 336.82 156ZM336.82 146C340.62 146 342.52 143.7 342.52 139.1V100.9C342.52 96.3 340.62 94 336.82 94C333.02 94 331.12 96.3 331.12 100.9V139.1C331.12 143.7 333.02 146 336.82 146ZM376.859 156C371.459 156 367.326 154.467 364.459 151.4C361.593 148.333 360.159 144 360.159 138.4V101.6C360.159 96 361.593 91.6667 364.459 88.6C367.326 85.5333 371.459 84 376.859 84C382.259 84 386.393 85.5333 389.259 88.6C392.126 91.6667 393.559 96 393.559 101.6V138.4C393.559 144 392.126 148.333 389.259 151.4C386.393 154.467 382.259 156 376.859 156ZM376.859 146C380.659 146 382.559 143.7 382.559 139.1V100.9C382.559 96.3 380.659 94 376.859 94C373.059 94 371.159 96.3 371.159 100.9V139.1C371.159 143.7 373.059 146 376.859 146ZM409.208 95H397.708V85H431.708V95H420.208V155H409.208V95ZM451.334 156C446 156 441.967 154.5 439.234 151.5C436.5 148.433 435.134 144.067 435.134 138.4V134.4H445.534V139.2C445.534 143.733 447.434 146 451.234 146C453.1 146 454.5 145.467 455.434 144.4C456.434 143.267 456.934 141.467 456.934 139C456.934 136.067 456.267 133.5 454.934 131.3C453.6 129.033 451.134 126.333 447.534 123.2C443 119.2 439.834 115.6 438.034 112.4C436.234 109.133 435.334 105.467 435.334 101.4C435.334 95.8667 436.734 91.6 439.534 88.6C442.334 85.5333 446.4 84 451.734 84C457 84 460.967 85.5333 463.634 88.6C466.367 91.6 467.734 95.9333 467.734 101.6V104.5H457.334V100.9C457.334 98.5 456.867 96.7667 455.934 95.7C455 94.5667 453.634 94 451.834 94C448.167 94 446.334 96.2333 446.334 100.7C446.334 103.233 447 105.6 448.334 107.8C449.734 110 452.234 112.667 455.834 115.8C460.434 119.8 463.6 123.433 465.334 126.7C467.067 129.967 467.934 133.8 467.934 138.2C467.934 143.933 466.5 148.333 463.634 151.4C460.834 154.467 456.734 156 451.334 156ZM482.841 95H471.341V85H505.341V95H493.841V155H482.841V95ZM510.666 85H526.966C532.633 85 536.766 86.3333 539.366 89C541.966 91.6 543.266 95.6333 543.266 101.1V105.4C543.266 112.667 540.866 117.267 536.066 119.2V119.4C538.733 120.2 540.6 121.833 541.666 124.3C542.8 126.767 543.366 130.067 543.366 134.2V146.5C543.366 148.5 543.433 150.133 543.566 151.4C543.7 152.6 544.033 153.8 544.566 155H533.366C532.966 153.867 532.7 152.8 532.566 151.8C532.433 150.8 532.366 149 532.366 146.4V133.6C532.366 130.4 531.833 128.167 530.766 126.9C529.766 125.633 528 125 525.466 125H521.666V155H510.666V85ZM525.666 115C527.866 115 529.5 114.433 530.566 113.3C531.7 112.167 532.266 110.267 532.266 107.6V102.2C532.266 99.6667 531.8 97.8333 530.866 96.7C530 95.5667 528.6 95 526.666 95H521.666V115H525.666ZM559.498 85H574.398L585.798 155H574.798L572.798 141.1V141.3H560.298L558.298 155H548.098L559.498 85ZM571.498 131.8L566.598 97.2H566.398L561.598 131.8H571.498ZM591.135 85H607.335C612.802 85 616.902 86.4667 619.635 89.4C622.368 92.3333 623.735 96.6333 623.735 102.3V109.2C623.735 114.867 622.368 119.167 619.635 122.1C616.902 125.033 612.802 126.5 607.335 126.5H602.135V155H591.135V85ZM607.335 116.5C609.135 116.5 610.468 116 611.335 115C612.268 114 612.735 112.3 612.735 109.9V101.6C612.735 99.2 612.268 97.5 611.335 96.5C610.468 95.5 609.135 95 607.335 95H602.135V116.5H607.335Z" fill="white"/>
<defs>
<clipPath id="clip0_9_2">
<rect width="210" height="210" fill="white" transform="translate(20 20)"/>
</clipPath>
</defs>
</svg>
