<svg width="650" height="250" viewBox="0 0 650 250" fill="none" xmlns="http://www.w3.org/2000/svg">
<rect width="650" height="250" fill="#2BCBBA"/>
<rect width="250" height="250" fill="#0FB9B1"/>
<path d="M320.49 73H342.07C349.437 73 354.81 74.7333 358.19 78.2C361.57 81.58 363.26 86.8233 363.26 93.93V97.57C363.26 102.25 362.48 106.063 360.92 109.01C359.447 111.957 357.15 114.08 354.03 115.38V115.64C361.137 118.067 364.69 124.393 364.69 134.62V142.42C364.69 149.44 362.827 154.813 359.1 158.54C355.46 162.18 350.087 164 342.98 164H320.49V73ZM340.38 110.05C343.24 110.05 345.363 109.313 346.75 107.84C348.223 106.367 348.96 103.897 348.96 100.43V95.36C348.96 92.0667 348.353 89.6833 347.14 88.21C346.013 86.7367 344.193 86 341.68 86H334.79V110.05H340.38ZM342.98 151C345.493 151 347.357 150.35 348.57 149.05C349.783 147.663 350.39 145.323 350.39 142.03V134.1C350.39 129.94 349.653 127.08 348.18 125.52C346.793 123.873 344.453 123.05 341.16 123.05H334.79V151H342.98ZM393.849 165.3C386.915 165.3 381.629 163.35 377.989 159.45C374.349 155.463 372.529 149.787 372.529 142.42V73H386.829V143.46C386.829 146.58 387.435 148.833 388.649 150.22C389.949 151.607 391.769 152.3 394.109 152.3C396.449 152.3 398.225 151.607 399.439 150.22C400.739 148.833 401.389 146.58 401.389 143.46V73H415.169V142.42C415.169 149.787 413.349 155.463 409.709 159.45C406.069 163.35 400.782 165.3 393.849 165.3ZM425.353 73H439.653V151H463.183V164H425.353V73ZM470.041 73H490.451L499.551 138.13H499.811L508.911 73H529.321V164H515.801V95.1H515.541L505.141 164H493.181L482.781 95.1H482.521V164H470.041V73ZM551.042 73H570.412L585.232 164H570.932L568.332 145.93V146.19H552.082L549.482 164H536.222L551.042 73ZM566.642 133.84L560.272 88.86H560.012L553.772 133.84H566.642Z" fill="white"/>
<g clip-path="url(#clip0_9_39)">
<path d="M118.438 20L65.9375 72.5L52.8125 164.375L118.438 230L197.188 177.5L144.688 125L184.062 85.625L118.438 20Z" fill="white"/>
</g>
<defs>
<clipPath id="clip0_9_39">
<rect width="210" height="210" fill="white" transform="translate(20 20)"/>
</clipPath>
</defs>
</svg>
