<svg width="650" height="250" viewBox="0 0 650 250" fill="none" xmlns="http://www.w3.org/2000/svg">
<rect width="650" height="250" fill="#2E0C6D"/>
<rect width="250" height="250" fill="#1F0256"/>
<path d="M340.4 171.5C332.5 171.5 326.45 169.25 322.25 164.75C318.15 160.25 316.1 153.9 316.1 145.7V89.3C316.1 81.1 318.15 74.75 322.25 70.25C326.45 65.75 332.5 63.5 340.4 63.5C348.3 63.5 354.3 65.75 358.4 70.25C362.6 74.75 364.7 81.1 364.7 89.3V100.4H349.1V88.25C349.1 81.75 346.35 78.5 340.85 78.5C335.35 78.5 332.6 81.75 332.6 88.25V146.9C332.6 153.3 335.35 156.5 340.85 156.5C346.35 156.5 349.1 153.3 349.1 146.9V130.85H364.7V145.7C364.7 153.9 362.6 160.25 358.4 164.75C354.3 169.25 348.3 171.5 340.4 171.5ZM374.572 65H391.072V155H418.222V170H374.572V65ZM426.134 65H471.134V80H442.634V107.75H465.284V122.75H442.634V155H471.134V170H426.134V65ZM480.627 65H505.077C513.577 65 519.777 67 523.677 71C527.577 74.9 529.527 80.95 529.527 89.15V95.6C529.527 106.5 525.927 113.4 518.727 116.3V116.6C522.727 117.8 525.527 120.25 527.127 123.95C528.827 127.65 529.677 132.6 529.677 138.8V157.25C529.677 160.25 529.777 162.7 529.977 164.6C530.177 166.4 530.677 168.2 531.477 170H514.677C514.077 168.3 513.677 166.7 513.477 165.2C513.277 163.7 513.177 161 513.177 157.1V137.9C513.177 133.1 512.377 129.75 510.777 127.85C509.277 125.95 506.627 125 502.827 125H497.127V170H480.627V65ZM503.127 110C506.427 110 508.877 109.15 510.477 107.45C512.177 105.75 513.027 102.9 513.027 98.9V90.8C513.027 87 512.327 84.25 510.927 82.55C509.627 80.85 507.527 80 504.627 80H497.127V110H503.127ZM541.125 65H557.625V109.25L578.625 65H595.125L575.475 103.55L595.425 170H578.175L564.225 123.2L557.625 136.55V170H541.125V65Z" fill="white"/>
<g clip-path="url(#clip0_13_25)">
<path d="M215.754 209.611L188.145 182.002C187.277 181.137 186.145 180.589 184.929 180.443C183.713 180.297 182.484 180.562 181.436 181.197C171.197 187.374 159.465 190.639 147.506 190.639C135.548 190.639 123.816 187.374 113.577 181.197C112.527 180.569 111.299 180.307 110.085 180.453C108.871 180.599 107.739 181.143 106.868 182.002L79.2588 209.611C78.3936 210.454 77.8285 211.557 77.6502 212.751C77.472 213.945 77.6903 215.165 78.2717 216.224C78.6639 216.928 79.2072 217.537 79.8625 218.006C99.5155 232.295 123.189 239.991 147.487 239.991C171.785 239.991 195.459 232.295 215.112 218.006C215.764 217.536 216.307 216.931 216.702 216.231C217.098 215.531 217.337 214.754 217.403 213.953C217.46 213.153 217.342 212.35 217.057 211.6C216.772 210.85 216.328 210.172 215.754 209.611ZM215.773 40.2929L188.173 67.8929C187.308 68.7639 186.174 69.3173 184.954 69.4634C183.735 69.6095 182.502 69.3398 181.455 68.6979C167.169 60.0877 150.143 57.2327 133.829 60.7118C117.516 64.1909 103.136 73.7438 93.605 87.4334C86.3711 97.8512 82.3041 110.139 81.8942 122.815C81.4734 135.491 84.7284 148.019 91.2667 158.887C91.8982 159.933 92.1629 161.159 92.0189 162.373C91.8748 163.586 91.3302 164.716 90.4713 165.585L62.8617 193.185C62.309 193.751 61.6398 194.188 60.9005 194.468C60.1613 194.748 59.3699 194.863 58.5815 194.806C57.7932 194.748 57.0268 194.52 56.336 194.135C55.6452 193.751 55.0465 193.221 54.5817 192.582C37.2885 168.818 29.7562 139.332 33.5332 110.185C37.3102 81.0384 52.1095 54.4463 74.8888 35.875C94.5565 19.8235 118.986 10.7371 144.363 10.035C169.74 9.33279 194.635 17.0543 215.16 31.9938C215.8 32.4588 216.331 33.0584 216.715 33.7504C217.099 34.4424 217.327 35.2101 217.383 35.9996C217.442 36.7892 217.329 37.582 217.051 38.3234C216.773 39.0647 216.337 39.7367 215.773 40.2929ZM147.559 157.794C151.872 157.794 156.143 156.945 160.127 155.294C164.112 153.644 167.732 151.225 170.782 148.175C173.832 145.125 176.251 141.505 177.901 137.52C179.552 133.536 180.401 129.265 180.401 124.952C180.401 120.639 179.552 116.369 177.901 112.384C176.251 108.399 173.832 104.779 170.782 101.729C167.732 98.6796 164.112 96.2604 160.127 94.61C156.143 92.9595 151.872 92.11 147.559 92.11C138.849 92.11 130.495 95.5702 124.336 101.729C118.177 107.888 114.717 116.242 114.717 124.952C114.717 133.662 118.177 142.016 124.336 148.175C130.495 154.334 138.849 157.794 147.559 157.794Z" fill="white"/>
</g>
<defs>
<clipPath id="clip0_13_25">
<rect width="230" height="230" fill="white" transform="translate(10 10)"/>
</clipPath>
</defs>
</svg>
