<svg width="650" height="250" viewBox="0 0 650 250" fill="none" xmlns="http://www.w3.org/2000/svg">
<rect width="650" height="250" fill="#3498DB"/>
<rect width="250" height="250" fill="#2980B9"/>
<path d="M361.467 207.3C349.353 207.3 340.077 203.85 333.637 196.95C327.35 190.05 324.207 180.313 324.207 167.74V81.26C324.207 68.6867 327.35 58.95 333.637 52.05C340.077 45.15 349.353 41.7 361.467 41.7C373.58 41.7 382.78 45.15 389.067 52.05C395.507 58.95 398.727 68.6867 398.727 81.26V98.28H374.807V79.65C374.807 69.6833 370.59 64.7 362.157 64.7C353.723 64.7 349.507 69.6833 349.507 79.65V169.58C349.507 179.393 353.723 184.3 362.157 184.3C370.59 184.3 374.807 179.393 374.807 169.58V144.97H398.727V167.74C398.727 180.313 395.507 190.05 389.067 196.95C382.78 203.85 373.58 207.3 361.467 207.3ZM441.464 133.47H410.644V115.53H441.464V84.48H459.404V115.53H490.224V133.47H459.404V164.98H441.464V133.47ZM533.553 133.47H502.733V115.53H533.553V84.48H551.493V115.53H582.313V133.47H551.493V164.98H533.553V133.47Z" fill="white"/>
<path d="M68.2475 125C68.2627 109.953 74.2469 95.5265 84.8867 84.8867C95.5266 74.2468 109.953 68.2627 125 68.2474C134.956 68.268 144.733 70.8969 153.357 75.8722C161.981 80.8476 169.151 87.9957 174.153 96.6045L159.787 104.913L207.963 77.1024C206.724 74.8539 204.933 72.9577 202.759 71.592L132.37 30.9587C128.306 28.6108 121.675 28.6108 117.621 30.9587L47.2312 71.592C43.1871 73.9304 39.8712 79.6804 39.8712 84.3666V165.633C39.8712 167.981 40.6954 170.588 42.0371 172.897L75.8567 153.367C70.8587 144.749 68.2332 134.962 68.2475 125Z" fill="white"/>
<path d="M149.572 110.807C147.073 106.501 143.49 102.925 139.178 100.437C134.867 97.948 129.978 96.6332 125 96.6235C120.023 96.6332 115.136 97.9503 110.829 100.443C106.521 102.935 102.944 106.516 100.456 110.826C97.9675 115.136 96.6552 120.024 96.6504 125.001C96.6455 129.978 97.9484 134.868 100.428 139.183L125 125L149.572 110.807Z" fill="white"/>
<path d="M207.963 77.1025L159.605 105.019L149.581 110.817L149.572 110.807L125 125L100.438 139.183C102.929 143.494 106.509 147.075 110.82 149.566C115.131 152.057 120.021 153.371 125 153.376C129.981 153.368 134.873 152.053 139.186 149.563C143.5 147.072 147.084 143.493 149.581 139.183L174.143 153.395C169.143 162.006 161.974 169.155 153.349 174.13C144.725 179.106 134.947 181.734 124.99 181.753C115.029 181.747 105.245 179.121 96.6187 174.138C87.993 169.156 80.8294 161.992 75.8471 153.367L42.0275 172.898C43.3692 175.217 45.2092 177.239 47.2312 178.408L117.621 219.041C121.675 221.389 128.306 221.389 132.37 219.041L202.759 178.408C204.781 177.239 206.621 175.217 207.963 172.898C209.305 170.588 210.129 167.981 210.129 165.633V84.3667C210.129 82.0188 209.305 79.4121 207.963 77.1025ZM181.753 128.153H175.447V134.459H169.15V128.153H162.845V121.847H169.15V115.541H175.447V121.847H181.753V128.153ZM205.404 128.153H199.098V134.459H192.793V128.153H186.496V121.847H192.793V115.541H199.098V121.847H205.404V128.153Z" fill="white"/>
</svg>
