<svg width="650" height="250" viewBox="0 0 650 250" fill="none" xmlns="http://www.w3.org/2000/svg">
<rect width="650" height="250" fill="#DE045F"/>
<rect width="250" height="250" fill="#CE0056"/>
<path d="M292.15 65H317.35C325.55 65 331.7 67.2 335.8 71.6C339.9 76 341.95 82.45 341.95 90.95V144.05C341.95 152.55 339.9 159 335.8 163.4C331.7 167.8 325.55 170 317.35 170H292.15V65ZM317.05 155C319.75 155 321.8 154.2 323.2 152.6C324.7 151 325.45 148.4 325.45 144.8V90.2C325.45 86.6 324.7 84 323.2 82.4C321.8 80.8 319.75 80 317.05 80H308.65V155H317.05ZM353.088 65H398.088V80H369.588V107.75H392.238V122.75H369.588V155H398.088V170H353.088V65ZM407.58 65H432.48C440.98 65 447.18 67 451.08 71C454.98 74.9 456.93 80.95 456.93 89.15V93.35C456.93 98.75 456.03 103.15 454.23 106.55C452.53 109.95 449.88 112.4 446.28 113.9V114.2C454.48 117 458.58 124.3 458.58 136.1V145.1C458.58 153.2 456.43 159.4 452.13 163.7C447.93 167.9 441.73 170 433.53 170H407.58V65ZM430.53 107.75C433.83 107.75 436.28 106.9 437.88 105.2C439.58 103.5 440.43 100.65 440.43 96.65V90.8C440.43 87 439.73 84.25 438.33 82.55C437.03 80.85 434.93 80 432.03 80H424.08V107.75H430.53ZM433.53 155C436.43 155 438.58 154.25 439.98 152.75C441.38 151.15 442.08 148.45 442.08 144.65V135.5C442.08 130.7 441.23 127.4 439.53 125.6C437.93 123.7 435.23 122.75 431.43 122.75H424.08V155H433.53ZM468.224 65H484.724V170H468.224V65ZM509.832 65H532.182L549.282 170H532.782L529.782 149.15V149.45H511.032L508.032 170H492.732L509.832 65ZM527.832 135.2L520.482 83.3H520.182L512.982 135.2H527.832ZM557.287 65H577.987L594.037 127.85H594.337V65H609.037V170H592.087L572.287 93.35H571.987V170H557.287V65Z" fill="white"/>
<g clip-path="url(#clip0_8_602)">
<path d="M145.389 131.386C141.585 131.477 146.114 133.379 151.097 134.104C152.457 133.017 153.724 131.93 154.811 130.934C151.731 131.658 148.562 131.658 145.39 131.387M165.862 126.314C168.127 123.143 169.757 119.791 170.391 116.258C169.847 118.795 168.489 120.969 167.221 123.233C160.064 127.672 166.586 120.606 167.221 117.889C159.521 127.491 166.133 123.596 165.86 126.313M173.381 106.656C173.834 99.7713 172.02 101.945 171.388 104.573C172.112 105.026 172.656 109.464 173.381 106.656ZM130.984 12.9895C132.977 13.3536 135.423 13.6235 135.06 14.0766C137.234 13.6237 137.778 13.1708 130.984 12.9895ZM135.06 14.1669L133.611 14.4387L134.972 14.348L135.062 14.1669M198.383 109.283C198.654 115.444 196.571 118.433 194.759 123.687L191.498 125.317C188.78 130.571 191.77 128.669 189.867 132.836C185.701 136.55 177.095 144.522 174.377 145.246C172.384 145.246 175.738 142.891 176.189 141.985C170.572 145.88 171.66 147.783 163.054 150.138L162.782 149.594C141.585 159.561 112.054 139.811 112.506 112.816C112.325 114.537 111.872 114.084 111.419 114.809C110.332 100.949 117.851 86.9989 130.533 81.2918C142.943 75.1316 157.437 77.6684 166.315 85.9117C161.423 79.5706 151.73 72.7768 140.226 73.4107C128.993 73.5918 118.394 80.7482 114.952 88.5389C109.155 92.1624 108.52 102.58 105.982 104.482C102.63 129.303 112.323 140.083 128.81 152.674C131.437 154.396 129.534 154.667 129.897 156.026C124.462 153.49 119.389 149.594 115.313 144.884C117.487 148.054 119.842 151.225 122.922 153.671C117.758 151.95 110.874 141.17 108.881 140.717C117.758 156.66 145.025 168.708 159.247 162.729C152.634 163.001 144.3 162.82 136.872 160.102C133.792 158.472 129.534 155.211 130.259 154.577C149.735 161.822 169.755 160.102 186.604 146.603C190.861 143.252 195.574 137.633 196.931 137.545C194.938 140.625 197.295 138.994 195.753 141.711C200.011 134.827 193.942 138.904 200.192 129.845L202.548 133.015C201.642 127.308 209.613 120.333 208.796 111.365C210.608 108.647 210.789 114.354 208.887 120.695C211.604 113.629 209.611 112.542 210.247 106.654C210.972 108.647 211.969 110.731 212.512 112.724C210.791 105.93 214.324 101.219 215.139 97.3238C214.233 96.9596 212.421 100.313 212.059 92.2509C212.15 88.7181 213.056 90.4391 213.42 89.5331C212.695 89.1689 210.974 86.453 209.887 81.2914C210.702 80.1138 211.97 84.462 213.058 84.5526C212.333 80.4763 211.155 77.3962 211.155 74.2256C207.985 67.6128 210.068 75.1314 207.441 71.4177C204.09 60.9096 210.249 68.972 210.612 64.2613C215.685 71.5988 218.585 83.1033 219.942 87.8138C218.945 82.0163 217.315 76.4001 215.231 71.0553C216.772 71.6893 212.786 59.1884 217.224 67.4318C212.419 49.7674 196.659 33.1917 182.165 25.4902C183.977 27.1207 186.151 29.1136 185.336 29.4761C178.091 25.2186 179.357 24.8561 178.361 23.0443C172.473 20.6891 172.112 23.2254 168.215 23.0443C157.164 17.1563 154.989 17.7903 144.844 14.0743L145.297 16.2484C137.959 13.8027 136.781 17.1542 128.81 16.2484C128.357 15.8842 131.346 14.8875 133.883 14.5272C126.817 15.433 127.089 13.1664 120.204 14.799C121.925 13.6214 123.737 12.806 125.549 11.8096C119.751 12.1737 111.689 15.1612 114.225 12.4436C104.804 16.7011 88.0436 22.5893 78.6247 31.3764L78.3529 29.3835C74.0071 34.5491 59.6033 44.8757 58.4259 51.5795L57.2483 51.8512C54.9836 55.6558 53.5342 59.9135 51.813 63.8994C48.9143 68.8816 47.5555 65.8017 47.9178 66.6172C42.1203 78.3032 39.312 88.1769 36.7756 96.2393C38.4968 98.8663 36.7756 112.09 37.5001 122.691C34.6014 175.05 74.1878 225.869 117.579 237.556C123.92 239.821 133.341 239.731 141.403 240.002C131.891 237.284 130.714 238.553 121.474 235.382C114.861 232.212 113.321 228.679 108.611 224.602L110.513 227.864C101.273 224.602 105.168 223.787 97.6495 221.432L99.6425 218.805C96.6531 218.533 91.6692 213.732 90.3122 211.105L87.0509 211.196C83.1557 206.304 80.9816 202.862 81.1629 200.144L79.7136 201.775C78.536 199.691 65.2197 183.567 72.1044 187.281C70.8361 186.103 69.115 185.379 67.3031 182.027L68.664 180.396C65.3123 176.139 62.5947 170.613 62.776 168.801C64.5878 171.156 65.7654 171.609 67.0335 172.062C58.609 151.228 58.156 170.885 51.8151 150.865L53.176 150.774C52.1793 149.234 51.5455 147.513 50.7303 145.883L51.2739 140.085C45.2046 133.11 49.5527 110.463 50.4585 97.9622C51.0926 92.8894 55.5314 87.5447 58.883 79.0294L56.7996 78.6652C60.6949 71.7805 79.263 51.1265 87.7802 52.2139C91.9471 46.9599 86.9649 52.2139 86.1497 50.853C95.2989 41.432 98.1072 44.1497 104.267 42.519C110.88 38.6237 98.56 44.059 101.73 40.9789C113.235 38.0802 109.883 34.2756 124.83 32.8262C126.37 33.732 121.207 34.187 119.848 35.3627C129.355 30.6541 150.1 31.7408 163.507 37.9914C179.088 45.2364 196.569 66.798 197.298 87.0895L198.113 87.2707C197.749 95.3329 199.381 104.663 196.482 113.178L198.383 109.283ZM103.901 136.641L103.357 139.268C105.894 142.71 107.886 146.333 111.057 148.96C108.702 144.521 106.98 142.712 103.9 136.64M109.789 136.369C108.428 134.919 107.705 133.108 106.799 131.387C107.615 134.467 109.336 137.094 110.966 139.811L109.789 136.369M214.416 113.631L213.873 115.081C212.876 122.326 210.612 129.575 207.26 136.278C210.974 129.212 213.42 121.512 214.416 113.631ZM131.711 11.1778C134.247 10.272 138.052 10.6343 140.77 10.0002C137.237 10.272 133.704 10.4532 130.171 10.9061L131.711 11.1778ZM41.3977 59.1903C42.0317 64.7161 37.2308 66.7995 42.4848 63.1762C45.2026 57.0161 41.3072 61.5457 41.3977 59.1903ZM35.3284 84.6437C36.506 81.0202 36.7777 78.7557 37.2306 76.6703C33.879 80.8372 35.6906 81.7432 35.3284 84.6437ZM439.243 194.599C438.438 194.618 439.397 195.02 440.451 195.174L441.237 194.503C440.585 194.656 439.914 194.656 439.243 194.599ZM443.575 193.525C444.054 192.854 444.399 192.145 444.533 191.398C444.418 191.934 444.131 192.394 443.862 192.874C442.348 193.813 443.728 192.318 443.862 191.743C442.233 193.774 443.632 192.95 443.575 193.525ZM445.166 189.366C445.262 187.909 444.878 188.369 444.744 188.925C444.897 189.021 445.012 189.96 445.166 189.366ZM436.196 169.548C436.617 169.624 437.135 169.682 437.058 169.778C437.518 169.682 437.633 169.586 436.196 169.548Z" fill="white"/>
</g>
<defs>
<clipPath id="clip0_8_602">
<rect width="230" height="230" fill="white" transform="translate(10 10)"/>
</clipPath>
</defs>
</svg>
