<svg width="650" height="250" viewBox="0 0 650 250" fill="none" xmlns="http://www.w3.org/2000/svg">
<rect width="650" height="250" fill="#3BA7DF"/>
<rect width="250" height="250" fill="#1794D4"/>
<path d="M306.33 84H328.17C335.277 84 340.607 85.9067 344.16 89.72C347.713 93.5333 349.49 99.1233 349.49 106.49V152.51C349.49 159.877 347.713 165.467 344.16 169.28C340.607 173.093 335.277 175 328.17 175H306.33V84ZM327.91 162C330.25 162 332.027 161.307 333.24 159.92C334.54 158.533 335.19 156.28 335.19 153.16V105.84C335.19 102.72 334.54 100.467 333.24 99.08C332.027 97.6933 330.25 97 327.91 97H320.63V162H327.91ZM379.813 176.3C372.793 176.3 367.419 174.307 363.693 170.32C359.966 166.333 358.102 160.7 358.102 153.42V105.58C358.102 98.3 359.966 92.6667 363.693 88.68C367.419 84.6933 372.793 82.7 379.813 82.7C386.833 82.7 392.206 84.6933 395.933 88.68C399.659 92.6667 401.523 98.3 401.523 105.58V153.42C401.523 160.7 399.659 166.333 395.933 170.32C392.206 174.307 386.833 176.3 379.813 176.3ZM379.813 163.3C384.753 163.3 387.222 160.31 387.222 154.33V104.67C387.222 98.69 384.753 95.7 379.813 95.7C374.873 95.7 372.403 98.69 372.403 104.67V154.33C372.403 160.31 374.873 163.3 379.813 163.3ZM431.343 176.3C424.497 176.3 419.253 174.35 415.613 170.45C412.06 166.55 410.283 161.047 410.283 153.94V105.06C410.283 97.9533 412.06 92.45 415.613 88.55C419.253 84.65 424.497 82.7 431.343 82.7C438.19 82.7 443.39 84.65 446.943 88.55C450.583 92.45 452.403 97.9533 452.403 105.06V114.68H438.883V104.15C438.883 98.5167 436.5 95.7 431.733 95.7C426.967 95.7 424.583 98.5167 424.583 104.15V154.98C424.583 160.527 426.967 163.3 431.733 163.3C436.5 163.3 438.883 160.527 438.883 154.98V141.07H452.403V153.94C452.403 161.047 450.583 166.55 446.943 170.45C443.39 174.35 438.19 176.3 431.343 176.3ZM460.959 84H475.259V122.35L493.459 84H507.759L490.729 117.41L508.019 175H493.069L480.979 134.44L475.259 146.01V175H460.959V84ZM514.787 84H553.787V97H529.087V121.05H548.717V134.05H529.087V162H553.787V175H514.787V84ZM562.014 84H583.204C590.57 84 595.944 85.7333 599.324 89.2C602.704 92.58 604.394 97.8233 604.394 104.93V110.52C604.394 119.967 601.274 125.947 595.034 128.46V128.72C598.5 129.76 600.927 131.883 602.314 135.09C603.787 138.297 604.524 142.587 604.524 147.96V163.95C604.524 166.55 604.61 168.673 604.784 170.32C604.957 171.88 605.39 173.44 606.084 175H591.524C591.004 173.527 590.657 172.14 590.484 170.84C590.31 169.54 590.224 167.2 590.224 163.82V147.18C590.224 143.02 589.53 140.117 588.144 138.47C586.844 136.823 584.547 136 581.254 136H576.314V175H562.014V84ZM581.514 123C584.374 123 586.497 122.263 587.884 120.79C589.357 119.317 590.094 116.847 590.094 113.38V106.36C590.094 103.067 589.487 100.683 588.274 99.21C587.147 97.7367 585.327 97 582.814 97H576.314V123H581.514Z" fill="white"/>
<path d="M220.625 125C220.625 177.812 177.812 220.625 125 220.625C72.1878 220.625 29.375 177.812 29.375 125C29.375 72.1878 72.1878 29.375 125 29.375C177.812 29.375 220.625 72.1878 220.625 125Z" fill="#1794D4" stroke="white" stroke-width="10"/>
<path d="M139.375 60.3125H125V74.6875H139.375V60.3125Z" fill="white"/>
<path d="M81.875 81.875H96.25V96.25H81.875V81.875Z" fill="white"/>
<path d="M53.1361 131.766C54.3644 152.619 66.7832 182.5 110.625 182.5C159.5 182.5 181.302 146.562 186.094 128.594C192.083 128.594 205.5 125 211.25 110.625C207.656 107.031 193.281 107.031 186.094 110.625C186.094 104.875 182.5 92.6562 175.312 89.0625C170.521 93.8544 163.094 106.312 171.719 117.812C168.125 125 158.542 125 153.75 125H59.9021C56.0964 125 52.9123 127.967 53.1361 131.766Z" fill="white"/>
<path d="M74.6875 103.438H60.3125V117.812H74.6875V103.438Z" fill="white"/>
<path d="M81.875 103.438H96.25V117.812H81.875V103.438Z" fill="white"/>
<path d="M117.812 103.438H103.438V117.812H117.812V103.438Z" fill="white"/>
<path d="M125 103.438H139.375V117.812H125V103.438Z" fill="white"/>
<path d="M160.938 103.438H146.562V117.812H160.938V103.438Z" fill="white"/>
<path d="M117.812 81.875H103.438V96.25H117.812V81.875Z" fill="white"/>
<path d="M125 81.875H139.375V96.25H125V81.875Z" fill="white"/>
</svg>
