<svg width="650" height="250" viewBox="0 0 650 250" fill="none" xmlns="http://www.w3.org/2000/svg">
<rect width="650" height="250" fill="#7E7877"/>
<rect width="250" height="250" fill="#939090"/>
<path d="M273.686 84.4H312.086V97.2H287.766V120.88H307.094V133.68H287.766V161.2H312.086V174H273.686V84.4ZM320.186 84.4H334.266V161.2H357.434V174H320.186V84.4ZM365.864 135.856L348.84 84.4H363.816L373.416 117.296H373.672L383.272 84.4H396.968L379.944 135.856V174H365.864V135.856ZM419.615 175.28C412.788 175.28 407.625 173.36 404.127 169.52C400.628 165.595 398.879 160.005 398.879 152.752V147.632H412.191V153.776C412.191 159.579 414.623 162.48 419.487 162.48C421.876 162.48 423.668 161.797 424.863 160.432C426.143 158.981 426.783 156.677 426.783 153.52C426.783 149.765 425.929 146.48 424.223 143.664C422.516 140.763 419.359 137.307 414.751 133.296C408.948 128.176 404.895 123.568 402.591 119.472C400.287 115.291 399.135 110.597 399.135 105.392C399.135 98.3093 400.927 92.848 404.51 89.008C408.095 85.0827 413.3 83.12 420.127 83.12C426.868 83.12 431.945 85.0827 435.359 89.008C438.857 92.848 440.607 98.3947 440.607 105.648V109.36H427.295V104.752C427.295 101.68 426.697 99.4613 425.503 98.096C424.308 96.6453 422.559 95.92 420.255 95.92C415.561 95.92 413.215 98.7787 413.215 104.496C413.215 107.739 414.068 110.768 415.775 113.584C417.567 116.4 420.767 119.813 425.375 123.824C431.263 128.944 435.316 133.595 437.535 137.776C439.753 141.957 440.863 146.864 440.863 152.496C440.863 159.835 439.028 165.467 435.359 169.392C431.775 173.317 426.527 175.28 419.615 175.28ZM448.936 84.4H463.016V174H448.936V84.4ZM484.441 84.4H503.513L518.105 174H504.025L501.465 156.208V156.464H485.465L482.905 174H469.849L484.441 84.4ZM499.801 144.304L493.529 100.016H493.273L487.128 144.304H499.801ZM526.186 160.432H539.753V174H526.186V160.432ZM553.639 174.512C551.079 174.512 548.903 174.341 547.111 174V161.2C548.476 161.541 550.012 161.712 551.719 161.712C554.535 161.712 556.625 161.029 557.991 159.664C559.356 158.213 560.039 156.037 560.039 153.136V84.4H574.119V152.752C574.119 160.091 572.412 165.552 568.999 169.136C565.671 172.72 560.551 174.512 553.639 174.512ZM602.49 175.28C595.663 175.28 590.5 173.36 587.002 169.52C583.503 165.595 581.754 160.005 581.754 152.752V147.632H595.066V153.776C595.066 159.579 597.498 162.48 602.362 162.48C604.751 162.48 606.543 161.797 607.738 160.432C609.018 158.981 609.658 156.677 609.658 153.52C609.658 149.765 608.804 146.48 607.098 143.664C605.391 140.763 602.234 137.307 597.626 133.296C591.823 128.176 587.77 123.568 585.466 119.472C583.162 115.291 582.01 110.597 582.01 105.392C582.01 98.3093 583.802 92.848 587.385 89.008C590.97 85.0827 596.175 83.12 603.002 83.12C609.743 83.12 614.82 85.0827 618.234 89.008C621.732 92.848 623.482 98.3947 623.482 105.648V109.36H610.17V104.752C610.17 101.68 609.572 99.4613 608.378 98.096C607.183 96.6453 605.434 95.92 603.13 95.92C598.436 95.92 596.09 98.7787 596.09 104.496C596.09 107.739 596.943 110.768 598.65 113.584C600.442 116.4 603.642 119.813 608.25 123.824C614.138 128.944 618.191 133.595 620.41 137.776C622.628 141.957 623.738 146.864 623.738 152.496C623.738 159.835 621.903 165.467 618.234 169.392C614.65 173.317 609.402 175.28 602.49 175.28Z" fill="white"/>
<g clip-path="url(#clip0_2004_13)">
<path fill-rule="evenodd" clip-rule="evenodd" d="M181.315 196.562C199.268 180.868 210.609 157.8 210.609 132.082C210.609 84.8008 172.28 46.4722 124.999 46.4722C77.7187 46.4722 39.3893 84.8008 39.3893 132.082C39.3893 157.048 50.076 179.518 67.1253 195.167L67.2047 194.616L179.555 157.831L181.315 196.562Z" fill="#333333"/>
<path d="M102.899 56.752L87.7127 54.498L89.9873 53.798C91.3582 53.3763 92.6441 52.7165 93.786 51.8487L94.1433 51.5767C96.2807 49.9521 97.71 47.5664 98.134 44.9153L98.304 43.854C98.4873 42.7093 98.4773 41.542 98.276 40.4007C98.2566 40.2905 98.2671 40.1771 98.3064 40.0724C98.3458 39.9676 98.4126 39.8754 98.4998 39.8053C98.587 39.7352 98.6914 39.6898 98.8022 39.6739C98.9129 39.6579 99.0259 39.672 99.1293 39.7147L99.7507 39.9707C100.53 40.2916 101.284 40.6716 102.006 41.1073L104.588 42.6673C108.02 44.7392 111.029 47.4427 113.455 50.6347L115.173 52.8947C116.521 54.67 118.36 56.0113 120.463 56.7527L121.655 57.1733L115.393 57.424C111.217 57.5907 107.034 57.366 102.899 56.752Z" fill="#CCCCCC"/>
<path d="M99.0227 70.2174L103.527 61.9841C103.548 61.9442 103.56 61.8997 103.562 61.8542C103.563 61.8088 103.553 61.7637 103.533 61.7228L101.998 58.4894C101.526 57.4952 100.781 56.6553 99.8507 56.0672C98.9202 55.479 97.8421 55.1668 96.7413 55.1668L96.3167 55.1521C93.3761 55.0507 90.4556 54.6259 87.608 53.8854L87.0447 53.7388C84.7094 53.1317 82.4442 52.2817 80.286 51.2028L79.334 50.7268C77.9005 50.0101 76.5426 49.1513 75.2807 48.1634L74.018 47.1761C73.929 47.1065 73.8269 47.0555 73.7179 47.0262C73.6088 46.9968 73.4949 46.9896 73.383 47.005C73.2711 47.0204 73.1635 47.0581 73.0664 47.1159C72.9693 47.1737 72.8849 47.2504 72.818 47.3414C71.95 48.525 71.4058 49.9145 71.2393 51.3728L71.01 53.3801C70.8868 54.4571 70.8731 55.5437 70.9693 56.6234L71.528 62.9114C71.9437 67.5901 73.5583 72.0826 76.216 75.9554L76.7853 76.7848C77.6019 77.9747 78.5536 79.0659 79.6213 80.0368C79.772 80.1734 79.964 80.2581 80.1667 80.2761C87.8893 80.9688 95.3013 77.0201 99.0227 70.2174Z" fill="#CCCCCC"/>
<path d="M81.9867 80.4271L87.3367 78.1118C89.698 77.0898 90.4167 74.0865 88.7747 72.1051C88.1323 71.3308 87.2131 70.8378 86.2126 70.7312C85.2122 70.6246 84.2097 70.9128 83.4187 71.5345L82.15 72.5311C81.846 72.7702 81.568 73.0406 81.3207 73.3378L78.2693 76.9978C78.0625 77.2461 77.956 77.5628 77.9708 77.8857C77.9856 78.2085 78.1206 78.5141 78.3493 78.7425L79.2913 79.8198C79.6184 80.1934 80.0556 80.4535 80.54 80.5627C81.0244 80.6718 81.531 80.6244 81.9867 80.4271Z" fill="#EDEDED"/>
<path d="M88.8787 54.1113L88.7153 54.1633L89.2047 54.3193C91.3222 54.9929 93.5185 55.3873 95.738 55.4927C95.8487 55.4987 95.96 55.486 96.0667 55.4553L97.076 55.1667L97.5773 55L94.3733 54.3033C93.9516 54.2118 93.5582 54.0197 93.2267 53.7433C93.166 53.6928 93.1173 53.6294 93.0839 53.5578C93.0506 53.4862 93.0335 53.4081 93.0339 53.3291C93.0343 53.2501 93.0521 53.1721 93.0861 53.1009C93.1202 53.0296 93.1695 52.9667 93.2307 52.9167L93.706 52.528C94.2737 52.0636 94.7327 51.4803 95.0507 50.8193C93.208 52.2788 91.1172 53.394 88.8787 54.1113Z" fill="#B2B2B2"/>
<path d="M107.201 112.494L63.5647 190.501C63.348 190.887 62.822 190.961 62.508 190.647L61.628 189.767L57.95 185.587L55.6053 182.553C53.3819 179.676 51.3966 176.622 49.6693 173.423L49.336 172.804C47.5016 169.405 45.965 165.854 44.7433 162.189L43.57 158.667C41.8057 152.273 41.4005 145.58 42.3807 139.019L42.4227 138.743C42.852 135.868 43.5374 133.038 44.4707 130.285L46.412 124.557L47.8607 121.509C50.1085 116.782 53.2075 112.509 57.0027 108.903L58.8433 107.155C62.6494 103.539 67.2781 100.904 72.33 99.4762C71.148 99.8102 69.942 100.05 68.7233 100.194L66.31 100.479L64.4707 100.647L62.464 100.981L60.4573 101.169L59.12 101.315L58.1567 101.375C57.8473 101.395 57.7013 101 57.95 100.814L59.2967 100.169C63.637 98.0891 67.205 94.6852 69.4867 90.4475L70.9747 88.1275C72.748 85.3605 75.1074 83.0166 77.886 81.2615L78.46 80.8995C79.4972 80.2445 80.6046 79.7078 81.7613 79.2995L87.0253 77.4408C87.5055 77.2715 87.9454 77.0044 88.3172 76.6565C88.689 76.3086 88.9846 75.8874 89.1853 75.4195L89.2653 75.2315C89.501 74.6818 89.5594 74.0723 89.4324 73.4878C89.3053 72.9034 88.9992 72.3731 88.5567 71.9708L87.6307 71.1295C87.5737 71.0776 87.5216 71.0205 87.4753 70.9588L81.526 63.0255L76.778 56.4822C75.8386 55.1871 75.2919 53.6489 75.2033 52.0515C75.2002 51.9937 75.2122 51.9361 75.2381 51.8844C75.2639 51.8327 75.3028 51.7886 75.3509 51.7564C75.399 51.7243 75.4546 51.7052 75.5123 51.701C75.57 51.6969 75.6278 51.7079 75.68 51.7328L80.8173 54.1982C85.2626 56.3318 90.331 56.7804 95.082 55.4608C96.186 55.1542 97.3147 54.9408 98.4553 54.8242L100.813 54.5822C106.742 53.9741 112.733 54.4665 118.483 56.0348L118.98 56.1702L124.597 58.1922C128.079 59.4458 131.248 61.4387 133.886 64.0339C136.524 66.629 138.569 69.7648 139.88 73.2255L141.058 77.8182C142.167 82.1414 144.789 85.9239 148.448 88.4788L151.445 90.5708C152.763 91.4902 154.145 92.3124 155.582 93.0308L162.215 96.3482C162.513 96.4962 162.602 96.8788 162.401 97.1435C160.571 99.5503 158.155 101.448 155.383 102.655L151.541 104.328C150.012 104.995 148.435 105.546 146.823 105.979L144.001 106.737C140.045 107.8 135.966 108.338 131.87 108.338H125.11C123.711 108.338 122.324 108.075 121.022 107.562C115.83 105.517 109.925 107.623 107.201 112.494Z" fill="white"/>
<path d="M130.077 84.3668L133.021 84.4001C133.421 84.4055 133.511 83.8421 133.129 83.7215C132.504 83.5239 131.896 83.2737 131.313 82.9735L129.015 81.7895C127.457 80.9871 125.992 80.0161 124.646 78.8941L124.194 78.5181C123.173 77.6672 122.247 76.709 121.431 75.6601L120.909 74.9888C120.87 74.939 120.816 74.903 120.756 74.886C120.695 74.8689 120.63 74.8718 120.571 74.8942C120.512 74.9166 120.462 74.9573 120.428 75.0103C120.394 75.0633 120.378 75.1259 120.382 75.1888C120.722 80.3101 124.945 84.3075 130.077 84.3668Z" fill="#666666"/>
<path d="M66.886 191.739L116.743 147.263C121.443 143.071 125.527 138.235 128.875 132.901L129.179 132.416C130.819 129.136 131.519 125.466 131.201 121.813L130.764 116.785C130.495 113.692 129.219 110.773 127.131 108.475C127.049 108.386 126.942 108.325 126.824 108.301L118.813 106.666C113 104.911 106.837 104.658 100.899 105.931L100.587 105.997L95.9253 107.087C82.3298 110.265 70.3477 118.265 62.2007 129.604L61.9953 129.89C59.7506 133.014 57.8438 136.368 56.3067 139.894L56.032 140.523C52.1492 149.431 50.8404 159.248 52.254 168.861L52.7167 172.005C53.6378 178.269 56.4172 184.112 60.6953 188.779L63.2393 191.555C63.7011 192.059 64.3426 192.36 65.0251 192.395C65.7075 192.429 66.376 192.193 66.886 191.739Z" fill="#CCCCCC"/>
<path d="M110.536 132.368L110.374 132.46C106.167 134.864 103.904 139.402 104.125 144.243C104.188 145.619 105.567 146.881 106.893 146.505L109.336 145.813C112.494 144.918 115.419 143.344 117.906 141.202L124.999 135.091L127.103 133.533C133.158 129.052 140.049 125.828 147.37 124.051C154.69 122.274 162.292 121.98 169.728 123.187C170.191 123.263 170.206 123.924 169.747 124.02L167.971 124.39L167.166 124.671C165.513 125.25 164.077 126.321 163.051 127.741C162.859 128.008 163.116 128.366 163.43 128.269L164.013 128.09C167.291 127.082 170.73 126.699 174.15 126.962L175.495 127.065C179.103 127.222 182.631 128.176 185.825 129.859C189.02 131.541 191.803 133.911 193.973 136.797L195.619 138.987C198.036 142.2 199.787 145.864 200.772 149.762C201.756 153.661 201.953 157.716 201.351 161.692L200.717 165.885C199.853 171.596 197.773 177.054 194.618 181.892L194.389 182.243L190.878 186.925L187.032 191.272L183.509 194.654C180.293 197.742 176.775 200.501 173.009 202.889L171.816 203.645L169.534 204.732C168.946 205.012 168.456 204.206 168.974 203.812L172.151 200.803L172.804 200.117C174.569 198.263 175.838 195.994 176.493 193.519L176.795 192.379C176.931 191.863 177 191.333 177 190.8C177 187.897 174.945 185.352 172.096 184.795C171.223 184.624 170.324 184.647 169.461 184.863C168.599 185.078 167.794 185.48 167.104 186.041L163.957 188.597L158.405 193.141C154.76 196.122 150.81 198.711 146.622 200.863L140.883 203.813L131.185 207.491L129.15 208.046C125.608 209.012 121.993 209.685 118.341 210.057L115.635 210.333H106.941L95.404 209.079L89.1607 207.729C83.1682 206.432 77.5657 203.742 72.8073 199.875L67.982 195.954C65.0894 193.745 62.6966 190.95 60.9604 187.751C59.2242 184.552 58.184 181.022 57.908 177.393L57.6153 173.548L57.96 168.138C58.3358 162.231 60.0362 156.484 62.935 151.324C65.8339 146.163 69.8569 141.721 74.706 138.327L75.7327 137.608C80.0069 134.616 84.7762 132.403 89.8207 131.07L93.2127 130.174C97.6228 129.009 102.243 128.886 106.709 129.814L110.247 130.549C111.135 130.733 111.323 131.919 110.535 132.368H110.536Z" fill="#5E5E5E"/>
</g>
<defs>
<clipPath id="clip0_2004_13">
<rect width="240" height="240" fill="white" transform="translate(5 5)"/>
</clipPath>
</defs>
</svg>
