<svg width="650" height="250" viewBox="0 0 650 250" fill="none" xmlns="http://www.w3.org/2000/svg">
<rect width="650" height="250" fill="#34495E"/>
<rect width="250" height="250" fill="#2C3E50"/>
<path d="M240 188.214C231.634 190.342 226.459 188.308 221.816 181.336L188.796 135.652L184.024 129.327L145.463 181.487C141.057 187.761 136.435 190.493 128.213 188.272L177.591 121.989L131.62 62.1167C139.526 60.5786 144.988 61.362 149.84 68.4417L184.088 114.693L218.588 68.6932C223.009 62.4186 227.76 60.0323 235.695 62.3467L217.87 85.9792L193.72 117.424C190.845 121.018 191.24 123.476 193.885 126.948L240 188.214ZM10.0575 120.882L14.0969 101.015C25.0938 61.6998 70.1594 45.3626 101.238 69.6564C119.401 83.9451 123.915 104.156 123.016 126.797H20.6375C19.0994 167.55 48.4316 192.146 85.8281 179.596C98.9453 175.19 106.672 164.919 110.539 152.068C112.501 145.628 115.75 144.622 121.802 146.462C118.711 162.533 111.739 175.959 97.0047 184.362C74.9894 196.94 43.5656 192.872 27.0344 175.392C17.1875 165.25 13.1194 152.399 11.2938 138.656C11.0063 136.385 10.4312 134.222 10 132.044C10.0383 128.326 10.0575 124.607 10.0575 120.889V120.882ZM20.8244 118.15H113.342C112.738 88.6817 94.3884 67.7517 69.3112 67.572C41.7831 67.3564 22.0175 87.7904 20.8244 118.15Z" fill="white"/>
<path d="M293.33 73H332.33V86H307.63V110.05H327.26V123.05H307.63V151H332.33V164H293.33V73ZM353.42 117.46L337.69 73H352.77L362.39 102.38H362.65L372.53 73H386.05L370.32 117.46L386.83 164H371.75L361.35 132.28H361.09L350.43 164H336.91L353.42 117.46ZM393.623 73H414.683C421.79 73 427.12 74.9067 430.673 78.72C434.226 82.5333 436.003 88.1233 436.003 95.49V104.46C436.003 111.827 434.226 117.417 430.673 121.23C427.12 125.043 421.79 126.95 414.683 126.95H407.923V164H393.623V73ZM414.683 113.95C417.023 113.95 418.756 113.3 419.883 112C421.096 110.7 421.703 108.49 421.703 105.37V94.58C421.703 91.46 421.096 89.25 419.883 87.95C418.756 86.65 417.023 86 414.683 86H407.923V113.95H414.683ZM443.769 73H464.959C472.326 73 477.699 74.7333 481.079 78.2C484.459 81.58 486.149 86.8233 486.149 93.93V99.52C486.149 108.967 483.029 114.947 476.789 117.46V117.72C480.256 118.76 482.683 120.883 484.069 124.09C485.543 127.297 486.279 131.587 486.279 136.96V152.95C486.279 155.55 486.366 157.673 486.539 159.32C486.713 160.88 487.146 162.44 487.839 164H473.279C472.759 162.527 472.413 161.14 472.239 159.84C472.066 158.54 471.979 156.2 471.979 152.82V136.18C471.979 132.02 471.286 129.117 469.899 127.47C468.599 125.823 466.303 125 463.009 125H458.069V164H443.769V73ZM463.269 112C466.129 112 468.253 111.263 469.639 109.79C471.113 108.317 471.849 105.847 471.849 102.38V95.36C471.849 92.0667 471.243 89.6833 470.029 88.21C468.903 86.7367 467.083 86 464.569 86H458.069V112H463.269ZM496.201 73H535.201V86H510.501V110.05H530.131V123.05H510.501V151H535.201V164H496.201V73ZM562.272 165.3C555.338 165.3 550.095 163.35 546.542 159.45C542.988 155.463 541.212 149.787 541.212 142.42V137.22H554.732V143.46C554.732 149.353 557.202 152.3 562.142 152.3C564.568 152.3 566.388 151.607 567.602 150.22C568.902 148.747 569.552 146.407 569.552 143.2C569.552 139.387 568.685 136.05 566.952 133.19C565.218 130.243 562.012 126.733 557.332 122.66C551.438 117.46 547.322 112.78 544.982 108.62C542.642 104.373 541.472 99.6067 541.472 94.32C541.472 87.1267 543.292 81.58 546.932 77.68C550.572 73.6933 555.858 71.7 562.792 71.7C569.638 71.7 574.795 73.6933 578.262 77.68C581.815 81.58 583.592 87.2133 583.592 94.58V98.35H570.072V93.67C570.072 90.55 569.465 88.2967 568.252 86.91C567.038 85.4367 565.262 84.7 562.922 84.7C558.155 84.7 555.772 87.6033 555.772 93.41C555.772 96.7033 556.638 99.78 558.372 102.64C560.192 105.5 563.442 108.967 568.122 113.04C574.102 118.24 578.218 122.963 580.472 127.21C582.725 131.457 583.852 136.44 583.852 142.16C583.852 149.613 581.988 155.333 578.262 159.32C574.622 163.307 569.292 165.3 562.272 165.3ZM610.641 165.3C603.707 165.3 598.464 163.35 594.911 159.45C591.357 155.463 589.581 149.787 589.581 142.42V137.22H603.101V143.46C603.101 149.353 605.571 152.3 610.511 152.3C612.937 152.3 614.757 151.607 615.971 150.22C617.271 148.747 617.921 146.407 617.921 143.2C617.921 139.387 617.054 136.05 615.321 133.19C613.587 130.243 610.381 126.733 605.701 122.66C599.807 117.46 595.691 112.78 593.351 108.62C591.011 104.373 589.841 99.6067 589.841 94.32C589.841 87.1267 591.661 81.58 595.301 77.68C598.941 73.6933 604.227 71.7 611.161 71.7C618.007 71.7 623.164 73.6933 626.631 77.68C630.184 81.58 631.961 87.2133 631.961 94.58V98.35H618.441V93.67C618.441 90.55 617.834 88.2967 616.621 86.91C615.407 85.4367 613.631 84.7 611.291 84.7C606.524 84.7 604.141 87.6033 604.141 93.41C604.141 96.7033 605.007 99.78 606.741 102.64C608.561 105.5 611.811 108.967 616.491 113.04C622.471 118.24 626.587 122.963 628.841 127.21C631.094 131.457 632.221 136.44 632.221 142.16C632.221 149.613 630.357 155.333 626.631 159.32C622.991 163.307 617.661 165.3 610.641 165.3Z" fill="white"/>
</svg>
