<svg width="650" height="250" viewBox="0 0 650 250" fill="none" xmlns="http://www.w3.org/2000/svg">
<rect width="650" height="250" fill="#4B7BEC"/>
<rect width="250" height="250" fill="#3867D6"/>
<path d="M323.15 65H366.8V80H339.65V109.25H360.95V124.25H339.65V170H323.15V65ZM374.713 65H391.213V170H374.713V65ZM426.97 171.5C418.97 171.5 412.87 169.25 408.67 164.75C404.47 160.15 402.37 153.6 402.37 145.1V89.9C402.37 81.4 404.47 74.9 408.67 70.4C412.87 65.8 418.97 63.5 426.97 63.5C434.97 63.5 441.07 65.8 445.27 70.4C449.47 74.9 451.57 81.4 451.57 89.9V98.9H435.97V88.85C435.97 81.95 433.12 78.5 427.42 78.5C421.72 78.5 418.87 81.95 418.87 88.85V146.3C418.87 153.1 421.72 156.5 427.42 156.5C433.12 156.5 435.97 153.1 435.97 146.3V125.75H427.72V110.75H451.57V145.1C451.57 153.6 449.47 160.15 445.27 164.75C441.07 169.25 434.97 171.5 426.97 171.5ZM462.164 65H485.714L496.214 140.15H496.514L507.014 65H530.564V170H514.964V90.5H514.664L502.664 170H488.864L476.864 90.5H476.564V170H462.164V65ZM555.627 65H577.977L595.077 170H578.577L575.577 149.15V149.45H556.827L553.827 170H538.527L555.627 65ZM573.627 135.2L566.277 83.3H565.977L558.777 135.2H573.627Z" fill="white"/>
<path d="M86.6966 240C96.8632 240 106.613 235.961 113.802 228.772C120.991 221.584 125.03 211.833 125.03 201.667V163.333H86.6966C76.53 163.333 66.7797 167.372 59.5909 174.561C52.402 181.75 48.3633 191.5 48.3633 201.667C48.3633 211.833 52.402 221.584 59.5909 228.772C66.7797 235.961 76.53 240 86.6966 240Z" fill="white"/>
<path d="M48.3633 125C48.3633 114.833 52.402 105.083 59.5909 97.8942C66.7797 90.7053 76.53 86.6666 86.6966 86.6666H125.03V163.333H86.6966C76.53 163.333 66.7797 159.295 59.5909 152.106C52.402 144.917 48.3633 135.167 48.3633 125Z" fill="white"/>
<path d="M48.3633 48.3333C48.3633 38.1719 52.3978 28.4262 59.5803 21.2382C66.7627 14.0501 76.5052 10.0079 86.6667 10L125 10V86.6667H86.6966C76.53 86.6667 66.7797 82.628 59.5909 75.4391C52.402 68.2502 48.3633 58.5 48.3633 48.3333Z" fill="white"/>
<path d="M125.03 10H163.363C173.53 10 183.28 14.0387 190.469 21.2276C197.658 28.4165 201.697 38.1667 201.697 48.3333C201.697 58.5 197.658 68.2502 190.469 75.4391C183.28 82.628 173.53 86.6667 163.363 86.6667H125.03V10Z" fill="white"/>
<path d="M201.697 125C201.697 135.167 197.658 144.917 190.469 152.106C183.28 159.295 173.53 163.333 163.363 163.333C153.197 163.333 143.446 159.295 136.258 152.106C129.069 144.917 125.03 135.167 125.03 125C125.03 114.833 129.069 105.083 136.258 97.8942C143.446 90.7053 153.197 86.6666 163.363 86.6666C173.53 86.6666 183.28 90.7053 190.469 97.8942C197.658 105.083 201.697 114.833 201.697 125Z" fill="white"/>
</svg>
