<svg width="650" height="250" viewBox="0 0 650 250" fill="none" xmlns="http://www.w3.org/2000/svg">
<rect width="650" height="250" fill="#F57F17"/>
<rect width="250" height="250" fill="#F39C12"/>
<g clip-path="url(#clip0_8_335)">
<path d="M151.019 93.0731L127.997 114.492L106.636 71.4028L117.69 46.6203C120.565 41.5891 125.05 41.6466 127.853 46.6203L151.019 93.0731Z" fill="white"/>
<path d="M106.636 71.4028L127.997 114.492L41.9628 194.525L106.636 71.4028Z" fill="#F39C12"/>
<path d="M176.197 60.3342C180.308 56.3811 184.563 57.7323 185.648 63.3314L208.044 193.461L133.812 238.024C131.224 239.461 124.324 240.079 124.324 240.079C124.324 240.079 118.042 239.332 115.649 237.923L41.9628 194.525L176.197 60.3342Z" fill="white"/>
<path d="M106.636 71.4029L41.97 194.525L70.7703 14.5857C71.8341 8.97943 75.0253 8.44037 77.8716 13.3854L106.636 71.4029Z" fill="white"/>
</g>
<path d="M291.92 85H326.84V97H305.12V120.4H322.16V132.4H305.12V169H291.92V85ZM333.17 85H346.37V169H333.17V85ZM356.256 85H375.816C382.616 85 387.576 86.6 390.696 89.8C393.816 92.92 395.376 97.76 395.376 104.32V109.48C395.376 118.2 392.496 123.72 386.736 126.04V126.28C389.936 127.24 392.176 129.2 393.456 132.16C394.816 135.12 395.496 139.08 395.496 144.04V158.8C395.496 161.2 395.576 163.16 395.736 164.68C395.896 166.12 396.296 167.56 396.936 169H383.496C383.016 167.64 382.696 166.36 382.536 165.16C382.376 163.96 382.296 161.8 382.296 158.68V143.32C382.296 139.48 381.656 136.8 380.376 135.28C379.176 133.76 377.056 133 374.016 133H369.456V169H356.256V85ZM374.256 121C376.896 121 378.856 120.32 380.136 118.96C381.496 117.6 382.176 115.32 382.176 112.12V105.64C382.176 102.6 381.616 100.4 380.496 99.04C379.456 97.68 377.776 97 375.456 97H369.456V121H374.256ZM404.654 85H440.654V97H417.854V119.2H435.974V131.2H417.854V157H440.654V169H404.654V85ZM448.248 85H468.168C474.968 85 479.928 86.6 483.048 89.8C486.168 92.92 487.728 97.76 487.728 104.32V107.68C487.728 112 487.008 115.52 485.568 118.24C484.208 120.96 482.088 122.92 479.208 124.12V124.36C485.768 126.6 489.048 132.44 489.048 141.88V149.08C489.048 155.56 487.328 160.52 483.888 163.96C480.528 167.32 475.568 169 469.008 169H448.248V85ZM466.608 119.2C469.248 119.2 471.208 118.52 472.488 117.16C473.848 115.8 474.528 113.52 474.528 110.32V105.64C474.528 102.6 473.968 100.4 472.848 99.04C471.808 97.68 470.128 97 467.808 97H461.448V119.2H466.608ZM469.008 157C471.328 157 473.048 156.4 474.168 155.2C475.288 153.92 475.848 151.76 475.848 148.72V141.4C475.848 137.56 475.168 134.92 473.808 133.48C472.528 131.96 470.368 131.2 467.328 131.2H461.448V157H469.008ZM506.964 85H524.844L538.524 169H525.324L522.924 152.32V152.56H507.924L505.524 169H493.284L506.964 85ZM521.364 141.16L515.484 99.64H515.244L509.484 141.16H521.364ZM561.736 170.2C555.336 170.2 550.496 168.4 547.216 164.8C543.936 161.12 542.296 155.88 542.296 149.08V144.28H554.776V150.04C554.776 155.48 557.056 158.2 561.616 158.2C563.856 158.2 565.536 157.56 566.656 156.28C567.856 154.92 568.456 152.76 568.456 149.8C568.456 146.28 567.656 143.2 566.056 140.56C564.456 137.84 561.496 134.6 557.176 130.84C551.736 126.04 547.936 121.72 545.776 117.88C543.616 113.96 542.536 109.56 542.536 104.68C542.536 98.04 544.216 92.92 547.576 89.32C550.936 85.64 555.816 83.8 562.216 83.8C568.536 83.8 573.296 85.64 576.496 89.32C579.776 92.92 581.416 98.12 581.416 104.92V108.4H568.936V104.08C568.936 101.2 568.376 99.12 567.256 97.84C566.136 96.48 564.496 95.8 562.336 95.8C557.936 95.8 555.736 98.48 555.736 103.84C555.736 106.88 556.536 109.72 558.136 112.36C559.816 115 562.816 118.2 567.136 121.96C572.656 126.76 576.456 131.12 578.536 135.04C580.616 138.96 581.656 143.56 581.656 148.84C581.656 155.72 579.936 161 576.496 164.68C573.136 168.36 568.216 170.2 561.736 170.2ZM589.225 85H625.225V97H602.425V119.2H620.545V131.2H602.425V157H625.225V169H589.225V85Z" fill="white"/>
<defs>
<clipPath id="clip0_8_335">
<rect width="230" height="230" fill="white" transform="translate(10 10)"/>
</clipPath>
</defs>
</svg>
