<svg width="650" height="250" viewBox="0 0 650 250" fill="none" xmlns="http://www.w3.org/2000/svg">
<rect width="650" height="250" fill="#45AAF2"/>
<rect width="250" height="250" fill="#2D98DA"/>
<mask id="mask0_8_350" style="mask-type:luminance" maskUnits="userSpaceOnUse" x="31" y="10" width="187" height="230">
<path d="M217.297 116.131L155.385 178.065L217.297 239.998H146.55L84.6167 178.065L146.55 116.131H217.297ZM146.55 10L31.5623 124.988L66.9467 160.372L217.297 10H146.55Z" fill="white"/>
</mask>
<g mask="url(#mask0_8_350)">
<path d="M84.6388 178.065L120.001 213.449L217.297 116.131H146.55L84.6388 178.065Z" fill="white"/>
</g>
<mask id="mask1_8_350" style="mask-type:luminance" maskUnits="userSpaceOnUse" x="31" y="10" width="187" height="230">
<path d="M217.297 116.131L155.385 178.065L217.297 239.998H146.55L84.6167 178.065L146.55 116.131H217.297ZM146.55 10L31.5623 124.988L66.9467 160.372L217.297 10H146.55Z" fill="white"/>
</mask>
<g mask="url(#mask1_8_350)">
<path d="M146.55 10H217.297L66.9467 160.372L31.5623 124.988L146.55 10Z" fill="white"/>
</g>
<mask id="mask2_8_350" style="mask-type:luminance" maskUnits="userSpaceOnUse" x="31" y="10" width="187" height="230">
<path d="M217.297 116.131L155.385 178.065L217.297 239.998H146.55L84.6167 178.065L146.55 116.131H217.297ZM146.55 10L31.5623 124.988L66.9467 160.372L217.297 10H146.55Z" fill="white"/>
</mask>
<g mask="url(#mask2_8_350)">
<path d="M120.001 213.449L146.55 239.976H217.297L155.385 178.064L120.001 213.449Z" fill="white"/>
</g>
<mask id="mask3_8_350" style="mask-type:luminance" maskUnits="userSpaceOnUse" x="31" y="10" width="187" height="230">
<path d="M217.297 116.131L155.385 178.065L217.297 239.998H146.55L84.6167 178.065L146.55 116.131H217.297ZM146.55 10L31.5623 124.988L66.9467 160.372L217.297 10H146.55Z" fill="white"/>
</mask>
<g mask="url(#mask3_8_350)">
<path d="M84.6349 178.052L120.02 142.667L155.408 178.052L120.02 213.438L84.6349 178.052Z" fill="white"/>
</g>
<path d="M217.297 116.131L155.385 178.065L217.297 239.998H146.55L84.6167 178.065L146.55 116.131H217.297ZM146.55 10L31.5623 124.988L66.9467 160.372L217.297 10H146.55Z" fill="url(#paint0_radial_8_350)"/>
<path d="M310.92 77H345.84V89H324.12V112.4H341.16V124.4H324.12V161H310.92V77ZM352.17 77H365.37V149H387.09V161H352.17V77ZM412.62 162.2C406.22 162.2 401.34 160.4 397.98 156.8C394.62 153.12 392.94 147.88 392.94 141.08V77H406.14V142.04C406.14 144.92 406.7 147 407.82 148.28C409.02 149.56 410.7 150.2 412.86 150.2C415.02 150.2 416.66 149.56 417.78 148.28C418.98 147 419.58 144.92 419.58 142.04V77H432.3V141.08C432.3 147.88 430.62 153.12 427.26 156.8C423.9 160.4 419.02 162.2 412.62 162.2ZM452.021 89H438.221V77H479.021V89H465.221V161H452.021V89ZM496.904 89H483.104V77H523.904V89H510.104V161H496.904V89ZM530.295 77H566.295V89H543.495V111.2H561.615V123.2H543.495V149H566.295V161H530.295V77ZM573.889 77H593.449C600.249 77 605.209 78.6 608.329 81.8C611.449 84.92 613.009 89.76 613.009 96.32V101.48C613.009 110.2 610.129 115.72 604.369 118.04V118.28C607.569 119.24 609.809 121.2 611.089 124.16C612.449 127.12 613.129 131.08 613.129 136.04V150.8C613.129 153.2 613.209 155.16 613.369 156.68C613.529 158.12 613.929 159.56 614.569 161H601.129C600.649 159.64 600.329 158.36 600.169 157.16C600.009 155.96 599.929 153.8 599.929 150.68V135.32C599.929 131.48 599.289 128.8 598.009 127.28C596.809 125.76 594.689 125 591.649 125H587.089V161H573.889V77ZM591.889 113C594.529 113 596.489 112.32 597.769 110.96C599.129 109.6 599.809 107.32 599.809 104.12V97.64C599.809 94.6 599.249 92.4 598.129 91.04C597.089 89.68 595.409 89 593.089 89H587.089V113H591.889Z" fill="white"/>
<defs>
<radialGradient id="paint0_radial_8_350" cx="0" cy="0" r="1" gradientUnits="userSpaceOnUse" gradientTransform="translate(36.7802 25.676) scale(281.375 281.375)">
<stop stop-color="white" stop-opacity="0.1"/>
<stop offset="1" stop-color="white" stop-opacity="0"/>
</radialGradient>
</defs>
</svg>
