<svg width="650" height="250" viewBox="0 0 650 250" fill="none" xmlns="http://www.w3.org/2000/svg">
<rect width="650" height="250" fill="#0F76BC"/>
<rect width="250" height="250" fill="#3498DB"/>
<path d="M310.999 102.76C306.946 102.76 303.855 101.62 301.727 99.34C299.599 97.0093 298.535 93.6907 298.535 89.384V61.416C298.535 57.1093 299.599 53.816 301.727 51.536C303.855 49.2053 306.946 48.04 310.999 48.04C315.053 48.04 318.143 49.2053 320.271 51.536C322.399 53.816 323.463 57.1093 323.463 61.416V65.976H315.559V60.884C315.559 57.388 314.115 55.64 311.227 55.64C308.339 55.64 306.895 57.388 306.895 60.884V89.992C306.895 93.4373 308.339 95.16 311.227 95.16C314.115 95.16 315.559 93.4373 315.559 89.992V79.58H311.379V71.98H323.463V89.384C323.463 93.6907 322.399 97.0093 320.271 99.34C318.143 101.62 315.053 102.76 310.999 102.76ZM340.915 102.76C336.811 102.76 333.67 101.595 331.491 99.264C329.312 96.9333 328.223 93.64 328.223 89.384V61.416C328.223 57.16 329.312 53.8667 331.491 51.536C333.67 49.2053 336.811 48.04 340.915 48.04C345.019 48.04 348.16 49.2053 350.339 51.536C352.518 53.8667 353.607 57.16 353.607 61.416V89.384C353.607 93.64 352.518 96.9333 350.339 99.264C348.16 101.595 345.019 102.76 340.915 102.76ZM340.915 95.16C343.803 95.16 345.247 93.412 345.247 89.916V60.884C345.247 57.388 343.803 55.64 340.915 55.64C338.027 55.64 336.583 57.388 336.583 60.884V89.916C336.583 93.412 338.027 95.16 340.915 95.16ZM371.345 102.76C367.241 102.76 364.099 101.595 361.921 99.264C359.742 96.9333 358.653 93.64 358.653 89.384V61.416C358.653 57.16 359.742 53.8667 361.921 51.536C364.099 49.2053 367.241 48.04 371.345 48.04C375.449 48.04 378.59 49.2053 380.769 51.536C382.947 53.8667 384.037 57.16 384.037 61.416V89.384C384.037 93.64 382.947 96.9333 380.769 99.264C378.59 101.595 375.449 102.76 371.345 102.76ZM371.345 95.16C374.233 95.16 375.677 93.412 375.677 89.916V60.884C375.677 57.388 374.233 55.64 371.345 55.64C368.457 55.64 367.013 57.388 367.013 60.884V89.916C367.013 93.412 368.457 95.16 371.345 95.16ZM401.546 102.76C397.493 102.76 394.402 101.62 392.274 99.34C390.146 97.0093 389.082 93.6907 389.082 89.384V61.416C389.082 57.1093 390.146 53.816 392.274 51.536C394.402 49.2053 397.493 48.04 401.546 48.04C405.6 48.04 408.69 49.2053 410.818 51.536C412.946 53.816 414.01 57.1093 414.01 61.416V65.976H406.106V60.884C406.106 57.388 404.662 55.64 401.774 55.64C398.886 55.64 397.442 57.388 397.442 60.884V89.992C397.442 93.4373 398.886 95.16 401.774 95.16C404.662 95.16 406.106 93.4373 406.106 89.992V79.58H401.926V71.98H414.01V89.384C414.01 93.6907 412.946 97.0093 410.818 99.34C408.69 101.62 405.6 102.76 401.546 102.76ZM419.378 48.8H427.738V94.4H441.494V102H419.378V48.8ZM445.503 48.8H468.303V56.4H453.863V70.46H465.339V78.06H453.863V94.4H468.303V102H445.503V48.8ZM497.064 102.76C493.061 102.76 489.996 101.62 487.868 99.34C485.791 97.06 484.752 93.8427 484.752 89.688V61.112C484.752 56.9573 485.791 53.74 487.868 51.46C489.996 49.18 493.061 48.04 497.064 48.04C501.067 48.04 504.107 49.18 506.184 51.46C508.312 53.74 509.376 56.9573 509.376 61.112V66.736H501.472V60.58C501.472 57.2867 500.079 55.64 497.292 55.64C494.505 55.64 493.112 57.2867 493.112 60.58V90.296C493.112 93.5387 494.505 95.16 497.292 95.16C500.079 95.16 501.472 93.5387 501.472 90.296V82.164H509.376V89.688C509.376 93.8427 508.312 97.06 506.184 99.34C504.107 101.62 501.067 102.76 497.064 102.76ZM514.378 48.8H522.738V94.4H536.494V102H514.378V48.8ZM552.29 102.76C548.186 102.76 545.045 101.595 542.866 99.264C540.687 96.9333 539.598 93.64 539.598 89.384V61.416C539.598 57.16 540.687 53.8667 542.866 51.536C545.045 49.2053 548.186 48.04 552.29 48.04C556.394 48.04 559.535 49.2053 561.714 51.536C563.893 53.8667 564.982 57.16 564.982 61.416V89.384C564.982 93.64 563.893 96.9333 561.714 99.264C559.535 101.595 556.394 102.76 552.29 102.76ZM552.29 95.16C555.178 95.16 556.622 93.412 556.622 89.916V60.884C556.622 57.388 555.178 55.64 552.29 55.64C549.402 55.64 547.958 57.388 547.958 60.884V89.916C547.958 93.412 549.402 95.16 552.29 95.16ZM582.796 102.76C578.742 102.76 575.652 101.62 573.524 99.34C571.396 97.0093 570.332 93.6907 570.332 89.384V48.8H578.692V89.992C578.692 91.816 579.046 93.1333 579.756 93.944C580.516 94.7547 581.58 95.16 582.948 95.16C584.316 95.16 585.354 94.7547 586.064 93.944C586.824 93.1333 587.204 91.816 587.204 89.992V48.8H595.26V89.384C595.26 93.6907 594.196 97.0093 592.068 99.34C589.94 101.62 586.849 102.76 582.796 102.76ZM601.214 48.8H613.982C618.136 48.8 621.252 49.9147 623.33 52.144C625.407 54.3733 626.446 57.6413 626.446 61.948V88.852C626.446 93.1587 625.407 96.4267 623.33 98.656C621.252 100.885 618.136 102 613.982 102H601.214V48.8ZM613.83 94.4C615.198 94.4 616.236 93.9947 616.946 93.184C617.706 92.3733 618.086 91.056 618.086 89.232V61.568C618.086 59.744 617.706 58.4267 616.946 57.616C616.236 56.8053 615.198 56.4 613.83 56.4H609.574V94.4H613.83ZM346.346 139.8H358.658C362.813 139.8 365.929 140.915 368.006 143.144C370.084 145.373 371.122 148.641 371.122 152.948V158.192C371.122 162.499 370.084 165.767 368.006 167.996C365.929 170.225 362.813 171.34 358.658 171.34H354.706V193H346.346V139.8ZM358.658 163.74C360.026 163.74 361.04 163.36 361.698 162.6C362.408 161.84 362.762 160.548 362.762 158.724V152.416C362.762 150.592 362.408 149.3 361.698 148.54C361.04 147.78 360.026 147.4 358.658 147.4H354.706V163.74H358.658ZM375.663 139.8H384.023V185.4H397.779V193H375.663V139.8ZM408.545 139.8H419.869L428.533 193H420.173L418.653 182.436V182.588H409.153L407.633 193H399.881L408.545 139.8ZM417.665 175.368L413.941 149.072H413.789L410.141 175.368H417.665ZM435.636 147.4H426.896V139.8H452.736V147.4H443.996V193H435.636V147.4ZM456.784 139.8H478.9V147.4H465.144V162.22H475.936V169.82H465.144V193H456.784V139.8ZM494.993 193.76C490.889 193.76 487.748 192.595 485.569 190.264C483.39 187.933 482.301 184.64 482.301 180.384V152.416C482.301 148.16 483.39 144.867 485.569 142.536C487.748 140.205 490.889 139.04 494.993 139.04C499.097 139.04 502.238 140.205 504.417 142.536C506.596 144.867 507.685 148.16 507.685 152.416V180.384C507.685 184.64 506.596 187.933 504.417 190.264C502.238 192.595 499.097 193.76 494.993 193.76ZM494.993 186.16C497.881 186.16 499.325 184.412 499.325 180.916V151.884C499.325 148.388 497.881 146.64 494.993 146.64C492.105 146.64 490.661 148.388 490.661 151.884V180.916C490.661 184.412 492.105 186.16 494.993 186.16ZM513.339 139.8H525.727C530.033 139.8 533.175 140.813 535.151 142.84C537.127 144.816 538.115 147.881 538.115 152.036V155.304C538.115 160.827 536.291 164.323 532.643 165.792V165.944C534.669 166.552 536.088 167.793 536.899 169.668C537.76 171.543 538.191 174.051 538.191 177.192V186.54C538.191 188.06 538.241 189.301 538.343 190.264C538.444 191.176 538.697 192.088 539.103 193H530.591C530.287 192.139 530.084 191.328 529.983 190.568C529.881 189.808 529.831 188.44 529.831 186.464V176.736C529.831 174.304 529.425 172.607 528.615 171.644C527.855 170.681 526.512 170.2 524.587 170.2H521.699V193H513.339V139.8ZM524.739 162.6C526.411 162.6 527.652 162.169 528.463 161.308C529.324 160.447 529.755 159.003 529.755 156.976V152.872C529.755 150.947 529.4 149.553 528.691 148.692C528.032 147.831 526.968 147.4 525.499 147.4H521.699V162.6H524.739ZM543.991 139.8H555.923L561.243 177.876H561.395L566.715 139.8H578.647V193H570.743V152.72H570.591L564.511 193H557.519L551.439 152.72H551.287V193H543.991V139.8Z" fill="white"/>
<path d="M200.11 102.22C196.114 87.5156 187.916 74.2958 176.52 64.1802L176.17 64.5302L176.22 64.1102C166.266 55.3286 154.237 49.2292 141.27 46.3878C128.304 43.5464 114.827 44.0569 102.112 47.8711C89.3977 51.6852 77.8652 58.6772 68.6036 68.1867C59.342 77.6962 52.657 89.4094 49.18 102.22C49.49 102.09 49.84 102.09 50.17 101.99C42.7157 106.968 36.5546 113.651 32.1968 121.484C27.8391 129.317 25.4101 138.076 25.111 147.035C24.8119 155.994 26.6514 164.895 30.477 173.001C34.3026 181.107 40.0043 188.186 47.11 193.65L47.17 193.59L47.11 193.83C56.9182 201.239 68.8879 205.223 81.18 205.17H124.39L124.63 205.41H168.04C180.16 205.507 191.988 201.7 201.776 194.553C211.564 187.405 218.791 177.296 222.388 165.722C225.985 154.149 225.761 141.724 221.749 130.288C217.737 118.851 210.149 109.01 200.11 102.22ZM168.05 170.67H124.64L124.58 170.73V170.42H81.18C78.1 170.42 75.07 169.76 72.26 168.49L72.28 168.48C69.0792 167.037 66.2766 164.838 64.1126 162.072C61.9487 159.307 60.4882 156.058 59.8564 152.604C59.2246 149.15 59.4403 145.594 60.4852 142.242C61.5301 138.89 63.3729 135.841 65.8553 133.358C68.3377 130.874 71.3857 129.031 74.7376 127.985C78.0895 126.939 81.6451 126.722 85.0994 127.352C88.5536 127.983 91.8032 129.442 94.5693 131.605C97.3353 133.768 99.5351 136.57 100.98 139.77L126.16 114.59C117.783 103.679 105.704 96.2097 92.2 93.5902C92.38 93.5002 92.55 93.3502 92.7 93.3802C100.145 85.2042 110.433 80.1831 121.459 79.3446C132.485 78.5062 143.414 81.914 152.01 88.8702H152.47C157.45 93.0221 161.435 98.2384 164.131 104.135C166.828 110.031 168.167 116.458 168.05 122.94V127.27C173.805 127.27 179.325 129.556 183.394 133.626C187.464 137.696 189.75 143.215 189.75 148.97C189.75 154.725 187.464 160.245 183.394 164.314C179.325 168.384 173.805 170.67 168.05 170.67Z" fill="white"/>
</svg>
