<svg width="650" height="250" viewBox="0 0 650 250" fill="none" xmlns="http://www.w3.org/2000/svg">
<rect width="650" height="250" fill="#FD4C3E"/>
<rect width="250" height="250" fill="#F03C2E"/>
<path d="M408.55 171.5C400.55 171.5 394.45 169.25 390.25 164.75C386.05 160.15 383.95 153.6 383.95 145.1V89.9C383.95 81.4 386.05 74.9 390.25 70.4C394.45 65.8 400.55 63.5 408.55 63.5C416.55 63.5 422.65 65.8 426.85 70.4C431.05 74.9 433.15 81.4 433.15 89.9V98.9H417.55V88.85C417.55 81.95 414.7 78.5 409 78.5C403.3 78.5 400.45 81.95 400.45 88.85V146.3C400.45 153.1 403.3 156.5 409 156.5C414.7 156.5 417.55 153.1 417.55 146.3V125.75H409.3V110.75H433.15V145.1C433.15 153.6 431.05 160.15 426.85 164.75C422.65 169.25 416.55 171.5 408.55 171.5ZM443.744 65H460.244V170H443.744V65ZM485.501 80H468.251V65H519.251V80H502.001V170H485.501V80Z" fill="white"/>
<g clip-path="url(#clip0_8_463)">
<path d="M235.659 114.758L135.242 14.3413C133.867 12.9656 132.235 11.8743 130.438 11.1298C128.641 10.3852 126.715 10.002 124.77 10.002C122.825 10.002 120.899 10.3852 119.102 11.1298C117.305 11.8743 115.673 12.9656 114.298 14.3413L93.4541 35.185L119.904 61.635C126.057 59.4788 133.1 60.9522 138.002 65.8541C140.336 68.1917 141.965 71.1384 142.703 74.3577C143.441 77.577 143.26 80.9391 142.178 84.06L167.672 109.554C173.839 107.427 180.955 108.799 185.878 113.737C187.515 115.374 188.813 117.318 189.699 119.457C190.584 121.596 191.04 123.888 191.039 126.203C191.039 128.518 190.583 130.81 189.697 132.949C188.81 135.087 187.512 137.03 185.875 138.667C184.237 140.304 182.294 141.602 180.155 142.487C178.016 143.373 175.724 143.829 173.409 143.828C171.094 143.828 168.802 143.372 166.663 142.486C164.524 141.599 162.581 140.301 160.945 138.663C155.77 133.488 154.49 125.87 157.107 119.494L133.33 95.7181V158.285C135.056 159.139 136.634 160.265 138.002 161.62C139.639 163.257 140.937 165.2 141.823 167.338C142.709 169.477 143.165 171.769 143.165 174.083C143.165 176.398 142.709 178.69 141.823 180.828C140.937 182.967 139.639 184.91 138.002 186.547C136.366 188.183 134.422 189.482 132.284 190.367C130.146 191.253 127.854 191.709 125.539 191.709C123.224 191.709 120.933 191.253 118.794 190.367C116.656 189.482 114.713 188.183 113.076 186.547C111.437 184.911 110.137 182.968 109.25 180.83C108.363 178.691 107.907 176.399 107.907 174.083C107.907 171.768 108.363 169.476 109.25 167.337C110.137 165.199 111.437 163.256 113.076 161.62C114.779 159.924 116.67 158.637 118.848 157.775V94.6256C116.749 93.7631 114.779 92.4909 113.076 90.7803C110.601 88.3085 108.918 85.1556 108.243 81.7237C107.567 78.2917 107.928 74.7363 109.281 71.5106L83.1903 45.4344L14.3341 114.219C12.9573 115.594 11.8652 117.227 11.12 119.024C10.3748 120.822 9.99124 122.749 9.99124 124.695C9.99124 126.64 10.3748 128.567 11.12 130.365C11.8652 132.162 12.9573 133.795 14.3341 135.17L114.758 235.58C116.133 236.955 117.765 238.047 119.562 238.791C121.359 239.536 123.285 239.919 125.23 239.919C127.175 239.919 129.101 239.536 130.898 238.791C132.695 238.047 134.327 236.955 135.702 235.58L235.659 135.781C237.036 134.406 238.128 132.773 238.873 130.976C239.618 129.178 240.002 127.251 240.002 125.305C240.002 123.36 239.618 121.433 238.873 119.635C238.128 117.838 237.036 116.205 235.659 114.83" fill="white"/>
</g>
<defs>
<clipPath id="clip0_8_463">
<rect width="230" height="230" fill="white" transform="translate(10 10)"/>
</clipPath>
</defs>
</svg>
