<svg width="650" height="250" viewBox="0 0 650 250" fill="none" xmlns="http://www.w3.org/2000/svg">
<rect width="650" height="250" fill="#1F1F1F"/>
<rect width="250" height="250" fill="#050505"/>
<path d="M321.55 171.5C313.55 171.5 307.45 169.25 303.25 164.75C299.05 160.15 296.95 153.6 296.95 145.1V89.9C296.95 81.4 299.05 74.9 303.25 70.4C307.45 65.8 313.55 63.5 321.55 63.5C329.55 63.5 335.65 65.8 339.85 70.4C344.05 74.9 346.15 81.4 346.15 89.9V98.9H330.55V88.85C330.55 81.95 327.7 78.5 322 78.5C316.3 78.5 313.45 81.95 313.45 88.85V146.3C313.45 153.1 316.3 156.5 322 156.5C327.7 156.5 330.55 153.1 330.55 146.3V125.75H322.3V110.75H346.15V145.1C346.15 153.6 344.05 160.15 339.85 164.75C335.65 169.25 329.55 171.5 321.55 171.5ZM356.744 65H373.244V170H356.744V65ZM398.501 80H381.251V65H432.251V80H415.001V170H398.501V80ZM440.24 65H456.74V107.75H474.44V65H490.94V170H474.44V122.75H456.74V170H440.24V65ZM527.228 171.5C519.228 171.5 513.128 169.25 508.928 164.75C504.728 160.15 502.628 153.6 502.628 145.1V65H519.128V146.3C519.128 149.9 519.828 152.5 521.228 154.1C522.728 155.7 524.828 156.5 527.528 156.5C530.228 156.5 532.278 155.7 533.678 154.1C535.178 152.5 535.928 149.9 535.928 146.3V65H551.828V145.1C551.828 153.6 549.728 160.15 545.528 164.75C541.328 169.25 535.228 171.5 527.228 171.5ZM563.58 65H588.48C596.98 65 603.18 67 607.08 71C610.98 74.9 612.93 80.95 612.93 89.15V93.35C612.93 98.75 612.03 103.15 610.23 106.55C608.53 109.95 605.88 112.4 602.28 113.9V114.2C610.48 117 614.58 124.3 614.58 136.1V145.1C614.58 153.2 612.43 159.4 608.13 163.7C603.93 167.9 597.73 170 589.53 170H563.58V65ZM586.53 107.75C589.83 107.75 592.28 106.9 593.88 105.2C595.58 103.5 596.43 100.65 596.43 96.65V90.8C596.43 87 595.73 84.25 594.33 82.55C593.03 80.85 590.93 80 588.03 80H580.08V107.75H586.53ZM589.53 155C592.43 155 594.58 154.25 595.98 152.75C597.38 151.15 598.08 148.45 598.08 144.65V135.5C598.08 130.7 597.23 127.4 595.53 125.6C593.93 123.7 591.23 122.75 587.43 122.75H580.08V155H589.53Z" fill="white"/>
<g clip-path="url(#clip0_8_519)">
<path d="M205.5 10H44.5C25.4462 10 10 25.4462 10 44.5V205.5C10 224.554 25.4462 240 44.5 240H205.5C224.554 240 240 224.554 240 205.5V44.5C240 25.4462 224.554 10 205.5 10Z" fill="white"/>
<path d="M63.457 124.551C71.0937 138.027 85.4687 146.113 109.277 148.359C105.684 151.055 101.641 155.996 101.191 161.836C96.6992 164.531 88.1641 165.43 81.4258 163.184C71.9922 160.039 68.3984 141.621 54.0234 144.316C50.8789 144.766 51.3281 147.012 54.0234 148.809C58.5156 151.504 63.457 155.996 65.7031 162.285C71.0937 176.211 82.3242 179.805 100.293 177.109V197.324C100.293 203.613 91.3086 205.41 91.3086 208.555C91.3086 209.902 94.4531 209.902 96.6992 209.902C101.191 209.902 111.074 205.859 111.074 199.57C111.074 194.18 111.074 176.211 111.523 173.066C111.523 166.328 115.117 164.082 115.117 164.082C115.117 164.082 115.566 200.918 114.219 205.41C112.422 211.25 109.727 210.352 109.727 213.047C109.727 217.09 121.406 213.945 125.449 205.41C128.594 198.672 127.246 162.734 126.797 163.184H129.941C129.941 163.184 129.941 179.805 130.391 186.992C130.391 194.629 129.941 204.512 134.434 209.453C137.578 212.598 147.461 217.988 147.461 213.047C147.461 210.352 142.07 207.656 142.07 200.02V164.531C146.562 164.531 145.664 176.211 145.664 176.211L146.113 197.773C146.113 197.773 145.215 205.859 154.648 209.004C158.242 210.352 165.43 210.352 165.879 208.555C166.328 206.758 156.895 203.613 156.895 197.324V175.312C156.895 159.141 154.648 153.301 147.012 148.359C170.82 146.113 185.645 140.273 192.832 124.551C197.324 115.566 198.223 104.785 198.223 96.6992C198.223 74.2383 187.441 66.6016 185.195 62.5586C188.34 45.4883 184.746 37.8516 182.949 35.6055C176.66 33.3594 161.387 40.9961 153.301 46.3867C139.824 42.3437 111.074 42.793 100.293 47.2852C80.5273 33.3594 70.1953 35.6055 70.1953 35.6055C70.1953 35.6055 63.457 47.7344 68.3984 65.2539C61.6602 73.3398 57.168 79.1797 56.7187 94.4531C56.7187 106.582 58.0664 114.219 63.457 124.551Z" fill="#050505"/>
</g>
<defs>
<clipPath id="clip0_8_519">
<rect width="230" height="230" fill="white" transform="translate(10 10)"/>
</clipPath>
</defs>
</svg>
