<svg width="650" height="250" viewBox="0 0 650 250" fill="none" xmlns="http://www.w3.org/2000/svg">
<rect width="650" height="250" fill="#18B6DD"/>
<rect width="250" height="250" fill="#00ACD7"/>
<path d="M291.55 171.5C283.55 171.5 277.45 169.25 273.25 164.75C269.05 160.15 266.95 153.6 266.95 145.1V89.9C266.95 81.4 269.05 74.9 273.25 70.4C277.45 65.8 283.55 63.5 291.55 63.5C299.55 63.5 305.65 65.8 309.85 70.4C314.05 74.9 316.15 81.4 316.15 89.9V98.9H300.55V88.85C300.55 81.95 297.7 78.5 292 78.5C286.3 78.5 283.45 81.95 283.45 88.85V146.3C283.45 153.1 286.3 156.5 292 156.5C297.7 156.5 300.55 153.1 300.55 146.3V125.75H292.3V110.75H316.15V145.1C316.15 153.6 314.05 160.15 309.85 164.75C305.65 169.25 299.55 171.5 291.55 171.5ZM350.594 171.5C342.494 171.5 336.294 169.2 331.994 164.6C327.694 160 325.544 153.5 325.544 145.1V89.9C325.544 81.5 327.694 75 331.994 70.4C336.294 65.8 342.494 63.5 350.594 63.5C358.694 63.5 364.894 65.8 369.194 70.4C373.494 75 375.644 81.5 375.644 89.9V145.1C375.644 153.5 373.494 160 369.194 164.6C364.894 169.2 358.694 171.5 350.594 171.5ZM350.594 156.5C356.294 156.5 359.144 153.05 359.144 146.15V88.85C359.144 81.95 356.294 78.5 350.594 78.5C344.894 78.5 342.044 81.95 342.044 88.85V146.15C342.044 153.05 344.894 156.5 350.594 156.5ZM410.826 65H427.326V155H454.476V170H410.826V65ZM475.724 65H498.074L515.174 170H498.674L495.674 149.15V149.45H476.924L473.924 170H458.624L475.724 65ZM493.724 135.2L486.374 83.3H486.074L478.874 135.2H493.724ZM523.179 65H543.879L559.929 127.85H560.229V65H574.929V170H557.979L538.179 93.35H537.879V170H523.179V65ZM610.593 171.5C602.593 171.5 596.493 169.25 592.293 164.75C588.093 160.15 585.993 153.6 585.993 145.1V89.9C585.993 81.4 588.093 74.9 592.293 70.4C596.493 65.8 602.593 63.5 610.593 63.5C618.593 63.5 624.693 65.8 628.893 70.4C633.093 74.9 635.193 81.4 635.193 89.9V98.9H619.593V88.85C619.593 81.95 616.743 78.5 611.043 78.5C605.343 78.5 602.493 81.95 602.493 88.85V146.3C602.493 153.1 605.343 156.5 611.043 156.5C616.743 156.5 619.593 153.1 619.593 146.3V125.75H611.343V110.75H635.193V145.1C635.193 153.6 633.093 160.15 628.893 164.75C624.693 169.25 618.593 171.5 610.593 171.5Z" fill="white"/>
<path d="M141.411 87.8474L141.916 88.1845C147.851 92.1039 152.107 97.4791 154.906 103.974C155.578 104.982 155.13 105.542 153.787 105.878L151.512 106.46C146.37 107.785 142.289 108.898 137.215 110.223L134.321 110.977C133.278 111.235 132.991 111.127 131.882 109.865L131.726 109.685C130.145 107.894 128.961 106.697 126.866 105.629L126.463 105.43C119.408 101.958 112.577 102.966 106.194 107.11C98.5788 112.037 94.6594 119.316 94.7714 128.387C94.8833 137.345 101.042 144.736 109.889 145.968C117.504 146.976 123.887 144.288 128.926 138.577C129.934 137.345 130.83 136.001 131.95 134.434H110.337C107.985 134.434 107.425 132.978 108.209 131.074L108.598 130.16C110.037 126.812 112.269 121.999 113.719 119.247L114.035 118.654C114.422 117.983 115.208 117.076 116.72 117.076L152.758 117.076C154.377 111.948 157.003 107.103 160.506 102.518C168.68 91.768 178.535 86.1688 191.861 83.8172C203.283 81.8015 214.034 82.9213 223.776 89.5283C232.623 95.5754 238.11 103.75 239.566 114.501C241.469 129.618 237.102 141.936 226.688 152.463C219.297 159.966 210.226 164.669 199.812 166.797C196.788 167.357 193.765 167.469 190.853 167.805C180.663 167.581 171.368 164.669 163.529 157.95C158.016 153.184 154.218 147.327 152.331 140.508C151.022 143.153 149.456 145.686 147.627 148.096C139.565 158.734 129.038 165.341 115.712 167.133C104.738 168.589 94.5474 166.461 85.5887 159.742C77.302 153.471 72.5987 145.184 71.3669 134.882C69.9111 122.675 73.4945 111.701 80.8854 102.07C88.8362 91.656 99.3627 85.049 112.241 82.6973C122.572 80.8289 132.472 81.9809 141.411 87.8474ZM194.683 103.894L194.325 103.974C183.91 106.326 177.191 112.933 174.727 123.459C172.712 132.194 176.967 141.041 185.03 144.624C191.189 147.312 197.348 146.976 203.283 143.952C212.13 139.361 216.945 132.194 217.505 122.563C217.393 121.108 217.393 119.988 217.169 118.868C215.176 107.906 205.191 101.652 194.683 103.894ZM62.2962 124.355C62.7441 124.355 62.9681 124.691 62.9681 125.139L62.7441 127.827C62.7441 128.275 62.2962 128.61 61.9603 128.61L37.5479 128.498C37.1 128.498 36.988 128.163 37.2119 127.827L38.7797 125.027C39.0037 124.691 39.4516 124.355 39.8995 124.355H62.2962ZM64.7598 114.053C65.2078 114.053 65.4317 114.389 65.3198 114.725L64.4239 117.412C64.3119 117.86 63.864 118.084 63.416 118.084L10.4479 118.196C10 118.196 9.88802 117.972 10.112 117.636L12.4636 114.613C12.6876 114.277 13.2475 114.053 13.6954 114.053H64.7598ZM70.583 103.75C71.0309 103.75 71.1429 104.086 70.9189 104.422L69.0152 107.334C68.7912 107.67 68.2313 108.006 67.8954 108.006L27.3574 107.894C26.9095 107.894 26.7975 107.67 27.0215 107.334L29.3731 104.31C29.5971 103.974 30.157 103.75 30.6049 103.75H70.583Z" fill="white"/>
</svg>
