<svg width="650" height="250" viewBox="0 0 650 250" fill="none" xmlns="http://www.w3.org/2000/svg">
<rect width="650" height="250" fill="#DB5B05"/>
<rect width="650" height="250" fill="#E25F0E"/>
<rect width="250" height="250" fill="#FD721D"/>
<path d="M308.96 162.2C302.56 162.2 297.68 160.4 294.32 156.8C290.96 153.12 289.28 147.88 289.28 141.08V96.92C289.28 90.12 290.96 84.92 294.32 81.32C297.68 77.64 302.56 75.8 308.96 75.8C315.36 75.8 320.24 77.64 323.6 81.32C326.96 84.92 328.64 90.12 328.64 96.92V104.12H316.16V96.08C316.16 90.56 313.88 87.8 309.32 87.8C304.76 87.8 302.48 90.56 302.48 96.08V142.04C302.48 147.48 304.76 150.2 309.32 150.2C313.88 150.2 316.16 147.48 316.16 142.04V125.6H309.56V113.6H328.64V141.08C328.64 147.88 326.96 153.12 323.6 156.8C320.24 160.4 315.36 162.2 308.96 162.2ZM337.115 77H356.675C363.475 77 368.435 78.6 371.555 81.8C374.675 84.92 376.235 89.76 376.235 96.32V101.48C376.235 110.2 373.355 115.72 367.595 118.04V118.28C370.795 119.24 373.035 121.2 374.315 124.16C375.675 127.12 376.355 131.08 376.355 136.04V150.8C376.355 153.2 376.435 155.16 376.595 156.68C376.755 158.12 377.155 159.56 377.795 161H364.355C363.875 159.64 363.555 158.36 363.395 157.16C363.235 155.96 363.155 153.8 363.155 150.68V135.32C363.155 131.48 362.515 128.8 361.235 127.28C360.035 125.76 357.915 125 354.875 125H350.315V161H337.115V77ZM355.115 113C357.755 113 359.715 112.32 360.995 110.96C362.355 109.6 363.035 107.32 363.035 104.12V97.64C363.035 94.6 362.475 92.4 361.355 91.04C360.315 89.68 358.635 89 356.315 89H350.315V113H355.115ZM395.714 77H413.594L427.274 161H414.074L411.674 144.32V144.56H396.674L394.274 161H382.034L395.714 77ZM410.114 133.16L404.234 91.64H403.994L398.234 133.16H410.114ZM433.678 77H468.598V89H446.878V112.4H463.918V124.4H446.878V161H433.678V77ZM481.261 77H499.141L512.821 161H499.621L497.221 144.32V144.56H482.221L479.821 161H467.581L481.261 77ZM495.661 133.16L489.781 91.64H489.541L483.781 133.16H495.661ZM519.225 77H535.785L548.625 127.28H548.865V77H560.625V161H547.065L531.225 99.68H530.985V161H519.225V77ZM580.636 77H598.516L612.196 161H598.996L596.596 144.32V144.56H581.596L579.196 161H566.956L580.636 77ZM595.036 133.16L589.156 91.64H588.916L583.156 133.16H595.036Z" fill="white"/>
<path d="M203.553 114.172C203.275 110.615 202.669 107.091 201.742 103.646C199.176 93.9694 194.446 85.0025 187.908 77.4219C186.466 75.5605 184.859 73.834 183.104 72.2638C185.703 61.9344 179.889 52.9962 179.889 52.9962C169.861 52.3925 163.653 55.9756 161.251 57.7606C160.844 57.5638 160.438 57.3669 160.044 57.3669C158.443 56.7631 156.631 55.9756 154.833 55.5688C153.022 54.9781 151.224 54.5844 149.412 53.9937C147.614 53.5869 145.606 53.1931 143.598 52.7862C143.204 52.7862 142.994 52.7863 142.601 52.5894C138.191 38.9 125.761 33.125 125.761 33.125C111.927 41.8663 109.119 54.1775 109.119 54.1775C109.119 54.1775 109.119 54.3744 108.909 54.965L106.507 55.5688C105.509 55.9625 104.302 56.3563 103.304 56.5663C102.294 56.96 101.099 57.3537 100.089 57.7475C98.0806 58.745 95.8888 59.7425 93.8806 60.74C91.8725 61.9213 89.8644 63.1156 88.0662 64.31C87.8562 64.1131 87.6725 64.1131 87.6725 64.1131C68.4181 56.96 51.3688 65.8981 51.3688 65.8981C49.7675 86.1631 58.9812 99.0781 60.9894 101.467C60.5956 102.648 60.2019 104.039 59.795 105.234C58.3953 109.923 57.3209 114.703 56.5794 119.54C56.5794 120.328 56.3825 120.931 56.3825 121.719C38.3356 130.066 33.125 147.943 33.125 147.943C47.9562 164.834 65.4125 166.016 65.4125 166.016C67.6044 169.993 70.2162 173.562 73.025 177.146C74.2325 178.537 75.4269 179.928 76.8312 181.319C73.6219 190.5 73.9069 200.541 77.6319 209.525C94.2744 210.116 105.102 202.372 107.307 200.587C108.909 201.177 110.72 201.584 112.321 201.978C117.335 203.369 122.559 203.96 127.756 204.354H134.187C141.997 215.484 155.634 216.875 155.634 216.875C165.451 206.742 165.858 196.61 165.858 194.431V194.234V193.841V193.447C167.866 192.043 169.861 190.454 171.672 188.853C175.502 185.34 178.931 181.413 181.897 177.146C182.094 176.752 182.501 176.358 182.697 175.964C193.722 176.555 201.545 169.205 201.545 169.205C199.734 157.878 193.119 152.313 191.714 151.119L191.517 150.922H191.321C191.321 150.922 191.124 150.922 191.124 150.725C191.124 150.134 191.321 149.334 191.321 148.743C191.321 147.549 191.517 146.354 191.517 144.963V143.375V141.196V140.199V138.204L191.321 137.219C191.124 136.025 190.927 134.634 190.52 133.439C189.4 128.599 187.503 123.971 184.903 119.737C182.315 115.591 179.141 111.842 175.479 108.607C171.914 105.544 167.932 103.003 163.653 101.06C159.519 99.2049 155.122 98.0007 150.62 97.49C148.415 97.2931 146.21 97.0963 144.005 97.0963H142.981H140.803C139.595 97.2931 138.584 97.2931 137.39 97.49C132.98 98.2775 128.964 99.8656 125.158 102.057C121.548 104.236 118.333 106.822 115.734 109.998C113.168 112.938 111.13 116.299 109.709 119.934C108.341 123.357 107.53 126.977 107.307 130.657V135.815C107.504 137.613 107.911 139.398 108.318 140.986C109.316 144.373 110.72 147.352 112.728 149.727C114.526 152.313 116.928 154.295 119.343 156.093C121.745 157.668 124.357 158.876 126.956 159.663C129.568 160.451 131.969 160.661 134.371 160.661H137.574C137.981 160.661 138.191 160.661 138.388 160.464C138.584 160.464 138.991 160.267 139.188 160.267C139.792 160.057 140.186 160.057 140.789 159.873L143.808 158.666C144.741 158.259 145.615 157.729 146.407 157.091C146.604 156.881 146.801 156.697 147.011 156.697C147.214 156.553 147.382 156.366 147.505 156.149C147.627 155.933 147.701 155.692 147.719 155.444C147.738 155.196 147.702 154.946 147.614 154.714C147.525 154.481 147.386 154.271 147.208 154.098C146.604 153.311 145.606 153.114 144.806 153.704C144.609 153.901 144.412 153.901 144.202 154.098C143.598 154.492 142.798 154.702 141.997 154.886L139.595 155.489C139.201 155.489 138.794 155.686 138.388 155.686H134.581C130.551 155.174 126.773 153.443 123.753 150.725C122.145 149.309 120.787 147.632 119.737 145.764C118.675 143.769 117.931 141.622 117.532 139.398C117.335 138.217 117.335 137.219 117.335 136.025V134.634V134.24C117.335 133.636 117.532 133.046 117.532 132.455C118.333 127.677 120.944 122.913 124.751 119.33C125.761 118.346 126.759 117.545 127.769 116.954C128.767 116.167 129.961 115.563 131.169 114.973C132.376 114.369 133.571 113.975 134.975 113.581C136.274 113.171 137.629 112.968 138.991 112.978H143.204C144.609 113.174 146.21 113.371 147.614 113.581C150.423 114.172 153.219 115.156 155.831 116.758C161.041 119.54 165.451 124.107 168.26 129.476C169.664 132.245 170.662 135.028 171.069 138.007C171.266 138.794 171.266 139.595 171.266 140.199V144.963C171.266 145.751 171.069 146.551 171.069 147.352C171.069 148.139 170.872 148.927 170.675 149.727L170.071 152.116C169.678 153.704 169.061 155.292 168.457 156.881C167.21 159.976 165.598 162.91 163.653 165.622C157.614 173.832 148.629 179.383 138.584 181.109C136.983 181.319 135.172 181.503 133.571 181.713H130.972C130.171 181.713 129.161 181.713 128.36 181.516C124.753 181.26 121.186 180.596 117.729 179.534C114.333 178.537 111.044 177.205 107.911 175.558C98.4392 170.527 90.6873 162.78 85.6512 153.311C84.0905 150.186 82.8165 146.927 81.845 143.572C80.8475 140.199 80.4406 136.826 80.0469 133.439V129.476V128.281C80.0469 126.496 80.2438 124.895 80.4406 123.11C80.6375 121.325 81.0444 119.54 81.2412 117.952C81.635 116.154 82.0419 114.566 82.4487 112.781C83.4095 109.454 84.616 106.203 86.0581 103.055C88.8669 96.8863 92.6731 91.3344 97.28 86.9638C98.4875 85.7694 99.695 84.7719 100.889 83.7744C102.097 82.79 103.304 81.9894 104.696 81.005C106.008 80.1647 107.347 79.3681 108.712 78.6163C109.316 78.2225 110.116 78.0256 110.72 77.6187C111.03 77.4357 111.366 77.3029 111.717 77.225C112.031 77.0407 112.372 76.9078 112.728 76.8312C114.133 76.2275 115.734 75.6369 117.138 75.2431C117.532 75.0463 117.926 75.0462 118.333 74.8494C118.726 74.6394 119.133 74.6394 119.54 74.4556C120.341 74.2456 121.141 74.0488 121.745 73.8519C122.139 73.655 122.546 73.655 122.952 73.655C123.346 73.655 123.74 73.445 124.147 73.445C124.541 73.445 124.948 73.2481 125.354 73.2481L125.958 73.0512H126.562C126.956 73.0512 127.349 72.8544 127.756 72.8544C128.15 72.8544 128.557 72.6575 129.161 72.6575C129.554 72.6575 130.171 72.4606 130.565 72.4606H140.592C143.611 72.6575 146.407 72.8544 149.216 73.445C154.833 74.4425 160.241 76.2275 165.058 78.6163C169.861 81.005 174.271 83.7744 177.881 86.9638L178.484 87.5544L179.088 88.145C179.482 88.5387 179.889 88.9456 180.492 89.3394L181.7 90.5338L182.894 91.715C184.509 93.3163 185.913 95.1012 187.304 96.8862C189.916 100.272 192.121 103.646 193.736 107.019C193.919 107.216 193.919 107.413 194.129 107.623C194.326 107.819 194.326 108.016 194.326 108.213L194.93 109.394L195.534 110.602L196.124 111.783C196.728 113.384 197.332 114.776 197.739 116.154C198.526 118.346 199.143 120.328 199.537 122.126C199.734 122.716 200.337 123.307 201.138 123.11C201.323 123.115 201.507 123.083 201.679 123.015C201.851 122.947 202.007 122.845 202.138 122.715C202.27 122.585 202.373 122.43 202.443 122.258C202.512 122.087 202.546 121.904 202.542 121.719C203.75 118.739 203.75 116.561 203.553 114.172Z" fill="white"/>
</svg>
