<svg width="650" height="250" viewBox="0 0 650 250" fill="none" xmlns="http://www.w3.org/2000/svg">
<rect width="650" height="250" fill="#7C78B6"/>
<rect width="250" height="250" fill="#6762A6"/>
<path d="M315.92 77H329.12V111.2H343.28V77H356.48V161H343.28V123.2H329.12V161H315.92V77ZM366.311 77H402.311V89H379.511V111.2H397.631V123.2H379.511V149H402.311V161H366.311V77ZM409.904 77H429.464C436.264 77 441.224 78.6 444.344 81.8C447.464 84.92 449.024 89.76 449.024 96.32V101.48C449.024 110.2 446.144 115.72 440.384 118.04V118.28C443.584 119.24 445.824 121.2 447.104 124.16C448.464 127.12 449.144 131.08 449.144 136.04V150.8C449.144 153.2 449.224 155.16 449.384 156.68C449.544 158.12 449.944 159.56 450.584 161H437.144C436.664 159.64 436.344 158.36 436.184 157.16C436.024 155.96 435.944 153.8 435.944 150.68V135.32C435.944 131.48 435.304 128.8 434.024 127.28C432.824 125.76 430.704 125 427.664 125H423.104V161H409.904V77ZM427.904 113C430.544 113 432.504 112.32 433.784 110.96C435.144 109.6 435.824 107.32 435.824 104.12V97.64C435.824 94.6 435.264 92.4 434.144 91.04C433.104 89.68 431.424 89 429.104 89H423.104V113H427.904ZM477.383 162.2C470.903 162.2 465.943 160.36 462.503 156.68C459.063 153 457.343 147.8 457.343 141.08V96.92C457.343 90.2 459.063 85 462.503 81.32C465.943 77.64 470.903 75.8 477.383 75.8C483.863 75.8 488.823 77.64 492.263 81.32C495.703 85 497.423 90.2 497.423 96.92V141.08C497.423 147.8 495.703 153 492.263 156.68C488.823 160.36 483.863 162.2 477.383 162.2ZM477.383 150.2C481.943 150.2 484.223 147.44 484.223 141.92V96.08C484.223 90.56 481.943 87.8 477.383 87.8C472.823 87.8 470.543 90.56 470.543 96.08V141.92C470.543 147.44 472.823 150.2 477.383 150.2ZM506.35 77H519.55V112.4L536.35 77H549.55L533.83 107.84L549.79 161H535.99L524.83 123.56L519.55 134.24V161H506.35V77ZM575.12 162.2C568.72 162.2 563.84 160.4 560.48 156.8C557.12 153.12 555.44 147.88 555.44 141.08V77H568.64V142.04C568.64 144.92 569.2 147 570.32 148.28C571.52 149.56 573.2 150.2 575.36 150.2C577.52 150.2 579.16 149.56 580.28 148.28C581.48 147 582.08 144.92 582.08 142.04V77H594.8V141.08C594.8 147.88 593.12 153.12 589.76 156.8C586.4 160.4 581.52 162.2 575.12 162.2Z" fill="white"/>
<g clip-path="url(#clip0_8_499)">
<path d="M195.078 240H53.4844C47.6776 239.976 42.1154 237.659 38.0094 233.553C33.9034 229.447 31.5862 223.885 31.5625 218.078V31.9219C31.5862 26.1151 33.9034 20.5529 38.0094 16.4469C42.1154 12.3409 47.6776 10.0237 53.4844 10H195.078C200.885 10.0237 206.447 12.3409 210.553 16.4469C214.659 20.5529 216.976 26.1151 217 31.9219V218.078C216.976 223.885 214.659 229.447 210.553 233.553C206.447 237.659 200.885 239.976 195.078 240Z" fill="white"/>
<path d="M147.82 208.33V117.004C147.82 117.004 153.75 95.127 74.5977 125.988C74.5078 126.797 74.5078 41.4453 74.5078 41.4453L100.293 41.3105V95.2168C100.293 95.2168 172.617 66.6914 172.617 116.779V207.791H147.686L147.82 208.33ZM162.555 74.1934H135.602C145.484 62.0645 154.469 41.4004 154.469 41.4004H182.77C182.77 41.4004 177.918 54.877 163.004 74.1934H162.555ZM74.957 208.15V156.176L101.012 182.23L74.957 208.285V208.15Z" fill="#6762A6"/>
</g>
<defs>
<clipPath id="clip0_8_499">
<rect width="230" height="230" fill="white" transform="translate(10 10)"/>
</clipPath>
</defs>
</svg>
