<svg width="650" height="250" viewBox="0 0 650 250" fill="none" xmlns="http://www.w3.org/2000/svg">
<rect width="650" height="250" fill="#4B7BEC"/>
<rect width="250" height="250" fill="#3867D6"/>
<g clip-path="url(#clip0_8_385)">
<path d="M125.156 72.8979C96.2109 72.8979 72.7415 96.3673 72.7415 125.313C72.7415 154.258 96.2109 177.728 125.156 177.728C154.102 177.728 177.571 154.258 177.571 125.313C177.415 96.3673 153.946 72.8979 125.156 72.8979Z" fill="white"/>
<path d="M200.258 77.5919C213.48 77.5919 224.197 66.8742 224.197 53.6531C224.197 40.4321 213.48 29.7144 200.258 29.7144C187.037 29.7144 176.32 40.4321 176.32 53.6531C176.32 66.8742 187.037 77.5919 200.258 77.5919Z" fill="white"/>
<path d="M229.673 77.5918L228.735 75.4014L227.17 77.2789C223.259 81.6599 218.252 85.102 212.776 87.1361L211.211 87.7619L211.837 89.3265C216.687 100.748 219.034 112.952 219.034 125.313C219.034 177.102 176.946 219.347 125 219.347C73.0544 219.347 31.1224 177.102 31.1224 125.313C31.1224 73.5238 73.2109 31.2789 125.156 31.2789C139.238 31.2789 152.694 34.4082 165.367 40.3537L166.776 40.9796L167.401 39.415C169.748 33.9388 173.347 29.2449 178.041 25.4898L179.918 23.9252L177.728 22.8299C161.299 14.3809 143.619 10 125 10C61.6327 10 10 61.6327 10 125C10 188.367 61.6327 240 125 240C188.367 240 240 188.367 240 125C240 108.728 236.558 92.7687 229.673 77.5918Z" fill="white"/>
</g>
<path d="M339.546 64H356.046V169H339.546V64ZM392.253 170.5C384.153 170.5 377.953 168.2 373.653 163.6C369.353 159 367.203 152.5 367.203 144.1V88.9C367.203 80.5 369.353 74 373.653 69.4C377.953 64.8 384.153 62.5 392.253 62.5C400.353 62.5 406.553 64.8 410.853 69.4C415.153 74 417.303 80.5 417.303 88.9V144.1C417.303 152.5 415.153 159 410.853 163.6C406.553 168.2 400.353 170.5 392.253 170.5ZM392.253 155.5C397.953 155.5 400.803 152.05 400.803 145.15V87.85C400.803 80.95 397.953 77.5 392.253 77.5C386.553 77.5 383.703 80.95 383.703 87.85V145.15C383.703 152.05 386.553 155.5 392.253 155.5ZM428.462 64H449.162L465.212 126.85H465.512V64H480.212V169H463.262L443.462 92.35H443.162V169H428.462V64ZM492.475 64H508.975V169H492.475V64ZM544.583 170.5C536.683 170.5 530.633 168.25 526.433 163.75C522.333 159.25 520.283 152.9 520.283 144.7V88.3C520.283 80.1 522.333 73.75 526.433 69.25C530.633 64.75 536.683 62.5 544.583 62.5C552.483 62.5 558.483 64.75 562.583 69.25C566.783 73.75 568.883 80.1 568.883 88.3V99.4H553.283V87.25C553.283 80.75 550.533 77.5 545.033 77.5C539.533 77.5 536.783 80.75 536.783 87.25V145.9C536.783 152.3 539.533 155.5 545.033 155.5C550.533 155.5 553.283 152.3 553.283 145.9V129.85H568.883V144.7C568.883 152.9 566.783 159.25 562.583 163.75C558.483 168.25 552.483 170.5 544.583 170.5Z" fill="white"/>
<defs>
<clipPath id="clip0_8_385">
<rect width="230" height="230" fill="white" transform="translate(10 10)"/>
</clipPath>
</defs>
</svg>
