<svg width="650" height="250" viewBox="0 0 650 250" fill="none" xmlns="http://www.w3.org/2000/svg">
<rect width="650" height="250" fill="#9C88FF"/>
<rect width="250" height="250" fill="#8C7AE6"/>
<path d="M116.256 104.636H134.04L138.459 98.5872V51.2147H111.84V98.5921L116.256 104.636Z" fill="white"/>
<path d="M104.793 125.765L110.287 108.949L105.868 102.901L60.5562 88.2631L52.3319 113.433L97.6486 128.075L104.793 125.765Z" fill="white"/>
<path d="M121.46 143.137L107.074 132.741L99.9235 135.053L71.9207 173.379L93.4539 188.935L121.46 150.607V143.137Z" fill="white"/>
<path d="M143.225 132.74L128.836 143.133L128.839 150.608L156.842 188.935L178.377 173.379L150.369 135.049L143.225 132.74Z" fill="white"/>
<path d="M140.006 108.945L145.502 125.763L152.652 128.071L197.965 113.433L189.738 88.2616L144.424 102.903L140.006 108.945Z" fill="white"/>
<path d="M125.154 10.0957C61.8483 10.0957 10.3445 61.2999 10.3445 124.238C10.3445 187.199 61.8483 238.418 125.154 238.418C188.453 238.418 239.951 187.199 239.951 124.238C239.951 61.2999 188.453 10.0957 125.154 10.0957ZM125.154 33.2077C175.708 33.2077 216.704 73.958 216.704 124.238C216.704 174.534 175.708 215.302 125.154 215.302C74.5822 215.302 33.591 174.534 33.591 124.238C33.591 73.958 74.5822 33.2077 125.154 33.2077Z" fill="white"/>
<path d="M194.688 149.609L160.243 138.48L162.52 131.503L196.965 142.633L194.688 149.609Z" fill="white"/>
<path d="M150.757 94.6239L144.789 90.313L166.075 61.1781L172.044 65.4889L150.757 94.6239Z" fill="white"/>
<path d="M99.9083 94.3591L78.6246 65.2225L84.594 60.9117L105.878 90.0466L99.9083 94.3591Z" fill="white"/>
<path d="M55.4681 149.174L53.1895 142.198L87.6305 131.073L89.9093 138.049L55.4681 149.174Z" fill="white"/>
<path d="M121.233 197.018H128.61V161.004H121.233V197.018Z" fill="white"/>
<path d="M303.71 172.52C301.11 172.52 298.9 172.347 297.08 172V159C298.467 159.347 300.027 159.52 301.76 159.52C304.62 159.52 306.743 158.827 308.13 157.44C309.517 155.967 310.21 153.757 310.21 150.81V81H324.51V150.42C324.51 157.873 322.777 163.42 319.31 167.06C315.93 170.7 310.73 172.52 303.71 172.52ZM345.53 81H364.9L379.72 172H365.42L362.82 153.93V154.19H346.57L343.97 172H330.71L345.53 81ZM361.13 141.84L354.76 96.86H354.5L348.26 141.84H361.13ZM404.867 173.3C397.934 173.3 392.691 171.35 389.137 167.45C385.584 163.463 383.807 157.787 383.807 150.42V145.22H397.327V151.46C397.327 157.353 399.797 160.3 404.737 160.3C407.164 160.3 408.984 159.607 410.197 158.22C411.497 156.747 412.147 154.407 412.147 151.2C412.147 147.387 411.281 144.05 409.547 141.19C407.814 138.243 404.607 134.733 399.927 130.66C394.034 125.46 389.917 120.78 387.577 116.62C385.237 112.373 384.067 107.607 384.067 102.32C384.067 95.1267 385.887 89.58 389.527 85.68C393.167 81.6933 398.454 79.7 405.387 79.7C412.234 79.7 417.391 81.6933 420.857 85.68C424.411 89.58 426.187 95.2133 426.187 102.58V106.35H412.667V101.67C412.667 98.55 412.061 96.2967 410.847 94.91C409.634 93.4367 407.857 92.7 405.517 92.7C400.751 92.7 398.367 95.6033 398.367 101.41C398.367 104.703 399.234 107.78 400.967 110.64C402.787 113.5 406.037 116.967 410.717 121.04C416.697 126.24 420.814 130.963 423.067 135.21C425.321 139.457 426.447 144.44 426.447 150.16C426.447 157.613 424.584 163.333 420.857 167.32C417.217 171.307 411.887 173.3 404.867 173.3ZM434.646 81H455.056L464.156 146.13H464.416L473.516 81H493.926V172H480.406V103.1H480.146L469.746 172H457.786L447.386 103.1H447.126V172H434.646V81ZM504.598 81H518.898V172H504.598V81ZM529.607 81H547.547L561.457 135.47H561.717V81H574.457V172H559.767L542.607 105.57H542.347V172H529.607V81ZM585.086 81H624.086V94H599.386V118.05H619.016V131.05H599.386V159H624.086V172H585.086V81Z" fill="white"/>
</svg>
