<svg width="650" height="250" viewBox="0 0 650 250" fill="none" xmlns="http://www.w3.org/2000/svg">
<rect width="650" height="250" fill="#D63031"/>
<rect width="250" height="250" fill="#D3191A"/>
<path d="M276.053 170.6C273.053 170.6 270.503 170.4 268.403 170V155C270.003 155.4 271.803 155.6 273.803 155.6C277.103 155.6 279.553 154.8 281.153 153.2C282.753 151.5 283.553 148.95 283.553 145.55V65H300.053V145.1C300.053 153.7 298.053 160.1 294.053 164.3C290.153 168.5 284.153 170.6 276.053 170.6ZM311.85 65H356.85V80H328.35V107.75H351V122.75H328.35V155H356.85V170H311.85V65ZM366.342 65H387.042L403.092 127.85H403.392V65H418.092V170H401.142L381.342 93.35H381.042V170H366.342V65ZM430.356 65H446.856V109.25L467.856 65H484.356L464.706 103.55L484.656 170H467.406L453.456 123.2L446.856 136.55V170H430.356V65ZM492.465 65H508.965V170H492.465V65ZM521.323 65H542.023L558.073 127.85H558.373V65H573.073V170H556.123L536.323 93.35H536.023V170H521.323V65ZM606.787 171.5C598.787 171.5 592.737 169.25 588.637 164.75C584.537 160.15 582.487 153.6 582.487 145.1V139.1H598.087V146.3C598.087 153.1 600.937 156.5 606.637 156.5C609.437 156.5 611.537 155.7 612.937 154.1C614.437 152.4 615.187 149.7 615.187 146C615.187 141.6 614.187 137.75 612.187 134.45C610.187 131.05 606.487 127 601.087 122.3C594.287 116.3 589.537 110.9 586.837 106.1C584.137 101.2 582.787 95.7 582.787 89.6C582.787 81.3 584.887 74.9 589.087 70.4C593.287 65.8 599.387 63.5 607.387 63.5C615.287 63.5 621.237 65.8 625.237 70.4C629.337 74.9 631.387 81.4 631.387 89.9V94.25H615.787V88.85C615.787 85.25 615.087 82.65 613.687 81.05C612.287 79.35 610.237 78.5 607.537 78.5C602.037 78.5 599.287 81.85 599.287 88.55C599.287 92.35 600.287 95.9 602.287 99.2C604.387 102.5 608.137 106.5 613.537 111.2C620.437 117.2 625.187 122.65 627.787 127.55C630.387 132.45 631.687 138.2 631.687 144.8C631.687 153.4 629.537 160 625.237 164.6C621.037 169.2 614.887 171.5 606.787 171.5Z" fill="white"/>
<g clip-path="url(#clip0_27_46)">
<path d="M136.5 19.5833C108.708 19.5833 89.0625 24.3749 75.6458 32.0416C70.6076 34.5723 66.1649 38.1453 62.6127 42.5237C59.0604 46.9021 56.4797 51.9857 55.0417 57.4374C51.6328 59.5677 48.828 62.5375 46.8958 66.0624C42.5833 72.7707 41.1458 83.7916 44.9792 100.562C42.1202 102.657 39.7131 105.307 37.9018 108.353C36.0905 111.399 34.9122 114.779 34.4375 118.292C33.7931 122.494 34.1047 126.787 35.3491 130.852C36.5935 134.917 38.7387 138.649 41.625 141.771C45.663 146.329 51.0237 149.511 56.9583 150.875C58.875 151.354 58.875 150.875 60.3125 150.875C62.2178 159.178 65.1136 167.221 68.9375 174.833L46.4167 187.771L29.6458 197.354L23.8958 201.187L21.9792 202.625L21.0208 203.583C21.0208 203.583 20.0625 204.062 20.0625 205.979V209.333L28.2083 230.417H213.646L214.604 226.583C214.604 226.583 215.562 220.354 217 213.167C218.218 206.687 218.859 200.113 218.917 193.521C218.952 192.33 218.617 191.158 217.958 190.167L216.521 188.729L212.688 185.854L203.104 179.625L193.521 173.875C197.483 168.586 200.707 162.783 203.104 156.625C210.963 136.192 213.917 114.199 211.729 92.4166C209.812 65.5833 200.708 46.8958 186.813 35.3958C173.836 25.1793 157.807 19.6115 141.292 19.5833H136.5ZM139.854 28.6874C154.795 28.3444 169.381 33.2629 181.062 42.5833C187.375 47.9821 192.442 54.6845 195.917 62.2291L190.646 60.7916H177.229L178.667 69.8958C182.159 69.3401 185.716 69.3401 189.208 69.8958C192.068 69.9897 194.8 71.1044 196.91 73.038C199.019 74.9716 200.366 77.5964 200.708 80.4374H201.188C201.796 83.2729 202.117 86.1625 202.146 89.0624C201.805 87.6563 201.149 86.3458 200.229 85.2291L195.438 77.0833L187.771 81.3957C189.375 84.0197 190.815 86.7402 192.083 89.5416C193.306 91.1408 194.276 92.9185 194.958 94.8124C191.203 94.7949 187.478 94.147 183.938 92.8957L181.062 102C185.74 103.31 190.58 103.956 195.438 103.917C197.599 103.946 199.736 103.453 201.667 102.479H203.104C203.755 119.979 200.82 137.426 194.479 153.75C192.116 159.924 188.889 165.732 184.896 171C181.48 175.625 176.992 179.35 171.816 181.855C166.641 184.359 160.934 185.567 155.187 185.375C133.625 185.375 113.979 175.312 107.75 168.604C103.835 164.108 101.188 158.65 100.083 152.792L90.9792 154.229C92.4371 161.587 95.9223 168.392 101.042 173.875C104.875 177.67 109.232 180.897 113.979 183.458C111.265 183.962 108.856 185.51 107.271 187.771C107.097 187.965 106.966 188.193 106.883 188.44C106.801 188.687 106.77 188.949 106.792 189.208C98.8644 188.803 91.2175 186.143 84.75 181.542C82.4916 179.809 80.5468 177.702 79 175.312V174.354C74.8143 166.685 71.7485 158.455 69.8958 149.917C72.9745 147.49 75.4371 144.37 77.0833 140.812L68.9375 136.5C67.9566 138.599 66.6642 140.537 65.1042 142.25H63.6667C62.213 142.509 60.7155 142.342 59.3542 141.771C55.0392 141.121 51.1152 138.903 48.3333 135.542C46.4228 133.322 45.0073 130.722 44.181 127.912C43.3548 125.103 43.1368 122.15 43.5417 119.25C43.777 116.602 44.6383 114.048 46.0546 111.799C47.4709 109.55 49.4016 107.669 51.6875 106.312C54.5818 104.165 58.1581 103.143 61.75 103.437C62.5581 103.613 63.3189 103.96 63.9804 104.457C64.6419 104.953 65.1887 105.586 65.5833 106.312C66.879 109.362 67.6875 112.596 67.9792 115.896V123.083L86.1875 113.979V111.104C85.966 107.328 85.1577 103.61 83.7917 100.083C82.6718 95.5816 83.181 90.8288 85.2292 86.6666C87.4143 81.5483 89.1771 76.2598 90.5 70.8541C91.5332 66.4549 90.8476 61.8272 88.5833 57.9166C90.8259 53.2392 93.9123 49.0157 97.6875 45.4583C103.243 39.9933 109.836 35.6944 117.077 32.8143C124.318 29.9342 132.063 28.5311 139.854 28.6874ZM98.1667 32.9999L90.9792 39.2291C87.1634 42.8646 83.931 47.0668 81.3958 51.6874C75.9143 52.3301 70.4746 53.29 65.1042 54.5624C68.3373 48.1482 73.5442 42.9414 79.9583 39.7083C85.7903 36.8737 91.8897 34.6266 98.1667 32.9999ZM124.042 59.8332C120.748 59.7197 117.466 60.3011 114.412 61.5394C111.357 62.7778 108.598 64.6454 106.312 67.0207C103.443 70.1859 101.315 73.9508 100.083 78.0416L109.188 79.9583C109.752 77.3839 111.09 75.0434 113.021 73.2499C115.896 70.3749 120.687 67.4999 131.229 69.8958L133.146 60.7916L124.042 59.8332ZM79.4792 61.2707C80.5069 62.2327 81.2679 63.4446 81.6877 64.7882C82.1076 66.1319 82.1721 67.5614 81.875 68.9374C81.3958 71.8124 78.5208 77.5624 76.6042 83.3124C73.7424 89.4659 73.2311 96.4538 75.1667 102.958C75.7771 104.84 76.2574 106.761 76.6042 108.708H75.6458C75.2878 106.187 74.4761 103.752 73.25 101.521C72.3175 99.6148 70.9745 97.9388 69.3176 96.6133C67.6607 95.2878 65.7309 94.3455 63.6667 93.8541C59.931 93.4443 56.1515 93.9373 52.6458 95.2916C50.25 81.8749 52.1667 74.2082 54.5625 69.8958L58.3958 65.5833C65.2774 63.5059 72.3346 62.0624 79.4792 61.2707ZM140.812 77.5624L132.187 80.9166L135.542 89.5416C136.847 93.181 138.449 96.7068 140.333 100.083C136.525 100.137 132.755 99.3179 129.312 97.6874L125.479 106.312C130.828 108.925 136.822 109.924 142.729 109.187C143.985 109.044 145.194 108.626 146.27 107.964C147.347 107.301 148.264 106.41 148.958 105.354C149.782 104.156 150.224 102.736 150.224 101.281C150.224 99.8268 149.782 98.4066 148.958 97.2083C147.03 93.6877 145.426 89.9988 144.167 86.1874L140.812 77.5624ZM168.604 83.7916H159.5C160.468 95.6078 165.961 106.594 174.833 114.458C178.463 117.55 181.684 121.093 184.417 125H183.938C180.752 127.349 177.186 129.131 173.396 130.271C168.947 131.965 164.256 132.936 159.5 133.146H158.542C158.654 132.338 158.814 131.538 159.021 130.75L150.875 127.396C149.977 129.353 149.488 131.472 149.438 133.625C149.603 135.892 150.437 138.06 151.833 139.854C153.925 141.761 156.67 142.791 159.5 142.729C165.257 142.729 170.957 141.589 176.271 139.375C181.28 138.023 185.993 135.748 190.167 132.667C191.816 131.31 192.99 129.464 193.521 127.396C193.923 126.308 194.089 125.147 194.006 123.99C193.923 122.833 193.595 121.707 193.042 120.687C189.825 115.579 185.776 111.044 181.062 107.271C174.1 101.294 169.65 92.9081 168.604 83.7916ZM56 112.062C53.4871 114.308 51.5942 117.163 50.5032 120.352C49.4123 123.54 49.1601 126.956 49.7708 130.271L58.875 128.833C58.3661 127.13 58.3671 125.314 58.878 123.611C59.3889 121.908 60.3873 120.392 61.75 119.25L56 112.062ZM139.375 139.854L133.625 147.042C143.915 154.791 156.745 158.384 169.562 157.104L168.125 148C157.847 149.125 147.535 146.203 139.375 139.854ZM188.25 140.333C184.02 144.364 178.679 147.034 172.917 148L173.875 157.104C181.922 156.174 189.386 152.443 194.958 146.562L188.25 140.333ZM136.5 155.667L127.396 158.542C129.267 163.608 133.052 167.738 137.938 170.042C142.362 171.762 147.088 172.577 151.833 172.437C157.806 172.694 163.783 172.048 169.562 170.521L167.646 161.896C162.622 163.06 157.465 163.544 152.312 163.333C148.7 163.482 145.1 162.827 141.771 161.417C140.521 160.909 139.4 160.129 138.488 159.135C137.577 158.14 136.898 156.956 136.5 155.667ZM187.292 181.062L198.312 187.292L207.417 193.521L209.812 194.958C209.812 197.354 208.854 205.021 207.896 211.729L205.979 221.312H189.208C191.698 219.987 193.584 217.758 194.479 215.083C195.287 212.573 195.928 210.012 196.396 207.417C196.638 202.788 196.638 198.15 196.396 193.521C195.919 191.265 194.995 189.127 193.679 187.234C192.362 185.341 190.679 183.731 188.729 182.5H187.292V181.062ZM72.7708 182.979C74.8605 187.655 77.6032 192.011 80.9167 195.917C87.5659 203.818 95.7071 210.331 104.875 215.083C105.354 217 105.354 218.437 105.833 220.354C106.111 220.6 106.282 220.943 106.312 221.312H34.4375L29.1667 208.854C30.7759 207.519 32.5468 206.392 34.4375 205.5L50.7292 195.437L72.7708 182.979ZM180.104 189.208L184.417 190.167C185.2 190.61 185.868 191.231 186.368 191.981C186.867 192.73 187.183 193.585 187.292 194.479C187.535 198.309 187.535 202.15 187.292 205.979C187.305 207.625 186.979 209.256 186.333 210.771C185.854 212.208 185.375 212.687 184.896 212.687C181.045 213.999 176.927 214.328 172.917 213.646L165.729 212.208H148.479L137.458 216.521C131.292 218.812 124.845 220.262 118.292 220.833H115.896C115.896 220.354 115.417 219.875 114.937 217.958C113.964 211.619 113.643 205.196 113.979 198.792C113.548 197.03 113.716 195.175 114.458 193.521L117.812 192.083C122.504 191.987 127.135 193.145 131.229 195.437L149.438 203.583H156.625L158.062 202.146L169.083 194.479L175.312 191.125L178.188 190.167H178.667C178.667 189.208 179.146 189.208 180.104 189.208ZM94.3333 195.917C97.7369 197.058 101.287 197.704 104.875 197.833V199.271V204.062C101.121 201.673 97.5927 198.946 94.3333 195.917Z" fill="white"/>
</g>
<defs>
<clipPath id="clip0_27_46">
<rect width="230" height="230" fill="white" transform="translate(10 10)"/>
</clipPath>
</defs>
</svg>
