<svg width="650" height="250" viewBox="0 0 650 250" fill="none" xmlns="http://www.w3.org/2000/svg">
<rect width="650" height="250" fill="#E84118"/>
<rect width="250" height="250" fill="#C23616"/>
<path d="M212.368 164.578C210.797 173.623 205.211 181.524 197.041 186.256C189.425 190.667 180.299 191.984 170.636 193.377C165.46 194.123 160.107 194.895 154.878 196.185C141.052 199.594 127.66 206.246 114.71 212.679C88.7925 225.552 66.41 236.668 45.305 222.042C29.8457 211.327 30.5596 191.503 32.3607 180.64C34.0298 170.576 38.5424 161.307 42.9064 152.343C43.6604 150.793 44.3993 149.272 45.1183 147.764C47.2813 148.628 49.5819 149.218 51.98 149.486C47.5378 164.146 54.5236 180.087 69.1867 187.62L71.1932 188.651L73.3186 187.894C84.9103 183.766 95.5916 177.141 105.066 168.203C111.19 162.425 116.455 156.033 120.783 149.203C122.08 149.399 123.407 149.501 124.758 149.501C138.216 149.501 149.36 139.441 151.084 126.447C156.593 126.245 162.444 126.243 167.984 126.445C169.708 139.44 180.853 149.501 194.311 149.501C199.937 149.501 205.157 147.738 209.457 144.742C212.442 150.853 213.557 157.729 212.368 164.578ZM54.9424 106.954C63.8403 106.954 71.0785 114.192 71.0785 123.09C71.0785 126.286 70.1409 129.266 68.5307 131.776C65.8479 135.959 61.2899 138.826 56.051 139.184C55.6844 139.209 55.3152 139.226 54.9424 139.226C52.9598 139.226 51.0602 138.864 49.304 138.208C45.7514 136.878 42.7911 134.329 40.9291 131.074C39.5811 128.718 38.8063 125.993 38.8063 123.09C38.8063 114.192 46.045 106.954 54.9424 106.954ZM108.622 122.936C108.622 114.853 114.598 108.14 122.363 106.979C123.145 106.862 123.945 106.8 124.758 106.8C129.931 106.8 134.536 109.251 137.49 113.048C138.224 113.992 138.861 115.015 139.374 116.108C140.347 118.184 140.894 120.497 140.894 122.936C140.894 124.227 140.738 125.481 140.45 126.684C138.878 133.267 133.264 138.298 126.386 138.991C125.851 139.044 125.308 139.073 124.758 139.073C121.537 139.073 118.535 138.12 116.013 136.487C111.57 133.609 108.622 128.612 108.622 122.936ZM175.968 103.749C172.512 107.056 169.941 111.282 168.661 116.034C162.685 115.81 156.349 115.81 150.409 116.034C149.044 110.969 146.213 106.501 142.406 103.107L159.103 69.345L175.968 103.749ZM104.045 20.4293H214.117L188.119 97.1057C186.993 97.3763 185.893 97.7168 184.826 98.1261L159.144 45.7355L133.39 97.8133C132.276 97.43 131.129 97.1213 129.955 96.8872L104.045 20.4293ZM210.447 122.936C210.447 124.555 210.205 126.116 209.76 127.591C208.7 131.099 206.477 134.105 203.541 136.161C200.923 137.993 197.741 139.073 194.311 139.073C186.86 139.073 180.575 133.995 178.728 127.12C178.369 125.785 178.174 124.383 178.174 122.936C178.174 120.731 178.62 118.628 179.425 116.711C179.839 115.724 180.357 114.79 180.951 113.913C183.855 109.628 188.755 106.8 194.311 106.8C194.82 106.8 195.323 106.827 195.82 106.873C204.013 107.637 210.447 114.548 210.447 122.936ZM220.876 122.936C220.876 109.967 211.531 99.1461 199.224 96.834L228.665 10.0004H89.4991L118.985 97.0107C107.105 99.6545 98.1931 110.271 98.1931 122.936C98.1931 132.447 103.219 140.801 110.752 145.495C107.129 150.893 102.832 155.972 97.9089 160.617C90.1003 167.984 81.4015 173.57 72.0233 177.245C62.5774 171.312 58.5841 160.122 62.7312 150.374L63.056 149.61C63.2594 149.133 63.4628 148.655 63.6656 148.176C74.0408 144.558 81.5074 134.683 81.5074 123.09C81.5074 108.441 69.5903 96.5248 54.9424 96.5248C40.2945 96.5248 28.3774 108.441 28.3774 123.09C28.3774 130.483 31.4163 137.179 36.3075 141.999C35.421 143.889 34.4876 145.81 33.5298 147.778C29.0578 156.963 23.9894 167.374 22.0726 178.934C18.2655 201.893 24.4066 220.246 39.3642 230.613C48.441 236.904 57.6581 239.377 66.934 239.377C84.4004 239.377 102.068 230.602 119.349 222.019C131.794 215.838 144.664 209.445 157.376 206.31C162.105 205.144 166.972 204.442 172.125 203.699C182.343 202.225 192.909 200.701 202.268 195.281C213.116 188.997 220.543 178.456 222.643 166.362C224.445 155.98 222.276 145.581 216.985 136.762C219.451 132.732 220.876 127.998 220.876 122.936Z" fill="white"/>
<path d="M366.05 170.6C363.05 170.6 360.5 170.4 358.4 170V155C360 155.4 361.8 155.6 363.8 155.6C367.1 155.6 369.55 154.8 371.15 153.2C372.75 151.5 373.55 148.95 373.55 145.55V65H390.05V145.1C390.05 153.7 388.05 160.1 384.05 164.3C380.15 168.5 374.15 170.6 366.05 170.6ZM401.847 65H446.847V80H418.347V107.75H440.997V122.75H418.347V155H446.847V170H401.847V65ZM478.082 171.5C470.082 171.5 464.032 169.25 459.932 164.75C455.832 160.15 453.782 153.6 453.782 145.1V139.1H469.382V146.3C469.382 153.1 472.232 156.5 477.932 156.5C480.732 156.5 482.832 155.7 484.232 154.1C485.732 152.4 486.482 149.7 486.482 146C486.482 141.6 485.482 137.75 483.482 134.45C481.482 131.05 477.782 127 472.382 122.3C465.582 116.3 460.832 110.9 458.132 106.1C455.432 101.2 454.082 95.7 454.082 89.6C454.082 81.3 456.182 74.9 460.382 70.4C464.582 65.8 470.682 63.5 478.682 63.5C486.582 63.5 492.532 65.8 496.532 70.4C500.632 74.9 502.682 81.4 502.682 89.9V94.25H487.082V88.85C487.082 85.25 486.382 82.65 484.982 81.05C483.582 79.35 481.532 78.5 478.832 78.5C473.332 78.5 470.582 81.85 470.582 88.55C470.582 92.35 471.582 95.9 473.582 99.2C475.682 102.5 479.432 106.5 484.832 111.2C491.732 117.2 496.482 122.65 499.082 127.55C501.682 132.45 502.982 138.2 502.982 144.8C502.982 153.4 500.832 160 496.532 164.6C492.332 169.2 486.182 171.5 478.082 171.5ZM525.343 80H508.093V65H559.093V80H541.843V170H525.343V80Z" fill="white"/>
</svg>
