<svg width="650" height="250" viewBox="0 0 650 250" fill="none" xmlns="http://www.w3.org/2000/svg">
<rect width="650" height="250" fill="#DB5B05"/>
<rect width="650" height="250" fill="#00BF1D"/>
<rect width="250" height="250" fill="#04AD1E"/>
<path d="M271.6 96H280.4V119.6L291.6 96H300.4L289.92 116.56L300.56 152H291.36L283.92 127.04L280.4 134.16V152H271.6V96ZM316.195 152.8C311.875 152.8 308.569 151.573 306.275 149.12C303.982 146.667 302.835 143.2 302.835 138.72V109.28C302.835 104.8 303.982 101.333 306.275 98.88C308.569 96.4267 311.875 95.2 316.195 95.2C320.515 95.2 323.822 96.4267 326.115 98.88C328.409 101.333 329.555 104.8 329.555 109.28V138.72C329.555 143.2 328.409 146.667 326.115 149.12C323.822 151.573 320.515 152.8 316.195 152.8ZM316.195 144.8C319.235 144.8 320.755 142.96 320.755 139.28V108.72C320.755 105.04 319.235 103.2 316.195 103.2C313.155 103.2 311.635 105.04 311.635 108.72V139.28C311.635 142.96 313.155 144.8 316.195 144.8ZM335.507 96H346.547L355.107 129.52H355.267V96H363.107V152H354.067L343.507 111.12H343.347V152H335.507V96ZM382.127 152.8C377.861 152.8 374.607 151.6 372.367 149.2C370.127 146.747 369.007 143.253 369.007 138.72V109.28C369.007 104.747 370.127 101.28 372.367 98.88C374.607 96.4267 377.861 95.2 382.127 95.2C386.394 95.2 389.647 96.4267 391.887 98.88C394.127 101.28 395.247 104.747 395.247 109.28V114.08H386.927V108.72C386.927 105.04 385.407 103.2 382.367 103.2C379.327 103.2 377.807 105.04 377.807 108.72V139.36C377.807 142.987 379.327 144.8 382.367 144.8C385.407 144.8 386.927 142.987 386.927 139.36V128.4H382.527V120.4H395.247V138.72C395.247 143.253 394.127 146.747 391.887 149.2C389.647 151.6 386.394 152.8 382.127 152.8ZM426.19 152.8C421.923 152.8 418.67 151.6 416.43 149.2C414.19 146.747 413.07 143.253 413.07 138.72V109.28C413.07 104.747 414.19 101.28 416.43 98.88C418.67 96.4267 421.923 95.2 426.19 95.2C430.456 95.2 433.71 96.4267 435.95 98.88C438.19 101.28 439.31 104.747 439.31 109.28V114.08H430.99V108.72C430.99 105.04 429.47 103.2 426.43 103.2C423.39 103.2 421.87 105.04 421.87 108.72V139.36C421.87 142.987 423.39 144.8 426.43 144.8C429.47 144.8 430.99 142.987 430.99 139.36V128.4H426.59V120.4H439.31V138.72C439.31 143.253 438.19 146.747 435.95 149.2C433.71 151.6 430.456 152.8 426.19 152.8ZM451.76 96H463.68L472.8 152H464L462.4 140.88V141.04H452.4L450.8 152H442.64L451.76 96ZM461.36 133.44L457.44 105.76H457.28L453.44 133.44H461.36ZM480.277 104H471.077V96H498.277V104H489.077V152H480.277V104ZM502.538 96H526.538V104H511.338V118.8H523.418V126.8H511.338V144H526.538V152H502.538V96ZM529.52 96H538L541.92 139.04H542.08L546.24 96H555.84L560 139.04H560.16L564.08 96H571.68L566 152H555.04L551.04 114.24H550.88L546.88 152H535.2L529.52 96ZM581.838 96H593.758L602.878 152H594.078L592.478 140.88V141.04H582.478L580.878 152H572.718L581.838 96ZM591.438 133.44L587.518 105.76H587.358L583.518 133.44H591.438ZM611.555 128.16L600.915 96H610.275L616.275 116.56H616.435L622.435 96H630.995L620.355 128.16V152H611.555V128.16Z" fill="white"/>
<path d="M86.2163 190.826L91.2327 184.352H128.354L147.703 209.072L144.263 217.46H96.3924L97.539 209.072L86.2163 190.826Z" fill="white"/>
<path d="M97.5676 106.533L115.492 75.5674H136.379L230 184.312L222.741 217.459H182.597L185.115 208.155L97.5676 106.533Z" fill="white"/>
<path d="M119.324 69.6839L127.907 53.8125L153.655 33L197.772 67.5877L192.05 73.4272L199.73 84.0581V95.4376L177.746 113.405L140.856 69.6839H119.324Z" fill="white"/>
<path d="M51.1461 138.841H62.8074L93.2155 113.405L133.513 160.229L122.147 177.283H84.9492L59.2647 209.944L53.3603 217.459H20V177.427L51.1461 138.841Z" fill="white"/>
</svg>
