<svg width="650" height="250" viewBox="0 0 650 250" fill="none" xmlns="http://www.w3.org/2000/svg">
<rect width="650" height="250" fill="#DB5B05"/>
<rect width="650" height="250" fill="#326CE5"/>
<rect width="250" height="250" fill="#0E5BFA"/>
<path d="M281.183 89H291.083V115.55L303.683 89H313.583L301.793 112.13L313.763 152H303.413L295.043 123.92L291.083 131.93V152H281.183V89ZM332.761 152.9C327.961 152.9 324.301 151.55 321.781 148.85C319.261 146.09 318.001 142.16 318.001 137.06V89H327.901V137.78C327.901 139.94 328.321 141.5 329.161 142.46C330.061 143.42 331.321 143.9 332.941 143.9C334.561 143.9 335.791 143.42 336.631 142.46C337.531 141.5 337.981 139.94 337.981 137.78V89H347.521V137.06C347.521 142.16 346.261 146.09 343.741 148.85C341.221 151.55 337.561 152.9 332.761 152.9ZM354.572 89H369.512C374.612 89 378.332 90.2 380.672 92.6C383.012 94.94 384.182 98.57 384.182 103.49V106.01C384.182 109.25 383.642 111.89 382.562 113.93C381.542 115.97 379.952 117.44 377.792 118.34V118.52C382.712 120.2 385.172 124.58 385.172 131.66V137.06C385.172 141.92 383.882 145.64 381.302 148.22C378.782 150.74 375.062 152 370.142 152H354.572V89ZM368.342 114.65C370.322 114.65 371.792 114.14 372.752 113.12C373.772 112.1 374.282 110.39 374.282 107.99V104.48C374.282 102.2 373.862 100.55 373.022 99.53C372.242 98.51 370.982 98 369.242 98H364.472V114.65H368.342ZM370.142 143C371.882 143 373.172 142.55 374.012 141.65C374.852 140.69 375.272 139.07 375.272 136.79V131.3C375.272 128.42 374.762 126.44 373.742 125.36C372.782 124.22 371.162 123.65 368.882 123.65H364.472V143H370.142ZM390.959 89H417.959V98H400.859V114.65H414.449V123.65H400.859V143H417.959V152H390.959V89ZM423.654 89H438.324C443.424 89 447.144 90.2 449.484 92.6C451.824 94.94 452.994 98.57 452.994 103.49V107.36C452.994 113.9 450.834 118.04 446.514 119.78V119.96C448.914 120.68 450.594 122.15 451.554 124.37C452.574 126.59 453.084 129.56 453.084 133.28V144.35C453.084 146.15 453.144 147.62 453.264 148.76C453.384 149.84 453.684 150.92 454.164 152H444.084C443.724 150.98 443.484 150.02 443.364 149.12C443.244 148.22 443.184 146.6 443.184 144.26V132.74C443.184 129.86 442.704 127.85 441.744 126.71C440.844 125.57 439.254 125 436.974 125H433.554V152H423.654V89ZM437.154 116C439.134 116 440.604 115.49 441.564 114.47C442.584 113.45 443.094 111.74 443.094 109.34V104.48C443.094 102.2 442.674 100.55 441.834 99.53C441.054 98.51 439.794 98 438.054 98H433.554V116H437.154ZM459.953 89H472.373L482.003 126.71H482.183V89H491.003V152H480.833L468.953 106.01H468.773V152H459.953V89ZM498.361 89H525.361V98H508.261V114.65H521.851V123.65H508.261V143H525.361V152H498.361V89ZM538.796 98H528.446V89H559.046V98H548.696V152H538.796V98ZM563.839 89H590.839V98H573.739V114.65H587.329V123.65H573.739V143H590.839V152H563.839V89ZM609.581 152.9C604.781 152.9 601.151 151.55 598.691 148.85C596.231 146.09 595.001 142.16 595.001 137.06V133.46H604.361V137.78C604.361 141.86 606.071 143.9 609.491 143.9C611.171 143.9 612.431 143.42 613.271 142.46C614.171 141.44 614.621 139.82 614.621 137.6C614.621 134.96 614.021 132.65 612.821 130.67C611.621 128.63 609.401 126.2 606.161 123.38C602.081 119.78 599.231 116.54 597.611 113.66C595.991 110.72 595.181 107.42 595.181 103.76C595.181 98.78 596.441 94.94 598.961 92.24C601.481 89.48 605.141 88.1 609.941 88.1C614.681 88.1 618.251 89.48 620.651 92.24C623.111 94.94 624.341 98.84 624.341 103.94V106.55H614.981V103.31C614.981 101.15 614.561 99.59 613.721 98.63C612.881 97.61 611.651 97.1 610.031 97.1C606.731 97.1 605.081 99.11 605.081 103.13C605.081 105.41 605.681 107.54 606.881 109.52C608.141 111.5 610.391 113.9 613.631 116.72C617.771 120.32 620.621 123.59 622.181 126.53C623.741 129.47 624.521 132.92 624.521 136.88C624.521 142.04 623.231 146 620.651 148.76C618.131 151.52 614.441 152.9 609.581 152.9Z" fill="white"/>
<path d="M124.292 25.9555C122.487 26.0464 120.718 26.4939 119.09 27.2718L48.1036 61.1898C46.2664 62.0673 44.6521 63.3441 43.3806 64.9253C42.1092 66.5065 41.2132 68.3514 40.7593 70.3232L23.2463 146.512C22.8419 148.267 22.7967 150.085 23.1132 151.858C23.4298 153.631 24.1018 155.323 25.0893 156.834C25.3288 157.203 25.5863 157.561 25.861 157.905L74.9949 218.996C76.2667 220.576 77.8812 221.853 79.7185 222.73C81.5558 223.607 83.5687 224.062 85.6078 224.062L164.402 224.044C166.44 224.045 168.453 223.591 170.29 222.716C172.127 221.841 173.742 220.566 175.015 218.987L224.131 157.887C225.403 156.306 226.3 154.46 226.754 152.487C227.208 150.515 227.208 148.466 226.754 146.493L209.215 70.3049C208.761 68.3332 207.865 66.4882 206.593 64.9071C205.322 63.326 203.707 62.0493 201.87 61.1718L130.874 27.2715C128.826 26.2931 126.563 25.8405 124.292 25.9555Z" fill="white"/>
<path d="M124.996 51.8833C122.649 51.8836 120.747 53.9971 120.747 56.6042C120.747 56.6443 120.755 56.6827 120.756 56.7222C120.752 57.0766 120.735 57.5034 120.747 57.8116C120.803 59.3153 121.13 60.4664 121.328 61.8519C121.685 64.8169 121.984 67.275 121.8 69.5596C121.62 70.421 120.986 71.2089 120.42 71.7565L120.32 73.5542C117.735 73.767 115.169 74.1613 112.639 74.7343C101.607 77.2394 92.1084 82.9223 84.8769 90.5949C84.3607 90.2385 83.8492 89.8753 83.3426 89.5054C82.5838 89.608 81.8174 89.8421 80.8186 89.2602C78.9172 87.9805 77.1854 86.2139 75.0899 84.0855C74.1297 83.0675 73.4345 82.0981 72.2936 81.1167C72.0348 80.8939 71.6394 80.5926 71.3495 80.3631C70.4576 79.6522 69.4059 79.2812 68.39 79.2466C67.0838 79.2019 65.8264 79.7126 65.0037 80.7446C63.5406 82.5792 64.0089 85.3835 66.0475 87.0087C66.0681 87.0253 66.0902 87.038 66.1111 87.0543C66.3912 87.2812 66.7343 87.5723 66.9917 87.7623C68.2023 88.6562 69.308 89.1138 70.5142 89.8232C73.0554 91.3926 75.1622 92.6936 76.833 94.2627C77.4855 94.9582 77.5997 96.1839 77.6865 96.714L79.0482 97.9305C71.7582 108.902 68.3841 122.453 70.3783 136.261L68.5988 136.778C68.1296 137.384 67.467 138.337 66.7738 138.621C64.5877 139.31 62.1273 139.563 59.157 139.874C57.7625 139.99 56.5589 139.921 55.0804 140.201C54.7551 140.262 54.3018 140.381 53.9457 140.464L53.9094 140.473C53.8899 140.478 53.8643 140.487 53.8457 140.491C51.3415 141.097 49.7329 143.398 50.2506 145.666C50.7686 147.935 53.2147 149.314 55.7341 148.771C55.7524 148.767 55.7788 148.766 55.7977 148.762C55.8262 148.756 55.8512 148.742 55.8794 148.735C56.2309 148.658 56.6707 148.572 56.9781 148.49C58.4316 148.101 59.4841 147.529 60.7912 147.028C63.6022 146.02 65.9307 145.177 68.1994 144.849C69.1465 144.775 70.145 145.434 70.6415 145.712L72.4935 145.394C76.7554 158.608 85.6871 169.288 96.997 175.989L96.2251 177.841C96.5034 178.56 96.8102 179.533 96.6028 180.244C95.7783 182.382 94.3658 184.639 92.7572 187.156C91.9783 188.319 91.1811 189.221 90.4784 190.551C90.3101 190.87 90.096 191.359 89.9336 191.695C88.8416 194.032 89.6425 196.723 91.7404 197.733C93.8513 198.749 96.4712 197.677 97.6051 195.336C97.6068 195.333 97.6126 195.33 97.6141 195.327C97.6152 195.324 97.6129 195.32 97.6141 195.318C97.7756 194.986 98.0045 194.55 98.1408 194.237C98.7427 192.858 98.9432 191.676 99.3665 190.343C100.491 187.519 101.108 184.556 102.656 182.71C103.08 182.204 103.77 182.009 104.487 181.818L105.449 180.075C115.309 183.859 126.345 184.875 137.37 182.372C139.848 181.808 142.283 181.074 144.66 180.174C144.93 180.654 145.433 181.576 145.568 181.809C146.296 182.045 147.09 182.168 147.738 183.125C148.895 185.103 149.687 187.444 150.652 190.27C151.075 191.604 151.285 192.786 151.887 194.165C152.024 194.479 152.252 194.921 152.413 195.254C153.545 197.603 156.173 198.678 158.287 197.66C160.385 196.65 161.186 193.959 160.094 191.623C159.931 191.286 159.708 190.797 159.54 190.479C158.837 189.148 158.04 188.255 157.261 187.093C155.653 184.576 154.318 182.486 153.494 180.347C153.149 179.244 153.552 178.558 153.82 177.841C153.659 177.657 153.315 176.615 153.112 176.125C164.866 169.185 173.535 158.107 177.607 145.312C178.156 145.399 179.112 145.568 179.422 145.63C180.061 145.209 180.649 144.659 181.801 144.75C184.069 145.078 186.398 145.92 189.209 146.928C190.516 147.429 191.569 148.01 193.022 148.399C193.329 148.481 193.77 148.558 194.121 148.635C194.149 148.642 194.174 148.656 194.202 148.662C194.222 148.667 194.248 148.667 194.266 148.672C196.785 149.214 199.232 147.835 199.75 145.566C200.267 143.298 198.659 140.996 196.154 140.392C195.79 140.309 195.274 140.168 194.92 140.101C193.441 139.821 192.238 139.89 190.843 139.774C187.873 139.463 185.412 139.21 183.226 138.521C182.335 138.176 181.701 137.115 181.392 136.678L179.676 136.179C180.566 129.743 180.326 123.044 178.787 116.342C177.233 109.578 174.487 103.391 170.825 97.9397C171.265 97.5394 172.096 96.8035 172.332 96.5868C172.401 95.8245 172.341 95.0253 173.131 94.181C174.802 92.6122 176.908 91.311 179.45 89.7416C180.656 89.0319 181.771 88.5746 182.981 87.6807C183.255 87.4785 183.629 87.1583 183.916 86.9271C185.954 85.3013 186.423 82.4972 184.96 80.6629C183.497 78.8286 180.662 78.6554 178.623 80.2815C178.333 80.5113 177.94 80.8111 177.679 81.0351C176.539 82.0164 175.834 82.9856 174.874 84.0039C172.778 86.1322 171.047 87.9079 169.145 89.1879C168.321 89.6672 167.114 89.5016 166.567 89.4691L164.951 90.6222C155.736 80.9595 143.19 74.7817 129.68 73.5815C129.643 73.0153 129.593 71.9921 129.58 71.6839C129.027 71.1548 128.359 70.7031 128.191 69.5596C128.006 67.275 128.315 64.8169 128.673 61.8519C128.87 60.4664 129.197 59.3156 129.254 57.8116C129.266 57.47 129.246 56.9738 129.245 56.6042C129.244 53.9971 127.342 51.8833 124.996 51.8833ZM119.675 84.8391L118.413 107.127L118.323 107.173C118.238 109.167 116.597 110.759 114.582 110.759C113.757 110.759 112.995 110.494 112.376 110.042L112.34 110.06L94.0645 97.1042C99.6811 91.5815 106.866 87.4997 115.145 85.62C116.641 85.2823 118.153 85.0217 119.675 84.8391ZM130.325 84.8391C139.991 86.0279 148.931 90.4052 155.781 97.1135L137.624 109.987L137.561 109.96C135.949 111.137 133.678 110.845 132.422 109.27C131.925 108.652 131.639 107.892 131.605 107.1L131.587 107.091L130.325 84.8391ZM87.4369 105.43L104.124 120.355L104.105 120.446C105.612 121.755 105.834 124.027 104.577 125.602C104.082 126.224 103.402 126.673 102.635 126.882L102.616 126.955L81.2271 133.128C80.1385 123.174 82.4847 113.497 87.4369 105.43ZM162.436 105.438C164.916 109.457 166.793 113.946 167.91 118.811C169.015 123.619 169.292 128.418 168.837 133.056L147.338 126.864L147.32 126.773C145.395 126.248 144.212 124.289 144.66 122.325C144.834 121.552 145.251 120.856 145.849 120.337L145.84 120.291L162.436 105.439V105.438ZM121.573 121.508H128.409L132.658 126.819L131.133 133.446L124.996 136.397L118.84 133.437L117.315 126.81L121.573 121.508ZM143.489 139.683C143.779 139.669 144.069 139.695 144.351 139.747L144.388 139.701L166.513 143.442C163.274 152.539 157.079 160.42 148.8 165.694L140.212 144.949L140.239 144.913C139.45 143.08 140.239 140.93 142.054 140.056C142.519 139.832 143.005 139.708 143.489 139.683ZM106.33 139.774C108.018 139.798 109.533 140.97 109.925 142.689C110.109 143.493 110.019 144.29 109.716 144.994L109.78 145.076L101.282 165.612C93.337 160.514 87.009 152.881 83.6239 143.515L105.558 139.792L105.594 139.838C105.84 139.793 106.088 139.771 106.33 139.774ZM124.859 148.771C125.465 148.75 126.067 148.878 126.612 149.143C127.355 149.502 127.93 150.065 128.291 150.741H128.373L139.185 170.279C137.766 170.753 136.324 171.156 134.864 171.486C126.595 173.364 118.352 172.795 110.888 170.251L121.673 150.75H121.691C122 150.172 122.455 149.686 123.011 149.338C123.567 148.991 124.204 148.795 124.859 148.771L124.859 148.771Z" fill="#0E5BFA" stroke="#0E5BFA" stroke-width="0.276684"/>
</svg>
