<svg width="650" height="250" viewBox="0 0 650 250" fill="none" xmlns="http://www.w3.org/2000/svg">
<rect width="650" height="250" fill="#F05340"/>
<rect width="250" height="250" fill="#FD3A22"/>
<path d="M285.436 84.4H299.516V161.2H322.684V174H285.436V84.4ZM340.816 84.4H359.888L374.48 174H360.4L357.84 156.208V156.464H341.84L339.28 174H326.224L340.816 84.4ZM356.176 144.304L349.904 100.016H349.648L343.503 144.304H356.176ZM381.311 84.4H402.175C409.428 84.4 414.719 86.1067 418.047 89.52C421.375 92.848 423.039 98.0107 423.039 105.008V110.512C423.039 119.813 419.967 125.701 413.823 128.176V128.432C417.236 129.456 419.625 131.547 420.991 134.704C422.441 137.861 423.167 142.085 423.167 147.376V163.12C423.167 165.68 423.252 167.771 423.423 169.392C423.593 170.928 424.02 172.464 424.703 174H410.367C409.855 172.549 409.513 171.184 409.343 169.904C409.172 168.624 409.087 166.32 409.087 162.992V146.608C409.087 142.512 408.404 139.653 407.039 138.032C405.759 136.411 403.497 135.6 400.255 135.6H395.391V174H381.311V84.4ZM400.511 122.8C403.327 122.8 405.417 122.075 406.783 120.624C408.233 119.173 408.958 116.741 408.958 113.328V106.416C408.958 103.173 408.361 100.827 407.167 99.376C406.057 97.9253 404.265 97.2 401.791 97.2H395.391V122.8H400.511ZM443.816 84.4H462.888L477.48 174H463.4L460.84 156.208V156.464H444.84L442.28 174H429.224L443.816 84.4ZM459.176 144.304L452.904 100.016H452.648L446.503 144.304H459.176ZM476.974 84.4H491.182L500.398 153.904H500.654L509.87 84.4H522.798L509.229 174H490.542L476.974 84.4ZM529.561 84.4H567.961V97.2H543.641V120.88H562.969V133.68H543.641V161.2H567.961V174H529.561V84.4ZM576.061 84.4H590.141V161.2H613.309V174H576.061V84.4Z" fill="white"/>
<g clip-path="url(#clip0_2002_29)">
<path d="M239.462 60.3008C239.547 60.6162 239.59 60.9414 239.591 61.268V112.043C239.591 112.695 239.419 113.335 239.093 113.899C238.766 114.463 238.297 114.931 237.732 115.255L195.151 139.791V188.424C195.151 189.747 194.449 190.969 193.302 191.635L104.418 242.845C104.215 242.961 103.993 243.035 103.771 243.114C103.688 243.142 103.609 243.193 103.521 243.216C102.9 243.379 102.247 243.379 101.626 243.216C101.524 243.188 101.431 243.132 101.334 243.095C101.131 243.021 100.918 242.956 100.724 242.845L11.8588 191.635C11.2942 191.311 10.8252 190.843 10.4988 190.279C10.1725 189.715 10.0004 189.075 10 188.424V36.0979C10 35.7647 10.0462 35.4408 10.1295 35.1261C10.1572 35.0197 10.2219 34.9225 10.2589 34.8161C10.3283 34.6217 10.393 34.4227 10.4947 34.2422C10.5641 34.1219 10.6658 34.0247 10.7491 33.9137C10.8554 33.7656 10.9525 33.6129 11.0773 33.4833C11.1837 33.3768 11.3224 33.2982 11.4426 33.2056C11.5767 33.0945 11.6969 32.9742 11.8495 32.8863L56.289 7.28119C56.8517 6.95716 57.4894 6.78662 58.1386 6.78662C58.7877 6.78662 59.4254 6.95716 59.9881 7.28119L104.423 32.8863H104.432C104.58 32.9789 104.705 33.0945 104.839 33.201C104.959 33.2935 105.093 33.3768 105.2 33.4786C105.329 33.6129 105.422 33.7656 105.533 33.9137C105.611 34.0247 105.718 34.1219 105.782 34.2422C105.889 34.4273 105.949 34.6217 106.023 34.8161C106.06 34.9225 106.125 35.0197 106.152 35.1307C106.237 35.4461 106.281 35.7713 106.282 36.0979V131.239L143.309 109.901V61.2634C143.309 60.9395 143.355 60.6109 143.439 60.3008C143.471 60.1898 143.531 60.0926 143.568 59.9862C143.642 59.7918 143.707 59.5928 143.809 59.4123C143.878 59.292 143.98 59.1948 144.058 59.0838C144.169 58.9357 144.262 58.783 144.391 58.6534C144.498 58.5469 144.632 58.4683 144.752 58.3757C144.891 58.2647 145.011 58.1443 145.159 58.0564L189.603 32.4513C190.165 32.1268 190.803 31.956 191.452 31.956C192.102 31.956 192.739 32.1268 193.302 32.4513L237.737 58.0564C237.894 58.149 238.014 58.2647 238.153 58.3711C238.269 58.4636 238.403 58.5469 238.509 58.6488C238.638 58.783 238.731 58.9357 238.842 59.0838C238.925 59.1948 239.027 59.292 239.092 59.4123C239.198 59.5928 239.258 59.7918 239.332 59.9862C239.374 60.0926 239.434 60.1898 239.462 60.3008ZM232.184 109.901V67.6774L216.634 76.6367L195.151 89.0158V131.239L232.188 109.901H232.184ZM187.749 186.281V144.03L166.618 156.108L106.277 190.575V233.224L187.749 186.281ZM17.4074 42.5073V186.281L98.8697 233.22V190.58L56.3121 166.474L56.2983 166.465L56.2798 166.456C56.1364 166.373 56.0162 166.252 55.8821 166.15C55.7665 166.058 55.6324 165.984 55.5307 165.882L55.5215 165.868C55.4013 165.752 55.318 165.609 55.2163 165.479C55.1238 165.354 55.0129 165.248 54.9389 165.118L54.9343 165.105C54.851 164.966 54.8002 164.799 54.74 164.642C54.6799 164.503 54.6013 164.373 54.5643 164.225C54.5181 164.049 54.5089 163.86 54.4904 163.679C54.4719 163.54 54.4349 163.402 54.4349 163.263V63.8457L32.9572 51.4619L17.4074 42.5073ZM58.1432 14.7688L21.1203 36.0979L58.1339 57.427L95.1522 36.0933L58.1339 14.7688H58.1432ZM77.3968 147.88L98.8744 135.506V42.5073L83.3245 51.4665L61.8422 63.8457V156.844L77.3968 147.88ZM191.452 39.9389L154.434 61.268L191.452 82.5971L228.466 61.2634L191.452 39.9389ZM187.749 89.0158L166.267 76.6367L150.717 67.6774V109.901L172.194 122.275L187.749 131.239V89.0158ZM102.569 184.166L156.866 153.142L184.008 137.639L147.018 116.324L104.428 140.865L65.6106 163.23L102.569 184.166Z" fill="white"/>
</g>
<defs>
<clipPath id="clip0_2002_29">
<rect width="230" height="238" fill="white" transform="translate(10 6)"/>
</clipPath>
</defs>
</svg>
