<svg width="650" height="250" viewBox="0 0 650 250" fill="none" xmlns="http://www.w3.org/2000/svg">
<rect width="650" height="250" fill="#4CD137"/>
<rect width="250" height="250" fill="#44BD32"/>
<path d="M65.2209 100C67.2708 102.495 107.519 116.469 121.512 133.45C135.505 150.432 141.613 165.587 139.638 180.158C137.665 194.73 129.113 194.489 125.378 199.796C121.644 205.102 116.487 211.645 106.577 210.949C93.6026 210.042 80.2243 203.283 70.5621 179.824C60.9 156.363 61.6433 134.325 62.414 122.098C63.1848 109.873 65.2035 100 65.2035 100H65.2209Z" fill="white"/>
<path d="M65 107L125 199.797L122.234 203" fill="#44BD32"/>
<path fill-rule="evenodd" clip-rule="evenodd" d="M16.0188 208.527L16.2776 204.373C23.6137 195.43 32.7519 191.983 40.1889 183.351C42.4198 185.65 43.4118 182.336 45.7914 182.642C46.6548 184.424 44.7052 186.809 47.0367 186.445C52.3336 188.054 57.4922 185.794 62.7012 184.778C68.1948 183.705 73.6508 184.903 79.0398 184.175C80.7608 183.945 83.4113 178.494 85.5217 181.205C86.4764 185.161 82.4063 185.506 83.4992 189.874C94.2856 195.68 121.264 220.222 125.878 193.524C125.941 195.153 125.07 198.371 126.343 197.921C135.438 188.61 150.893 168.503 153.615 163.235C156.604 157.449 160.591 157.631 164.501 155.571C171.544 151.864 179.061 148.09 185.157 139.967C188.926 145.954 196.814 148.933 201.031 146.844C205.432 144.66 212.261 127.945 215.917 122.034C217.353 119.716 219.455 115.204 221 117.762C219.962 119.39 221.184 124.161 219.911 123.337C219.246 120.425 217.918 123.787 216.951 123.222C213.27 130.129 209.447 136.595 205.696 143.281C203.945 145.743 207.383 148.291 205.331 149.096C195.642 153.502 180.886 142.467 174.778 157.784C165.099 165.361 155.944 167.287 146.405 179.05C140.924 185.813 134.217 198.113 128.511 204.579C127.544 205.68 126.127 206.063 124.984 207.673C123.594 209.627 123.253 212.079 122.08 212.658C119.157 214.098 113.119 210.608 109.317 209.343C96.638 205.128 83.1006 193.302 71.136 191.804C66.4044 191.21 60.8186 192.925 55.4706 193.474C44.1023 194.649 36.9923 195.266 27.8767 202.278C24.15 205.149 18.4177 212.748 16 208.581L16.0188 208.527Z" fill="#3C3C3B"/>
<path d="M213.543 10C210.739 14.7129 146.794 48.8998 127.601 80.9915C108.41 113.083 102.935 138.351 109.893 162.105C116.849 185.854 130.148 184.785 137.728 192.617C145.31 200.453 155.594 209.959 172.022 206.121C193.532 201.092 214.26 186.207 224.571 144.492C234.882 102.775 228.12 66.2454 223.762 46.0753C219.407 25.9071 213.545 10 213.545 10H213.543Z" fill="white"/>
<path d="M212 17L134 189.267L138.578 194" fill="#44BD32"/>
<path d="M302.33 73H316.63V151H340.16V164H302.33V73ZM347.018 73H386.018V86H361.318V110.05H380.948V123.05H361.318V151H386.018V164H347.018V73ZM405.294 73H424.664L439.484 164H425.184L422.584 145.93V146.19H406.334L403.734 164H390.474L405.294 73ZM420.894 133.84L414.524 88.86H414.264L408.024 133.84H420.894ZM446.422 73H484.252V86H460.722V111.35H479.182V124.35H460.722V164H446.422V73ZM491.109 73H505.409V151H528.939V164H491.109V73ZM535.797 73H574.797V86H550.097V110.05H569.727V123.05H550.097V151H574.797V164H535.797V73ZM594.203 86H579.253V73H623.453V86H608.503V164H594.203V86Z" fill="white"/>
</svg>
