<svg width="650" height="250" viewBox="0 0 650 250" fill="none" xmlns="http://www.w3.org/2000/svg">
<rect width="650" height="250" fill="#3498DB"/>
<rect width="250" height="250" fill="#2980B9"/>
<g clip-path="url(#clip0_8_328)">
<path d="M125 10C61.4848 10 10 61.4848 10 125C10 188.515 61.4848 240 125 240C188.515 240 240 188.515 240 125C240 61.4848 188.515 10 125 10ZM179.589 153.2C140.264 192.525 70.0225 179.978 70.0225 179.978C70.0225 179.978 57.3453 109.865 96.7998 70.4106C118.661 48.5489 154.882 49.4544 177.778 72.2216C200.675 94.9887 201.451 131.339 179.589 153.2ZM138.195 77.396L126.94 100.551L103.785 111.805L126.94 123.06L138.195 146.215L149.449 123.06L172.604 111.805L149.449 100.551L138.195 77.396Z" fill="white"/>
</g>
<path d="M302.33 73H322.74L331.84 138.13H332.1L341.2 73H361.61V164H348.09V95.1H347.83L337.43 164H325.47L315.07 95.1H314.81V164H302.33V73ZM383.331 73H402.701L417.521 164H403.221L400.621 145.93V146.19H384.371L381.771 164H368.511L383.331 73ZM398.931 133.84L392.561 88.86H392.301L386.061 133.84H398.931ZM424.459 73H445.519C452.626 73 457.956 74.9067 461.509 78.72C465.062 82.5333 466.839 88.1233 466.839 95.49V104.46C466.839 111.827 465.062 117.417 461.509 121.23C457.956 125.043 452.626 126.95 445.519 126.95H438.759V164H424.459V73ZM445.519 113.95C447.859 113.95 449.592 113.3 450.719 112C451.932 110.7 452.539 108.49 452.539 105.37V94.58C452.539 91.46 451.932 89.25 450.719 87.95C449.592 86.65 447.859 86 445.519 86H438.759V113.95H445.519ZM474.605 73H496.185C503.552 73 508.925 74.7333 512.305 78.2C515.685 81.58 517.375 86.8233 517.375 93.93V97.57C517.375 102.25 516.595 106.063 515.035 109.01C513.562 111.957 511.265 114.08 508.145 115.38V115.64C515.252 118.067 518.805 124.393 518.805 134.62V142.42C518.805 149.44 516.942 154.813 513.215 158.54C509.575 162.18 504.202 164 497.095 164H474.605V73ZM494.495 110.05C497.355 110.05 499.479 109.313 500.865 107.84C502.339 106.367 503.075 103.897 503.075 100.43V95.36C503.075 92.0667 502.469 89.6833 501.255 88.21C500.129 86.7367 498.309 86 495.795 86H488.905V110.05H494.495ZM497.095 151C499.609 151 501.472 150.35 502.685 149.05C503.899 147.663 504.505 145.323 504.505 142.03V134.1C504.505 129.94 503.769 127.08 502.295 125.52C500.909 123.873 498.569 123.05 495.275 123.05H488.905V151H497.095ZM547.834 165.3C540.814 165.3 535.441 163.307 531.714 159.32C527.987 155.333 526.124 149.7 526.124 142.42V94.58C526.124 87.3 527.987 81.6667 531.714 77.68C535.441 73.6933 540.814 71.7 547.834 71.7C554.854 71.7 560.227 73.6933 563.954 77.68C567.681 81.6667 569.544 87.3 569.544 94.58V142.42C569.544 149.7 567.681 155.333 563.954 159.32C560.227 163.307 554.854 165.3 547.834 165.3ZM547.834 152.3C552.774 152.3 555.244 149.31 555.244 143.33V93.67C555.244 87.69 552.774 84.7 547.834 84.7C542.894 84.7 540.424 87.69 540.424 93.67V143.33C540.424 149.31 542.894 152.3 547.834 152.3ZM589.794 117.46L574.064 73H589.144L598.764 102.38H599.024L608.904 73H622.424L606.694 117.46L623.204 164H608.124L597.724 132.28H597.464L586.804 164H573.284L589.794 117.46Z" fill="white"/>
<defs>
<clipPath id="clip0_8_328">
<rect width="230" height="230" fill="white" transform="translate(10 10)"/>
</clipPath>
</defs>
</svg>
