<svg width="650" height="250" viewBox="0 0 650 250" fill="none" xmlns="http://www.w3.org/2000/svg">
<rect width="650" height="250" fill="#45AAF2"/>
<rect width="250" height="250" fill="#2D98DA"/>
<path d="M269.26 85H284.96L291.96 135.1H292.16L299.16 85H314.86V155H304.46V102H304.26L296.26 155H287.06L279.06 102H278.86V155H269.26V85ZM331.569 85H346.469L357.869 155H346.869L344.869 141.1V141.3H332.369L330.369 155H320.169L331.569 85ZM343.569 131.8L338.669 97.2H338.469L333.669 131.8H343.569ZM367.216 95H355.716V85H389.716V95H378.216V155H367.216V95ZM395.041 85H425.041V95H406.041V113.5H421.141V123.5H406.041V145H425.041V155H395.041V85ZM431.37 85H447.67C453.336 85 457.47 86.3333 460.07 89C462.67 91.6 463.97 95.6333 463.97 101.1V105.4C463.97 112.667 461.57 117.267 456.77 119.2V119.4C459.436 120.2 461.303 121.833 462.37 124.3C463.503 126.767 464.07 130.067 464.07 134.2V146.5C464.07 148.5 464.136 150.133 464.27 151.4C464.403 152.6 464.736 153.8 465.27 155H454.07C453.67 153.867 453.403 152.8 453.27 151.8C453.136 150.8 453.07 149 453.07 146.4V133.6C453.07 130.4 452.536 128.167 451.47 126.9C450.47 125.633 448.703 125 446.17 125H442.37V155H431.37V85ZM446.37 115C448.57 115 450.203 114.433 451.27 113.3C452.403 112.167 452.97 110.267 452.97 107.6V102.2C452.97 99.6667 452.503 97.8333 451.57 96.7C450.703 95.5667 449.303 95 447.37 95H442.37V115H446.37ZM471.702 85H482.702V155H471.702V85ZM499.44 85H514.34L525.74 155H514.74L512.74 141.1V141.3H500.24L498.24 155H488.04L499.44 85ZM511.44 131.8L506.54 97.2H506.34L501.54 131.8H511.44ZM531.077 85H542.077V145H560.177V155H531.077V85ZM597.467 156C592.134 156 588.067 154.5 585.267 151.5C582.467 148.433 581.067 144.067 581.067 138.4V85H592.067V139.2C592.067 141.6 592.534 143.333 593.467 144.4C594.467 145.467 595.867 146 597.667 146C599.467 146 600.834 145.467 601.767 144.4C602.767 143.333 603.267 141.6 603.267 139.2V85H613.867V138.4C613.867 144.067 612.467 148.433 609.667 151.5C606.867 154.5 602.801 156 597.467 156ZM621.702 85H632.702V155H621.702V85Z" fill="white"/>
<g clip-path="url(#clip0_9_29)">
<path d="M20 41.6562V132.569L46.25 147.732V87.1125L98.75 117.431L151.25 87.1125V117.431L98.75 147.732V178.042L151.25 208.344L230 162.887V102.267L203.75 117.431V147.732L151.25 178.042L125 162.887L177.5 132.569V41.6562L98.75 87.1125L20 41.6562ZM230 41.6562L203.75 56.7937V87.1125L230 71.9575V41.6562Z" fill="white"/>
</g>
<defs>
<clipPath id="clip0_9_29">
<rect width="210" height="210" fill="white" transform="translate(20 20)"/>
</clipPath>
</defs>
</svg>
