<svg width="650" height="302" viewBox="0 0 650 302" fill="none" xmlns="http://www.w3.org/2000/svg">
<rect y="26" width="650" height="250" fill="#D63031"/>
<rect y="26" width="250" height="250" fill="#D3191A"/>
<path d="M284.561 99.4H304.657L313.617 163.528H313.873L322.833 99.4H342.929V189H329.617V121.16H329.361L319.121 189H307.345L297.105 121.16H296.849V189H284.561V99.4ZM353.436 99.4H367.516V189H353.436V99.4ZM378.061 99.4H395.725L409.421 153.032H409.677V99.4H422.221V189H407.757L390.861 123.592H390.605V189H378.061V99.4ZM432.686 99.4H446.766V189H432.686V99.4ZM477.663 190.28C470.751 190.28 465.46 188.317 461.791 184.392C458.121 180.467 456.286 174.92 456.286 167.752V120.648C456.286 113.48 458.121 107.933 461.791 104.008C465.46 100.083 470.751 98.12 477.663 98.12C484.575 98.12 489.865 100.083 493.535 104.008C497.204 107.933 499.039 113.48 499.039 120.648V167.752C499.039 174.92 497.204 180.467 493.535 184.392C489.865 188.317 484.575 190.28 477.663 190.28ZM477.663 177.48C482.527 177.48 484.958 174.536 484.958 168.648V119.752C484.958 113.864 482.527 110.92 477.663 110.92C472.799 110.92 470.367 113.864 470.367 119.752V168.648C470.367 174.536 472.799 177.48 477.663 177.48ZM547.365 190.28C540.538 190.28 535.375 188.36 531.877 184.52C528.378 180.595 526.629 175.005 526.629 167.752V162.632H539.941V168.776C539.941 174.579 542.373 177.48 547.237 177.48C549.626 177.48 551.418 176.797 552.613 175.432C553.893 173.981 554.533 171.677 554.533 168.52C554.533 164.765 553.679 161.48 551.973 158.664C550.266 155.763 547.109 152.307 542.501 148.296C536.698 143.176 532.645 138.568 530.341 134.472C528.037 130.291 526.885 125.597 526.885 120.392C526.885 113.309 528.677 107.848 532.26 104.008C535.845 100.083 541.05 98.12 547.877 98.12C554.618 98.12 559.695 100.083 563.109 104.008C566.607 107.848 568.357 113.395 568.357 120.648V124.36H555.045V119.752C555.045 116.68 554.447 114.461 553.253 113.096C552.058 111.645 550.309 110.92 548.005 110.92C543.311 110.92 540.965 113.779 540.965 119.496C540.965 122.739 541.818 125.768 543.525 128.584C545.317 131.4 548.517 134.813 553.125 138.824C559.013 143.944 563.066 148.595 565.285 152.776C567.503 156.957 568.613 161.864 568.613 167.496C568.613 174.835 566.778 180.467 563.109 184.392C559.525 188.317 554.277 190.28 547.365 190.28ZM596.654 190.28C589.742 190.28 584.494 188.36 580.91 184.52C577.411 180.68 575.661 175.176 575.661 168.008V160.712H588.974V168.648C588.974 174.536 591.406 177.48 596.27 177.48C598.659 177.48 600.451 176.755 601.646 175.304C602.926 173.768 603.566 171.123 603.566 167.368V160.072C603.566 155.976 602.84 153.075 601.39 151.368C599.939 149.576 597.592 148.68 594.35 148.68H589.614V135.88H594.734C597.55 135.88 599.64 135.155 601.006 133.704C602.456 132.253 603.182 129.821 603.182 126.408V119.88C603.182 116.808 602.542 114.547 601.262 113.096C599.982 111.645 598.275 110.92 596.142 110.92C591.619 110.92 589.358 113.693 589.358 119.24V125.128H576.046V120.392C576.046 113.224 577.795 107.72 581.294 103.88C584.878 100.04 589.998 98.12 596.654 98.12C603.395 98.12 608.515 100.04 612.014 103.88C615.512 107.635 617.262 113.096 617.262 120.264V123.464C617.262 128.328 616.451 132.253 614.83 135.24C613.208 138.141 610.691 140.232 607.278 141.512V141.768C610.947 143.133 613.592 145.352 615.214 148.424C616.835 151.496 617.646 155.421 617.646 160.2V168.136C617.646 175.304 615.854 180.808 612.27 184.648C608.771 188.403 603.566 190.28 596.654 190.28Z" fill="white"/>
<g clip-path="url(#clip0_34_2)">
<path d="M154.145 48.0913C154.145 48.0913 176.591 84.1461 184.093 96.9602C184.214 97.1689 184.163 97.4447 183.983 97.6246C183.755 97.8515 183.412 97.876 183.187 97.6491L144.51 57.3089L154.145 48.0913Z" fill="#F15A29"/>
<path d="M88.0214 179.473C94.5863 165.621 103.442 153.089 114.401 142.16C118.569 138.005 122.969 134.155 127.584 130.618V159.164L88.0214 179.473ZM65.179 205.837L127.583 174.154V246.58L141.646 265.003V166.94L150.188 162.558C154.122 160.587 157.812 157.964 161.095 154.688C177.362 138.467 177.62 112.285 161.817 95.7819L129.578 62.2851C128.293 60.9152 127.618 59.1219 127.678 57.2366C127.737 55.3391 128.532 53.5766 129.916 52.276C132.771 49.5993 137.318 49.7796 140.002 52.6237L144.511 57.3104L154.145 48.0908C142.762 33.3686 128.834 35.2171 120.766 42.5822C116.789 46.316 114.505 51.3725 114.332 56.8195C114.16 62.2749 116.131 67.4643 119.877 71.4333L119.92 71.4802L152.326 105.147C162.984 116.458 162.771 134.247 151.685 145.303C149.956 147.027 148.062 148.487 146.055 149.685L141.646 151.946V106.19C128.164 113.119 115.868 122.022 105.029 132.835C91.5276 146.297 80.9275 161.978 73.5219 179.44C69.8887 188.005 67.1042 196.824 65.179 205.837Z" fill="white"/>
<path d="M141.647 166.939V181.743L127.584 188.861V174.153L141.647 166.939Z" fill="#BCBEC0"/>
</g>
<defs>
<clipPath id="clip0_34_2">
<rect width="194" height="302" fill="white" transform="translate(28)"/>
</clipPath>
</defs>
</svg>
