<svg width="650" height="250" viewBox="0 0 650 250" fill="none" xmlns="http://www.w3.org/2000/svg">
<rect width="650" height="250" fill="#25B05F"/>
<rect width="250" height="250" fill="#13AA52"/>
<path d="M286.51 84H303.78L311.48 139.11H311.7L319.4 84H336.67V161H325.23V102.7H325.01L316.21 161H306.09L297.29 102.7H297.07V161H286.51V84ZM363.189 162.1C357.249 162.1 352.703 160.413 349.549 157.04C346.396 153.667 344.819 148.9 344.819 142.74V102.26C344.819 96.1 346.396 91.3333 349.549 87.96C352.703 84.5867 357.249 82.9 363.189 82.9C369.129 82.9 373.676 84.5867 376.829 87.96C379.983 91.3333 381.559 96.1 381.559 102.26V142.74C381.559 148.9 379.983 153.667 376.829 157.04C373.676 160.413 369.129 162.1 363.189 162.1ZM363.189 151.1C367.369 151.1 369.459 148.57 369.459 143.51V101.49C369.459 96.43 367.369 93.9 363.189 93.9C359.009 93.9 356.919 96.43 356.919 101.49V143.51C356.919 148.57 359.009 151.1 363.189 151.1ZM389.742 84H404.922L416.692 130.09H416.912V84H427.692V161H415.262L400.742 104.79H400.522V161H389.742V84ZM453.846 162.1C447.979 162.1 443.506 160.45 440.426 157.15C437.346 153.777 435.806 148.973 435.806 142.74V102.26C435.806 96.0267 437.346 91.26 440.426 87.96C443.506 84.5867 447.979 82.9 453.846 82.9C459.712 82.9 464.186 84.5867 467.266 87.96C470.346 91.26 471.886 96.0267 471.886 102.26V108.86H460.446V101.49C460.446 96.43 458.356 93.9 454.176 93.9C449.996 93.9 447.906 96.43 447.906 101.49V143.62C447.906 148.607 449.996 151.1 454.176 151.1C458.356 151.1 460.446 148.607 460.446 143.62V128.55H454.396V117.55H471.886V142.74C471.886 148.973 470.346 153.777 467.266 157.15C464.186 160.45 459.712 162.1 453.846 162.1ZM497.145 162.1C491.205 162.1 486.658 160.413 483.505 157.04C480.351 153.667 478.775 148.9 478.775 142.74V102.26C478.775 96.1 480.351 91.3333 483.505 87.96C486.658 84.5867 491.205 82.9 497.145 82.9C503.085 82.9 507.631 84.5867 510.785 87.96C513.938 91.3333 515.515 96.1 515.515 102.26V142.74C515.515 148.9 513.938 153.667 510.785 157.04C507.631 160.413 503.085 162.1 497.145 162.1ZM497.145 151.1C501.325 151.1 503.415 148.57 503.415 143.51V101.49C503.415 96.43 501.325 93.9 497.145 93.9C492.965 93.9 490.875 96.43 490.875 101.49V143.51C490.875 148.57 492.965 151.1 497.145 151.1ZM541.315 84H559.795C565.808 84 570.318 85.6133 573.325 88.84C576.331 92.0667 577.835 96.7967 577.835 103.03V141.97C577.835 148.203 576.331 152.933 573.325 156.16C570.318 159.387 565.808 161 559.795 161H541.315V84ZM559.575 150C561.555 150 563.058 149.413 564.085 148.24C565.185 147.067 565.735 145.16 565.735 142.52V102.48C565.735 99.84 565.185 97.9333 564.085 96.76C563.058 95.5867 561.555 95 559.575 95H553.415V150H559.575ZM586.002 84H604.262C610.496 84 615.042 85.4667 617.902 88.4C620.762 91.26 622.192 95.6967 622.192 101.71V104.79C622.192 108.75 621.532 111.977 620.212 114.47C618.966 116.963 617.022 118.76 614.382 119.86V120.08C620.396 122.133 623.402 127.487 623.402 136.14V142.74C623.402 148.68 621.826 153.227 618.672 156.38C615.592 159.46 611.046 161 605.032 161H586.002V84ZM602.832 115.35C605.252 115.35 607.049 114.727 608.222 113.48C609.469 112.233 610.092 110.143 610.092 107.21V102.92C610.092 100.133 609.579 98.1167 608.552 96.87C607.599 95.6233 606.059 95 603.932 95H598.102V115.35H602.832ZM605.032 150C607.159 150 608.736 149.45 609.762 148.35C610.789 147.177 611.302 145.197 611.302 142.41V135.7C611.302 132.18 610.679 129.76 609.432 128.44C608.259 127.047 606.279 126.35 603.492 126.35H598.102V150H605.032Z" fill="white"/>
<g clip-path="url(#clip0_18_11)">
<path d="M235 125C235 185.751 185.751 235 125 235C64.2487 235 15 185.751 15 125C15 64.2487 64.2487 15 125 15C185.751 15 235 64.2487 235 125Z" fill="#13AA52" stroke="white" stroke-width="10"/>
<path d="M155.74 110.948C148.476 78.8899 131.309 68.349 129.461 64.3218C127.439 61.4805 125.391 56.4268 125.391 56.4268C125.357 56.3414 125.303 56.1909 125.24 56.0449C125.031 58.8862 124.924 59.9823 122.237 62.8483C118.077 66.1007 96.7351 84.0088 94.9989 120.431C93.3794 154.401 119.537 174.643 123.075 177.224L123.477 177.509V177.484C123.5 177.655 124.6 185.57 125.373 193.957H128.144C128.795 188.029 129.77 182.141 131.064 176.319L131.289 176.173C132.871 175.038 134.38 173.804 135.806 172.478L135.968 172.332C143.488 165.385 157.007 149.316 156.874 123.697C156.846 119.424 156.467 115.16 155.74 110.948ZM125.079 158.045C125.079 158.045 125.079 110.4 126.651 110.409C127.877 110.409 129.465 171.865 129.465 171.865C127.282 171.602 125.079 161.751 125.079 158.045Z" fill="white"/>
</g>
<defs>
<clipPath id="clip0_18_11">
<rect width="230" height="230" fill="white" transform="translate(10 10)"/>
</clipPath>
</defs>
</svg>
