<svg width="650" height="250" viewBox="0 0 650 250" fill="none" xmlns="http://www.w3.org/2000/svg">
<rect width="650" height="250" fill="#3498DB"/>
<rect width="250" height="250" fill="#2980B9"/>
<g clip-path="url(#clip0_8_395)">
<path d="M10 174.005H17.6094V143.967L29.3895 170.163C30.7789 173.321 32.6827 174.455 36.4135 174.455C40.1444 174.455 41.9737 173.333 43.3654 170.163L55.1466 143.967V174.017H62.7571V144.017C62.7571 141.09 61.5842 139.675 59.1707 138.944C53.3906 137.139 49.512 138.7 47.7571 142.602L36.197 168.455L25 142.591C23.3173 138.689 19.3665 137.128 13.5865 138.933C11.1707 139.664 10 141.08 10 144.005V174.005ZM69.082 149.548H76.6891V166.104C76.618 167.004 76.9778 169.115 81.1462 169.18C83.2733 169.213 97.5605 169.18 97.6936 169.18V149.465H105.318C105.352 149.465 105.31 176.346 105.311 176.461C105.353 183.09 97.0846 184.53 93.2748 184.642H69.2477V179.522L93.3177 179.52C98.2147 179.002 97.6372 176.569 97.6372 175.749V173.753H81.4643C73.9395 173.685 69.1485 170.4 69.0887 166.622C69.0831 166.283 69.2511 149.71 69.0842 149.546L69.082 149.548Z" fill="white"/>
<path d="M111.183 174.006H133.061C135.621 174.006 138.11 173.47 140.087 172.542C143.38 171.03 144.99 168.981 144.99 166.298V160.738C144.99 158.542 143.161 156.494 139.576 155.128C137.674 154.395 135.332 154.006 133.064 154.006H123.844C120.772 154.006 119.308 153.079 118.943 151.031C118.87 150.787 118.87 150.58 118.87 150.347V146.885C118.87 146.69 118.87 146.493 118.943 146.25C119.308 144.689 120.114 144.249 122.82 143.994C123.04 143.994 123.332 143.945 123.553 143.945H145.284V138.873H123.919C120.846 138.873 119.236 139.068 117.772 139.507C113.232 140.922 111.256 143.178 111.256 147.08V151.519C111.256 154.934 115.135 157.861 121.645 158.543C122.378 158.592 123.109 158.64 123.84 158.64H131.742C132.036 158.64 132.329 158.64 132.548 158.69C134.961 158.885 135.988 159.324 136.718 160.201C137.17 160.652 137.305 161.081 137.305 161.554V165.993C137.305 166.53 136.939 167.214 136.208 167.798C135.549 168.384 134.452 168.774 132.988 168.872C132.694 168.872 132.476 168.92 132.183 168.92H111.183V173.993V174.006ZM192.459 165.177C192.459 170.396 196.336 173.323 204.165 173.909C204.896 173.965 205.628 173.997 206.36 174.006H226.189V168.933H206.214C201.751 168.933 200.067 167.81 200.067 165.127V138.883H192.458V165.175L192.459 165.177ZM149.844 165.441V147.356C149.844 142.762 153.07 139.975 159.449 139.095C160.129 138.998 160.815 138.949 161.502 138.948H175.946C176.658 138.949 177.368 138.998 178.073 139.095C184.452 139.975 187.678 142.76 187.678 147.356V165.441C187.678 169.168 186.308 171.163 183.15 172.464L190.645 179.231H181.81L175.745 173.756L169.641 174.143H161.502C160.109 174.143 158.643 173.947 157.029 173.507C152.18 172.187 149.844 169.645 149.844 165.441ZM158.058 164.99C158.058 165.234 158.131 165.478 158.205 165.772C158.656 167.875 160.624 169.048 163.618 169.048H170.532L164.182 163.315H173.017L178.544 168.315C179.564 167.771 180.235 166.939 180.461 165.871C180.534 165.627 180.534 165.382 180.534 165.137V147.797C180.534 147.602 180.534 147.346 180.461 147.113C180.01 145.158 178.041 144.034 175.108 144.034H163.632C160.248 144.034 158.06 145.5 158.06 147.797V165.003L158.058 164.99Z" fill="white"/>
<path d="M232.884 130.467C228.207 130.341 224.633 130.775 221.579 132.063C220.71 132.429 219.327 132.438 219.185 133.527C219.662 134.026 219.737 134.773 220.115 135.388C220.845 136.569 222.077 138.151 223.175 138.979C224.375 139.884 225.611 140.854 226.9 141.64C229.189 143.037 231.745 143.834 233.949 145.231C235.248 146.055 236.538 147.092 237.806 148.024C238.432 148.484 238.855 149.199 239.667 149.487V149.354C239.238 148.809 239.129 148.06 238.736 147.493L237.007 145.764C235.316 143.508 233.171 141.549 230.889 139.91C229.07 138.604 224.997 136.84 224.238 134.722L224.105 134.589C225.395 134.443 226.906 133.977 228.098 133.659C230.097 133.123 231.885 133.261 233.951 132.728L236.745 131.93V131.398C235.7 130.326 234.956 128.908 233.818 127.94C230.841 125.402 227.589 122.87 224.243 120.755C222.386 119.582 220.092 118.822 218.124 117.829C217.462 117.495 216.3 117.321 215.863 116.764C214.83 115.447 214.267 113.775 213.47 112.253C211.801 109.039 210.161 105.526 208.681 102.144C207.672 99.8377 207.012 97.5629 205.756 95.4934C199.716 85.5641 193.214 79.5708 183.145 73.6814C181.002 72.4295 178.423 71.9332 175.696 71.287L171.306 71.0208C170.413 70.6486 169.484 69.5547 168.645 69.0246C165.309 66.9156 156.752 62.3332 154.281 68.3479C152.721 72.152 156.612 75.8637 158.005 77.7923C158.982 79.1456 160.233 80.6603 160.93 82.1817C161.389 83.181 161.47 84.1836 161.862 85.2415C162.829 87.8355 163.67 90.681 164.921 93.0889C165.552 94.3069 166.249 95.5904 167.049 96.6799C167.539 97.3486 168.38 97.643 168.512 98.6761C167.691 99.8265 167.643 101.608 167.181 103.066C165.102 109.62 165.886 117.767 168.91 122.619C169.838 124.107 172.023 127.301 175.028 126.076C177.656 125.005 177.058 121.689 177.822 118.761C177.991 118.096 177.887 117.611 178.221 117.166V117.299L180.615 122.086C182.386 124.94 185.533 127.923 188.197 129.936C189.578 130.979 190.678 132.784 192.453 133.394V133.261H192.32C191.974 132.719 191.432 132.497 190.989 132.065C189.948 131.045 188.79 129.776 187.929 128.607C185.504 125.316 183.364 121.716 181.413 117.966C180.481 116.176 179.67 114.202 178.886 112.38C178.584 111.678 178.588 110.616 177.956 110.252C177.095 111.587 175.828 112.666 175.162 114.242C174.098 116.762 173.96 119.834 173.567 123.021C173.333 123.105 173.437 123.047 173.3 123.154C171.448 122.708 170.797 120.801 170.109 119.164C168.367 115.025 168.045 108.364 169.576 103.602C169.971 102.371 171.764 98.4889 171.039 97.3509C170.693 96.2152 169.55 95.5464 168.911 94.6893C168.121 93.6178 167.33 92.2035 166.783 90.9652C165.357 87.7396 164.692 84.1193 163.192 80.8565C162.474 79.2979 161.263 77.7212 160.266 76.3453C159.163 74.8114 157.928 73.6791 157.074 71.834C156.77 71.1742 156.357 70.1197 156.808 69.4396C156.851 69.2442 156.949 69.0652 157.091 68.9237C157.232 68.7823 157.411 68.6842 157.607 68.6411C158.378 68.0468 160.528 68.8385 161.331 69.1735C163.462 70.0599 165.244 70.9035 167.051 72.1002C167.92 72.6641 168.796 73.7874 169.844 74.0964H171.039C172.911 74.5272 175.009 74.2317 176.757 74.7618C179.85 75.7013 182.62 77.1641 185.137 78.752C192.804 83.5926 199.071 90.4836 203.359 98.7144C204.049 100.037 204.347 101.302 204.955 102.705C206.181 105.524 207.725 108.449 208.945 111.216C210.163 113.979 211.347 116.765 213.068 119.064C213.973 120.27 217.467 120.92 219.054 121.59C220.167 122.06 221.989 122.551 223.044 123.186C225.057 124.401 227.008 125.848 228.897 127.178C229.841 127.844 232.743 129.302 232.888 130.503L232.884 130.467Z" fill="white"/>
<path fill-rule="evenodd" clip-rule="evenodd" d="M173.432 79.7918C172.457 79.7738 171.768 79.8978 171.038 80.058V80.1911H171.171C171.636 81.1474 172.457 81.7621 173.032 82.5854L174.363 85.3779L174.496 85.2448C175.319 84.664 175.697 83.7358 175.691 82.3181C175.361 81.9708 175.312 81.5354 175.026 81.1204C174.646 80.5677 173.898 80.2542 173.43 79.7896L173.432 79.7918Z" fill="white"/>
<path fill-rule="evenodd" clip-rule="evenodd" d="M229.761 168.788C229.761 172.138 232.408 174.396 235.369 174.396C238.329 174.396 240.976 172.138 240.976 168.788C240.976 165.439 238.329 163.181 235.369 163.181C232.408 163.181 229.761 165.439 229.761 168.788ZM239.72 168.788C239.72 171.33 237.777 173.23 235.366 173.23C232.93 173.23 231.013 171.33 231.013 168.788C231.013 166.246 232.928 164.347 235.366 164.347C237.774 164.347 239.72 166.246 239.72 168.788ZM236.878 171.989H238.133L236.295 169.178C237.282 169.074 238.028 168.594 238.028 167.428C238.028 166.127 237.205 165.59 235.621 165.59H233.123V171.99H234.2V169.224H235.202L236.877 171.99L236.878 171.989ZM234.2 168.324V166.485H235.441C236.084 166.485 236.862 166.605 236.862 167.354C236.862 168.25 236.159 168.326 235.351 168.326H234.2V168.324Z" fill="white"/>
</g>
<path d="M313.233 65H336.783L347.283 140.15H347.583L358.083 65H381.633V170H366.033V90.5H365.733L353.733 170H339.933L327.933 90.5H327.633V170H313.233V65ZM409.096 125.3L389.146 65H406.696L417.946 103.55H418.246L429.496 65H445.546L425.596 125.3V170H409.096V125.3ZM472.085 171.5C464.085 171.5 458.035 169.25 453.935 164.75C449.835 160.15 447.785 153.6 447.785 145.1V139.1H463.385V146.3C463.385 153.1 466.235 156.5 471.935 156.5C474.735 156.5 476.835 155.7 478.235 154.1C479.735 152.4 480.485 149.7 480.485 146C480.485 141.6 479.485 137.75 477.485 134.45C475.485 131.05 471.785 127 466.385 122.3C459.585 116.3 454.835 110.9 452.135 106.1C449.435 101.2 448.085 95.7 448.085 89.6C448.085 81.3 450.185 74.9 454.385 70.4C458.585 65.8 464.685 63.5 472.685 63.5C480.585 63.5 486.535 65.8 490.535 70.4C494.635 74.9 496.685 81.4 496.685 89.9V94.25H481.085V88.85C481.085 85.25 480.385 82.65 478.985 81.05C477.585 79.35 475.535 78.5 472.835 78.5C467.335 78.5 464.585 81.85 464.585 88.55C464.585 92.35 465.585 95.9 467.585 99.2C469.685 102.5 473.435 106.5 478.835 111.2C485.735 117.2 490.485 122.65 493.085 127.55C495.685 132.45 496.985 138.2 496.985 144.8C496.985 153.4 494.835 160 490.535 164.6C486.335 169.2 480.185 171.5 472.085 171.5ZM555.046 179.75C547.546 179.75 542.946 176.4 541.246 169.7C538.146 170.9 534.496 171.5 530.296 171.5C522.196 171.5 515.996 169.2 511.696 164.6C507.396 160 505.246 153.5 505.246 145.1V89.9C505.246 81.5 507.396 75 511.696 70.4C515.996 65.8 522.196 63.5 530.296 63.5C538.396 63.5 544.596 65.8 548.896 70.4C553.196 75 555.346 81.5 555.346 89.9V145.1C555.346 152.1 553.796 157.85 550.696 162.35C551.296 163.35 552.046 164 552.946 164.3C553.846 164.6 555.146 164.75 556.846 164.75H559.396V179.75H555.046ZM530.296 156.5C535.996 156.5 538.846 153.05 538.846 146.15V88.85C538.846 81.95 535.996 78.5 530.296 78.5C524.596 78.5 521.746 81.95 521.746 88.85V146.15C521.746 153.05 524.596 156.5 530.296 156.5ZM566.504 65H583.004V155H610.154V170H566.504V65Z" fill="white"/>
<defs>
<clipPath id="clip0_8_395">
<rect width="230.977" height="120" fill="white" transform="translate(10 65)"/>
</clipPath>
</defs>
</svg>
