<svg width="650" height="250" viewBox="0 0 650 250" fill="none" xmlns="http://www.w3.org/2000/svg">
<rect width="650" height="250" fill="#1F1F1F"/>
<rect width="250" height="250" fill="#050505"/>
<path d="M152 141.5V85.5H165V158L152 141.5Z" fill="white"/>
<circle cx="125" cy="125" r="82.5" stroke="white" stroke-width="15"/>
<path d="M100 164H85.5V85.5H102.5L183 189L172.5 197.5L99.5 103.5L100 164Z" fill="white"/>
<path d="M289.15 82H309.85L325.9 144.85H326.2V82H340.9V187H323.95L304.15 110.35H303.85V187H289.15V82ZM353.164 82H398.164V97H369.664V124.75H392.314V139.75H369.664V172H398.164V187H353.164V82ZM422.499 133.3L404.349 82H421.749L432.849 115.9H433.149L444.549 82H460.149L441.999 133.3L461.049 187H443.649L431.649 150.4H431.349L419.049 187H403.449L422.499 133.3ZM481.786 97H464.536V82H515.536V97H498.286V187H481.786V97ZM512.539 171.1H528.439V187H512.539V171.1ZM545.443 187.6C542.443 187.6 539.893 187.4 537.793 187V172C539.393 172.4 541.193 172.6 543.193 172.6C546.493 172.6 548.943 171.8 550.543 170.2C552.143 168.5 552.943 165.95 552.943 162.55V82H569.443V162.1C569.443 170.7 567.443 177.1 563.443 181.3C559.543 185.5 553.543 187.6 545.443 187.6ZM602.69 188.5C594.69 188.5 588.64 186.25 584.54 181.75C580.44 177.15 578.39 170.6 578.39 162.1V156.1H593.99V163.3C593.99 170.1 596.84 173.5 602.54 173.5C605.34 173.5 607.44 172.7 608.84 171.1C610.34 169.4 611.09 166.7 611.09 163C611.09 158.6 610.09 154.75 608.09 151.45C606.09 148.05 602.39 144 596.99 139.3C590.19 133.3 585.44 127.9 582.74 123.1C580.04 118.2 578.69 112.7 578.69 106.6C578.69 98.3 580.79 91.9 584.99 87.4C589.19 82.8 595.29 80.5 603.29 80.5C611.19 80.5 617.14 82.8 621.14 87.4C625.24 91.9 627.29 98.4 627.29 106.9V111.25H611.69V105.85C611.69 102.25 610.99 99.65 609.59 98.05C608.19 96.35 606.14 95.5 603.44 95.5C597.94 95.5 595.19 98.85 595.19 105.55C595.19 109.35 596.19 112.9 598.19 116.2C600.29 119.5 604.04 123.5 609.44 128.2C616.34 134.2 621.09 139.65 623.69 144.55C626.29 149.45 627.59 155.2 627.59 161.8C627.59 170.4 625.44 177 621.14 181.6C616.94 186.2 610.79 188.5 602.69 188.5Z" fill="white"/>
</svg>
