<svg width="671" height="304" viewBox="0 0 671 304" fill="none" xmlns="http://www.w3.org/2000/svg">
<rect x="21" y="54" width="650" height="250" fill="#2F2F2F"/>
<rect x="21" y="54" width="250" height="250" fill="#181819"/>
<path d="M353 219.3C345.98 219.3 340.607 217.307 336.88 213.32C333.153 209.333 331.29 203.7 331.29 196.42V148.58C331.29 141.3 333.153 135.667 336.88 131.68C340.607 127.693 345.98 125.7 353 125.7C360.02 125.7 365.393 127.693 369.12 131.68C372.847 135.667 374.71 141.3 374.71 148.58V196.42C374.71 203.7 372.847 209.333 369.12 213.32C365.393 217.307 360.02 219.3 353 219.3ZM353 206.3C357.94 206.3 360.41 203.31 360.41 197.33V147.67C360.41 141.69 357.94 138.7 353 138.7C348.06 138.7 345.59 141.69 345.59 147.67V197.33C345.59 203.31 348.06 206.3 353 206.3ZM395.177 127H414.547L429.367 218H415.067L412.467 199.93V200.19H396.217L393.617 218H380.357L395.177 127ZM410.777 187.84L404.407 142.86H404.147L397.907 187.84H410.777ZM456.851 219.3C449.917 219.3 444.631 217.35 440.991 213.45C437.351 209.463 435.531 203.787 435.531 196.42V127H449.831V197.46C449.831 200.58 450.437 202.833 451.651 204.22C452.951 205.607 454.771 206.3 457.111 206.3C459.451 206.3 461.227 205.607 462.441 204.22C463.741 202.833 464.391 200.58 464.391 197.46V127H478.171V196.42C478.171 203.787 476.351 209.463 472.711 213.45C469.071 217.35 463.784 219.3 456.851 219.3ZM499.535 140H484.585V127H528.785V140H513.835V218H499.535V140ZM535.709 127H550.009V164.05H565.349V127H579.649V218H565.349V177.05H550.009V218H535.709V127ZM590.039 208.12C590.039 201.62 591.079 196.073 593.159 191.48C595.239 186.8 598.965 181.643 604.339 176.01C609.625 170.377 613.265 165.567 615.259 161.58C617.339 157.593 618.379 153.433 618.379 149.1C618.379 145.2 617.729 142.513 616.429 141.04C615.215 139.48 613.395 138.7 610.969 138.7C606.029 138.7 603.559 141.69 603.559 147.67V157.42H590.039V148.58C590.039 141.213 591.859 135.58 595.499 131.68C599.139 127.693 604.425 125.7 611.359 125.7C618.292 125.7 623.579 127.693 627.219 131.68C630.859 135.58 632.679 141.213 632.679 148.58C632.679 154.127 631.335 159.543 628.649 164.83C626.049 170.117 621.499 176.183 614.999 183.03C610.752 187.537 607.892 191.22 606.419 194.08C604.945 196.853 604.209 199.843 604.209 203.05V205H631.379V218H590.039V208.12Z" fill="white"/>
<path d="M145.153 65.7988C142.141 65.7988 139.034 65.893 135.834 66.0812C129.621 66.4578 123.032 67.4932 116.066 69.1876C109.476 70.882 103.828 72.7647 99.1218 74.8356C91.9677 78.0361 84.7195 82.1779 77.3771 87.2611C69.0935 93.0973 61.7511 100.157 55.3501 108.441C48.949 116.725 43.7717 125.761 39.8181 135.551L38.4062 138.94C36.7118 143.082 35.5822 146.188 35.0174 148.259C32.5699 156.731 31.3462 165.956 31.3462 175.934C31.3462 185.159 32.1934 193.914 33.8878 202.197C38.0296 221.024 45.7485 237.121 57.0445 250.487C66.8343 262.16 79.9187 272.326 96.2978 280.986C105.335 285.693 115.642 288.847 127.22 290.447C138.799 292.047 150.518 291.953 162.379 290.164C174.24 288.376 185.065 285.034 194.855 280.139C211.799 271.479 226.107 258.395 237.779 240.886C243.616 232.226 248.134 222.812 251.335 212.646C254.912 201.35 256.7 189.678 256.7 177.629C256.7 166.897 254.723 155.696 250.77 144.023C247.569 134.233 243.239 125.103 237.779 116.631C228.178 101.381 216.129 89.4262 201.632 80.7659C185.065 70.7879 166.239 65.7988 145.153 65.7988ZM135.551 119.455H150.801C153.813 119.455 156.543 120.349 158.99 122.137C161.438 123.926 163.132 126.232 164.073 129.056L194.008 219.424C195.326 223.189 195.09 226.813 193.302 230.296C191.513 233.779 188.83 236.085 185.253 237.215C183.747 237.591 182.241 237.779 180.735 237.779C177.723 237.779 174.993 236.932 172.545 235.238C170.098 233.544 168.404 231.19 167.462 228.178L160.967 207.563H127.079L120.584 228.178C119.643 231.002 117.948 233.308 115.501 235.097C113.053 236.885 110.324 237.779 107.311 237.779C105.805 237.779 104.393 237.591 103.075 237.215C99.3101 236.085 96.5332 233.826 94.7447 230.437C92.9561 227.048 92.6267 223.471 93.7563 219.706L122.279 129.338C123.22 126.326 124.914 123.926 127.362 122.137C129.809 120.349 132.539 119.455 135.551 119.455Z" fill="#FFFDFD"/>
</svg>
