<svg width="650" height="250" viewBox="0 0 650 250" fill="none" xmlns="http://www.w3.org/2000/svg">
<rect width="650" height="250" fill="#DB5B05"/>
<rect width="650" height="250" fill="#326CE5"/>
<rect width="250" height="250" fill="#0E5BFA"/>
<path d="M353.46 171.5C345.36 171.5 339.16 169.2 334.86 164.6C330.56 160 328.41 153.5 328.41 145.1V89.9C328.41 81.5 330.56 75 334.86 70.4C339.16 65.8 345.36 63.5 353.46 63.5C361.56 63.5 367.76 65.8 372.06 70.4C376.36 75 378.51 81.5 378.51 89.9V145.1C378.51 153.5 376.36 160 372.06 164.6C367.76 169.2 361.56 171.5 353.46 171.5ZM353.46 156.5C359.16 156.5 362.01 153.05 362.01 146.15V88.85C362.01 81.95 359.16 78.5 353.46 78.5C347.76 78.5 344.91 81.95 344.91 88.85V146.15C344.91 153.05 347.76 156.5 353.46 156.5ZM411.119 171.5C403.119 171.5 397.069 169.25 392.969 164.75C388.869 160.15 386.819 153.6 386.819 145.1V139.1H402.419V146.3C402.419 153.1 405.269 156.5 410.969 156.5C413.769 156.5 415.869 155.7 417.269 154.1C418.769 152.4 419.519 149.7 419.519 146C419.519 141.6 418.519 137.75 416.519 134.45C414.519 131.05 410.819 127 405.419 122.3C398.619 116.3 393.869 110.9 391.169 106.1C388.469 101.2 387.119 95.7 387.119 89.6C387.119 81.3 389.219 74.9 393.419 70.4C397.619 65.8 403.719 63.5 411.719 63.5C419.619 63.5 425.569 65.8 429.569 70.4C433.669 74.9 435.719 81.4 435.719 89.9V94.25H420.119V88.85C420.119 85.25 419.419 82.65 418.019 81.05C416.619 79.35 414.569 78.5 411.869 78.5C406.369 78.5 403.619 81.85 403.619 88.55C403.619 92.35 404.619 95.9 406.619 99.2C408.719 102.5 412.469 106.5 417.869 111.2C424.769 117.2 429.519 122.65 432.119 127.55C434.719 132.45 436.019 138.2 436.019 144.8C436.019 153.4 433.869 160 429.569 164.6C425.369 169.2 419.219 171.5 411.119 171.5ZM445.479 65H469.929C478.429 65 484.629 67 488.529 71C492.429 74.9 494.379 80.95 494.379 89.15V95.6C494.379 106.5 490.779 113.4 483.579 116.3V116.6C487.579 117.8 490.379 120.25 491.979 123.95C493.679 127.65 494.529 132.6 494.529 138.8V157.25C494.529 160.25 494.629 162.7 494.829 164.6C495.029 166.4 495.529 168.2 496.329 170H479.529C478.929 168.3 478.529 166.7 478.329 165.2C478.129 163.7 478.029 161 478.029 157.1V137.9C478.029 133.1 477.229 129.75 475.629 127.85C474.129 125.95 471.479 125 467.679 125H461.979V170H445.479V65ZM467.979 110C471.279 110 473.729 109.15 475.329 107.45C477.029 105.75 477.879 102.9 477.879 98.9V90.8C477.879 87 477.179 84.25 475.779 82.55C474.479 80.85 472.379 80 469.479 80H461.979V110H467.979ZM505.977 65H529.527L540.027 140.15H540.327L550.827 65H574.377V170H558.777V90.5H558.477L546.477 170H532.677L520.677 90.5H520.377V170H505.977V65Z" fill="white"/>
<path d="M177.826 214.151C175.842 213.491 172.797 212.228 171.061 211.329C162.05 206.667 62.2137 147.403 61.2511 146.144C59.424 143.756 59.8801 139.233 62.1526 137.202C63.2686 136.197 70.473 132.841 78.162 129.727C85.8508 126.614 92.4934 123.857 92.923 123.599C93.352 123.344 83.8162 118.897 71.731 113.72C59.6458 108.542 49.0282 103.646 48.1365 102.839C44.4636 99.515 48.651 94.9835 54.7117 95.7245C58.8273 96.2345 105.329 116.658 106.798 118.61C108.153 120.407 108.268 124.651 107.026 126.973C106.531 127.903 100.437 131.598 93.4822 135.195C86.5279 138.794 81.1492 142.022 81.5295 142.368C81.909 142.713 105.558 155.487 134.082 170.751C196.941 204.387 193.316 202.355 195 204.924C199.029 211.073 187.42 217.31 177.826 214.151ZM188.919 209.774C191.793 206.9 189.009 203.64 183.688 203.64C178.163 203.64 175.121 207.65 178.953 209.882C181.14 211.157 187.608 211.082 188.919 209.732V209.774ZM56.422 101.799C58.5201 100.464 56.8495 98.1155 53.8102 98.1155C52.1094 98.1155 50.835 98.6705 50.4937 99.5555C49.9072 101.085 51.5542 102.594 53.8102 102.594C54.5542 102.594 55.7296 102.234 56.422 101.799ZM179.395 185.828C165.284 167.753 153.035 143.644 151.552 131.023C150.302 120.392 156.238 108.151 165.708 101.827C190.206 85.4675 221.041 107.769 213.947 136.718C211.776 145.578 203.319 162.474 194.671 175.23C183.541 191.645 183.798 191.466 179.395 185.828ZM190.027 143.479C195.341 139.816 196.112 134.751 191.984 130.623L189.457 128.096L191.533 125.683C194.528 122.2 194.286 118.042 190.899 114.796C188.409 112.411 187.527 112.167 180.075 111.81L171.963 111.42V128.216V145.011H179.88C185.864 145.011 188.341 144.64 190.027 143.479ZM179.179 134.698C179.179 131.792 179.416 131.488 181.659 131.5C185.145 131.5 186.601 132.699 186.247 135.195C185.997 136.965 185.341 137.399 182.561 137.628C179.233 137.898 179.179 137.854 179.179 134.698ZM179.179 121.959C179.179 118.895 179.314 118.758 182.019 119.027C187.689 119.597 187.466 125.172 181.774 125.172C179.401 125.172 179.179 124.902 179.179 121.959ZM46.7839 80.672C36.7854 65.552 33.3481 55.4015 35.7562 48.104C38.1525 40.844 45.9702 35.039 53.4076 35C58.6545 35 65.676 38.744 68.8156 43.2785C71.1067 46.5875 71.3964 47.78 71.3847 53.846C71.3731 59.8745 70.9797 61.4855 68.0643 67.4495C63.9456 75.8735 55.4517 88.559 53.7022 88.8995C52.9087 89.0495 50.1862 85.817 46.7839 80.672ZM48.9744 62.489C49.3284 61.574 50.769 61.139 53.4841 61.139C56.1991 61.139 57.6405 61.574 57.9937 62.489C58.4242 63.614 62.8296 64.547 62.8296 63.524C62.8296 63.344 60.7602 58.778 58.2307 53.3765L53.632 43.556L51.7714 47.1635C50.7484 49.148 48.5662 53.714 46.9227 57.3095L43.9345 63.8495H46.1949C47.4384 63.8495 48.6889 63.224 48.9744 62.489ZM52.0063 56.699C52.0063 56.249 52.2658 55.196 52.5823 54.3695C53.0428 53.1695 53.3128 53.1095 53.9218 54.0695C55.1068 55.94 54.8488 57.5285 53.3593 57.5285C52.6153 57.5285 52.0063 57.149 52.0063 56.699Z" fill="white"/>
</svg>
