<svg width="650" height="250" viewBox="0 0 650 250" fill="none" xmlns="http://www.w3.org/2000/svg">
<rect width="650" height="250" fill="#042946"/>
<rect width="250" height="250" fill="#001E36"/>
<path d="M282.1 85H298.3C303.767 85 307.867 86.4667 310.6 89.4C313.333 92.3333 314.7 96.6333 314.7 102.3V109.2C314.7 114.867 313.333 119.167 310.6 122.1C307.867 125.033 303.767 126.5 298.3 126.5H293.1V155H282.1V85ZM298.3 116.5C300.1 116.5 301.433 116 302.3 115C303.233 114 303.7 112.3 303.7 109.9V101.6C303.7 99.2 303.233 97.5 302.3 96.5C301.433 95.5 300.1 95 298.3 95H293.1V116.5H298.3ZM320.674 85H331.674V113.5H343.474V85H354.474V155H343.474V123.5H331.674V155H320.674V85ZM378.566 156C373.166 156 369.033 154.467 366.166 151.4C363.3 148.333 361.866 144 361.866 138.4V101.6C361.866 96 363.3 91.6667 366.166 88.6C369.033 85.5333 373.166 84 378.566 84C383.966 84 388.1 85.5333 390.966 88.6C393.833 91.6667 395.266 96 395.266 101.6V138.4C395.266 144 393.833 148.333 390.966 151.4C388.1 154.467 383.966 156 378.566 156ZM378.566 146C382.366 146 384.266 143.7 384.266 139.1V100.9C384.266 96.3 382.366 94 378.566 94C374.766 94 372.866 96.3 372.866 100.9V139.1C372.866 143.7 374.766 146 378.566 146ZM410.915 95H399.415V85H433.415V95H421.915V155H410.915V95ZM454.25 156C448.85 156 444.717 154.467 441.85 151.4C438.983 148.333 437.55 144 437.55 138.4V101.6C437.55 96 438.983 91.6667 441.85 88.6C444.717 85.5333 448.85 84 454.25 84C459.65 84 463.783 85.5333 466.65 88.6C469.517 91.6667 470.95 96 470.95 101.6V138.4C470.95 144 469.517 148.333 466.65 151.4C463.783 154.467 459.65 156 454.25 156ZM454.25 146C458.05 146 459.95 143.7 459.95 139.1V100.9C459.95 96.3 458.05 94 454.25 94C450.45 94 448.55 96.3 448.55 100.9V139.1C448.55 143.7 450.45 146 454.25 146ZM492.689 156C487.356 156 483.322 154.5 480.589 151.5C477.856 148.433 476.489 144.067 476.489 138.4V134.4H486.889V139.2C486.889 143.733 488.789 146 492.589 146C494.456 146 495.856 145.467 496.789 144.4C497.789 143.267 498.289 141.467 498.289 139C498.289 136.067 497.622 133.5 496.289 131.3C494.956 129.033 492.489 126.333 488.889 123.2C484.356 119.2 481.189 115.6 479.389 112.4C477.589 109.133 476.689 105.467 476.689 101.4C476.689 95.8667 478.089 91.6 480.889 88.6C483.689 85.5333 487.756 84 493.089 84C498.356 84 502.322 85.5333 504.989 88.6C507.722 91.6 509.089 95.9333 509.089 101.6V104.5H498.689V100.9C498.689 98.5 498.222 96.7667 497.289 95.7C496.356 94.5667 494.989 94 493.189 94C489.522 94 487.689 96.2333 487.689 100.7C487.689 103.233 488.356 105.6 489.689 107.8C491.089 110 493.589 112.667 497.189 115.8C501.789 119.8 504.956 123.433 506.689 126.7C508.422 129.967 509.289 133.8 509.289 138.2C509.289 143.933 507.856 148.333 504.989 151.4C502.189 154.467 498.089 156 492.689 156ZM515.596 85H526.596V113.5H538.396V85H549.396V155H538.396V123.5H526.596V155H515.596V85ZM573.488 156C568.088 156 563.955 154.467 561.088 151.4C558.222 148.333 556.788 144 556.788 138.4V101.6C556.788 96 558.222 91.6667 561.088 88.6C563.955 85.5333 568.088 84 573.488 84C578.888 84 583.022 85.5333 585.888 88.6C588.755 91.6667 590.188 96 590.188 101.6V138.4C590.188 144 588.755 148.333 585.888 151.4C583.022 154.467 578.888 156 573.488 156ZM573.488 146C577.288 146 579.188 143.7 579.188 139.1V100.9C579.188 96.3 577.288 94 573.488 94C569.688 94 567.788 96.3 567.788 100.9V139.1C567.788 143.7 569.688 146 573.488 146ZM597.627 85H613.827C619.294 85 623.394 86.4667 626.127 89.4C628.861 92.3333 630.227 96.6333 630.227 102.3V109.2C630.227 114.867 628.861 119.167 626.127 122.1C623.394 125.033 619.294 126.5 613.827 126.5H608.627V155H597.627V85ZM613.827 116.5C615.627 116.5 616.961 116 617.827 115C618.761 114 619.227 112.3 619.227 109.9V101.6C619.227 99.2 618.761 97.5 617.827 96.5C616.961 95.5 615.627 95 613.827 95H608.627V116.5H613.827Z" fill="white"/>
<g clip-path="url(#clip0_8_545)">
<path d="M50.7292 13H199.271C221.792 13 240 31.2083 240 53.7292V196.521C240 219.042 221.792 237.25 199.271 237.25H50.7292C28.2083 237.25 10 219.042 10 196.521V53.7292C10 31.2083 28.2083 13 50.7292 13Z" fill="white"/>
<path d="M61.75 170.263V71.65C61.75 70.9792 62.0375 70.5959 62.7083 70.5959C64.3375 70.5959 65.8708 70.5959 68.075 70.5C70.375 70.4042 72.7708 70.4042 75.3583 70.3084C77.9458 70.2125 80.725 70.2125 83.6958 70.1167C86.6667 70.0209 89.5417 70.0209 92.4167 70.0209C100.275 70.0209 106.792 70.9792 112.158 72.9917C116.95 74.6209 121.358 77.3042 125 80.85C128.067 83.9167 130.463 87.6542 131.996 91.775C133.433 95.8 134.2 99.9209 134.2 104.233C134.2 112.475 132.283 119.279 128.45 124.646C124.617 130.013 119.25 134.038 113.021 136.338C106.504 138.733 99.3167 139.596 91.4583 139.596C89.1583 139.596 87.625 139.596 86.6667 139.5C85.7083 139.404 84.3667 139.404 82.5458 139.404V170.167C82.6417 170.838 82.1625 171.413 81.4917 171.508C81.3958 171.508 81.3 171.508 81.1083 171.508H62.9C62.1333 171.508 61.75 171.125 61.75 170.263ZM82.6417 89.0917V121.292C83.9833 121.388 85.2292 121.483 86.3792 121.483H91.4583C95.1958 121.483 98.9333 120.908 102.479 119.758C105.546 118.896 108.229 117.075 110.337 114.679C112.35 112.283 113.308 109.025 113.308 104.808C113.404 101.838 112.637 98.8667 111.104 96.2792C109.475 93.7875 107.175 91.8709 104.396 90.8167C100.85 89.3792 97.0167 88.8042 93.0875 88.9C90.5958 88.9 88.3917 88.9 86.5708 88.9959C84.6542 88.9 83.3125 88.9959 82.6417 89.0917Z" fill="#001E36"/>
<path d="M194 115.446C191.125 113.913 188.058 112.858 184.8 112.188C181.254 111.421 177.708 110.942 174.067 110.942C172.15 110.846 170.137 111.133 168.317 111.613C167.071 111.9 166.017 112.571 165.346 113.529C164.867 114.296 164.579 115.254 164.579 116.117C164.579 116.979 164.962 117.842 165.537 118.608C166.4 119.663 167.55 120.525 168.796 121.196C171 122.346 173.3 123.4 175.6 124.358C180.775 126.083 185.758 128.479 190.358 131.354C193.521 133.367 196.108 136.05 197.929 139.308C199.463 142.375 200.229 145.729 200.133 149.179C200.229 153.683 198.887 158.188 196.396 161.925C193.712 165.758 189.975 168.729 185.663 170.454C180.967 172.467 175.217 173.521 168.317 173.521C163.908 173.521 159.596 173.138 155.283 172.275C151.929 171.7 148.575 170.646 145.508 169.208C144.837 168.825 144.358 168.154 144.454 167.388V150.713C144.454 150.425 144.55 150.042 144.837 149.85C145.125 149.658 145.413 149.754 145.7 149.946C149.438 152.15 153.367 153.683 157.583 154.642C161.225 155.6 165.058 156.079 168.892 156.079C172.533 156.079 175.121 155.6 176.846 154.738C178.379 154.067 179.433 152.438 179.433 150.713C179.433 149.371 178.667 148.125 177.133 146.879C175.6 145.633 172.438 144.196 167.742 142.375C162.854 140.65 158.35 138.35 154.133 135.475C151.162 133.367 148.671 130.588 146.85 127.329C145.317 124.263 144.55 120.908 144.646 117.554C144.646 113.433 145.796 109.504 147.904 105.958C150.3 102.125 153.846 99.0584 157.967 97.1418C162.471 94.8418 168.125 93.7876 174.929 93.7876C178.858 93.7876 182.883 94.0751 186.812 94.6501C189.687 95.0334 192.467 95.8001 195.054 96.8543C195.438 96.9501 195.821 97.3334 196.013 97.7168C196.108 98.1001 196.204 98.4834 196.204 98.8668V114.488C196.204 114.871 196.013 115.254 195.725 115.446C194.863 115.638 194.383 115.638 194 115.446Z" fill="#001E36"/>
</g>
<defs>
<clipPath id="clip0_8_545">
<rect width="230" height="224.25" fill="white" transform="translate(10 13)"/>
</clipPath>
</defs>
</svg>
