<svg width="650" height="250" viewBox="0 0 650 250" fill="none" xmlns="http://www.w3.org/2000/svg">
<rect width="650" height="250" fill="#00A8FF"/>
<rect width="250" height="250" fill="#0097E6"/>
<path d="M125.126 157.946C124.407 183.515 125.305 209.264 127.803 215.446C130.301 221.627 135.664 233.864 154.091 229.928C169.482 226.631 175.088 220.243 177.514 206.147L183.201 161.072M103.042 29.7656C103.042 29.7656 19.6313 -4.33911 23.5125 73.1871C24.3391 89.6824 47.1414 198.07 74.3641 165.277C84.3008 153.301 93.2852 143.93 93.2852 143.93M148.09 23.5394C145.215 24.4378 194.485 5.52572 222.498 41.3105C232.381 53.9515 220.926 105.612 193.497 146.311" stroke="white" stroke-width="5" stroke-linecap="round" stroke-linejoin="round"/>
<path d="M193.506 146.293C193.506 146.293 195.303 155.098 221.357 149.725C232.741 147.371 225.886 156.319 214.35 161.674C204.88 166.076 183.641 167.2 183.291 161.135C182.392 145.457 194.467 150.219 193.596 146.293C192.805 142.753 187.397 139.285 183.839 130.624C180.721 123.077 141.073 65.128 194.836 73.7261C196.812 73.3218 180.82 22.5151 130.507 21.7784C80.1949 21.0417 81.7852 83.6358 81.7852 83.6358" stroke="white" stroke-width="5" stroke-linecap="round" stroke-linejoin="bevel"/>
<path d="M111.047 151.666C104.039 159.5 106.106 160.874 92.0902 163.758C77.9129 166.678 86.2504 171.88 91.6769 173.246C98.2715 174.899 113.527 177.235 123.841 162.797C126.986 158.395 123.823 151.387 119.511 149.608C117.426 148.746 114.641 147.667 111.065 151.674L111.047 151.666Z" stroke="white" stroke-width="5" stroke-linejoin="round"/>
<path d="M110.589 151.531C109.87 146.922 112.098 141.45 114.479 135.035C118.055 125.422 126.303 115.809 119.708 85.2889C114.794 62.5585 81.7941 80.5542 81.7941 83.6358C81.7941 86.7175 83.2855 99.2686 81.2551 113.868C78.5867 132.933 93.384 149.051 110.418 147.407" stroke="white" stroke-width="5" stroke-linecap="round" stroke-linejoin="round"/>
<path d="M102.737 83.1776C102.584 84.2287 104.668 87.0408 107.373 87.4182C110.077 87.7955 112.386 85.6033 112.539 84.5432C112.691 83.483 110.607 82.333 107.903 81.9557C105.198 81.5783 102.871 82.1354 102.737 83.1776Z" fill="white" stroke="white" stroke-width="0.5975"/>
<path d="M185.07 81.0304C185.213 82.0815 183.138 84.8936 180.434 85.271C177.729 85.6483 175.402 83.4561 175.268 82.396C175.133 81.3358 177.199 80.1858 179.904 79.8085C182.608 79.4311 184.935 79.9882 185.07 81.0304Z" fill="white" stroke="white" stroke-width="0.2975"/>
<path d="M194.737 73.7441C195.186 82.0098 192.958 87.625 192.67 96.4207C192.257 109.196 198.762 123.823 188.96 138.468" stroke="white" stroke-width="1.79" stroke-linecap="round" stroke-linejoin="round"/>
<path d="M271.628 65H295.928C304.128 65 310.278 67.2 314.378 71.6C318.478 76 320.528 82.45 320.528 90.95V101.3C320.528 109.8 318.478 116.25 314.378 120.65C310.278 125.05 304.128 127.25 295.928 127.25H288.128V170H271.628V65ZM295.928 112.25C298.628 112.25 300.628 111.5 301.928 110C303.328 108.5 304.028 105.95 304.028 102.35V89.9C304.028 86.3 303.328 83.75 301.928 82.25C300.628 80.75 298.628 80 295.928 80H288.128V112.25H295.928ZM353.339 171.5C345.239 171.5 339.039 169.2 334.739 164.6C330.439 160 328.289 153.5 328.289 145.1V89.9C328.289 81.5 330.439 75 334.739 70.4C339.039 65.8 345.239 63.5 353.339 63.5C361.439 63.5 367.639 65.8 371.939 70.4C376.239 75 378.389 81.5 378.389 89.9V145.1C378.389 153.5 376.239 160 371.939 164.6C367.639 169.2 361.439 171.5 353.339 171.5ZM353.339 156.5C359.039 156.5 361.889 153.05 361.889 146.15V88.85C361.889 81.95 359.039 78.5 353.339 78.5C347.639 78.5 344.789 81.95 344.789 88.85V146.15C344.789 153.05 347.639 156.5 353.339 156.5ZM410.997 171.5C402.997 171.5 396.947 169.25 392.847 164.75C388.747 160.15 386.697 153.6 386.697 145.1V139.1H402.297V146.3C402.297 153.1 405.147 156.5 410.847 156.5C413.647 156.5 415.747 155.7 417.147 154.1C418.647 152.4 419.397 149.7 419.397 146C419.397 141.6 418.397 137.75 416.397 134.45C414.397 131.05 410.697 127 405.297 122.3C398.497 116.3 393.747 110.9 391.047 106.1C388.347 101.2 386.997 95.7 386.997 89.6C386.997 81.3 389.097 74.9 393.297 70.4C397.497 65.8 403.597 63.5 411.597 63.5C419.497 63.5 425.447 65.8 429.447 70.4C433.547 74.9 435.597 81.4 435.597 89.9V94.25H419.997V88.85C419.997 85.25 419.297 82.65 417.897 81.05C416.497 79.35 414.447 78.5 411.747 78.5C406.247 78.5 403.497 81.85 403.497 88.55C403.497 92.35 404.497 95.9 406.497 99.2C408.597 102.5 412.347 106.5 417.747 111.2C424.647 117.2 429.397 122.65 431.997 127.55C434.597 132.45 435.897 138.2 435.897 144.8C435.897 153.4 433.747 160 429.447 164.6C425.247 169.2 419.097 171.5 410.997 171.5ZM458.258 80H441.008V65H492.008V80H474.758V170H458.258V80ZM522.811 171.5C514.811 171.5 508.711 169.25 504.511 164.75C500.311 160.15 498.211 153.6 498.211 145.1V89.9C498.211 81.4 500.311 74.9 504.511 70.4C508.711 65.8 514.811 63.5 522.811 63.5C530.811 63.5 536.911 65.8 541.111 70.4C545.311 74.9 547.411 81.4 547.411 89.9V98.9H531.811V88.85C531.811 81.95 528.961 78.5 523.261 78.5C517.561 78.5 514.711 81.95 514.711 88.85V146.3C514.711 153.1 517.561 156.5 523.261 156.5C528.961 156.5 531.811 153.1 531.811 146.3V125.75H523.561V110.75H547.411V145.1C547.411 153.6 545.311 160.15 541.111 164.75C536.911 169.25 530.811 171.5 522.811 171.5ZM558.004 65H574.504V170H558.004V65ZM608.312 171.5C600.312 171.5 594.262 169.25 590.162 164.75C586.062 160.15 584.012 153.6 584.012 145.1V139.1H599.612V146.3C599.612 153.1 602.462 156.5 608.162 156.5C610.962 156.5 613.062 155.7 614.462 154.1C615.962 152.4 616.712 149.7 616.712 146C616.712 141.6 615.712 137.75 613.712 134.45C611.712 131.05 608.012 127 602.612 122.3C595.812 116.3 591.062 110.9 588.362 106.1C585.662 101.2 584.312 95.7 584.312 89.6C584.312 81.3 586.412 74.9 590.612 70.4C594.812 65.8 600.912 63.5 608.912 63.5C616.812 63.5 622.762 65.8 626.762 70.4C630.862 74.9 632.912 81.4 632.912 89.9V94.25H617.312V88.85C617.312 85.25 616.612 82.65 615.212 81.05C613.812 79.35 611.762 78.5 609.062 78.5C603.562 78.5 600.812 81.85 600.812 88.55C600.812 92.35 601.812 95.9 603.812 99.2C605.912 102.5 609.662 106.5 615.062 111.2C621.962 117.2 626.712 122.65 629.312 127.55C631.912 132.45 633.212 138.2 633.212 144.8C633.212 153.4 631.062 160 626.762 164.6C622.562 169.2 616.412 171.5 608.312 171.5Z" fill="white"/>
</svg>
