<svg width="650" height="250" viewBox="0 0 650 250" fill="none" xmlns="http://www.w3.org/2000/svg">
<rect width="650" height="250" fill="#FF7645"/>
<rect width="250" height="250" fill="#FF6C37"/>
<path d="M285.92 87H305.36C311.92 87 316.84 88.76 320.12 92.28C323.4 95.8 325.04 100.96 325.04 107.76V116.04C325.04 122.84 323.4 128 320.12 131.52C316.84 135.04 311.92 136.8 305.36 136.8H299.12V171H285.92V87ZM305.36 124.8C307.52 124.8 309.12 124.2 310.16 123C311.28 121.8 311.84 119.76 311.84 116.88V106.92C311.84 104.04 311.28 102 310.16 100.8C309.12 99.6 307.52 99 305.36 99H299.12V124.8H305.36ZM351.289 172.2C344.809 172.2 339.849 170.36 336.409 166.68C332.969 163 331.249 157.8 331.249 151.08V106.92C331.249 100.2 332.969 95 336.409 91.32C339.849 87.64 344.809 85.8 351.289 85.8C357.769 85.8 362.729 87.64 366.169 91.32C369.609 95 371.329 100.2 371.329 106.92V151.08C371.329 157.8 369.609 163 366.169 166.68C362.729 170.36 357.769 172.2 351.289 172.2ZM351.289 160.2C355.849 160.2 358.129 157.44 358.129 151.92V106.08C358.129 100.56 355.849 97.8 351.289 97.8C346.729 97.8 344.449 100.56 344.449 106.08V151.92C344.449 157.44 346.729 160.2 351.289 160.2ZM397.416 172.2C391.016 172.2 386.176 170.4 382.896 166.8C379.616 163.12 377.976 157.88 377.976 151.08V146.28H390.456V152.04C390.456 157.48 392.736 160.2 397.296 160.2C399.536 160.2 401.216 159.56 402.336 158.28C403.536 156.92 404.136 154.76 404.136 151.8C404.136 148.28 403.336 145.2 401.736 142.56C400.136 139.84 397.176 136.6 392.856 132.84C387.416 128.04 383.616 123.72 381.456 119.88C379.296 115.96 378.216 111.56 378.216 106.68C378.216 100.04 379.896 94.92 383.256 91.32C386.616 87.64 391.496 85.8 397.896 85.8C404.216 85.8 408.976 87.64 412.176 91.32C415.456 94.92 417.096 100.12 417.096 106.92V110.4H404.616V106.08C404.616 103.2 404.056 101.12 402.936 99.84C401.816 98.48 400.176 97.8 398.016 97.8C393.616 97.8 391.416 100.48 391.416 105.84C391.416 108.88 392.216 111.72 393.816 114.36C395.496 117 398.496 120.2 402.816 123.96C408.336 128.76 412.136 133.12 414.216 137.04C416.296 140.96 417.336 145.56 417.336 150.84C417.336 157.72 415.616 163 412.176 166.68C408.816 170.36 403.896 172.2 397.416 172.2ZM435.224 99H421.424V87H462.224V99H448.424V171H435.224V99ZM468.615 87H487.455L495.855 147.12H496.095L504.495 87H523.335V171H510.855V107.4H510.615L501.015 171H489.975L480.375 107.4H480.135V171H468.615V87ZM543.386 87H561.266L574.946 171H561.746L559.346 154.32V154.56H544.346L541.946 171H529.706L543.386 87ZM557.786 143.16L551.906 101.64H551.666L545.906 143.16H557.786ZM581.35 87H597.91L610.75 137.28H610.99V87H622.75V171H609.19L593.35 109.68H593.11V171H581.35V87Z" fill="white"/>
<g clip-path="url(#clip0_8_431)">
<path d="M160.829 18.3531C181.922 25.4398 200.44 38.6226 214.04 56.2343L216.019 54.7062L214.04 56.2343C252.009 105.4 242.935 176.033 193.787 214.016C176.179 227.621 154.932 235.7 132.733 237.229C110.534 238.759 88.3796 233.671 69.0723 222.608C49.765 211.546 34.1718 195.007 24.2649 175.082C14.358 155.158 10.5823 132.742 13.4154 110.672C16.2485 88.601 25.5631 67.8662 40.1812 51.0896C54.7993 34.313 74.0642 22.2482 95.5394 16.4211C117.015 10.594 139.736 11.2664 160.829 18.3531Z" stroke="white" stroke-width="5"/>
<path d="M163.787 83.2694L115.297 132.144L101.594 118.057C149.319 70.3319 154.106 74.6444 163.787 83.2694Z" fill="white"/>
<path d="M115.297 133.481C114.867 133.471 114.457 133.3 114.147 133.003L100.347 119.203C100.036 118.882 99.8625 118.452 99.8625 118.005C99.8625 117.558 100.036 117.128 100.347 116.806C147.4 69.7533 153.822 71.9563 164.937 82.0188C165.315 82.3206 165.527 82.7806 165.512 83.2658C165.584 83.733 165.405 84.2109 165.034 84.5128L116.544 133.007C116.203 133.32 115.76 133.485 115.297 133.481ZM103.987 118.053L115.297 129.363L161.297 83.3628C159.709 81.3724 157.442 80.0373 154.931 79.613C152.421 79.1887 149.841 79.7048 147.687 81.0628C139.35 84.8003 125.934 96.2033 103.987 118.053Z" fill="#FF6C37"/>
<path d="M129.194 145.657L115.969 132.144L164.459 84.2253C177.494 96.9723 158.134 118.251 129.194 145.657Z" fill="white"/>
<path d="M129.194 147.382C128.77 147.348 128.367 147.181 128.044 146.904L114.531 133.679C114.329 133.187 114.329 132.636 114.531 132.144C114.388 131.742 114.388 131.3 114.531 130.897L163.022 82.4069C163.723 81.7492 164.812 81.7492 165.512 82.4069C168.693 85.3322 170.436 89.4937 170.303 93.8098C170.303 106.747 155.543 123.038 130.437 146.807C130.102 147.139 129.664 147.342 129.194 147.382ZM118.459 132.144L129.287 142.969C148.453 124.856 166.759 106.169 166.853 93.5187C166.957 90.837 166.071 88.2107 164.362 86.1408L118.459 132.144Z" fill="#FF6C37"/>
<path d="M101.975 118.344L111.559 127.929C111.621 127.983 111.67 128.049 111.703 128.124C111.737 128.198 111.754 128.279 111.754 128.36C111.754 128.442 111.737 128.522 111.703 128.597C111.67 128.671 111.621 128.737 111.559 128.791L91.3374 133.104C90.5 133.284 89.6483 132.881 89.2458 132.126C88.8433 131.372 88.9942 130.437 89.6124 129.844L101.4 118.154C101.4 118.154 101.784 118.154 101.975 118.344Z" fill="white"/>
<path d="M90.8594 135.019C90.2205 135.011 89.5943 134.84 89.0406 134.521C88.4869 134.202 88.0243 133.746 87.6969 133.197C86.9422 131.771 87.2117 130.013 88.3689 128.885L100.059 117.097C100.481 116.721 101.027 116.512 101.592 116.512C102.158 116.512 102.703 116.721 103.125 117.097L112.709 126.682C113.277 127.221 113.5 128.037 113.284 128.791C113.069 129.546 112.436 130.146 111.656 130.326L91.4344 134.638L90.8594 135.019ZM101.594 120.454L90.7659 131.282L108.688 127.447L101.594 120.454Z" fill="#FF6C37"/>
<path d="M189.569 56.3378C182.633 49.6462 171.737 49.3659 164.463 55.6802C157.189 61.9944 155.946 72.8331 161.61 80.6316C167.273 88.43 177.95 90.615 186.216 85.6628L173.181 72.6283L189.569 56.3378Z" fill="white"/>
<path d="M176.631 90.0688C172.647 90.0177 168.765 88.7951 165.47 86.5533C162.175 84.3115 159.613 81.1497 158.102 77.4619C155.011 69.9222 156.722 61.2684 162.415 55.4753C166.251 51.709 171.413 49.5989 176.79 49.5989C182.166 49.5989 187.328 51.709 191.165 55.4753C191.531 55.7844 191.74 56.2408 191.74 56.7223C191.739 56.9593 191.687 57.1932 191.588 57.4084C191.488 57.6235 191.344 57.8149 191.165 57.9694L175.64 72.6319L187.427 84.2289C187.618 84.4113 187.761 84.6377 187.845 84.8882C187.928 85.1388 187.949 85.406 187.905 85.6664C187.877 85.9177 187.793 86.1596 187.661 86.3751C187.529 86.5906 187.351 86.7744 187.14 86.9134C183.973 88.8928 180.332 89.985 176.599 90.0759L176.631 90.0688ZM176.631 52.8842C169.803 52.9202 163.694 57.0278 161.132 63.3061C158.569 69.5844 159.964 76.8114 164.75 81.6342C169.624 86.5325 176.969 87.9413 183.341 85.1813L172.031 73.8717C171.654 73.5698 171.442 73.1098 171.456 72.6247C171.471 72.1755 171.679 71.755 172.031 71.4747L186.981 56.4277C184.009 54.1492 180.376 52.9094 176.631 52.8842Z" fill="#FF6C37"/>
<path d="M189.856 56.6253L173.469 72.9158L186.503 85.9503C187.815 85.1972 189.037 84.2965 190.144 83.2658C197.245 75.7189 197.116 63.9745 189.856 56.6253Z" fill="white"/>
<path d="M186.212 87.3878C185.997 87.3995 185.782 87.3626 185.583 87.2798C185.384 87.1971 185.206 87.0706 185.062 86.9098L172.028 73.8753C171.65 73.5734 171.438 73.1134 171.453 72.6283C171.467 72.1791 171.676 71.7586 172.028 71.4783L188.318 55.4753C188.476 55.2381 188.689 55.0435 188.94 54.9089C189.191 54.7743 189.471 54.7038 189.756 54.7038C190.04 54.7038 190.321 54.7743 190.571 54.9089C190.822 55.0435 191.036 55.2381 191.193 55.4753C193.106 57.3491 194.625 59.5857 195.662 62.054C196.699 64.5224 197.234 67.1729 197.234 69.8503C197.234 72.5277 196.699 75.1782 195.662 77.6466C194.625 80.1149 193.106 82.3515 191.193 84.2253C190.065 85.4219 188.774 86.4538 187.359 87.2908C187.002 87.4704 186.594 87.5052 186.212 87.3878ZM175.672 72.6319L186.5 83.4598C187.245 82.9378 187.95 82.3612 188.609 81.7348C191.792 78.5604 193.585 74.2523 193.594 69.7569C193.601 65.7338 192.135 61.8474 189.472 58.8319L175.672 72.6319Z" fill="#FF6C37"/>
<path d="M165.8 85.2819C163.105 82.7519 158.911 82.7519 156.215 85.2819L112.806 128.594L119.994 135.878L165.897 95.6283C167.316 94.2734 168.111 92.3939 168.089 90.4317C168.067 88.4695 167.241 86.608 165.8 85.2819Z" fill="white"/>
<path d="M119.609 137.607C119.18 137.596 118.77 137.426 118.459 137.129L111.175 129.844C110.864 129.523 110.69 129.093 110.69 128.646C110.69 128.199 110.864 127.769 111.175 127.447L154.587 84.2253C158.03 80.7897 163.608 80.7897 167.047 84.2253C168.772 85.9503 169.706 88.3042 169.634 90.7408C169.534 93.163 168.463 95.4414 166.662 97.0658L120.759 137.316C120.425 137.553 120.015 137.657 119.609 137.607ZM114.531 128.594L119.322 133.481L164.362 94.2842C165.476 93.3139 166.141 91.9267 166.184 90.4497C166.228 88.9727 165.645 87.528 164.556 86.5217C162.461 84.4373 159.08 84.4373 156.984 86.5217L114.531 128.594Z" fill="#FF6C37"/>
<path d="M79.1689 177.95C79.0463 178.117 78.9802 178.318 78.9802 178.525C78.9802 178.732 79.0463 178.934 79.1689 179.1L81.0844 187.438C81.2497 188.433 80.7717 189.425 79.8912 189.953C79.4643 190.203 78.9691 190.311 78.4769 190.261C77.9848 190.212 77.5212 190.007 77.1528 189.677L64.0248 177.027L104.947 135.781H119.131L128.716 145.366C113.765 158.438 97.0944 169.401 79.1689 177.95Z" fill="white"/>
<path d="M78.3064 192.038C77.2211 192.016 76.1502 191.571 75.4314 190.791L62.8785 178.238C62.5011 177.936 62.2891 177.476 62.3035 176.991C62.3178 176.542 62.5263 176.121 62.8785 175.841L104.084 134.538C104.315 134.293 104.617 134.125 104.947 134.06H119.225C119.597 133.928 120.003 133.928 120.375 134.06L129.959 143.644C130.33 143.986 130.509 144.489 130.437 144.985C130.444 145.223 130.396 145.459 130.296 145.676C130.196 145.892 130.048 146.082 129.862 146.232L129.097 146.904C114.086 159.418 97.5702 170.01 79.9344 178.432L81.7564 186.194C81.8973 186.793 81.9027 187.416 81.7722 188.017C81.6417 188.618 81.3787 189.183 81.0024 189.669C80.626 190.156 80.1457 190.552 79.5966 190.83C79.0475 191.107 78.4434 191.258 77.8285 191.272L78.3064 192.038ZM66.616 176.991L77.9219 188.394C78.0272 188.488 78.1635 188.54 78.3046 188.54C78.4458 188.54 78.582 188.488 78.6874 188.394C78.7578 188.296 78.7958 188.178 78.7958 188.058C78.7958 187.937 78.7578 187.82 78.6874 187.722L76.7719 179.384C76.4628 178.152 77.0594 176.869 78.2094 176.319C95.3711 168.009 111.461 157.647 126.125 145.459L118.265 137.6H105.425L66.616 176.991Z" fill="#FF6C37"/>
<path d="M54.1564 186.863L63.741 177.278L78.5005 192.038L55.0225 190.41C54.196 190.349 53.4952 189.763 53.2975 188.951C53.0999 188.139 53.4485 187.298 54.16 186.866L54.1564 186.863Z" fill="white"/>
<path d="M78.7844 193.475L55.3999 191.847C54.0127 191.718 52.8195 190.769 52.3308 189.501C51.842 188.232 52.1403 186.726 53.0999 185.713L62.6844 176.128C63.006 175.818 63.4357 175.644 63.8829 175.644C64.3301 175.644 64.7598 175.818 65.0814 176.128L79.7439 190.791C80.1608 191.366 80.1608 192.135 79.7439 192.706C79.5211 193.066 79.1833 193.339 78.7844 193.475ZM55.3999 188.11L74.5653 189.357L64.0249 179.485L55.3999 188.11Z" fill="#FF6C37"/>
<path d="M120.472 136.938L101.112 139.91L112.325 128.795L120.472 136.938Z" fill="white"/>
<path d="M101.112 141.725C100.455 141.743 99.8545 141.366 99.5778 140.766C99.3738 140.488 99.2637 140.153 99.2637 139.808C99.2637 139.463 99.3738 139.128 99.5778 138.85L110.693 127.638C111.394 126.98 112.483 126.98 113.184 127.638L121.334 135.781C121.497 136.039 121.584 136.339 121.584 136.644C121.584 136.949 121.497 137.248 121.334 137.506C121.254 137.821 121.085 138.106 120.848 138.327C120.61 138.548 120.314 138.696 119.994 138.753L100.828 141.725H101.112ZM112.325 131.278L106.097 137.506L116.831 135.878L112.325 131.278Z" fill="#FF6C37"/>
<path d="M120.472 136.931L106.959 138.656C106.598 138.738 106.219 138.702 105.88 138.552C105.541 138.402 105.259 138.147 105.076 137.824C104.894 137.501 104.82 137.128 104.866 136.76C104.912 136.392 105.075 136.049 105.331 135.781L112.328 128.784L120.472 136.931Z" fill="white"/>
<path d="M106.575 140.482C105.299 140.471 104.131 139.774 103.509 138.66C103.143 138.004 103.002 137.246 103.105 136.502C103.209 135.758 103.553 135.069 104.084 134.538L111.081 127.541C111.782 126.883 112.871 126.883 113.572 127.541L121.719 135.688C121.961 135.917 122.132 136.212 122.21 136.537C122.288 136.861 122.27 137.201 122.158 137.516C122.047 137.831 121.847 138.106 121.582 138.309C121.317 138.512 120.999 138.634 120.666 138.66L107.25 140.385L106.575 140.482ZM106.575 136.935L116.734 135.688L112.231 131.185L106.481 136.935H106.575ZM189.95 67.6473C189.769 67.3449 189.484 67.1193 189.148 67.0133C188.812 66.9073 188.449 66.9283 188.128 67.0723C187.969 67.1527 187.828 67.2641 187.713 67.3999C187.599 67.5357 187.512 67.6932 187.459 67.863C187.352 68.2044 187.387 68.5745 187.553 68.8944C188.225 70.3067 188.038 71.9778 187.075 73.2069C186.823 73.4441 186.715 73.7711 186.715 74.1161C186.719 74.4531 186.847 74.777 187.075 75.0253C187.321 75.1224 187.594 75.1224 187.84 75.0253C188.063 75.0814 188.298 75.0752 188.518 75.0074C188.737 74.9396 188.935 74.8128 189.087 74.6408C189.876 73.6746 190.376 72.5049 190.529 71.2668C190.681 70.0287 190.481 68.7762 189.95 67.6473Z" fill="#FF6C37"/>
</g>
<defs>
<clipPath id="clip0_8_431">
<rect width="230" height="230" fill="white" transform="translate(10 10)"/>
</clipPath>
</defs>
</svg>
