<svg width="650" height="250" viewBox="0 0 650 250" fill="none" xmlns="http://www.w3.org/2000/svg">
<rect width="650" height="250" fill="#DB5B05"/>
<rect width="650" height="250" fill="#E6522C"/>
<rect width="250" height="250" fill="#CD3914"/>
<path d="M273.119 98H287.699C292.619 98 296.309 99.32 298.769 101.96C301.229 104.6 302.459 108.47 302.459 113.57V119.78C302.459 124.88 301.229 128.75 298.769 131.39C296.309 134.03 292.619 135.35 287.699 135.35H283.019V161H273.119V98ZM287.699 126.35C289.319 126.35 290.519 125.9 291.299 125C292.139 124.1 292.559 122.57 292.559 120.41V112.94C292.559 110.78 292.139 109.25 291.299 108.35C290.519 107.45 289.319 107 287.699 107H283.019V126.35H287.699ZM307.836 98H322.506C327.606 98 331.326 99.2 333.666 101.6C336.006 103.94 337.176 107.57 337.176 112.49V116.36C337.176 122.9 335.016 127.04 330.696 128.78V128.96C333.096 129.68 334.776 131.15 335.736 133.37C336.756 135.59 337.266 138.56 337.266 142.28V153.35C337.266 155.15 337.326 156.62 337.446 157.76C337.566 158.84 337.866 159.92 338.346 161H328.266C327.906 159.98 327.666 159.02 327.546 158.12C327.426 157.22 327.366 155.6 327.366 153.26V141.74C327.366 138.86 326.886 136.85 325.926 135.71C325.026 134.57 323.436 134 321.156 134H317.736V161H307.836V98ZM321.336 125C323.316 125 324.786 124.49 325.746 123.47C326.766 122.45 327.276 120.74 327.276 118.34V113.48C327.276 111.2 326.856 109.55 326.016 108.53C325.236 107.51 323.976 107 322.236 107H317.736V125H321.336ZM358.444 161.9C353.584 161.9 349.864 160.52 347.284 157.76C344.704 155 343.414 151.1 343.414 146.06V112.94C343.414 107.9 344.704 104 347.284 101.24C349.864 98.48 353.584 97.1 358.444 97.1C363.304 97.1 367.024 98.48 369.604 101.24C372.184 104 373.474 107.9 373.474 112.94V146.06C373.474 151.1 372.184 155 369.604 157.76C367.024 160.52 363.304 161.9 358.444 161.9ZM358.444 152.9C361.864 152.9 363.574 150.83 363.574 146.69V112.31C363.574 108.17 361.864 106.1 358.444 106.1C355.024 106.1 353.314 108.17 353.314 112.31V146.69C353.314 150.83 355.024 152.9 358.444 152.9ZM380.169 98H394.299L400.599 143.09H400.779L407.079 98H421.209V161H411.849V113.3H411.669L404.469 161H396.189L388.989 113.3H388.809V161H380.169V98ZM428.597 98H455.597V107H438.497V123.65H452.087V132.65H438.497V152H455.597V161H428.597V98ZM469.033 107H458.683V98H489.283V107H478.933V161H469.033V107ZM494.076 98H503.976V123.65H514.596V98H524.496V161H514.596V132.65H503.976V161H494.076V98ZM531.869 98H558.869V107H541.769V123.65H555.359V132.65H541.769V152H558.869V161H531.869V98ZM578.964 161.9C574.164 161.9 570.504 160.55 567.984 157.85C565.464 155.09 564.204 151.16 564.204 146.06V98H574.104V146.78C574.104 148.94 574.524 150.5 575.364 151.46C576.264 152.42 577.524 152.9 579.144 152.9C580.764 152.9 581.994 152.42 582.834 151.46C583.734 150.5 584.184 148.94 584.184 146.78V98H593.724V146.06C593.724 151.16 592.464 155.09 589.944 157.85C587.424 160.55 583.764 161.9 578.964 161.9ZM613.645 161.9C608.845 161.9 605.215 160.55 602.755 157.85C600.295 155.09 599.065 151.16 599.065 146.06V142.46H608.425V146.78C608.425 150.86 610.135 152.9 613.555 152.9C615.235 152.9 616.495 152.42 617.335 151.46C618.235 150.44 618.685 148.82 618.685 146.6C618.685 143.96 618.085 141.65 616.885 139.67C615.685 137.63 613.465 135.2 610.225 132.38C606.145 128.78 603.295 125.54 601.675 122.66C600.055 119.72 599.245 116.42 599.245 112.76C599.245 107.78 600.505 103.94 603.025 101.24C605.545 98.48 609.205 97.1 614.005 97.1C618.745 97.1 622.315 98.48 624.715 101.24C627.175 103.94 628.405 107.84 628.405 112.94V115.55H619.045V112.31C619.045 110.15 618.625 108.59 617.785 107.63C616.945 106.61 615.715 106.1 614.095 106.1C610.795 106.1 609.145 108.11 609.145 112.13C609.145 114.41 609.745 116.54 610.945 118.52C612.205 120.5 614.455 122.9 617.695 125.72C621.835 129.32 624.685 132.59 626.245 135.53C627.805 138.47 628.585 141.92 628.585 145.88C628.585 151.04 627.295 155 624.715 157.76C622.195 160.52 618.505 161.9 613.645 161.9Z" fill="white"/>
<path d="M125 212.5C109.337 212.5 96.6312 202.038 96.6312 189.131H153.362C153.369 202.031 140.669 212.5 125 212.5Z" fill="white"/>
<path d="M171.85 181.394H78.1438V164.4H171.856V181.394H171.85Z" fill="white"/>
<path d="M171.519 155.625H78.4125C78.1 155.269 77.7875 154.919 77.4875 154.556C71.2107 147.64 66.4277 139.504 63.4375 130.656C63.4 130.45 75.0687 133.038 83.3437 134.9C83.3437 134.9 87.6 135.888 93.825 137.019C87.7946 130.073 84.42 121.216 84.3 112.019C84.3 92.0189 99.625 74.5688 94.1 60.4563C99.4812 60.8938 105.237 71.8126 105.625 88.8876C111.08 79.4034 113.886 68.6277 113.75 57.6876C113.75 48.5188 119.787 37.8751 125.831 37.5063C120.444 46.3813 127.225 53.9938 133.256 72.8688C135.519 79.9563 135.231 91.8939 136.975 99.4564C137.556 83.7376 140.256 60.8063 150.225 52.8938C145.85 62.8938 150.85 75.3376 154.331 81.3376C160.386 90.4792 163.508 101.25 163.281 112.213C163.249 121.341 159.981 130.162 154.056 137.106C160.637 135.856 165.187 134.756 165.187 134.756L186.569 130.588C183.668 140.035 178.501 148.631 171.519 155.625Z" fill="white"/>
</svg>
