<svg width="650" height="250" viewBox="0 0 650 250" fill="none" xmlns="http://www.w3.org/2000/svg">
<rect width="650" height="250" fill="#F1C40F"/>
<rect width="250" height="250" fill="#2980B9"/>
<path d="M278.426 65H302.726C310.926 65 317.076 67.2 321.176 71.6C325.276 76 327.326 82.45 327.326 90.95V101.3C327.326 109.8 325.276 116.25 321.176 120.65C317.076 125.05 310.926 127.25 302.726 127.25H294.926V170H278.426V65ZM302.726 112.25C305.426 112.25 307.426 111.5 308.726 110C310.126 108.5 310.826 105.95 310.826 102.35V89.9C310.826 86.3 310.126 83.75 308.726 82.25C307.426 80.75 305.426 80 302.726 80H294.926V112.25H302.726ZM350.705 125.3L330.755 65H348.305L359.555 103.55H359.855L371.105 65H387.155L367.205 125.3V170H350.705V125.3ZM408.074 80H390.824V65H441.824V80H424.574V170H408.074V80ZM449.813 65H466.313V107.75H484.013V65H500.513V170H484.013V122.75H466.313V170H449.813V65ZM536.651 171.5C528.551 171.5 522.351 169.2 518.051 164.6C513.751 160 511.601 153.5 511.601 145.1V89.9C511.601 81.5 513.751 75 518.051 70.4C522.351 65.8 528.551 63.5 536.651 63.5C544.751 63.5 550.951 65.8 555.251 70.4C559.551 75 561.701 81.5 561.701 89.9V145.1C561.701 153.5 559.551 160 555.251 164.6C550.951 169.2 544.751 171.5 536.651 171.5ZM536.651 156.5C542.351 156.5 545.201 153.05 545.201 146.15V88.85C545.201 81.95 542.351 78.5 536.651 78.5C530.951 78.5 528.101 81.95 528.101 88.85V146.15C528.101 153.05 530.951 156.5 536.651 156.5ZM572.86 65H593.56L609.61 127.85H609.91V65H624.61V170H607.66L587.86 93.35H587.56V170H572.86V65Z" fill="white"/>
<g clip-path="url(#clip0_25_2)">
<path fill-rule="evenodd" clip-rule="evenodd" d="M156.556 222.267C151.013 222.267 146.528 217.76 146.528 212.188C146.528 206.616 151.013 202.12 156.556 202.12C162.099 202.12 166.584 206.616 166.584 212.188C166.584 217.76 162.099 222.267 156.556 222.267ZM125.828 240C184.225 240 180.58 214.546 180.58 214.546L180.51 188.177H124.793V180.26H202.637C202.637 180.26 240 184.526 240 125.303C240 66.0808 207.398 68.1682 207.398 68.1682H187.928V95.6604C187.928 95.6604 188.975 128.431 155.843 128.431H100.574C100.574 128.431 69.5239 127.938 69.5239 158.607V209.307C69.5239 209.307 64.8089 240 125.828 240ZM93.4554 27.7329C98.9984 27.7329 103.472 32.2403 103.472 37.8123C103.472 43.3842 98.9984 47.8804 93.4554 47.8804C87.9124 47.8804 83.4276 43.3842 83.4276 37.8123C83.4276 32.2403 87.9124 27.7329 93.4554 27.7329ZM124.172 10C65.7866 10 69.432 35.4539 69.432 35.4539L69.5011 61.823H125.219V69.7405H47.3634C47.3634 69.7405 10 65.4744 10 124.697C10 183.919 42.614 181.832 42.614 181.832H62.0722V154.34C62.0722 154.34 61.0255 121.569 94.1685 121.569H149.426C149.426 121.569 180.476 122.062 180.476 91.3928V40.6929C180.476 40.6929 185.191 10 124.172 10Z" fill="white"/>
</g>
<defs>
<clipPath id="clip0_25_2">
<rect width="230" height="230" fill="white" transform="translate(10 10)"/>
</clipPath>
</defs>
</svg>
