<svg width="650" height="250" viewBox="0 0 650 250" fill="none" xmlns="http://www.w3.org/2000/svg">
<rect width="650" height="250" fill="#2ECC71"/>
<rect width="250" height="250" fill="#20BF6B"/>
<g clip-path="url(#clip0_1_6)">
<path d="M104.639 139.997L133.419 168.421V134.383H166.297L138.967 107.402H104.639V139.997Z" fill="white"/>
<path d="M202.726 236.913H237.748V205.312L179.962 148.773H147.809V181.885L202.726 236.913Z" fill="white"/>
<path d="M133.977 191.813C131.881 192.248 130.795 192.095 125.55 192.095C88.0163 192.095 56.0953 161.232 56.0953 121.213C56.0953 81.1936 87.6656 51.012 125.55 51.012C163.433 51.012 193.602 81.1954 193.602 121.213C193.602 127.722 192.791 133.982 191.293 139.916L226.033 174.652C234.989 158.956 240 140.711 240 120.946C240 59.2684 190.78 13.0867 124.85 13.0867C59.2198 13.0849 10 58.9626 10 120.945C10 183.227 59.2198 230.019 124.848 230.019C141.787 230.019 153.752 227.376 166.295 223.253L133.977 191.813Z" fill="white"/>
<path opacity="0.15" d="M237.748 205.312V236.913L105.484 107.402H138.967L237.748 205.312Z" fill="white"/>
</g>
<path d="M412.75 179.75C405.25 179.75 400.65 176.4 398.95 169.7C395.85 170.9 392.2 171.5 388 171.5C379.9 171.5 373.7 169.2 369.4 164.6C365.1 160 362.95 153.5 362.95 145.1V89.9C362.95 81.5 365.1 75 369.4 70.4C373.7 65.8 379.9 63.5 388 63.5C396.1 63.5 402.3 65.8 406.6 70.4C410.9 75 413.05 81.5 413.05 89.9V145.1C413.05 152.1 411.5 157.85 408.4 162.35C409 163.35 409.75 164 410.65 164.3C411.55 164.6 412.85 164.75 414.55 164.75H417.1V179.75H412.75ZM388 156.5C393.7 156.5 396.55 153.05 396.55 146.15V88.85C396.55 81.95 393.7 78.5 388 78.5C382.3 78.5 379.45 81.95 379.45 88.85V146.15C379.45 153.05 382.3 156.5 388 156.5ZM447.609 171.5C439.609 171.5 433.509 169.25 429.309 164.75C425.109 160.15 423.009 153.6 423.009 145.1V89.9C423.009 81.4 425.109 74.9 429.309 70.4C433.509 65.8 439.609 63.5 447.609 63.5C455.609 63.5 461.709 65.8 465.909 70.4C470.109 74.9 472.209 81.4 472.209 89.9V98.9H456.609V88.85C456.609 81.95 453.759 78.5 448.059 78.5C442.359 78.5 439.509 81.95 439.509 88.85V146.3C439.509 153.1 442.359 156.5 448.059 156.5C453.759 156.5 456.609 153.1 456.609 146.3V125.75H448.359V110.75H472.209V145.1C472.209 153.6 470.109 160.15 465.909 164.75C461.709 169.25 455.609 171.5 447.609 171.5ZM482.802 65H499.302V170H482.802V65ZM533.11 171.5C525.11 171.5 519.06 169.25 514.96 164.75C510.86 160.15 508.81 153.6 508.81 145.1V139.1H524.41V146.3C524.41 153.1 527.26 156.5 532.96 156.5C535.76 156.5 537.86 155.7 539.26 154.1C540.76 152.4 541.51 149.7 541.51 146C541.51 141.6 540.51 137.75 538.51 134.45C536.51 131.05 532.81 127 527.41 122.3C520.61 116.3 515.86 110.9 513.16 106.1C510.46 101.2 509.11 95.7 509.11 89.6C509.11 81.3 511.21 74.9 515.41 70.4C519.61 65.8 525.71 63.5 533.71 63.5C541.61 63.5 547.56 65.8 551.56 70.4C555.66 74.9 557.71 81.4 557.71 89.9V94.25H542.11V88.85C542.11 85.25 541.41 82.65 540.01 81.05C538.61 79.35 536.56 78.5 533.86 78.5C528.36 78.5 525.61 81.85 525.61 88.55C525.61 92.35 526.61 95.9 528.61 99.2C530.71 102.5 534.46 106.5 539.86 111.2C546.76 117.2 551.51 122.65 554.11 127.55C556.71 132.45 558.01 138.2 558.01 144.8C558.01 153.4 555.86 160 551.56 164.6C547.36 169.2 541.21 171.5 533.11 171.5Z" fill="white"/>
<defs>
<clipPath id="clip0_1_6">
<rect width="230" height="230" fill="white" transform="translate(10 10)"/>
</clipPath>
</defs>
</svg>
