<svg width="650" height="250" viewBox="0 0 650 250" fill="none" xmlns="http://www.w3.org/2000/svg">
<rect width="650" height="250" fill="#DB5B05"/>
<rect width="650" height="250" fill="#FF6600"/>
<rect width="250" height="250" fill="#FB7922"/>
<path d="M301.18 85H317.48C323.147 85 327.28 86.3333 329.88 89C332.48 91.6 333.78 95.6333 333.78 101.1V105.4C333.78 112.667 331.38 117.267 326.58 119.2V119.4C329.247 120.2 331.113 121.833 332.18 124.3C333.313 126.767 333.88 130.067 333.88 134.2V146.5C333.88 148.5 333.947 150.133 334.08 151.4C334.213 152.6 334.547 153.8 335.08 155H323.88C323.48 153.867 323.213 152.8 323.08 151.8C322.947 150.8 322.88 149 322.88 146.4V133.6C322.88 130.4 322.347 128.167 321.28 126.9C320.28 125.633 318.513 125 315.98 125H312.18V155H301.18V85ZM316.18 115C318.38 115 320.013 114.433 321.08 113.3C322.213 112.167 322.78 110.267 322.78 107.6V102.2C322.78 99.6667 322.313 97.8333 321.38 96.7C320.513 95.5667 319.113 95 317.18 95H312.18V115H316.18ZM350.012 85H364.912L376.312 155H365.312L363.312 141.1V141.3H350.812L348.812 155H338.612L350.012 85ZM362.012 131.8L357.112 97.2H356.912L352.112 131.8H362.012ZM381.649 85H398.249C403.915 85 408.049 86.3333 410.649 89C413.249 91.6 414.549 95.6333 414.549 101.1V103.9C414.549 107.5 413.949 110.433 412.749 112.7C411.615 114.967 409.849 116.6 407.449 117.6V117.8C412.915 119.667 415.649 124.533 415.649 132.4V138.4C415.649 143.8 414.215 147.933 411.349 150.8C408.549 153.6 404.415 155 398.949 155H381.649V85ZM396.949 113.5C399.149 113.5 400.782 112.933 401.849 111.8C402.982 110.667 403.549 108.767 403.549 106.1V102.2C403.549 99.6667 403.082 97.8333 402.149 96.7C401.282 95.5667 399.882 95 397.949 95H392.649V113.5H396.949ZM398.949 145C400.882 145 402.315 144.5 403.249 143.5C404.182 142.433 404.649 140.633 404.649 138.1V132C404.649 128.8 404.082 126.6 402.949 125.4C401.882 124.133 400.082 123.5 397.549 123.5H392.649V145H398.949ZM422.079 85H438.679C444.345 85 448.479 86.3333 451.079 89C453.679 91.6 454.979 95.6333 454.979 101.1V103.9C454.979 107.5 454.379 110.433 453.179 112.7C452.045 114.967 450.279 116.6 447.879 117.6V117.8C453.345 119.667 456.079 124.533 456.079 132.4V138.4C456.079 143.8 454.645 147.933 451.779 150.8C448.979 153.6 444.845 155 439.379 155H422.079V85ZM437.379 113.5C439.579 113.5 441.212 112.933 442.279 111.8C443.412 110.667 443.979 108.767 443.979 106.1V102.2C443.979 99.6667 443.512 97.8333 442.579 96.7C441.712 95.5667 440.312 95 438.379 95H433.079V113.5H437.379ZM439.379 145C441.312 145 442.745 144.5 443.679 143.5C444.612 142.433 445.079 140.633 445.079 138.1V132C445.079 128.8 444.512 126.6 443.379 125.4C442.312 124.133 440.512 123.5 437.979 123.5H433.079V145H439.379ZM462.508 85H473.508V155H462.508V85ZM490.346 95H478.846V85H512.846V95H501.346V155H490.346V95ZM518.172 85H533.872L540.872 135.1H541.072L548.072 85H563.772V155H553.372V102H553.172L545.172 155H535.972L527.972 102H527.772V155H518.172V85ZM604.381 161.5C599.381 161.5 596.314 159.267 595.181 154.8C593.114 155.6 590.681 156 587.881 156C582.481 156 578.348 154.467 575.481 151.4C572.614 148.333 571.181 144 571.181 138.4V101.6C571.181 96 572.614 91.6667 575.481 88.6C578.348 85.5333 582.481 84 587.881 84C593.281 84 597.414 85.5333 600.281 88.6C603.148 91.6667 604.581 96 604.581 101.6V138.4C604.581 143.067 603.548 146.9 601.481 149.9C601.881 150.567 602.381 151 602.981 151.2C603.581 151.4 604.448 151.5 605.581 151.5H607.281V161.5H604.381ZM587.881 146C591.681 146 593.581 143.7 593.581 139.1V100.9C593.581 96.3 591.681 94 587.881 94C584.081 94 582.181 96.3 582.181 100.9V139.1C582.181 143.7 584.081 146 587.881 146Z" fill="white"/>
<g clip-path="url(#clip0_2007_13)">
<path d="M207.762 107.008H150.185C149.236 107.014 148.295 106.831 147.417 106.471C146.539 106.11 145.741 105.579 145.07 104.908C144.399 104.237 143.867 103.439 143.507 102.561C143.147 101.683 142.964 100.742 142.97 99.7926V42.2151C142.97 41.2698 142.783 40.3337 142.42 39.4609C142.057 38.588 141.525 37.7956 140.854 37.1292C140.183 36.4628 139.388 35.9356 138.513 35.578C137.638 35.2203 136.7 35.0392 135.755 35.0451H114.2C113.255 35.0392 112.317 35.2203 111.442 35.578C110.567 35.9356 109.771 36.4628 109.101 37.1292C108.43 37.7956 107.898 38.588 107.535 39.4609C107.172 40.3337 106.985 41.2698 106.985 42.2151V99.8001C106.991 100.749 106.808 101.69 106.448 102.568C106.087 103.446 105.556 104.244 104.885 104.915C104.214 105.586 103.416 106.118 102.538 106.478C101.66 106.839 100.719 107.021 99.77 107.015H78.215C77.2665 107.02 76.3264 106.837 75.4492 106.476C74.572 106.115 73.7751 105.584 73.1047 104.913C72.4344 104.241 71.9038 103.444 71.5438 102.567C71.1838 101.689 71.0015 100.749 71.0075 99.8001V42.2151C71.0135 41.266 70.8309 40.3251 70.4704 39.447C70.11 38.569 69.5787 37.7712 68.9076 37.1C68.2364 36.4289 67.4387 35.8977 66.5606 35.5372C65.6825 35.1767 64.7416 34.9942 63.7925 35.0001H42.1925C41.2471 35.0001 40.3111 35.1871 39.4382 35.5502C38.5654 35.9133 37.7729 36.4455 37.1065 37.1161C36.4402 37.7866 35.913 38.5824 35.5553 39.4575C35.1976 40.3326 35.0165 41.2698 35.0225 42.2151V207.785C35.0165 208.734 35.199 209.675 35.5595 210.553C35.92 211.431 36.4512 212.229 37.1224 212.9C37.7936 213.571 38.5913 214.103 39.4694 214.463C40.3474 214.824 41.2883 215.006 42.2375 215H207.762C208.712 215.006 209.653 214.824 210.531 214.463C211.409 214.103 212.206 213.571 212.878 212.9C213.549 212.229 214.08 211.431 214.44 210.553C214.801 209.675 214.983 208.734 214.977 207.785V114.35C215.002 113.39 214.833 112.434 214.48 111.54C214.128 110.647 213.599 109.833 212.926 109.147C212.253 108.462 211.45 107.918 210.562 107.549C209.675 107.181 208.723 107.001 207.762 107.008ZM178.812 168.148C178.818 169.567 178.544 170.973 178.005 172.286C177.466 173.599 176.673 174.792 175.672 175.798C174.67 176.803 173.48 177.601 172.17 178.145C170.859 178.69 169.454 178.97 168.035 178.97H153.605C152.187 178.969 150.782 178.688 149.472 178.143C148.163 177.598 146.974 176.8 145.973 175.795C144.972 174.789 144.18 173.596 143.642 172.284C143.103 170.972 142.829 169.566 142.835 168.148V153.77C142.829 152.352 143.103 150.946 143.642 149.634C144.18 148.321 144.972 147.128 145.973 146.123C146.974 145.117 148.163 144.319 149.472 143.774C150.782 143.23 152.187 142.949 153.605 142.948H168.035C169.454 142.948 170.859 143.228 172.17 143.772C173.48 144.317 174.67 145.115 175.672 146.12C176.673 147.126 177.466 148.319 178.005 149.632C178.544 150.945 178.818 152.351 178.812 153.77V168.148Z" fill="white"/>
</g>
<defs>
<clipPath id="clip0_2007_13">
<rect width="180" height="180" fill="white" transform="translate(35 35)"/>
</clipPath>
</defs>
</svg>
