<svg width="650" height="250" viewBox="0 0 650 250" fill="none" xmlns="http://www.w3.org/2000/svg">
<rect width="650" height="250" fill="#3498DB"/>
<rect width="250" height="250" fill="#2980B9"/>
<path d="M232.5 124.5C232.5 129.488 230.061 134.473 225.16 139.253C220.251 144.042 213.019 148.47 203.878 152.241C185.609 159.779 160.198 164.5 132 164.5C103.802 164.5 78.3907 159.779 60.1216 152.241C50.9812 148.47 43.7486 144.042 38.84 139.253C33.9395 134.473 31.5 129.488 31.5 124.5C31.5 119.512 33.9395 114.527 38.84 109.747C43.7486 104.958 50.9812 100.53 60.1216 96.759C78.3907 89.2207 103.802 84.5 132 84.5C160.198 84.5 185.609 89.2207 203.878 96.759C213.019 100.53 220.251 104.958 225.16 109.747C230.061 114.527 232.5 119.512 232.5 124.5Z" stroke="white" stroke-width="5"/>
<path d="M182.25 37.4645C186.57 39.9585 189.667 44.5634 191.357 51.1978C193.05 57.8431 193.268 66.3204 191.964 76.122C189.357 95.7127 180.74 120.08 166.641 144.5C152.542 168.92 135.748 188.567 120.085 200.619C112.249 206.649 104.798 210.699 98.1968 212.556C91.6063 214.409 86.0699 214.03 81.75 211.536C77.4301 209.041 74.3331 204.437 72.6432 197.802C70.9504 191.157 70.7324 182.68 72.0363 172.878C74.6426 153.287 83.2601 128.92 97.359 104.5C111.458 80.08 128.252 60.4334 143.915 48.3809C151.751 42.3509 159.202 38.3011 165.803 36.4444C172.394 34.5907 177.93 34.9704 182.25 37.4645Z" stroke="white" stroke-width="5"/>
<path d="M182.25 211.536C177.93 214.03 172.394 214.409 165.803 212.556C159.202 210.699 151.751 206.649 143.915 200.619C128.252 188.567 111.458 168.92 97.359 144.5C83.2601 120.08 74.6426 95.7127 72.0363 76.122C70.7324 66.3204 70.9504 57.843 72.6432 51.1978C74.3331 44.5634 77.4301 39.9585 81.75 37.4645C86.0699 34.9704 91.6063 34.5907 98.1968 36.4444C104.798 38.3011 112.249 42.3509 120.085 48.3809C135.748 60.4334 152.542 80.08 166.641 104.5C180.74 128.92 189.357 153.287 191.964 172.878C193.268 182.68 193.05 191.157 191.357 197.802C189.667 204.437 186.57 209.041 182.25 211.536Z" stroke="white" stroke-width="5"/>
<circle cx="132" cy="125" r="15" fill="white"/>
<path d="M319.15 65H343.6C352.1 65 358.3 67 362.2 71C366.1 74.9 368.05 80.95 368.05 89.15V95.6C368.05 106.5 364.45 113.4 357.25 116.3V116.6C361.25 117.8 364.05 120.25 365.65 123.95C367.35 127.65 368.2 132.6 368.2 138.8V157.25C368.2 160.25 368.3 162.7 368.5 164.6C368.7 166.4 369.2 168.2 370 170H353.2C352.6 168.3 352.2 166.7 352 165.2C351.8 163.7 351.7 161 351.7 157.1V137.9C351.7 133.1 350.9 129.75 349.3 127.85C347.8 125.95 345.15 125 341.35 125H335.65V170H319.15V65ZM341.65 110C344.95 110 347.4 109.15 349 107.45C350.7 105.75 351.55 102.9 351.55 98.9V90.8C351.55 87 350.85 84.25 349.45 82.55C348.15 80.85 346.05 80 343.15 80H335.65V110H341.65ZM379.648 65H424.648V80H396.148V107.75H418.798V122.75H396.148V155H424.648V170H379.648V65ZM446.89 65H469.24L486.34 170H469.84L466.84 149.15V149.45H448.09L445.09 170H429.79L446.89 65ZM464.89 135.2L457.54 83.3H457.24L450.04 135.2H464.89ZM517.302 171.5C509.402 171.5 503.352 169.25 499.152 164.75C495.052 160.25 493.002 153.9 493.002 145.7V89.3C493.002 81.1 495.052 74.75 499.152 70.25C503.352 65.75 509.402 63.5 517.302 63.5C525.202 63.5 531.202 65.75 535.302 70.25C539.502 74.75 541.602 81.1 541.602 89.3V100.4H526.002V88.25C526.002 81.75 523.252 78.5 517.752 78.5C512.252 78.5 509.502 81.75 509.502 88.25V146.9C509.502 153.3 512.252 156.5 517.752 156.5C523.252 156.5 526.002 153.3 526.002 146.9V130.85H541.602V145.7C541.602 153.9 539.502 160.25 535.302 164.75C531.202 169.25 525.202 171.5 517.302 171.5ZM564.374 80H547.124V65H598.124V80H580.874V170H564.374V80Z" fill="white"/>
</svg>
