<svg width="650" height="250" viewBox="0 0 650 250" fill="none" xmlns="http://www.w3.org/2000/svg">
<rect width="650" height="250" fill="#3498DB"/>
<rect width="250" height="250" fill="#2980B9"/>
<path d="M227.5 97.5C227.5 102.488 225.061 107.473 220.16 112.253C215.251 117.042 208.019 121.47 198.878 125.241C180.609 132.779 155.198 137.5 127 137.5C98.8022 137.5 73.3907 132.779 55.1216 125.241C45.9812 121.47 38.7486 117.042 33.84 112.253C28.9395 107.473 26.5 102.488 26.5 97.5C26.5 92.5118 28.9395 87.5273 33.84 82.7466C38.7486 77.958 45.9812 73.5305 55.1216 69.759C73.3907 62.2207 98.8022 57.5 127 57.5C155.198 57.5 180.609 62.2207 198.878 69.759C208.019 73.5305 215.251 77.958 220.16 82.7466C225.061 87.5273 227.5 92.5118 227.5 97.5Z" stroke="white" stroke-width="5"/>
<path d="M177.25 10.4643C181.57 12.9584 184.667 17.5633 186.357 24.1976C188.05 30.8429 188.268 39.3202 186.964 49.1218C184.357 68.7125 175.74 93.0799 161.641 117.5C147.542 141.92 130.748 161.566 115.085 173.619C107.249 179.649 99.7981 183.699 93.1968 185.555C86.6063 187.409 81.0699 187.029 76.75 184.535C72.4301 182.041 69.3331 177.436 67.6432 170.802C65.9504 164.157 65.7324 155.679 67.0363 145.878C69.6426 126.287 78.2601 101.92 92.359 77.4998C106.458 53.0799 123.252 33.4332 138.915 21.3808C146.751 15.3507 154.202 11.3009 160.803 9.44419C167.394 7.59056 172.93 7.97019 177.25 10.4643Z" stroke="white" stroke-width="5"/>
<path d="M177.25 184.535C172.93 187.03 167.394 187.409 160.803 185.556C154.202 183.699 146.751 179.649 138.915 173.619C123.252 161.567 106.458 141.92 92.359 117.5C78.2601 93.08 69.6426 68.7126 67.0363 49.1219C65.7324 39.3203 65.9504 30.843 67.6432 24.1977C69.3331 17.5634 72.4301 12.9585 76.75 10.4644C81.0699 7.97029 86.6063 7.59067 93.1968 9.4443C99.7981 11.301 107.249 15.3508 115.085 21.3809C130.748 33.4333 147.542 53.08 161.641 77.4999C175.74 101.92 184.357 126.287 186.964 145.878C188.268 155.68 188.05 164.157 186.357 170.802C184.667 177.436 181.57 182.041 177.25 184.535Z" stroke="white" stroke-width="5"/>
<circle cx="127" cy="98" r="15" fill="white"/>
<path d="M16.9744 235V211.727H24.8381C26.6563 211.727 28.1487 212.038 29.3153 212.659C30.482 213.273 31.3456 214.117 31.9062 215.193C32.4669 216.269 32.7472 217.492 32.7472 218.864C32.7472 220.235 32.4669 221.451 31.9062 222.511C31.3456 223.572 30.4858 224.405 29.3267 225.011C28.1676 225.61 26.6866 225.909 24.8835 225.909H18.5199V223.364H24.7926C26.035 223.364 27.035 223.182 27.7926 222.818C28.5578 222.455 29.1108 221.939 29.4517 221.273C29.8002 220.598 29.9744 219.795 29.9744 218.864C29.9744 217.932 29.8002 217.117 29.4517 216.42C29.1032 215.723 28.5464 215.186 27.7812 214.807C27.0161 214.42 26.0047 214.227 24.7472 214.227H19.7926V235H16.9744ZM27.929 224.545L33.6562 235H30.3835L24.7472 224.545H27.929ZM37.4432 235V211.727H51.4886V214.227H40.2614V222.091H50.7614V224.591H40.2614V232.5H51.6705V235H37.4432ZM57.5227 235H54.5682L63.1136 211.727H66.0227L74.5682 235H71.6136L64.6591 215.409H64.4773L57.5227 235ZM58.6136 225.909H70.5227V228.409H58.6136V225.909ZM95.8267 219H93.0085C92.8419 218.189 92.5502 217.477 92.1335 216.864C91.7244 216.25 91.2244 215.735 90.6335 215.318C90.0502 214.894 89.4025 214.576 88.6903 214.364C87.9782 214.152 87.2358 214.045 86.4631 214.045C85.054 214.045 83.7775 214.402 82.6335 215.114C81.4972 215.826 80.5919 216.875 79.9176 218.261C79.2509 219.648 78.9176 221.348 78.9176 223.364C78.9176 225.379 79.2509 227.08 79.9176 228.466C80.5919 229.852 81.4972 230.902 82.6335 231.614C83.7775 232.326 85.054 232.682 86.4631 232.682C87.2358 232.682 87.9782 232.576 88.6903 232.364C89.4025 232.152 90.0502 231.837 90.6335 231.42C91.2244 230.996 91.7244 230.477 92.1335 229.864C92.5502 229.242 92.8419 228.53 93.0085 227.727H95.8267C95.6146 228.917 95.2282 229.981 94.6676 230.92C94.107 231.86 93.41 232.659 92.5767 233.318C91.7434 233.97 90.8078 234.466 89.7699 234.807C88.7396 235.148 87.6373 235.318 86.4631 235.318C84.4782 235.318 82.7131 234.833 81.1676 233.864C79.6222 232.894 78.4063 231.515 77.5199 229.727C76.6335 227.939 76.1903 225.818 76.1903 223.364C76.1903 220.909 76.6335 218.788 77.5199 217C78.4063 215.212 79.6222 213.833 81.1676 212.864C82.7131 211.894 84.4782 211.409 86.4631 211.409C87.6373 211.409 88.7396 211.58 89.7699 211.92C90.8078 212.261 91.7434 212.761 92.5767 213.42C93.41 214.072 94.107 214.867 94.6676 215.807C95.2282 216.739 95.6146 217.803 95.8267 219ZM99.108 214.227V211.727H116.562V214.227H109.244V235H106.426V214.227H99.108ZM148.366 211.727V235H145.639L132.957 216.727H132.73V235H129.912V211.727H132.639L145.366 230.045H145.594V211.727H148.366ZM154.96 235H152.006L160.551 211.727H163.46L172.006 235H169.051L162.097 215.409H161.915L154.96 235ZM156.051 225.909H167.96V228.409H156.051V225.909ZM171.639 214.227V211.727H189.094V214.227H181.776V235H178.957V214.227H171.639ZM196.261 211.727V235H193.443V211.727H196.261ZM202.866 211.727L209.776 231.318H210.048L216.957 211.727H219.912L211.366 235H208.457L199.912 211.727H202.866ZM223.537 235V211.727H237.582V214.227H226.355V222.091H236.855V224.591H226.355V232.5H237.764V235H223.537Z" fill="white"/>
<path d="M361.946 24H378.246C383.912 24 388.046 25.3333 390.646 28C393.246 30.6 394.546 34.6333 394.546 40.1V44.4C394.546 51.6667 392.146 56.2667 387.346 58.2V58.4C390.012 59.2 391.879 60.8333 392.946 63.3C394.079 65.7667 394.646 69.0667 394.646 73.2V85.5C394.646 87.5 394.712 89.1333 394.846 90.4C394.979 91.6 395.312 92.8 395.846 94H384.646C384.246 92.8667 383.979 91.8 383.846 90.8C383.712 89.8 383.646 88 383.646 85.4V72.6C383.646 69.4 383.112 67.1667 382.046 65.9C381.046 64.6333 379.279 64 376.746 64H372.946V94H361.946V24ZM376.946 54C379.146 54 380.779 53.4333 381.846 52.3C382.979 51.1667 383.546 49.2667 383.546 46.6V41.2C383.546 38.6667 383.079 36.8333 382.146 35.7C381.279 34.5667 379.879 34 377.946 34H372.946V54H376.946ZM402.278 24H432.278V34H413.278V52.5H428.378V62.5H413.278V84H432.278V94H402.278V24ZM447.106 24H462.006L473.406 94H462.406L460.406 80.1V80.3H447.906L445.906 94H435.706L447.106 24ZM459.106 70.8L454.206 36.2H454.006L449.206 70.8H459.106ZM494.047 95C488.781 95 484.747 93.5 481.947 90.5C479.214 87.5 477.847 83.2667 477.847 77.8V40.2C477.847 34.7333 479.214 30.5 481.947 27.5C484.747 24.5 488.781 23 494.047 23C499.314 23 503.314 24.5 506.047 27.5C508.847 30.5 510.247 34.7333 510.247 40.2V47.6H499.847V39.5C499.847 35.1667 498.014 33 494.347 33C490.681 33 488.847 35.1667 488.847 39.5V78.6C488.847 82.8667 490.681 85 494.347 85C498.014 85 499.847 82.8667 499.847 78.6V67.9H510.247V77.8C510.247 83.2667 508.847 87.5 506.047 90.5C503.314 93.5 499.314 95 494.047 95ZM525.429 34H513.929V24H547.929V34H536.429V94H525.429V34ZM353.401 144H367.201L377.901 185.9H378.101V144H387.901V214H376.601L363.401 162.9H363.201V214H353.401V144ZM404.577 144H419.477L430.877 214H419.877L417.877 200.1V200.3H405.377L403.377 214H393.177L404.577 144ZM416.577 190.8L411.677 156.2H411.477L406.677 190.8H416.577ZM440.223 154H428.723V144H462.723V154H451.223V214H440.223V154ZM468.049 144H479.049V214H468.049V144ZM484.388 144H495.488L502.688 198.3H502.888L510.088 144H520.188L509.587 214H494.988L484.388 144ZM525.471 144H555.471V154H536.471V172.5H551.571V182.5H536.471V204H555.471V214H525.471V144Z" fill="white"/>
</svg>
