<svg width="650" height="250" viewBox="0 0 650 250" fill="none" xmlns="http://www.w3.org/2000/svg">
<rect width="650" height="250" fill="#D63031"/>
<rect width="250" height="250" fill="#D3191A"/>
<path d="M331.352 65H355.802C364.302 65 370.502 67 374.402 71C378.302 74.9 380.252 80.95 380.252 89.15V95.6C380.252 106.5 376.652 113.4 369.452 116.3V116.6C373.452 117.8 376.252 120.25 377.852 123.95C379.552 127.65 380.402 132.6 380.402 138.8V157.25C380.402 160.25 380.502 162.7 380.702 164.6C380.902 166.4 381.402 168.2 382.202 170H365.402C364.802 168.3 364.402 166.7 364.202 165.2C364.002 163.7 363.902 161 363.902 157.1V137.9C363.902 133.1 363.102 129.75 361.502 127.85C360.002 125.95 357.352 125 353.552 125H347.852V170H331.352V65ZM353.852 110C357.152 110 359.602 109.15 361.202 107.45C362.902 105.75 363.752 102.9 363.752 98.9V90.8C363.752 87 363.052 84.25 361.652 82.55C360.352 80.85 358.252 80 355.352 80H347.852V110H353.852ZM391.85 65H436.85V80H408.35V107.75H431V122.75H408.35V155H436.85V170H391.85V65ZM446.342 65H471.542C479.742 65 485.892 67.2 489.992 71.6C494.092 76 496.142 82.45 496.142 90.95V144.05C496.142 152.55 494.092 159 489.992 163.4C485.892 167.8 479.742 170 471.542 170H446.342V65ZM471.242 155C473.942 155 475.992 154.2 477.392 152.6C478.892 151 479.642 148.4 479.642 144.8V90.2C479.642 86.6 478.892 84 477.392 82.4C475.992 80.8 473.942 80 471.242 80H462.842V155H471.242ZM507.28 65H523.78V170H507.28V65ZM557.587 171.5C549.587 171.5 543.537 169.25 539.437 164.75C535.337 160.15 533.287 153.6 533.287 145.1V139.1H548.887V146.3C548.887 153.1 551.737 156.5 557.437 156.5C560.237 156.5 562.337 155.7 563.737 154.1C565.237 152.4 565.987 149.7 565.987 146C565.987 141.6 564.987 137.75 562.987 134.45C560.987 131.05 557.287 127 551.887 122.3C545.087 116.3 540.337 110.9 537.637 106.1C534.937 101.2 533.587 95.7 533.587 89.6C533.587 81.3 535.687 74.9 539.887 70.4C544.087 65.8 550.187 63.5 558.187 63.5C566.087 63.5 572.037 65.8 576.037 70.4C580.137 74.9 582.187 81.4 582.187 89.9V94.25H566.587V88.85C566.587 85.25 565.887 82.65 564.487 81.05C563.087 79.35 561.037 78.5 558.337 78.5C552.837 78.5 550.087 81.85 550.087 88.55C550.087 92.35 551.087 95.9 553.087 99.2C555.187 102.5 558.937 106.5 564.337 111.2C571.237 117.2 575.987 122.65 578.587 127.55C581.187 132.45 582.487 138.2 582.487 144.8C582.487 153.4 580.337 160 576.037 164.6C571.837 169.2 565.687 171.5 557.587 171.5Z" fill="white"/>
<path d="M233.714 179.068C221.066 185.661 155.547 212.6 141.598 219.872C127.65 227.145 119.901 227.075 108.881 221.807C97.8625 216.539 28.1382 188.375 15.5781 182.372C9.30134 179.372 6 176.839 6 174.447V150.491C6 150.491 96.7729 130.731 111.427 125.473C126.08 120.216 131.165 120.026 143.635 124.594C156.107 129.163 230.675 142.617 243 147.131L242.994 170.747C242.996 173.116 240.152 175.713 233.714 179.068Z" fill="#95A5A6"/>
<path d="M233.71 155.254C221.063 161.844 155.545 188.784 141.596 196.056C127.649 203.329 119.9 203.258 108.881 197.99C97.8616 192.726 28.1401 164.558 15.5809 158.558C3.0218 152.554 2.75888 148.422 15.0958 143.591C27.4328 138.759 96.772 111.555 111.428 106.297C126.081 101.042 131.165 100.85 143.635 105.42C156.106 109.987 221.233 135.91 233.556 140.423C245.884 144.942 246.357 148.663 233.71 155.254Z" fill="white"/>
<path d="M233.714 140.307C221.066 146.9 155.547 173.838 141.598 181.113C127.65 188.383 119.901 188.313 108.881 183.045C97.8616 177.78 28.1382 149.613 15.5781 143.61C9.30134 140.61 6 138.081 6 135.688V111.73C6 111.73 96.7729 91.9697 111.427 86.7122C126.08 81.4547 131.165 81.264 143.635 85.8327C156.108 90.4014 230.676 103.852 243 108.367L242.994 131.987C242.996 134.354 240.152 136.952 233.714 140.307Z" fill="#95A5A6"/>
<path d="M233.71 116.493C221.063 123.084 155.545 150.023 141.596 157.297C127.649 164.568 119.9 164.496 108.881 159.229C97.8616 153.965 28.1401 125.797 15.5809 119.796C3.0218 113.794 2.75888 109.661 15.0958 104.829C27.4328 99.9991 96.7729 72.7931 111.428 67.5365C126.081 62.28 131.165 62.0893 143.635 66.658C156.106 71.2258 221.233 97.1467 233.556 101.662C245.884 106.18 246.357 109.901 233.71 116.493Z" fill="white"/>
<path d="M233.714 100.108C221.066 106.7 155.547 133.64 141.598 140.915C127.65 148.186 119.901 148.115 108.881 142.847C97.8616 137.582 28.1382 109.414 15.5781 103.413C9.30134 100.411 6 97.881 6 95.4906V71.5314C6 71.5314 96.7729 51.7724 111.427 46.5159C126.08 41.2574 131.165 41.0686 143.635 45.6364C156.108 50.2051 230.676 63.6558 243 68.1708L242.994 91.7893C242.996 94.1547 240.152 96.7524 233.714 100.108Z" fill="#95A5A6"/>
<path d="M233.71 76.2944C221.063 82.886 155.545 109.826 141.596 117.097C127.649 124.368 119.9 124.297 108.881 119.032C97.8624 113.764 28.14 85.5985 15.5818 79.5967C3.0217 73.5958 2.75971 69.4622 15.0957 64.6305C27.4327 59.7998 96.7728 32.5975 111.428 27.3391C126.081 22.0816 131.165 21.8927 143.635 26.4615C156.106 31.0302 221.233 56.9511 233.556 61.4662C245.884 65.9803 246.357 69.7029 233.71 76.2944Z" fill="white"/>
<path d="M153.461 52.9898L133.085 55.1052L128.523 66.0813L121.156 53.8332L97.6273 51.7187L115.184 45.3873L109.916 35.6685L126.353 42.0971L141.849 37.0238L137.661 47.0732L153.461 52.9898ZM127.307 106.239L89.2786 90.4664L143.77 82.1019L127.307 106.239ZM74.5837 59.0907C90.6691 59.0907 103.709 64.1455 103.709 70.3797C103.709 76.6158 90.6691 81.6696 74.5837 81.6696C58.4982 81.6696 45.4586 76.6148 45.4586 70.3797C45.4586 64.1455 58.4982 59.0907 74.5837 59.0907Z" fill="#D3191A"/>
<path d="M177.543 55.9902L209.793 68.7345L177.57 81.4668L177.543 55.9902Z" fill="#D3191A"/>
<path d="M141.863 70.1038L177.543 55.9902L177.57 81.4668L174.072 82.8351L141.863 70.1038Z" fill="#95A5A6"/>
</svg>
