<svg width="650" height="250" viewBox="0 0 650 250" fill="none" xmlns="http://www.w3.org/2000/svg">
<rect width="650" height="250" fill="#8359C7"/>
<rect width="250" height="250" fill="#764ABC"/>
<path d="M308.615 65H333.065C341.565 65 347.765 67 351.665 71C355.565 74.9 357.515 80.95 357.515 89.15V95.6C357.515 106.5 353.915 113.4 346.715 116.3V116.6C350.715 117.8 353.515 120.25 355.115 123.95C356.815 127.65 357.665 132.6 357.665 138.8V157.25C357.665 160.25 357.765 162.7 357.965 164.6C358.165 166.4 358.665 168.2 359.465 170H342.665C342.065 168.3 341.665 166.7 341.465 165.2C341.265 163.7 341.165 161 341.165 157.1V137.9C341.165 133.1 340.365 129.75 338.765 127.85C337.265 125.95 334.615 125 330.815 125H325.115V170H308.615V65ZM331.115 110C334.415 110 336.865 109.15 338.465 107.45C340.165 105.75 341.015 102.9 341.015 98.9V90.8C341.015 87 340.315 84.25 338.915 82.55C337.615 80.85 335.515 80 332.615 80H325.115V110H331.115ZM369.113 65H414.113V80H385.613V107.75H408.263V122.75H385.613V155H414.113V170H369.113V65ZM423.605 65H448.805C457.005 65 463.155 67.2 467.255 71.6C471.355 76 473.405 82.45 473.405 90.95V144.05C473.405 152.55 471.355 159 467.255 163.4C463.155 167.8 457.005 170 448.805 170H423.605V65ZM448.505 155C451.205 155 453.255 154.2 454.655 152.6C456.155 151 456.905 148.4 456.905 144.8V90.2C456.905 86.6 456.155 84 454.655 82.4C453.255 80.8 451.205 80 448.505 80H440.105V155H448.505ZM508.543 171.5C500.543 171.5 494.443 169.25 490.243 164.75C486.043 160.15 483.943 153.6 483.943 145.1V65H500.443V146.3C500.443 149.9 501.143 152.5 502.543 154.1C504.043 155.7 506.143 156.5 508.843 156.5C511.543 156.5 513.593 155.7 514.993 154.1C516.493 152.5 517.243 149.9 517.243 146.3V65H533.143V145.1C533.143 153.6 531.043 160.15 526.843 164.75C522.643 169.25 516.543 171.5 508.543 171.5ZM559.298 116.3L541.148 65H558.548L569.648 98.9H569.948L581.348 65H596.948L578.798 116.3L597.848 170H580.448L568.448 133.4H568.148L555.848 170H540.248L559.298 116.3Z" fill="white"/>
<g clip-path="url(#clip0_13_37)">
<path d="M169.203 168.484C177.828 167.766 184.297 160.219 183.938 151.594C183.578 142.969 176.391 135.781 167.406 135.781H166.688C157.703 136.141 150.516 143.688 150.875 152.672C151.234 156.984 153.031 160.938 155.547 163.453C145.484 183.219 130.391 197.234 107.391 209.453C91.9375 217.719 75.7656 220.594 59.5938 218.438C46.2969 216.641 36.2344 210.891 29.7656 201.188C20.4219 186.813 19.3438 171.359 27.25 155.906C32.6406 144.766 41.625 136.5 47.0156 132.547C45.9375 128.594 44.1406 122.125 43.0625 117.453C1.73438 148 6.04688 189.688 18.9844 209.453C28.6875 224.188 48.0938 233.172 70.0156 233.172C75.7656 233.172 81.875 232.453 87.625 231.016C125 223.469 153.391 201.547 169.203 168.484Z" fill="white"/>
<path d="M220.953 132.187C198.672 106.313 165.969 91.9375 128.594 91.9375H123.922C121.406 86.5469 115.656 83.3125 109.547 83.3125H108.828C99.8438 83.3125 92.6563 90.8594 93.0156 99.8438C93.375 108.469 100.563 115.656 109.547 115.656H110.266C116.734 115.297 122.125 111.344 124.641 105.594H130.031C152.313 105.594 173.516 112.062 192.203 124.641C206.938 134.344 217.359 146.922 223.109 162.016C228.141 174.234 227.781 186.453 222.391 196.516C214.125 211.969 200.469 220.594 182.141 220.594C170.281 220.594 159.141 217 153.391 214.484C150.156 217.359 144.406 222.031 140.094 224.906C152.672 230.656 165.609 233.891 177.828 233.891C205.859 233.891 226.703 218.438 234.609 202.984C243.594 186.094 242.875 156.984 220.953 132.187Z" fill="white"/>
<path d="M72.1719 173.156C72.5313 181.781 79.7188 188.969 88.7031 188.969H89.0625C98.0469 188.609 105.234 181.062 104.875 172.078C104.516 163.453 97.3281 156.266 88.3438 156.266H87.625C86.9063 156.266 86.1875 156.266 85.4688 156.625C73.6094 136.859 68.5781 114.938 70.375 91.5781C71.4531 73.9688 77.5625 58.875 87.625 46.2969C96.25 35.5156 112.422 30.125 123.563 29.7656C155.188 29.4063 168.125 67.8594 169.203 83.3125C173.156 84.0312 179.625 86.1875 183.938 87.625C180.344 40.1875 151.234 15.75 123.203 15.75C96.9688 15.75 72.5313 34.7969 62.8281 62.8281C49.5313 100.203 58.1563 136.141 74.6875 164.531C72.8906 166.688 71.8125 169.922 72.1719 173.156Z" fill="white"/>
</g>
<defs>
<clipPath id="clip0_13_37">
<rect width="230" height="230" fill="white" transform="translate(10 10)"/>
</clipPath>
</defs>
</svg>
