<svg width="650" height="250" viewBox="0 0 650 250" fill="none" xmlns="http://www.w3.org/2000/svg">
<rect width="650" height="250" fill="#2F2F2F"/>
<rect width="650" height="250" fill="#2F2F2F"/>
<rect width="250" height="250" fill="#181819"/>
<path d="M324.947 77H344.507C351.307 77 356.267 78.6 359.387 81.8C362.507 84.92 364.067 89.76 364.067 96.32V101.48C364.067 110.2 361.187 115.72 355.427 118.04V118.28C358.627 119.24 360.867 121.2 362.147 124.16C363.507 127.12 364.187 131.08 364.187 136.04V150.8C364.187 153.2 364.267 155.16 364.427 156.68C364.587 158.12 364.987 159.56 365.627 161H352.187C351.707 159.64 351.387 158.36 351.227 157.16C351.067 155.96 350.987 153.8 350.987 150.68V135.32C350.987 131.48 350.347 128.8 349.067 127.28C347.867 125.76 345.747 125 342.707 125H338.147V161H324.947V77ZM342.947 113C345.587 113 347.547 112.32 348.827 110.96C350.187 109.6 350.867 107.32 350.867 104.12V97.64C350.867 94.6 350.307 92.4 349.187 91.04C348.147 89.68 346.467 89 344.147 89H338.147V113H342.947ZM373.346 77H409.346V89H386.546V111.2H404.666V123.2H386.546V149H409.346V161H373.346V77ZM416.94 77H433.5L446.34 127.28H446.58V77H458.34V161H444.78L428.94 99.68H428.7V161H416.94V77ZM468.15 77H488.31C494.87 77 499.79 78.76 503.07 82.28C506.35 85.8 507.99 90.96 507.99 97.76V140.24C507.99 147.04 506.35 152.2 503.07 155.72C499.79 159.24 494.87 161 488.31 161H468.15V77ZM488.07 149C490.23 149 491.87 148.36 492.99 147.08C494.19 145.8 494.79 143.72 494.79 140.84V97.16C494.79 94.28 494.19 92.2 492.99 90.92C491.87 89.64 490.23 89 488.07 89H481.35V149H488.07ZM516.9 77H552.9V89H530.1V111.2H548.22V123.2H530.1V149H552.9V161H516.9V77ZM560.494 77H580.054C586.854 77 591.814 78.6 594.934 81.8C598.054 84.92 599.614 89.76 599.614 96.32V101.48C599.614 110.2 596.734 115.72 590.974 118.04V118.28C594.174 119.24 596.414 121.2 597.694 124.16C599.054 127.12 599.734 131.08 599.734 136.04V150.8C599.734 153.2 599.814 155.16 599.974 156.68C600.134 158.12 600.534 159.56 601.174 161H587.734C587.254 159.64 586.934 158.36 586.774 157.16C586.614 155.96 586.534 153.8 586.534 150.68V135.32C586.534 131.48 585.894 128.8 584.614 127.28C583.414 125.76 581.294 125 578.254 125H573.694V161H560.494V77ZM578.494 113C581.134 113 583.094 112.32 584.374 110.96C585.734 109.6 586.414 107.32 586.414 104.12V97.64C586.414 94.6 585.854 92.4 584.734 91.04C583.694 89.68 582.014 89 579.694 89H573.694V113H578.494Z" fill="white"/>
<g clip-path="url(#clip0_2007_2)">
<path d="M182.411 15.0642C153.802 13.7167 129.757 34.3967 125.651 61.6492C125.486 62.9142 125.238 64.1426 125.037 65.3617C118.657 99.3059 88.9567 125.009 53.2892 125.009C41.0305 125.034 28.9662 121.946 18.2267 116.035C17.9433 115.874 17.6224 115.79 17.2963 115.792C16.9702 115.795 16.6506 115.883 16.3696 116.049C16.0887 116.214 15.8565 116.451 15.6965 116.735C15.5364 117.019 15.4543 117.341 15.4583 117.667V235H125V152.509C125 137.329 137.265 125.009 152.381 125.009H179.771C210.772 125.009 235.715 99.1867 234.496 67.7726C233.396 39.5026 210.571 16.4117 182.411 15.0642Z" fill="white"/>
</g>
<defs>
<clipPath id="clip0_2007_2">
<rect width="220" height="220" fill="white" transform="translate(15 15)"/>
</clipPath>
</defs>
</svg>
