<svg width="650" height="250" viewBox="0 0 650 250" fill="none" xmlns="http://www.w3.org/2000/svg">
<rect width="650" height="250" fill="#D35400"/>
<rect width="250" height="250" fill="#DA6315"/>
<path d="M342.501 76H366.951C375.451 76 381.651 78 385.551 82C389.451 85.9 391.401 91.95 391.401 100.15V106.6C391.401 117.5 387.801 124.4 380.601 127.3V127.6C384.601 128.8 387.401 131.25 389.001 134.95C390.701 138.65 391.551 143.6 391.551 149.8V168.25C391.551 171.25 391.651 173.7 391.851 175.6C392.051 177.4 392.551 179.2 393.351 181H376.551C375.951 179.3 375.551 177.7 375.351 176.2C375.151 174.7 375.051 172 375.051 168.1V148.9C375.051 144.1 374.251 140.75 372.651 138.85C371.151 136.95 368.501 136 364.701 136H359.001V181H342.501V76ZM365.001 121C368.301 121 370.751 120.15 372.351 118.45C374.051 116.75 374.901 113.9 374.901 109.9V101.8C374.901 98 374.201 95.25 372.801 93.55C371.501 91.85 369.401 91 366.501 91H359.001V121H365.001ZM426.999 182.5C418.999 182.5 412.899 180.25 408.699 175.75C404.499 171.15 402.399 164.6 402.399 156.1V76H418.899V157.3C418.899 160.9 419.599 163.5 420.999 165.1C422.499 166.7 424.599 167.5 427.299 167.5C429.999 167.5 432.049 166.7 433.449 165.1C434.949 163.5 435.699 160.9 435.699 157.3V76H451.599V156.1C451.599 164.6 449.499 171.15 445.299 175.75C441.099 180.25 434.999 182.5 426.999 182.5ZM484.8 182.5C476.8 182.5 470.75 180.25 466.65 175.75C462.55 171.15 460.5 164.6 460.5 156.1V150.1H476.1V157.3C476.1 164.1 478.95 167.5 484.65 167.5C487.45 167.5 489.55 166.7 490.95 165.1C492.45 163.4 493.2 160.7 493.2 157C493.2 152.6 492.2 148.75 490.2 145.45C488.2 142.05 484.5 138 479.1 133.3C472.3 127.3 467.55 121.9 464.85 117.1C462.15 112.2 460.8 106.7 460.8 100.6C460.8 92.3 462.9 85.9 467.1 81.4C471.3 76.8 477.4 74.5 485.4 74.5C493.3 74.5 499.25 76.8 503.25 81.4C507.35 85.9 509.4 92.4 509.4 100.9V105.25H493.8V99.85C493.8 96.25 493.1 93.65 491.7 92.05C490.3 90.35 488.25 89.5 485.55 89.5C480.05 89.5 477.3 92.85 477.3 99.55C477.3 103.35 478.3 106.9 480.3 110.2C482.4 113.5 486.15 117.5 491.55 122.2C498.45 128.2 503.2 133.65 505.8 138.55C508.4 143.45 509.7 149.2 509.7 155.8C509.7 164.4 507.55 171 503.25 175.6C499.05 180.2 492.9 182.5 484.8 182.5ZM532.061 91H514.811V76H565.811V91H548.561V181H532.061V91Z" fill="white"/>
<path d="M118.704 48.0937C118.704 46.911 119.054 45.7548 119.712 44.7714C120.369 43.788 121.303 43.0215 122.395 42.5689C123.488 42.1163 124.69 41.9979 125.85 42.2286C127.01 42.4594 128.076 43.0289 128.912 43.8652C129.749 44.7015 130.318 45.7671 130.549 46.9271C130.78 48.0871 130.661 49.2895 130.209 50.3822C129.756 51.4749 128.989 52.4088 128.006 53.0659C127.023 53.723 125.866 54.0737 124.684 54.0737C123.898 54.0747 123.12 53.9206 122.394 53.6204C121.668 53.3202 121.009 52.8798 120.453 52.3243C119.898 51.7688 119.457 51.1092 119.157 50.3833C118.857 49.6573 118.703 48.8793 118.704 48.0937ZM47.375 102.244C47.375 101.062 47.7257 99.9054 48.3828 98.922C49.0399 97.9386 49.9738 97.1722 51.0665 96.7195C52.1593 96.2669 53.3616 96.1485 54.5216 96.3792C55.6816 96.61 56.7472 97.1795 57.5835 98.0158C58.4198 98.8522 58.9894 99.9177 59.2201 101.078C59.4508 102.238 59.3324 103.44 58.8798 104.533C58.4272 105.625 57.6607 106.559 56.6773 107.217C55.6939 107.874 54.5377 108.224 53.355 108.224C52.5697 108.224 51.7921 108.07 51.0665 107.769C50.341 107.469 49.6818 107.028 49.1265 106.473C48.5712 105.918 48.1307 105.258 47.8302 104.533C47.5297 103.807 47.375 103.03 47.375 102.244ZM190.09 102.525C190.09 101.342 190.441 100.186 191.098 99.2023C191.755 98.2189 192.689 97.4525 193.782 96.9999C194.874 96.5472 196.077 96.4288 197.237 96.6596C198.397 96.8903 199.462 97.4598 200.299 98.2962C201.135 99.1325 201.704 100.198 201.935 101.358C202.166 102.518 202.047 103.72 201.595 104.813C201.142 105.906 200.376 106.84 199.392 107.497C198.409 108.154 197.253 108.505 196.07 108.505C195.284 108.506 194.506 108.352 193.78 108.051C193.054 107.751 192.395 107.311 191.839 106.755C191.284 106.2 190.843 105.54 190.543 104.814C190.243 104.088 190.089 103.31 190.09 102.525ZM64.6609 110.718C65.9793 110.13 67.0112 109.044 67.5311 107.697C68.0509 106.35 68.0165 104.852 67.4353 103.531L64.7831 97.5293H75.2194V144.572H54.16C51.5607 135.443 50.7504 125.898 51.7737 116.461L64.6609 110.718ZM108.318 111.876V98.0109H133.172C134.459 98.0109 142.236 99.4915 142.236 105.313C142.236 110.143 136.27 111.876 131.361 111.876H108.318ZM74.3856 186.532C74.3856 185.349 74.7363 184.193 75.3934 183.21C76.0505 182.226 76.9845 181.46 78.0772 181.007C79.1699 180.555 80.3723 180.436 81.5323 180.667C82.6923 180.898 83.7578 181.467 84.5941 182.304C85.4304 183.14 86 184.206 86.2307 185.366C86.4615 186.526 86.343 187.728 85.8904 188.821C85.4378 189.913 84.6713 190.847 83.6879 191.504C82.7045 192.161 81.5484 192.512 80.3656 192.512C79.5801 192.513 78.802 192.359 78.0761 192.059C77.3501 191.759 76.6905 191.318 76.135 190.763C75.5795 190.207 75.1391 189.548 74.8389 188.822C74.5387 188.096 74.3847 187.318 74.3856 186.532ZM163.015 186.812C163.015 185.63 163.365 184.474 164.022 183.49C164.68 182.507 165.614 181.74 166.706 181.288C167.799 180.835 169.001 180.717 170.161 180.947C171.321 181.178 172.387 181.748 173.223 182.584C174.06 183.42 174.629 184.486 174.86 185.646C175.091 186.806 174.972 188.008 174.519 189.101C174.067 190.194 173.3 191.128 172.317 191.785C171.334 192.442 170.177 192.792 168.995 192.792C167.409 192.792 165.888 192.162 164.766 191.041C163.645 189.919 163.015 188.398 163.015 186.812ZM164.862 173.25C164.161 173.1 163.438 173.09 162.734 173.22C162.03 173.35 161.358 173.617 160.757 174.007C160.156 174.397 159.638 174.901 159.233 175.492C158.827 176.082 158.542 176.747 158.393 177.447L155.389 191.456C145.733 195.828 135.247 198.065 124.648 198.014C114.049 197.963 103.585 195.626 93.9716 191.161L90.9744 177.152C90.6709 175.74 89.8194 174.505 88.6066 173.719C87.3939 172.934 85.919 172.662 84.5056 172.962L72.1359 175.622C69.8369 173.255 67.6998 170.736 65.7391 168.082H125.927C126.61 168.082 127.063 167.96 127.063 167.363V146.045C127.063 145.427 126.61 145.326 125.927 145.326H108.318V131.807H127.357C130.196 131.835 132.931 132.871 135.076 134.73C137.221 136.589 138.635 139.15 139.066 141.955C139.821 144.924 141.481 154.584 142.617 157.674C143.745 161.146 148.367 168.075 153.268 168.075H184.34C182.256 170.868 179.977 173.51 177.519 175.981L164.862 173.25ZM198.284 117.036C198.707 121.286 198.759 125.564 198.442 129.823H190.888C190.133 129.823 189.824 130.319 189.824 131.059V134.531C189.824 142.696 185.217 144.478 181.199 144.931C177.354 145.362 173.092 143.321 172.574 140.971C172.297 136.9 171.065 132.952 168.979 129.445C166.892 125.939 164.009 122.973 160.564 120.788C167.967 116.087 175.658 109.152 175.658 99.8653C175.505 95.9198 174.368 92.0752 172.349 88.6819C170.33 85.2885 167.494 82.4543 164.1 80.4375C159.365 77.3706 153.918 75.5782 148.288 75.2337H70.1378C80.9407 63.1592 95.4239 54.9841 111.344 51.975L120.558 61.635C121.052 62.1534 121.642 62.5694 122.297 62.8594C122.951 63.1493 123.656 63.3075 124.372 63.3249C125.087 63.3422 125.799 63.2184 126.467 62.9605C127.135 62.7026 127.745 62.3157 128.263 61.8218L138.57 51.9606C149.079 53.9322 159.033 58.1682 167.74 64.3741C176.447 70.5801 183.698 78.6073 188.99 87.8981L181.932 103.833C181.353 105.155 181.32 106.652 181.839 107.998C182.359 109.344 183.389 110.431 184.707 111.02L198.284 117.036ZM215.879 117.295L215.642 114.83L222.908 108.052C223.184 107.765 223.4 107.427 223.544 107.057C223.688 106.687 223.758 106.291 223.75 105.894C223.741 105.497 223.654 105.105 223.493 104.741C223.333 104.378 223.102 104.05 222.815 103.775C222.56 103.533 222.266 103.336 221.945 103.193L212.688 99.7215L211.969 97.3209L217.762 89.2709C218.19 88.5927 218.332 87.7726 218.157 86.9901C217.982 86.2075 217.504 85.5261 216.828 85.095C216.533 84.9104 216.21 84.7768 215.872 84.6996L206.075 83.104L204.896 80.9047L209.015 71.87C209.16 71.5019 209.232 71.1087 209.226 70.7129C209.219 70.3171 209.135 69.9264 208.977 69.5633C208.82 69.2001 208.592 68.8716 208.307 68.5965C208.023 68.3214 207.687 68.1051 207.318 67.96C206.984 67.8294 206.628 67.7589 206.269 67.7515L196.329 68.0965L194.719 66.199L197.004 56.5175C197.073 56.1257 197.063 55.7244 196.976 55.3364C196.889 54.9485 196.726 54.5815 196.497 54.2564C196.268 53.9313 195.977 53.6545 195.641 53.4419C195.305 53.2293 194.931 53.0849 194.539 53.0172C194.196 52.9597 193.847 52.9597 193.504 53.0172L183.815 55.2812L181.903 53.7071L182.256 43.7812C182.246 43.3838 182.159 42.9921 181.998 42.6286C181.837 42.265 181.606 41.9367 181.319 41.6623C181.031 41.388 180.692 41.1731 180.321 41.0298C179.951 40.8864 179.555 40.8176 179.158 40.8272C178.811 40.8363 178.468 40.9044 178.144 41.0284L169.11 45.1468L166.91 43.9681L165.315 34.1715C165.138 33.3938 164.661 32.7174 163.988 32.2894C163.315 31.8614 162.5 31.7164 161.721 31.8859C161.382 31.963 161.059 32.0967 160.765 32.2812L152.708 38.0743L150.314 37.3556L146.843 28.0622C146.519 27.3284 145.916 26.7535 145.168 26.4637C144.42 26.1739 143.588 26.1931 142.854 26.5168C142.537 26.66 142.245 26.8542 141.991 27.0918L135.192 34.3656L132.727 34.1284L127.494 25.6687C127.215 25.2727 126.844 24.9496 126.414 24.7266C125.984 24.5036 125.506 24.3872 125.022 24.3872C124.537 24.3872 124.059 24.5036 123.629 24.7266C123.199 24.9496 122.828 25.2727 122.549 25.6687L117.317 34.1284L114.851 34.3656L108.073 27.0918C107.492 26.5393 106.715 26.2402 105.913 26.2604C105.111 26.2807 104.35 26.6185 103.797 27.1996C103.559 27.4537 103.365 27.7451 103.222 28.0622L99.7216 37.3125L97.3281 38.0312L89.2781 32.2812C88.5999 31.8533 87.7799 31.7114 86.9973 31.8865C86.2147 32.0616 85.5334 32.5394 85.1022 33.2156C84.9176 33.5098 84.784 33.8329 84.7069 34.1715L83.1112 43.9681L80.9119 45.1468L71.87 41.0284C71.1236 40.7394 70.2931 40.7579 69.5602 41.0798C68.8274 41.4018 68.252 42.001 67.96 42.7462C67.836 43.0777 67.768 43.4274 67.7588 43.7812L68.1037 53.7215L66.1919 55.2812L56.5103 53.01C56.1186 52.9418 55.7173 52.9515 55.3293 53.0386C54.9413 53.1256 54.5743 53.2882 54.2492 53.5172C53.9242 53.7462 53.6474 54.0369 53.4347 54.3729C53.2221 54.7089 53.0778 55.0835 53.01 55.4753C52.9525 55.8179 52.9525 56.1677 53.01 56.5103L55.2812 66.199L53.7144 68.1037L43.7812 67.7587C43.2961 67.7714 42.821 67.9003 42.396 68.1346C41.971 68.3689 41.6084 68.7018 41.3387 69.1053C41.069 69.5088 40.9 69.9711 40.846 70.4534C40.7921 70.9358 40.8546 71.424 41.0284 71.8772L45.1469 80.9118L43.9681 83.1112L34.1716 84.7068C33.3929 84.882 32.7153 85.3585 32.287 86.0319C31.8586 86.7054 31.7144 87.5211 31.8859 88.3006C31.9631 88.6392 32.0967 88.9624 32.2812 89.2565L38.0744 97.3065L37.3556 99.7072L28.0622 103.179C27.3285 103.503 26.7535 104.105 26.4637 104.853C26.174 105.601 26.1931 106.434 26.5169 107.168C26.658 107.49 26.8551 107.784 27.0991 108.037L34.3656 114.815L34.1284 117.281L25.6687 122.513C25.2728 122.792 24.9497 123.163 24.7267 123.593C24.5036 124.023 24.3872 124.501 24.3872 124.986C24.3872 125.47 24.5036 125.948 24.7267 126.378C24.9497 126.808 25.2728 127.179 25.6687 127.458L34.1284 132.691L34.3656 135.156L27.0991 141.934C26.5465 142.515 26.2475 143.292 26.2677 144.094C26.2879 144.896 26.6257 145.657 27.2069 146.21C27.4583 146.448 27.7473 146.642 28.0622 146.785L37.3556 150.257L38.0744 152.657L32.2812 160.736C32.0687 161.072 31.9245 161.447 31.8568 161.838C31.7891 162.23 31.7993 162.631 31.8867 163.019C31.9742 163.407 32.1372 163.774 32.3664 164.099C32.5957 164.423 32.8867 164.7 33.2228 164.912C33.517 165.097 33.8402 165.23 34.1787 165.307L43.9753 166.903L45.1541 169.11L41.0356 178.144C40.7467 178.893 40.766 179.725 41.0893 180.459C41.4126 181.193 42.0135 181.769 42.7606 182.062C43.0896 182.186 43.437 182.254 43.7884 182.263L53.7287 181.918L55.3028 183.83L53.0244 193.518C52.8865 194.307 53.0673 195.117 53.5269 195.772C53.9864 196.427 54.6872 196.873 55.4753 197.012C55.8221 197.076 56.1779 197.076 56.5247 197.012L66.1919 194.719L68.1037 196.286L67.7516 206.219C67.76 206.615 67.8464 207.005 68.006 207.368C68.1657 207.731 68.3953 208.058 68.6817 208.332C68.9681 208.606 69.3058 208.82 69.6753 208.963C70.0448 209.106 70.4389 209.175 70.835 209.166C71.1868 209.16 71.5348 209.092 71.8628 208.964L80.8975 204.846L83.0969 206.025L84.6925 215.814C84.8678 216.593 85.3439 217.271 86.0171 217.701C86.6903 218.13 87.5059 218.276 88.2863 218.107C88.6259 218.033 88.9496 217.899 89.2422 217.712L97.2922 211.911L99.6928 212.63L103.164 221.916C103.491 222.649 104.096 223.223 104.845 223.511C105.594 223.799 106.427 223.779 107.161 223.454C107.476 223.311 107.765 223.117 108.016 222.879L114.794 215.613L117.259 215.857L122.492 224.317C122.957 224.972 123.664 225.416 124.456 225.551C125.248 225.686 126.062 225.5 126.718 225.036C126.997 224.839 127.24 224.596 127.437 224.317L132.669 215.857L135.134 215.613L141.912 222.879C142.494 223.432 143.271 223.731 144.073 223.711C144.875 223.691 145.636 223.353 146.189 222.772C146.426 222.52 146.621 222.231 146.764 221.916L150.235 212.63L152.636 211.911L160.686 217.712C161.022 217.924 161.396 218.068 161.788 218.136C162.18 218.204 162.581 218.193 162.969 218.106C163.357 218.019 163.724 217.856 164.048 217.626C164.373 217.397 164.65 217.106 164.862 216.77C165.046 216.476 165.18 216.153 165.257 215.814L166.853 206.025L169.052 204.846L178.087 208.964C178.833 209.253 179.664 209.235 180.397 208.913C181.129 208.591 181.705 207.992 181.997 207.247C182.121 206.918 182.189 206.57 182.198 206.219L181.853 196.271L183.758 194.704L193.439 196.983C194.227 197.121 195.038 196.941 195.694 196.483C196.35 196.025 196.798 195.326 196.94 194.539C196.997 194.192 196.997 193.837 196.94 193.49L194.719 183.815L196.286 181.903L206.226 182.248C207.027 182.228 207.788 181.89 208.34 181.309C208.893 180.728 209.192 179.952 209.173 179.151C209.168 178.801 209.1 178.455 208.972 178.13L204.853 169.095L206.032 166.889L215.828 165.293C216.607 165.118 217.286 164.642 217.715 163.968C218.145 163.295 218.291 162.48 218.121 161.699C218.043 161.355 217.907 161.027 217.719 160.729L211.926 152.679L212.644 150.278L221.938 146.807C222.301 146.647 222.629 146.417 222.903 146.131C223.177 145.844 223.392 145.506 223.536 145.136C223.679 144.766 223.748 144.372 223.739 143.975C223.73 143.579 223.643 143.188 223.483 142.825C223.342 142.503 223.145 142.208 222.901 141.955L215.634 135.177L215.872 132.712L224.331 127.48C224.727 127.2 225.05 126.83 225.273 126.4C225.496 125.969 225.613 125.492 225.613 125.007C225.613 124.523 225.496 124.045 225.273 123.615C225.05 123.184 224.727 122.814 224.331 122.535L215.879 117.295Z" fill="white"/>
</svg>
