<svg width="650" height="250" viewBox="0 0 650 250" fill="none" xmlns="http://www.w3.org/2000/svg">
<rect width="650" height="250" fill="#27AE60"/>
<rect width="250" height="250" fill="#2ECC71"/>
<path d="M278.133 165.96C273.013 165.96 269.141 164.52 266.517 161.64C263.893 158.696 262.581 154.504 262.581 149.064V145.224H272.565V149.832C272.565 154.184 274.389 156.36 278.037 156.36C279.829 156.36 281.173 155.848 282.069 154.824C283.029 153.736 283.509 152.008 283.509 149.64C283.509 146.824 282.869 144.36 281.589 142.248C280.309 140.072 277.941 137.48 274.485 134.472C270.133 130.632 267.093 127.176 265.365 124.104C263.637 120.968 262.773 117.448 262.773 113.544C262.773 108.232 264.117 104.136 266.805 101.256C269.493 98.312 273.397 96.84 278.517 96.84C283.573 96.84 287.381 98.312 289.941 101.256C292.565 104.136 293.877 108.296 293.877 113.736V116.52H283.893V113.064C283.893 110.76 283.445 109.096 282.549 108.072C281.653 106.984 280.341 106.44 278.613 106.44C275.093 106.44 273.333 108.584 273.333 112.872C273.333 115.304 273.973 117.576 275.253 119.688C276.597 121.8 278.997 124.36 282.453 127.368C286.869 131.208 289.909 134.696 291.573 137.832C293.237 140.968 294.069 144.648 294.069 148.872C294.069 154.376 292.693 158.6 289.941 161.544C287.253 164.488 283.317 165.96 278.133 165.96ZM300.124 97.8H315.676C320.924 97.8 324.86 99.208 327.484 102.024C330.108 104.84 331.42 108.968 331.42 114.408V121.032C331.42 126.472 330.108 130.6 327.484 133.416C324.86 136.232 320.924 137.64 315.676 137.64H310.684V165H300.124V97.8ZM315.676 128.04C317.404 128.04 318.684 127.56 319.516 126.6C320.412 125.64 320.859 124.008 320.859 121.704V113.736C320.859 111.432 320.412 109.8 319.516 108.84C318.684 107.88 317.404 107.4 315.676 107.4H310.684V128.04H315.676ZM337.155 97.8H352.803C358.243 97.8 362.211 99.08 364.707 101.64C367.203 104.136 368.451 108.008 368.451 113.256V117.384C368.451 124.36 366.147 128.776 361.539 130.632V130.824C364.099 131.592 365.891 133.16 366.915 135.528C368.003 137.896 368.547 141.064 368.547 145.032V156.84C368.547 158.76 368.611 160.328 368.739 161.544C368.867 162.696 369.187 163.848 369.699 165H358.947C358.563 163.912 358.307 162.888 358.179 161.928C358.051 160.968 357.987 159.24 357.987 156.744V144.456C357.987 141.384 357.475 139.24 356.451 138.024C355.491 136.808 353.795 136.2 351.363 136.2H347.715V165H337.155V97.8ZM351.555 126.6C353.667 126.6 355.235 126.056 356.259 124.968C357.347 123.88 357.891 122.056 357.891 119.496V114.312C357.891 111.88 357.443 110.12 356.547 109.032C355.715 107.944 354.371 107.4 352.515 107.4H347.715V126.6H351.555ZM375.874 97.8H386.434V165H375.874V97.8ZM394.342 97.8H407.59L417.862 138.024H418.054V97.8H427.462V165H416.614L403.942 115.944H403.75V165H394.342V97.8ZM450.287 165.96C445.167 165.96 441.263 164.52 438.575 161.64C435.887 158.696 434.543 154.504 434.543 149.064V113.736C434.543 108.296 435.887 104.136 438.575 101.256C441.263 98.312 445.167 96.84 450.287 96.84C455.407 96.84 459.311 98.312 461.999 101.256C464.687 104.136 466.031 108.296 466.031 113.736V119.496H456.047V113.064C456.047 108.648 454.223 106.44 450.575 106.44C446.927 106.44 445.103 108.648 445.103 113.064V149.832C445.103 154.184 446.927 156.36 450.575 156.36C454.223 156.36 456.047 154.184 456.047 149.832V136.68H450.767V127.08H466.031V149.064C466.031 154.504 464.687 158.696 461.999 161.64C459.311 164.52 455.407 165.96 450.287 165.96ZM488.186 97.8H504.122C509.562 97.8 513.53 99.08 516.026 101.64C518.522 104.136 519.77 108.008 519.77 113.256V115.944C519.77 119.4 519.194 122.216 518.042 124.392C516.954 126.568 515.258 128.136 512.954 129.096V129.288C518.202 131.08 520.826 135.752 520.826 143.304V149.064C520.826 154.248 519.45 158.216 516.698 160.968C514.01 163.656 510.042 165 504.794 165H488.186V97.8ZM502.874 125.16C504.986 125.16 506.554 124.616 507.578 123.528C508.666 122.44 509.21 120.616 509.21 118.056V114.312C509.21 111.88 508.762 110.12 507.866 109.032C507.034 107.944 505.69 107.4 503.834 107.4H498.746V125.16H502.874ZM504.794 155.4C506.65 155.4 508.026 154.92 508.922 153.96C509.818 152.936 510.266 151.208 510.266 148.776V142.92C510.266 139.848 509.722 137.736 508.634 136.584C507.61 135.368 505.882 134.76 503.45 134.76H498.746V155.4H504.794ZM542.263 165.96C537.079 165.96 533.111 164.488 530.359 161.544C527.607 158.6 526.23 154.44 526.23 149.064V113.736C526.23 108.36 527.607 104.2 530.359 101.256C533.111 98.312 537.079 96.84 542.263 96.84C547.447 96.84 551.415 98.312 554.167 101.256C556.919 104.2 558.295 108.36 558.295 113.736V149.064C558.295 154.44 556.919 158.6 554.167 161.544C551.415 164.488 547.447 165.96 542.263 165.96ZM542.263 156.36C545.911 156.36 547.734 154.152 547.734 149.736V113.064C547.734 108.648 545.911 106.44 542.263 106.44C538.615 106.44 536.791 108.648 536.791 113.064V149.736C536.791 154.152 538.615 156.36 542.263 156.36ZM580.7 165.96C575.516 165.96 571.548 164.488 568.796 161.544C566.044 158.6 564.668 154.44 564.668 149.064V113.736C564.668 108.36 566.044 104.2 568.796 101.256C571.548 98.312 575.516 96.84 580.7 96.84C585.884 96.84 589.852 98.312 592.604 101.256C595.356 104.2 596.732 108.36 596.732 113.736V149.064C596.732 154.44 595.356 158.6 592.604 161.544C589.852 164.488 585.884 165.96 580.7 165.96ZM580.7 156.36C584.348 156.36 586.172 154.152 586.172 149.736V113.064C586.172 108.648 584.348 106.44 580.7 106.44C577.052 106.44 575.228 108.648 575.228 113.064V149.736C575.228 154.152 577.052 156.36 580.7 156.36ZM611.755 107.4H600.715V97.8H633.355V107.4H622.315V165H611.755V107.4Z" fill="white"/>
<path d="M210.469 170.75C184.75 205.01 129.833 193.448 94.6146 195.104C94.6146 195.104 88.375 195.458 82.1042 196.49C82.1042 196.49 84.4792 195.479 87.5104 194.427C112.24 185.875 123.927 184.156 138.958 176.438C167.187 161.979 195.292 130.469 201.01 97.7396C190.26 129.219 157.573 156.313 127.812 167.313C107.448 174.833 70.6042 182.146 70.5937 182.146C70.0932 181.89 69.5966 181.626 69.1042 181.354C44.0521 169.167 43.3229 114.896 88.8333 97.4062C108.792 89.7396 127.865 93.9479 149.437 88.8125C172.437 83.3438 199.083 66.1042 209.906 43.5625C222.042 79.5833 236.625 135.917 210.469 170.75ZM210.906 32.4167C207.997 39.3932 204.273 46.0015 199.812 52.1042C190.116 42.1109 178.512 34.1668 165.688 28.7433C152.863 23.3197 139.08 20.5272 125.156 20.5313C67.625 20.5313 20.8333 67.3229 20.8333 124.844C20.8266 139.192 23.7892 153.386 29.5348 166.534C35.2804 179.681 43.6846 191.498 54.2187 201.24L56.5104 203.26C54.84 201.587 53.9025 199.319 53.904 196.955C53.9054 194.591 54.8458 192.324 56.5182 190.653C58.1907 188.982 60.4583 188.043 62.8225 188.044C65.1867 188.044 67.4539 188.984 69.1257 190.656C70.7974 192.327 71.7368 194.595 71.7373 196.959C71.7378 199.323 70.7993 201.591 69.1283 203.263C67.4572 204.935 65.1904 205.876 62.8262 205.877C60.462 205.879 58.194 204.941 56.5208 203.271L58.0729 204.646C76.8271 220.501 100.598 229.19 125.156 229.167C180.135 229.167 225.292 186.375 229.156 132.375C232.01 105.927 224.198 72.3438 210.906 32.4167Z" fill="white"/>
</svg>
