<svg width="650" height="250" viewBox="0 0 650 250" fill="none" xmlns="http://www.w3.org/2000/svg">
<rect width="650" height="250" fill="#52DD9F"/>
<rect width="250" height="250" fill="#3ECF8E"/>
<path d="M289.08 162.2C282.68 162.2 277.84 160.4 274.56 156.8C271.28 153.12 269.64 147.88 269.64 141.08V136.28H282.12V142.04C282.12 147.48 284.4 150.2 288.96 150.2C291.2 150.2 292.88 149.56 294 148.28C295.2 146.92 295.8 144.76 295.8 141.8C295.8 138.28 295 135.2 293.4 132.56C291.8 129.84 288.84 126.6 284.52 122.84C279.08 118.04 275.28 113.72 273.12 109.88C270.96 105.96 269.88 101.56 269.88 96.68C269.88 90.04 271.56 84.92 274.92 81.32C278.28 77.64 283.16 75.8 289.56 75.8C295.88 75.8 300.64 77.64 303.84 81.32C307.12 84.92 308.76 90.12 308.76 96.92V100.4H296.28V96.08C296.28 93.2 295.72 91.12 294.6 89.84C293.48 88.48 291.84 87.8 289.68 87.8C285.28 87.8 283.08 90.48 283.08 95.84C283.08 98.88 283.88 101.72 285.48 104.36C287.16 107 290.16 110.2 294.48 113.96C300 118.76 303.8 123.12 305.88 127.04C307.96 130.96 309 135.56 309 140.84C309 147.72 307.28 153 303.84 156.68C300.48 160.36 295.56 162.2 289.08 162.2ZM335.768 162.2C329.368 162.2 324.488 160.4 321.128 156.8C317.768 153.12 316.088 147.88 316.088 141.08V77H329.288V142.04C329.288 144.92 329.848 147 330.968 148.28C332.168 149.56 333.848 150.2 336.008 150.2C338.168 150.2 339.808 149.56 340.928 148.28C342.128 147 342.728 144.92 342.728 142.04V77H355.448V141.08C355.448 147.88 353.768 153.12 350.408 156.8C347.048 160.4 342.168 162.2 335.768 162.2ZM364.85 77H384.29C390.85 77 395.77 78.76 399.05 82.28C402.33 85.8 403.97 90.96 403.97 97.76V106.04C403.97 112.84 402.33 118 399.05 121.52C395.77 125.04 390.85 126.8 384.29 126.8H378.05V161H364.85V77ZM384.29 114.8C386.45 114.8 388.05 114.2 389.09 113C390.21 111.8 390.77 109.76 390.77 106.88V96.92C390.77 94.04 390.21 92 389.09 90.8C388.05 89.6 386.45 89 384.29 89H378.05V114.8H384.29ZM417.12 77H435L448.68 161H435.48L433.08 144.32V144.56H418.08L415.68 161H403.44L417.12 77ZM431.52 133.16L425.64 91.64H425.4L419.64 133.16H431.52ZM455.084 77H475.004C481.804 77 486.764 78.6 489.884 81.8C493.004 84.92 494.564 89.76 494.564 96.32V99.68C494.564 104 493.844 107.52 492.404 110.24C491.044 112.96 488.924 114.92 486.044 116.12V116.36C492.604 118.6 495.884 124.44 495.884 133.88V141.08C495.884 147.56 494.164 152.52 490.724 155.96C487.364 159.32 482.404 161 475.844 161H455.084V77ZM473.444 111.2C476.084 111.2 478.044 110.52 479.324 109.16C480.684 107.8 481.364 105.52 481.364 102.32V97.64C481.364 94.6 480.804 92.4 479.684 91.04C478.644 89.68 476.964 89 474.644 89H468.284V111.2H473.444ZM475.844 149C478.164 149 479.884 148.4 481.004 147.2C482.124 145.92 482.684 143.76 482.684 140.72V133.4C482.684 129.56 482.004 126.92 480.644 125.48C479.364 123.96 477.204 123.2 474.164 123.2H468.284V149H475.844ZM513.8 77H531.68L545.36 161H532.16L529.76 144.32V144.56H514.76L512.36 161H500.12L513.8 77ZM528.2 133.16L522.32 91.64H522.08L516.32 133.16H528.2ZM568.572 162.2C562.172 162.2 557.332 160.4 554.052 156.8C550.772 153.12 549.132 147.88 549.132 141.08V136.28H561.612V142.04C561.612 147.48 563.892 150.2 568.452 150.2C570.692 150.2 572.372 149.56 573.492 148.28C574.692 146.92 575.292 144.76 575.292 141.8C575.292 138.28 574.492 135.2 572.892 132.56C571.292 129.84 568.332 126.6 564.012 122.84C558.572 118.04 554.772 113.72 552.612 109.88C550.452 105.96 549.372 101.56 549.372 96.68C549.372 90.04 551.052 84.92 554.412 81.32C557.772 77.64 562.652 75.8 569.052 75.8C575.372 75.8 580.132 77.64 583.332 81.32C586.612 84.92 588.252 90.12 588.252 96.92V100.4H575.772V96.08C575.772 93.2 575.212 91.12 574.092 89.84C572.972 88.48 571.332 87.8 569.172 87.8C564.772 87.8 562.572 90.48 562.572 95.84C562.572 98.88 563.372 101.72 564.972 104.36C566.652 107 569.652 110.2 573.972 113.96C579.492 118.76 583.292 123.12 585.372 127.04C587.452 130.96 588.492 135.56 588.492 140.84C588.492 147.72 586.772 153 583.332 156.68C579.972 160.36 575.052 162.2 568.572 162.2ZM596.061 77H632.061V89H609.261V111.2H627.381V123.2H609.261V149H632.061V161H596.061V77Z" fill="white"/>
<g clip-path="url(#clip0_8_508)">
<path d="M144.45 236.179C138.574 243.578 126.661 239.524 126.519 230.076L124.449 91.8873H217.367C234.197 91.8873 243.583 111.326 233.118 124.507L144.45 236.179Z" fill="white"/>
<path d="M106.661 13.8216C112.537 6.42144 124.45 10.4762 124.592 19.9244L125.499 158.113H33.7442C16.9138 158.113 7.52711 138.674 17.9928 125.493L106.661 13.8216Z" fill="white"/>
</g>
<defs>
<clipPath id="clip0_8_508">
<rect width="230" height="230" fill="white" transform="translate(10 10)"/>
</clipPath>
</defs>
</svg>
