<svg width="650" height="250" viewBox="0 0 650 250" fill="none" xmlns="http://www.w3.org/2000/svg">
<rect width="650" height="250" fill="#4BB0F4"/>
<rect width="250" height="250" fill="#25A5FA"/>
<path d="M282.694 97.2H267.974V84.4H311.494V97.2H296.774V174H282.694V97.2ZM323.316 84.4H342.388L356.98 174H342.9L340.34 156.208V156.464H324.34L321.78 174H308.724L323.316 84.4ZM338.676 144.304L332.404 100.016H332.148L326.003 144.304H338.676ZM363.811 84.4H377.891V174H363.811V84.4ZM388.436 84.4H402.516V161.2H425.684V174H388.436V84.4ZM426.983 84.4H440.551L446.823 153.264H447.079L453.735 84.4H469.095L475.751 153.264H476.007L482.279 84.4H494.439L485.351 174H467.815L461.415 113.584H461.159L454.759 174H436.071L426.983 84.4ZM501.561 84.4H515.641V174H501.561V84.4ZM526.186 84.4H543.85L557.546 138.032H557.802V84.4H570.346V174H555.882L538.986 108.592H538.73V174H526.186V84.4ZM580.811 84.4H602.315C609.312 84.4 614.56 86.2773 618.059 90.032C621.557 93.7867 623.307 99.2907 623.307 106.544V151.856C623.307 159.109 621.557 164.613 618.059 168.368C614.56 172.123 609.312 174 602.315 174H580.811V84.4ZM602.059 161.2C604.363 161.2 606.112 160.517 607.307 159.152C608.587 157.787 609.227 155.568 609.227 152.496V105.904C609.227 102.832 608.587 100.613 607.307 99.248C606.112 97.8827 604.363 97.2 602.059 97.2H594.891V161.2H602.059Z" fill="white"/>
<g clip-path="url(#clip0_2005_2)">
<path d="M125 56.1836C94.3336 56.1836 75.1664 71.4764 67.5 102.061C79 86.7684 92.4164 81.0337 107.75 84.8571C116.498 87.0381 122.751 93.3687 129.673 100.375C140.948 111.79 153.997 125 182.5 125C213.166 125 232.334 109.707 240 79.1224C228.5 94.4153 215.084 100.15 199.75 96.3265C191.002 94.1456 184.749 87.815 177.827 80.8088C166.552 69.394 153.503 56.1836 125 56.1836ZM67.5 125C36.8336 125 17.6664 140.293 10 170.878C21.5 155.585 34.9164 149.85 50.25 153.674C58.9981 155.855 65.2512 162.185 72.1728 169.191C83.4482 180.606 96.4971 193.817 125 193.817C155.666 193.817 174.834 178.524 182.5 147.939C171 163.232 157.584 168.966 142.25 165.143C133.502 162.962 127.249 156.631 120.327 149.625C109.052 138.211 96.0029 125 67.5 125Z" fill="white"/>
</g>
<defs>
<clipPath id="clip0_2005_2">
<rect width="230" height="138" fill="white" transform="translate(10 56)"/>
</clipPath>
</defs>
</svg>
