<svg width="650" height="250" viewBox="0 0 650 250" fill="none" xmlns="http://www.w3.org/2000/svg">
<rect width="650" height="250" fill="#1F1F1F"/>
<rect width="250" height="250" fill="#050505"/>
<path d="M294.8 65H311.45L322.25 146.45H322.55L333.35 65H348.5L332.6 170H310.7L294.8 65ZM356.425 65H401.425V80H372.925V107.75H395.575V122.75H372.925V155H401.425V170H356.425V65ZM410.918 65H435.368C443.868 65 450.068 67 453.968 71C457.868 74.9 459.818 80.95 459.818 89.15V95.6C459.818 106.5 456.218 113.4 449.018 116.3V116.6C453.018 117.8 455.818 120.25 457.418 123.95C459.118 127.65 459.968 132.6 459.968 138.8V157.25C459.968 160.25 460.068 162.7 460.268 164.6C460.468 166.4 460.968 168.2 461.768 170H444.968C444.368 168.3 443.968 166.7 443.768 165.2C443.568 163.7 443.468 161 443.468 157.1V137.9C443.468 133.1 442.668 129.75 441.068 127.85C439.568 125.95 436.918 125 433.118 125H427.418V170H410.918V65ZM433.418 110C436.718 110 439.168 109.15 440.768 107.45C442.468 105.75 443.318 102.9 443.318 98.9V90.8C443.318 87 442.618 84.25 441.218 82.55C439.918 80.85 437.818 80 434.918 80H427.418V110H433.418ZM494.666 171.5C486.766 171.5 480.716 169.25 476.516 164.75C472.416 160.25 470.366 153.9 470.366 145.7V89.3C470.366 81.1 472.416 74.75 476.516 70.25C480.716 65.75 486.766 63.5 494.666 63.5C502.566 63.5 508.566 65.75 512.666 70.25C516.866 74.75 518.966 81.1 518.966 89.3V100.4H503.366V88.25C503.366 81.75 500.616 78.5 495.116 78.5C489.616 78.5 486.866 81.75 486.866 88.25V146.9C486.866 153.3 489.616 156.5 495.116 156.5C500.616 156.5 503.366 153.3 503.366 146.9V130.85H518.966V145.7C518.966 153.9 516.866 160.25 512.666 164.75C508.566 169.25 502.566 171.5 494.666 171.5ZM528.838 65H573.838V80H545.338V107.75H567.988V122.75H545.338V155H573.838V170H528.838V65ZM583.33 65H599.83V155H626.98V170H583.33V65Z" fill="white"/>
<path d="M124.969 24.375L239.938 223.509H10L124.969 24.375Z" fill="white"/>
</svg>
