<svg width="650" height="250" viewBox="0 0 650 250" fill="none" xmlns="http://www.w3.org/2000/svg">
<rect width="650" height="250" fill="#4CD137"/>
<rect width="250" height="250" fill="#44BD32"/>
<path d="M178.431 89.809L128.057 162.643C127.523 163.416 126.751 163.994 125.857 164.291C124.963 164.588 123.998 164.585 123.106 164.287C122.214 163.987 121.445 163.406 120.916 162.632C120.387 161.857 120.126 160.932 120.173 159.996L122.189 119.784L89.6418 112.882C88.9462 112.734 88.2981 112.418 87.7549 111.962C87.2117 111.505 86.79 110.922 86.5274 110.265C86.2648 109.607 86.1693 108.895 86.2493 108.191C86.3293 107.487 86.5823 106.814 86.986 106.23L137.361 33.3955C137.895 32.6228 138.667 32.0444 139.561 31.748C140.454 31.4515 141.42 31.453 142.312 31.7526C143.204 32.052 143.973 32.633 144.502 33.4074C145.031 34.1818 145.292 35.1072 145.245 36.0434L143.229 76.2559L175.776 83.1578C176.471 83.3052 177.119 83.6212 177.663 84.0776C178.207 84.5341 178.628 85.117 178.89 85.7748C179.153 86.4326 179.248 87.1449 179.168 87.8486C179.089 88.5524 178.835 89.2254 178.431 89.809Z" fill="#FBC531"/>
<path d="M125.678 223.751C124.338 223.752 123.012 223.49 121.774 222.977C120.536 222.464 119.412 221.712 118.465 220.764L70.8675 173.169C68.9633 171.255 67.896 168.664 67.8995 165.964C67.9031 163.264 68.9773 160.674 70.8867 158.765C72.796 156.856 75.3847 155.781 78.0849 155.777C80.7852 155.774 83.3768 156.84 85.2914 158.744L125.678 199.127L213.661 111.148C215.58 109.261 218.165 108.208 220.856 108.219C223.547 108.23 226.125 109.304 228.026 111.206C229.929 113.109 231.004 115.686 231.015 118.377C231.024 121.068 229.972 123.654 228.085 125.572L132.889 220.764C131.943 221.713 130.819 222.464 129.582 222.977C128.344 223.49 127.018 223.752 125.678 223.751Z" fill="white"/>
<path d="M125.637 223.751C126.977 223.752 128.304 223.49 129.542 222.977C130.78 222.464 131.904 221.712 132.85 220.764L180.448 173.169C182.352 171.255 183.42 168.664 183.416 165.964C183.413 163.264 182.338 160.674 180.429 158.765C178.519 156.856 175.93 155.781 173.23 155.777C170.53 155.774 167.939 156.84 166.024 158.744L125.637 199.127L37.6542 111.148C35.7362 109.261 33.1501 108.208 30.4596 108.219C27.7688 108.23 25.1914 109.304 23.2889 111.206C21.3862 113.109 20.3125 115.686 20.3016 118.377C20.2906 121.068 21.3433 123.654 23.2304 125.572L118.426 220.764C119.372 221.713 120.496 222.464 121.734 222.977C122.971 223.49 124.298 223.752 125.637 223.751Z" fill="white" fill-opacity="0.5"/>
<path d="M307.8 65H324.45L335.25 146.45H335.55L346.35 65H361.5L345.6 170H323.7L307.8 65ZM369.425 65H385.925V170H369.425V65ZM411.183 80H393.933V65H444.933V80H427.683V170H411.183V80ZM452.921 65H497.921V80H469.421V107.75H492.071V122.75H469.421V155H497.921V170H452.921V65ZM529.157 171.5C521.157 171.5 515.107 169.25 511.007 164.75C506.907 160.15 504.857 153.6 504.857 145.1V139.1H520.457V146.3C520.457 153.1 523.307 156.5 529.007 156.5C531.807 156.5 533.907 155.7 535.307 154.1C536.807 152.4 537.557 149.7 537.557 146C537.557 141.6 536.557 137.75 534.557 134.45C532.557 131.05 528.857 127 523.457 122.3C516.657 116.3 511.907 110.9 509.207 106.1C506.507 101.2 505.157 95.7 505.157 89.6C505.157 81.3 507.257 74.9 511.457 70.4C515.657 65.8 521.757 63.5 529.757 63.5C537.657 63.5 543.607 65.8 547.607 70.4C551.707 74.9 553.757 81.4 553.757 89.9V94.25H538.157V88.85C538.157 85.25 537.457 82.65 536.057 81.05C534.657 79.35 532.607 78.5 529.907 78.5C524.407 78.5 521.657 81.85 521.657 88.55C521.657 92.35 522.657 95.9 524.657 99.2C526.757 102.5 530.507 106.5 535.907 111.2C542.807 117.2 547.557 122.65 550.157 127.55C552.757 132.45 554.057 138.2 554.057 144.8C554.057 153.4 551.907 160 547.607 164.6C543.407 169.2 537.257 171.5 529.157 171.5ZM576.417 80H559.167V65H610.167V80H592.917V170H576.417V80Z" fill="white"/>
</svg>
