<svg width="650" height="250" viewBox="0 0 650 250" fill="none" xmlns="http://www.w3.org/2000/svg">
<rect width="650" height="250" fill="#9B59B6"/>
<rect width="250" height="250" fill="#8E44AD"/>
<path d="M366.8 78H383.45L394.25 159.45H394.55L405.35 78H420.5L404.6 183H382.7L366.8 78ZM428.425 78H444.925V183H428.425V78ZM470.183 93H452.933V78H503.933V93H486.683V183H470.183V93ZM511.921 78H556.921V93H528.421V120.75H551.071V135.75H528.421V168H556.921V183H511.921V78Z" fill="white"/>
<g clip-path="url(#clip0_8_277)">
<path d="M124.199 59.6128L124.199 59.6129C125.476 59.8408 126.783 59.8385 128.059 59.6063L128.06 59.6062L233.956 40.3291C234.195 40.2857 234.345 40.3217 234.451 40.3675C234.578 40.422 234.714 40.525 234.825 40.6793C234.935 40.8336 234.987 40.9945 234.998 41.1289C235.007 41.2407 234.993 41.3906 234.876 41.5995L126.834 234.555C126.504 235.145 125.649 235.15 125.313 234.562C125.312 234.561 125.312 234.561 125.312 234.561L15.1277 41.5813C15.0084 41.3723 14.9938 41.2223 15.0017 41.1106C15.0112 40.9762 15.0626 40.8146 15.1724 40.6592C15.2823 40.5038 15.4186 40.3999 15.5451 40.3447C15.6509 40.2986 15.8009 40.2616 16.041 40.3045C16.041 40.3045 16.041 40.3045 16.041 40.3045L124.199 59.6128Z" stroke="white" stroke-width="10"/>
<path d="M176.599 10.0566L96.6447 25.7037C95.3306 25.9609 94.3576 27.0732 94.2783 28.408L89.36 111.37C89.2443 113.324 91.0411 114.841 92.9507 114.401L115.211 109.27C117.294 108.79 119.176 110.622 118.748 112.714L112.134 145.059C111.689 147.236 113.736 149.098 115.864 148.452L129.613 144.28C131.745 143.634 133.793 145.5 133.342 147.679L122.832 198.485C122.174 201.663 126.407 203.396 128.172 200.672L129.351 198.852L194.502 68.9941C195.593 66.8198 193.712 64.3405 191.321 64.8014L168.407 69.2181C166.254 69.6327 164.422 67.63 165.03 65.5259L179.985 13.7469C180.594 11.6393 178.755 9.63483 176.599 10.0566Z" fill="#FFE563"/>
</g>
<defs>
<clipPath id="clip0_8_277">
<rect width="230" height="230" fill="white" transform="translate(10 10)"/>
</clipPath>
</defs>
</svg>
