<svg width="650" height="250" viewBox="0 0 650 250" fill="none" xmlns="http://www.w3.org/2000/svg">
<rect width="650" height="250" fill="#0C8BE0"/>
<rect width="250" height="250" fill="#007ACC"/>
<path d="M262.2 85H273.3L280.5 139.3H280.7L287.9 85H298L287.4 155H272.8L262.2 85ZM303.284 85H314.284V155H303.284V85ZM336.822 156C331.489 156 327.455 154.5 324.722 151.5C321.989 148.433 320.622 144.067 320.622 138.4V134.4H331.022V139.2C331.022 143.733 332.922 146 336.722 146C338.589 146 339.989 145.467 340.922 144.4C341.922 143.267 342.422 141.467 342.422 139C342.422 136.067 341.755 133.5 340.422 131.3C339.089 129.033 336.622 126.333 333.022 123.2C328.489 119.2 325.322 115.6 323.522 112.4C321.722 109.133 320.822 105.467 320.822 101.4C320.822 95.8667 322.222 91.6 325.022 88.6C327.822 85.5333 331.889 84 337.222 84C342.489 84 346.455 85.5333 349.122 88.6C351.855 91.6 353.222 95.9333 353.222 101.6V104.5H342.822V100.9C342.822 98.5 342.355 96.7667 341.422 95.7C340.489 94.5667 339.122 94 337.322 94C333.655 94 331.822 96.2333 331.822 100.7C331.822 103.233 332.489 105.6 333.822 107.8C335.222 110 337.722 112.667 341.322 115.8C345.922 119.8 349.089 123.433 350.822 126.7C352.555 129.967 353.422 133.8 353.422 138.2C353.422 143.933 351.989 148.333 349.122 151.4C346.322 154.467 342.222 156 336.822 156ZM375.729 156C370.396 156 366.329 154.5 363.529 151.5C360.729 148.433 359.329 144.067 359.329 138.4V85H370.329V139.2C370.329 141.6 370.796 143.333 371.729 144.4C372.729 145.467 374.129 146 375.929 146C377.729 146 379.096 145.467 380.029 144.4C381.029 143.333 381.529 141.6 381.529 139.2V85H392.129V138.4C392.129 144.067 390.729 148.433 387.929 151.5C385.129 154.5 381.062 156 375.729 156ZM408.268 85H423.168L434.568 155H423.568L421.568 141.1V141.3H409.068L407.068 155H396.868L408.268 85ZM420.268 131.8L415.368 97.2H415.168L410.368 131.8H420.268ZM439.905 85H450.905V145H469.005V155H439.905V85ZM505.795 156C500.529 156 496.495 154.5 493.695 151.5C490.962 148.5 489.595 144.267 489.595 138.8V101.2C489.595 95.7333 490.962 91.5 493.695 88.5C496.495 85.5 500.529 84 505.795 84C511.062 84 515.062 85.5 517.795 88.5C520.595 91.5 521.995 95.7333 521.995 101.2V108.6H511.595V100.5C511.595 96.1667 509.762 94 506.095 94C502.429 94 500.595 96.1667 500.595 100.5V139.6C500.595 143.867 502.429 146 506.095 146C509.762 146 511.595 143.867 511.595 139.6V128.9H521.995V138.8C521.995 144.267 520.595 148.5 517.795 151.5C515.062 154.5 511.062 156 505.795 156ZM544.672 156C539.272 156 535.139 154.467 532.272 151.4C529.405 148.333 527.972 144 527.972 138.4V101.6C527.972 96 529.405 91.6667 532.272 88.6C535.139 85.5333 539.272 84 544.672 84C550.072 84 554.205 85.5333 557.072 88.6C559.939 91.6667 561.372 96 561.372 101.6V138.4C561.372 144 559.939 148.333 557.072 151.4C554.205 154.467 550.072 156 544.672 156ZM544.672 146C548.472 146 550.372 143.7 550.372 139.1V100.9C550.372 96.3 548.472 94 544.672 94C540.872 94 538.972 96.3 538.972 100.9V139.1C538.972 143.7 540.872 146 544.672 146ZM568.811 85H585.611C591.078 85 595.178 86.4667 597.911 89.4C600.644 92.3333 602.011 96.6333 602.011 102.3V137.7C602.011 143.367 600.644 147.667 597.911 150.6C595.178 153.533 591.078 155 585.611 155H568.811V85ZM585.411 145C587.211 145 588.578 144.467 589.511 143.4C590.511 142.333 591.011 140.6 591.011 138.2V101.8C591.011 99.4 590.511 97.6667 589.511 96.6C588.578 95.5333 587.211 95 585.411 95H579.811V145H585.411ZM609.436 85H639.436V95H620.436V113.5H635.536V123.5H620.436V145H639.436V155H609.436V85Z" fill="white"/>
<g clip-path="url(#clip0_8_569)">
<mask id="mask0_8_569" style="mask-type:luminance" maskUnits="userSpaceOnUse" x="10" y="10" width="230" height="230">
<path d="M240 10H10V240H240V10Z" fill="white"/>
</mask>
<g mask="url(#mask0_8_569)">
<g filter="url(#filter0_d_8_569)">
<mask id="mask1_8_569" style="mask-type:alpha" maskUnits="userSpaceOnUse" x="10" y="10" width="230" height="230">
<path fill-rule="evenodd" clip-rule="evenodd" d="M173.097 239.017C176.72 240.435 180.85 240.345 184.507 238.576L231.859 215.673C236.835 213.268 240 208.206 240 202.652V47.3502C240 41.7969 236.835 36.7348 231.859 34.3281L184.507 11.4239C179.708 9.10302 174.093 9.67136 169.881 12.7491C169.28 13.1886 168.706 13.6797 168.169 14.2206L77.5167 97.353L38.0306 67.2241C34.3549 64.4197 29.2134 64.6495 25.7996 67.771L13.1349 79.3508C8.95901 83.1693 8.95446 89.7726 13.1246 93.5973L47.3683 125L13.1246 156.403C8.95446 160.228 8.95901 166.832 13.1349 170.65L25.7996 182.23C29.2134 185.351 34.3549 185.582 38.0306 182.776L77.5167 152.648L168.169 235.78C169.603 237.223 171.287 238.309 173.097 239.017ZM182.535 72.5171L113.751 125L182.535 177.484V72.5171Z" fill="white"/>
</mask>
<g mask="url(#mask1_8_569)">
<path d="M231.861 34.364L184.47 11.4281C178.985 8.77322 172.429 9.89306 168.125 14.2204L12.9862 156.403C8.81336 160.228 8.81815 166.831 12.9965 170.65L25.6688 182.229C29.0847 185.351 34.2294 185.58 37.9071 182.776L224.729 40.3141C230.996 35.5347 240 40.0282 240 47.9361V47.3832C240 41.8321 236.835 36.7721 231.861 34.364Z" fill="white"/>
<g filter="url(#filter1_d_8_569)">
<path d="M231.861 215.637L184.47 238.573C178.985 241.228 172.429 240.108 168.125 235.78L12.9862 93.5968C8.81336 89.7726 8.81815 83.1689 12.9965 79.3506L25.6688 67.7708C29.0847 64.6493 34.2294 64.4195 37.9071 67.2241L224.729 209.686C230.996 214.467 240 209.973 240 202.064V202.618C240 208.169 236.835 213.229 231.861 215.637Z" fill="white"/>
</g>
<g filter="url(#filter2_d_8_569)">
<path d="M184.473 238.576C178.986 241.231 172.43 240.108 168.125 235.78C173.43 241.111 182.5 237.335 182.5 229.795V20.2053C182.5 12.6646 173.43 8.888 168.125 14.2204C172.43 9.89249 178.986 8.7712 184.473 11.4237L231.854 34.3278C236.833 36.7345 240 41.7966 240 47.35V202.652C240 208.205 236.833 213.265 231.854 215.673L184.473 238.576Z" fill="white"/>
</g>
</g>
</g>
</g>
</g>
<defs>
<filter id="filter0_d_8_569" x="3.75" y="5.83333" width="242.5" height="242.5" filterUnits="userSpaceOnUse" color-interpolation-filters="sRGB">
<feFlood flood-opacity="0" result="BackgroundImageFix"/>
<feColorMatrix in="SourceAlpha" type="matrix" values="0 0 0 0 0 0 0 0 0 0 0 0 0 0 0 0 0 0 127 0" result="hardAlpha"/>
<feOffset dy="2.08333"/>
<feGaussianBlur stdDeviation="3.125"/>
<feColorMatrix type="matrix" values="0 0 0 0 0 0 0 0 0 0 0 0 0 0 0 0 0 0 0.15 0"/>
<feBlend mode="normal" in2="BackgroundImageFix" result="effect1_dropShadow_8_569"/>
<feBlend mode="normal" in="SourceGraphic" in2="effect1_dropShadow_8_569" result="shape"/>
</filter>
<filter id="filter1_d_8_569" x="1.52631" y="56.9323" width="246.807" height="191.401" filterUnits="userSpaceOnUse" color-interpolation-filters="sRGB">
<feFlood flood-opacity="0" result="BackgroundImageFix"/>
<feColorMatrix in="SourceAlpha" type="matrix" values="0 0 0 0 0 0 0 0 0 0 0 0 0 0 0 0 0 0 127 0" result="hardAlpha"/>
<feOffset/>
<feGaussianBlur stdDeviation="4.16667"/>
<feColorMatrix type="matrix" values="0 0 0 0 0 0 0 0 0 0 0 0 0 0 0 0 0 0 0.25 0"/>
<feBlend mode="overlay" in2="BackgroundImageFix" result="effect1_dropShadow_8_569"/>
<feBlend mode="normal" in="SourceGraphic" in2="effect1_dropShadow_8_569" result="shape"/>
</filter>
<filter id="filter2_d_8_569" x="159.792" y="1.66642" width="88.5417" height="246.668" filterUnits="userSpaceOnUse" color-interpolation-filters="sRGB">
<feFlood flood-opacity="0" result="BackgroundImageFix"/>
<feColorMatrix in="SourceAlpha" type="matrix" values="0 0 0 0 0 0 0 0 0 0 0 0 0 0 0 0 0 0 127 0" result="hardAlpha"/>
<feOffset/>
<feGaussianBlur stdDeviation="4.16667"/>
<feColorMatrix type="matrix" values="0 0 0 0 0 0 0 0 0 0 0 0 0 0 0 0 0 0 0.25 0"/>
<feBlend mode="overlay" in2="BackgroundImageFix" result="effect1_dropShadow_8_569"/>
<feBlend mode="normal" in="SourceGraphic" in2="effect1_dropShadow_8_569" result="shape"/>
</filter>
<clipPath id="clip0_8_569">
<rect width="230" height="230" fill="white" transform="translate(10 10)"/>
</clipPath>
</defs>
</svg>
