<svg width="650" height="250" viewBox="0 0 650 250" fill="none" xmlns="http://www.w3.org/2000/svg">
<rect width="650" height="250" fill="#1ABC9C"/>
<rect width="250" height="250" fill="#16A085"/>
<path d="M125.36 237.997L10 39H97.9624L125.36 83.7022L152.038 39H240L125.36 237.997Z" stroke="white" stroke-width="10" stroke-linejoin="round"/>
<path d="M125 156.211L60 44H98.3158L125 85.7368L150.316 44H190L125 156.211Z" fill="white" stroke="white"/>
<path d="M376.8 78H393.45L404.25 159.45H404.55L415.35 78H430.5L414.6 183H392.7L376.8 78ZM462.425 184.5C454.425 184.5 448.325 182.25 444.125 177.75C439.925 173.15 437.825 166.6 437.825 158.1V78H454.325V159.3C454.325 162.9 455.025 165.5 456.425 167.1C457.925 168.7 460.025 169.5 462.725 169.5C465.425 169.5 467.475 168.7 468.875 167.1C470.375 165.5 471.125 162.9 471.125 159.3V78H487.025V158.1C487.025 166.6 484.925 173.15 480.725 177.75C476.525 182.25 470.425 184.5 462.425 184.5ZM498.777 78H543.777V93H515.277V120.75H537.927V135.75H515.277V168H543.777V183H498.777V78Z" fill="white"/>
</svg>
