<svg width="650" height="250" viewBox="0 0 650 250" fill="none" xmlns="http://www.w3.org/2000/svg">
<rect width="650" height="250" fill="#5DC998"/>
<rect width="250" height="250" fill="#4FC08D"/>
<path d="M336.125 65H352.775L363.575 146.45H363.875L374.675 65H389.825L373.925 170H352.025L336.125 65ZM421.751 171.5C413.751 171.5 407.651 169.25 403.451 164.75C399.251 160.15 397.151 153.6 397.151 145.1V65H413.651V146.3C413.651 149.9 414.351 152.5 415.751 154.1C417.251 155.7 419.351 156.5 422.051 156.5C424.751 156.5 426.801 155.7 428.201 154.1C429.701 152.5 430.451 149.9 430.451 146.3V65H446.351V145.1C446.351 153.6 444.251 160.15 440.051 164.75C435.851 169.25 429.751 171.5 421.751 171.5ZM458.102 65H503.102V80H474.602V107.75H497.252V122.75H474.602V155H503.102V170H458.102V65ZM527.437 116.3L509.287 65H526.687L537.787 98.9H538.087L549.487 65H565.087L546.937 116.3L565.987 170H548.587L536.587 133.4H536.287L523.987 170H508.387L527.437 116.3Z" fill="white"/>
<mask id="path-4-inside-1_13_2" fill="white">
<path d="M168.224 125.006C169.207 126.998 170.182 128.994 171.175 130.981C184.444 157.52 197.715 184.058 210.986 210.597C211.077 210.779 211.16 210.966 211.276 211.214C211.051 211.228 210.872 211.249 210.693 211.249C193.771 211.25 176.848 211.248 159.926 211.262C159.534 211.262 159.373 211.121 159.213 210.8C153.605 199.576 147.984 188.359 142.375 177.136C136.679 165.74 130.993 154.34 125.302 142.942C125.222 142.78 125.125 142.627 124.994 142.396C124.852 142.662 124.744 142.853 124.646 143.049C123.077 146.177 121.509 149.305 119.943 152.434C118.26 155.798 116.585 159.166 114.897 162.528C113.411 165.487 111.9 168.434 110.422 171.397C103.877 184.52 97.3381 197.647 90.8064 210.777C90.6349 211.121 90.4523 211.261 90.0464 211.261C73.1433 211.248 56.2402 211.25 39.3371 211.25H38.7023C39.3999 209.84 40.0514 208.508 40.7142 207.183C54.3725 179.869 68.0321 152.556 81.6912 125.243C81.7163 125.192 81.7376 125.14 81.8019 125.027C81.9668 124.751 82.1019 124.542 82.2124 124.321C90.5729 107.604 98.9311 90.8861 107.294 74.1704C107.419 73.9203 107.601 73.6987 107.757 73.4639C107.908 73.6762 108.09 73.8729 108.205 74.1032C113.688 85.0498 119.166 95.9994 124.643 106.949C124.75 107.161 124.846 107.378 124.981 107.664C125.125 107.386 125.246 107.156 125.362 106.924C130.874 95.912 136.385 84.9 141.899 73.8894C141.971 73.7454 142.074 73.6168 142.239 73.4885C142.449 73.7258 142.597 73.9493 142.716 74.187C151.069 90.8867 159.419 107.588 167.774 124.287C167.9 124.539 168.073 124.767 168.224 125.006Z"/>
</mask>
<path d="M168.224 125.006L181.674 118.366L181.326 117.66L180.905 116.995L168.224 125.006ZM171.175 130.981L157.758 137.688L157.758 137.688L171.175 130.981ZM210.986 210.597L224.402 203.888L224.402 203.888L210.986 210.597ZM211.276 211.214L212.215 226.184L234.231 224.804L224.854 204.837L211.276 211.214ZM210.693 211.249V196.249H210.692L210.693 211.249ZM159.926 211.262L159.914 196.262H159.913L159.926 211.262ZM159.213 210.8L145.794 217.504L145.795 217.506L159.213 210.8ZM142.375 177.136L155.792 170.43L155.792 170.429L142.375 177.136ZM125.302 142.942L138.723 136.241L138.721 136.238L125.302 142.942ZM124.994 142.396L138.045 135.001L124.617 111.303L111.768 135.32L124.994 142.396ZM124.646 143.049L111.237 136.325L111.237 136.325L124.646 143.049ZM119.943 152.434L106.528 145.723L106.528 145.723L119.943 152.434ZM114.897 162.528L128.302 169.259L128.302 169.259L114.897 162.528ZM110.422 171.397L96.9986 164.702L96.9985 164.702L110.422 171.397ZM90.8064 210.777L104.235 217.46L104.236 217.457L90.8064 210.777ZM90.0464 211.261L90.0592 196.261H90.0575L90.0464 211.261ZM38.7023 211.25L25.2566 204.601L14.5502 226.25H38.7023V211.25ZM40.7142 207.183L54.1301 213.892L54.1303 213.892L40.7142 207.183ZM81.6912 125.243L95.1072 131.952L95.1105 131.945L95.1138 131.939L81.6912 125.243ZM81.8019 125.027L68.9225 117.338L68.8411 117.475L68.7627 117.612L81.8019 125.027ZM82.2124 124.321L68.7967 117.611L68.7946 117.616L82.2124 124.321ZM107.294 74.1704L93.8812 67.4548L93.8791 67.459L107.294 74.1704ZM107.757 73.4639L119.983 64.7741L107.323 46.9612L95.2526 65.1787L107.757 73.4639ZM108.205 74.1032L121.617 67.3853L121.616 67.3842L108.205 74.1032ZM124.643 106.949L111.228 113.66L111.229 113.66L124.643 106.949ZM124.981 107.664L111.414 114.061L124.389 141.582L138.317 114.531L124.981 107.664ZM125.362 106.924L111.949 100.21L111.947 100.213L125.362 106.924ZM141.899 73.8894L128.487 67.1726L128.486 67.173L141.899 73.8894ZM142.239 73.4885L153.454 63.5281L144.12 53.0173L133.026 61.6509L142.239 73.4885ZM142.716 74.187L156.131 67.4767L156.131 67.4762L142.716 74.187ZM167.774 124.287L181.19 117.579L181.188 117.575L167.774 124.287ZM154.773 131.646C155.716 133.556 156.744 135.659 157.758 137.688L184.592 124.273C183.619 122.328 182.698 120.439 181.674 118.366L154.773 131.646ZM157.758 137.688C171.028 164.228 184.3 190.767 197.57 217.305L224.402 203.888C211.131 177.349 197.86 150.812 184.591 124.273L157.758 137.688ZM197.569 217.305C197.518 217.202 197.49 217.139 197.519 217.204C197.526 217.217 197.534 217.234 197.545 217.258C197.554 217.279 197.57 217.313 197.584 217.343C197.614 217.408 197.654 217.494 197.699 217.59L224.854 204.837C224.841 204.81 224.826 204.778 224.805 204.733C224.791 204.702 224.752 204.618 224.724 204.557C224.66 204.421 224.545 204.174 224.402 203.888L197.569 217.305ZM210.338 196.243C210.177 196.253 210.042 196.263 209.963 196.269C209.931 196.272 209.883 196.276 209.876 196.276C209.858 196.278 209.859 196.277 209.868 196.277C209.883 196.276 209.976 196.269 210.108 196.263C210.245 196.256 210.446 196.249 210.693 196.249V226.249C211.341 226.249 211.867 226.211 212.066 226.196C212.123 226.192 212.173 226.188 212.203 226.186C212.245 226.182 212.248 226.182 212.267 226.181C212.291 226.179 212.263 226.181 212.215 226.184L210.338 196.243ZM210.692 196.249C193.774 196.25 176.843 196.248 159.914 196.262L159.938 226.262C176.854 226.248 193.768 226.25 210.694 226.249L210.692 196.249ZM159.913 196.262C161.477 196.26 164.72 196.54 168.004 198.807C171.029 200.895 172.339 203.511 172.63 204.094L145.795 217.506C146.247 218.41 147.718 221.257 150.961 223.496C154.464 225.914 157.983 226.264 159.939 226.262L159.913 196.262ZM172.631 204.096C167.037 192.898 161.378 181.606 155.792 170.43L128.957 183.842C134.59 195.112 140.173 206.254 145.794 217.504L172.631 204.096ZM155.792 170.429C150.098 159.037 144.418 147.649 138.723 136.241L111.882 149.643C117.568 161.031 123.26 172.444 128.957 183.842L155.792 170.429ZM138.721 136.238C138.47 135.736 138.241 135.338 138.152 135.186C138.127 135.143 138.104 135.103 138.09 135.078C138.072 135.047 138.065 135.035 138.055 135.018C138.04 134.992 138.04 134.992 138.045 135.001L111.943 149.79C112.014 149.915 112.075 150.021 112.118 150.093C112.137 150.126 112.157 150.162 112.166 150.177C112.172 150.187 112.176 150.193 112.179 150.198C112.181 150.203 112.182 150.205 112.182 150.204C112.182 150.204 112.174 150.19 112.161 150.167C112.148 150.144 112.127 150.108 112.102 150.061C112.05 149.968 111.973 149.825 111.884 149.646L138.721 136.238ZM111.768 135.32C111.752 135.35 111.733 135.384 111.708 135.431C111.691 135.462 111.642 135.552 111.608 135.614C111.532 135.756 111.392 136.016 111.237 136.325L138.054 149.772C137.997 149.886 137.961 149.951 137.998 149.882C138.006 149.868 138.016 149.85 138.03 149.824C138.042 149.801 138.061 149.766 138.079 149.734C138.117 149.664 138.165 149.574 138.22 149.472L111.768 135.32ZM111.237 136.325C109.669 139.452 108.098 142.586 106.528 145.723L133.358 159.146C134.92 156.023 136.486 152.901 138.055 149.772L111.237 136.325ZM106.528 145.723C104.82 149.136 103.177 152.441 101.492 155.798L128.302 169.259C129.992 165.892 131.7 162.46 133.358 159.146L106.528 145.723ZM101.492 155.797C100.128 158.514 98.4443 161.803 96.9986 164.702L123.845 178.091C125.355 175.064 126.694 172.461 128.302 169.259L101.492 155.797ZM96.9985 164.702C90.4511 177.83 83.9104 190.961 77.3764 204.096L104.236 217.457C110.766 204.332 117.302 191.21 123.845 178.091L96.9985 164.702ZM77.3774 204.093C77.7827 203.279 79.1539 200.681 82.2306 198.643C85.4617 196.502 88.5974 196.26 90.0592 196.261L90.0337 226.261C91.9013 226.262 95.3313 225.95 98.7979 223.653C102.11 221.459 103.659 218.619 104.235 217.46L77.3774 204.093ZM90.0575 196.261C73.1474 196.248 56.2377 196.25 39.3371 196.25V226.25C56.2427 226.25 73.1391 226.248 90.0354 226.261L90.0575 196.261ZM39.3371 196.25H38.7023V226.25H39.3371V196.25ZM52.1479 217.899C52.8825 216.414 53.4857 215.181 54.1301 213.892L27.2983 200.474C26.6172 201.836 25.9172 203.265 25.2566 204.601L52.1479 217.899ZM54.1303 213.892C67.7885 186.578 81.4479 159.266 95.1072 131.952L68.2753 118.534C54.6163 145.847 40.9565 173.16 27.2981 200.474L54.1303 213.892ZM95.1138 131.939C95.1581 131.85 95.1938 131.776 95.2165 131.729C95.2371 131.686 95.2553 131.648 95.2557 131.647C95.2643 131.629 95.2294 131.703 95.1849 131.793C95.1355 131.893 95.0788 132.005 95.0154 132.124C94.9533 132.242 94.8946 132.348 94.841 132.442L68.7627 117.612C68.5814 117.931 68.4223 118.233 68.2788 118.524C68.2178 118.648 68.1688 118.751 68.1644 118.761C68.1465 118.798 68.2013 118.682 68.2687 118.547L95.1138 131.939ZM94.6812 132.716C94.6898 132.702 94.7017 132.682 94.741 132.618C94.7702 132.569 94.84 132.455 94.9116 132.335C95.0568 132.091 95.3335 131.62 95.6302 131.026L68.7946 117.616C68.891 117.423 68.9754 117.267 69.0356 117.16C69.0938 117.056 69.1357 116.985 69.1435 116.972C69.148 116.965 69.148 116.965 69.1398 116.978C69.1305 116.994 69.1201 117.011 69.0991 117.045C69.0632 117.105 68.9964 117.214 68.9225 117.338L94.6812 132.716ZM95.6281 131.031C103.99 114.311 112.346 97.5964 120.709 80.8818L93.8791 67.459C85.5157 84.1758 77.1558 100.897 68.7967 117.611L95.6281 131.031ZM120.707 80.886C120.486 81.3274 120.279 81.6771 120.131 81.9158C119.985 82.15 119.869 82.3177 119.831 82.3727C119.81 82.402 119.799 82.4184 119.808 82.4058C119.812 82.3993 119.817 82.3923 119.829 82.3755C119.839 82.3613 119.855 82.3386 119.873 82.314C119.936 82.2252 120.087 82.0112 120.261 81.749L95.2526 65.1787C95.3486 65.0339 95.419 64.9357 95.4001 64.9623C95.3524 65.0296 95.4196 64.9348 95.3424 65.0435C95.3104 65.0886 95.2579 65.1628 95.1972 65.2502C94.9843 65.5564 94.426 66.3668 93.8812 67.4548L120.707 80.886ZM95.5303 82.1536C95.747 82.4584 95.9351 82.702 96.0045 82.7919C96.0242 82.8173 96.0421 82.8405 96.0521 82.8533C96.0645 82.8694 96.0676 82.8733 96.0702 82.8767C96.0752 82.8831 96.0525 82.8539 96.0185 82.8088C95.9543 82.7237 95.7858 82.498 95.5804 82.1862C95.3713 81.8686 95.0874 81.4072 94.7942 80.8221L121.616 67.3842C120.944 66.0424 120.221 65.0768 119.97 64.7447C119.861 64.6 119.698 64.3904 119.744 64.45C119.745 64.4504 119.751 64.4586 119.761 64.4718C119.771 64.4852 119.787 64.5059 119.807 64.5324C119.846 64.5841 119.908 64.6675 119.983 64.7741L95.5303 82.1536ZM94.7937 80.821C100.275 91.7636 105.751 102.71 111.228 113.66L138.059 100.238C132.581 89.2891 127.102 78.336 121.617 67.3853L94.7937 80.821ZM111.229 113.66C111.188 113.579 111.169 113.538 111.208 113.62C111.231 113.67 111.244 113.698 111.286 113.787C111.32 113.861 111.364 113.955 111.414 114.061L138.549 101.267C138.496 101.155 138.489 101.139 138.395 100.938C138.325 100.787 138.205 100.531 138.058 100.238L111.229 113.66ZM138.317 114.531C138.37 114.428 138.612 113.965 138.777 113.635L111.947 100.213C111.88 100.346 111.879 100.344 111.645 100.798L138.317 114.531ZM138.776 113.638C144.288 102.625 149.798 91.6149 155.311 80.6057L128.486 67.173C122.972 78.1852 117.46 89.1989 111.949 100.21L138.776 113.638ZM155.311 80.6061C154.852 81.5219 154.267 82.4365 153.542 83.3038C152.83 84.1563 152.101 84.8204 151.451 85.3261L133.026 61.6509C131.253 63.0308 129.644 64.8609 128.487 67.1726L155.311 80.6061ZM131.023 83.4489C130.372 82.7154 129.776 81.8484 129.301 80.8978L156.131 67.4762C155.418 66.0502 154.527 64.7363 153.454 63.5281L131.023 83.4489ZM129.301 80.8972C137.652 97.5932 146.004 114.299 154.359 130.998L181.188 117.575C172.834 100.876 164.486 84.1802 156.131 67.4767L129.301 80.8972ZM154.357 130.995C154.817 131.914 155.273 132.614 155.458 132.895C155.509 132.973 155.555 133.041 155.584 133.084C155.648 133.181 155.599 133.107 155.64 133.168C155.662 133.201 155.612 133.128 155.542 133.017L180.905 116.995C180.76 116.764 180.632 116.573 180.575 116.488C180.559 116.464 180.545 116.443 180.535 116.428C180.524 116.411 180.518 116.403 180.513 116.395C180.502 116.379 180.508 116.388 180.521 116.408C180.545 116.444 180.63 116.574 180.741 116.759C180.854 116.948 181.014 117.227 181.19 117.579L154.357 130.995Z" fill="white" mask="url(#path-4-inside-1_13_2)"/>
<path d="M168.233 124.965C168.073 124.767 167.9 124.539 167.774 124.287C159.419 107.588 151.069 90.8868 142.716 74.1872C142.597 73.9494 142.449 73.726 142.279 73.4772C142.304 73.2338 142.329 72.9913 142.431 72.7869C148.001 61.6323 153.581 50.4822 159.142 39.3234C159.364 38.8792 159.612 38.7385 160.099 38.7392C171.749 38.7534 183.399 38.7502 195.048 38.7502H211.274C211.136 39.0539 211.051 39.259 210.952 39.4574C196.813 67.7388 182.673 96.0198 168.534 124.301C168.431 124.506 168.339 124.716 168.233 124.965ZM107.756 73.4198C107.601 73.6988 107.419 73.9204 107.294 74.1705C98.9311 90.8862 90.573 107.604 82.2125 124.321C82.1019 124.542 81.9668 124.751 81.8098 124.986C80.7986 123.019 79.8311 121.028 78.8413 119.048C65.5903 92.5383 52.3361 66.0302 39.0834 39.5216C38.9747 39.3043 38.8739 39.0834 38.7314 38.7844C39.0137 38.7704 39.2147 38.7514 39.4156 38.7514C56.26 38.7502 73.1043 38.7525 89.9487 38.7388C90.4255 38.7384 90.6479 38.9069 90.8517 39.3156C96.3838 50.4058 101.929 61.4892 107.467 72.5764C107.593 72.828 107.66 73.1086 107.756 73.4198Z" fill="white"/>
</svg>
